<?xml version="1.0" encoding="UTF-8" standalone="no"?>
<svg
   version="1.1"
   viewBox="0.0 0.0 821.0 113.0"
   fill="none"
   stroke="none"
   stroke-linecap="square"
   stroke-miterlimit="10"
   id="svg93"
   sodipodi:docname="grpcroute-basic-example.svg"
   inkscape:version="1.2.1 (9c6d41e410, 2022-07-14)"
   xmlns:inkscape="http://www.inkscape.org/namespaces/inkscape"
   xmlns:sodipodi="http://sodipodi.sourceforge.net/DTD/sodipodi-0.dtd"
   xmlns="http://www.w3.org/2000/svg"
   xmlns:svg="http://www.w3.org/2000/svg">
  <defs
     id="defs97">
    <rect
       x="360.04582"
       y="48.364364"
       width="94.937455"
       height="28.660364"
       id="rect1570" />
    <rect
       x="120.61236"
       y="43.587636"
       width="43.587636"
       height="15.524364"
       id="rect804" />
    <clipPath
       clipPathUnits="userSpaceOnUse"
       id="clipPath492">
      <g
         id="g496">
        <path
           d="M 0,0 H 821 V 113 H 0 Z"
           clip-rule="nonzero"
           id="path494" />
      </g>
    </clipPath>
    <clipPath
       clipPathUnits="userSpaceOnUse"
       id="clipPath498">
      <g
         id="g502">
        <path
           d="M 0,0 H 821 V 113 H 0 Z"
           clip-rule="nonzero"
           id="path500" />
      </g>
    </clipPath>
    <clipPath
       clipPathUnits="userSpaceOnUse"
       id="clipPath504">
      <g
         id="g508">
        <path
           d="M 0,0 H 821 V 113 H 0 Z"
           clip-rule="nonzero"
           id="path506" />
      </g>
    </clipPath>
    <clipPath
       clipPathUnits="userSpaceOnUse"
       id="clipPath510">
      <g
         id="g514">
        <path
           d="M 0,0 H 821 V 113 H 0 Z"
           clip-rule="nonzero"
           id="path512" />
      </g>
    </clipPath>
    <clipPath
       clipPathUnits="userSpaceOnUse"
       id="clipPath516">
      <g
         id="g520">
        <path
           d="M 0,0 H 821 V 113 H 0 Z"
           clip-rule="nonzero"
           id="path518" />
      </g>
    </clipPath>
    <clipPath
       clipPathUnits="userSpaceOnUse"
       id="clipPath522">
      <g
         id="g526">
        <path
           d="M 0,0 H 821 V 113 H 0 Z"
           clip-rule="nonzero"
           id="path524" />
      </g>
    </clipPath>
    <clipPath
       clipPathUnits="userSpaceOnUse"
       id="clipPath528">
      <g
         id="g532">
        <path
           d="M 0,0 H 821 V 113 H 0 Z"
           clip-rule="nonzero"
           id="path530" />
      </g>
    </clipPath>
    <clipPath
       clipPathUnits="userSpaceOnUse"
       id="clipPath534">
      <g
         id="g538">
        <path
           d="M 0,0 H 821 V 113 H 0 Z"
           clip-rule="nonzero"
           id="path536" />
      </g>
    </clipPath>
    <clipPath
       clipPathUnits="userSpaceOnUse"
       id="clipPath540">
      <g
         id="g544">
        <path
           d="M 0,0 H 821 V 113 H 0 Z"
           clip-rule="nonzero"
           id="path542" />
      </g>
    </clipPath>
    <clipPath
       clipPathUnits="userSpaceOnUse"
       id="clipPath546">
      <g
         id="g550">
        <path
           d="M 0,0 H 821 V 113 H 0 Z"
           clip-rule="nonzero"
           id="path548" />
      </g>
    </clipPath>
    <clipPath
       clipPathUnits="userSpaceOnUse"
       id="clipPath552">
      <g
         id="g556">
        <path
           d="M 0,0 H 821 V 113 H 0 Z"
           clip-rule="nonzero"
           id="path554" />
      </g>
    </clipPath>
    <clipPath
       clipPathUnits="userSpaceOnUse"
       id="clipPath558">
      <g
         id="g562">
        <path
           d="M 0,0 H 821 V 113 H 0 Z"
           clip-rule="nonzero"
           id="path560" />
      </g>
    </clipPath>
    <clipPath
       clipPathUnits="userSpaceOnUse"
       id="clipPath564">
      <g
         id="g568">
        <path
           d="M 0,0 H 821 V 113 H 0 Z"
           clip-rule="nonzero"
           id="path566" />
      </g>
    </clipPath>
    <clipPath
       clipPathUnits="userSpaceOnUse"
       id="clipPath570">
      <g
         id="g574">
        <path
           d="M 0,0 H 821 V 113 H 0 Z"
           clip-rule="nonzero"
           id="path572" />
      </g>
    </clipPath>
    <clipPath
       clipPathUnits="userSpaceOnUse"
       id="clipPath576">
      <g
         id="g580">
        <path
           d="M 0,0 H 821 V 113 H 0 Z"
           clip-rule="nonzero"
           id="path578" />
      </g>
    </clipPath>
    <clipPath
       clipPathUnits="userSpaceOnUse"
       id="clipPath582">
      <g
         id="g586">
        <path
           d="M 0,0 H 821 V 113 H 0 Z"
           clip-rule="nonzero"
           id="path584" />
      </g>
    </clipPath>
    <clipPath
       clipPathUnits="userSpaceOnUse"
       id="clipPath588">
      <g
         id="g592">
        <path
           d="M 0,0 H 821 V 113 H 0 Z"
           clip-rule="nonzero"
           id="path590" />
      </g>
    </clipPath>
    <clipPath
       clipPathUnits="userSpaceOnUse"
       id="clipPath594">
      <g
         id="g598">
        <path
           d="M 0,0 H 821 V 113 H 0 Z"
           clip-rule="nonzero"
           id="path596" />
      </g>
    </clipPath>
    <clipPath
       clipPathUnits="userSpaceOnUse"
       id="clipPath600">
      <g
         id="g604">
        <path
           d="M 0,0 H 821 V 113 H 0 Z"
           clip-rule="nonzero"
           id="path602" />
      </g>
    </clipPath>
    <clipPath
       clipPathUnits="userSpaceOnUse"
       id="clipPath606">
      <g
         id="g610">
        <path
           d="M 0,0 H 821 V 113 H 0 Z"
           clip-rule="nonzero"
           id="path608" />
      </g>
    </clipPath>
    <clipPath
       clipPathUnits="userSpaceOnUse"
       id="clipPath612">
      <g
         id="g616">
        <path
           d="M 0,0 H 821 V 113 H 0 Z"
           clip-rule="nonzero"
           id="path614" />
      </g>
    </clipPath>
    <clipPath
       clipPathUnits="userSpaceOnUse"
       id="clipPath618">
      <g
         id="g622">
        <path
           d="M 0,0 H 821 V 113 H 0 Z"
           clip-rule="nonzero"
           id="path620" />
      </g>
    </clipPath>
    <clipPath
       clipPathUnits="userSpaceOnUse"
       id="clipPath624">
      <g
         id="g628">
        <path
           d="M 0,0 H 821 V 113 H 0 Z"
           clip-rule="nonzero"
           id="path626" />
      </g>
    </clipPath>
    <clipPath
       clipPathUnits="userSpaceOnUse"
       id="clipPath630">
      <g
         id="g634">
        <path
           d="M 0,0 H 821 V 113 H 0 Z"
           clip-rule="nonzero"
           id="path632" />
      </g>
    </clipPath>
    <clipPath
       clipPathUnits="userSpaceOnUse"
       id="clipPath636">
      <g
         id="g640">
        <path
           d="M 0,0 H 821 V 113 H 0 Z"
           clip-rule="nonzero"
           id="path638" />
      </g>
    </clipPath>
    <clipPath
       clipPathUnits="userSpaceOnUse"
       id="clipPath642">
      <g
         id="g646">
        <path
           d="M 0,0 H 821 V 113 H 0 Z"
           clip-rule="nonzero"
           id="path644" />
      </g>
    </clipPath>
    <clipPath
       clipPathUnits="userSpaceOnUse"
       id="clipPath648">
      <g
         id="g652">
        <path
           d="M 0,0 H 821 V 113 H 0 Z"
           clip-rule="nonzero"
           id="path650" />
      </g>
    </clipPath>
    <clipPath
       clipPathUnits="userSpaceOnUse"
       id="clipPath654">
      <g
         id="g658">
        <path
           d="M 0,0 H 821 V 113 H 0 Z"
           clip-rule="nonzero"
           id="path656" />
      </g>
    </clipPath>
    <clipPath
       clipPathUnits="userSpaceOnUse"
       id="clipPath660">
      <g
         id="g664">
        <path
           d="M 0,0 H 821 V 113 H 0 Z"
           clip-rule="nonzero"
           id="path662" />
      </g>
    </clipPath>
    <clipPath
       clipPathUnits="userSpaceOnUse"
       id="clipPath666">
      <g
         id="g670">
        <path
           d="M 0,0 H 821 V 113 H 0 Z"
           clip-rule="nonzero"
           id="path668" />
      </g>
    </clipPath>
    <clipPath
       clipPathUnits="userSpaceOnUse"
       id="clipPath672">
      <g
         id="g676">
        <path
           d="M 0,0 H 821 V 113 H 0 Z"
           clip-rule="nonzero"
           id="path674" />
      </g>
    </clipPath>
    <clipPath
       clipPathUnits="userSpaceOnUse"
       id="clipPath678">
      <g
         id="g682">
        <path
           d="M 0,0 H 821 V 113 H 0 Z"
           clip-rule="nonzero"
           id="path680" />
      </g>
    </clipPath>
    <clipPath
       clipPathUnits="userSpaceOnUse"
       id="clipPath684">
      <g
         id="g688">
        <path
           d="M 0,0 H 821 V 113 H 0 Z"
           clip-rule="nonzero"
           id="path686" />
      </g>
    </clipPath>
    <clipPath
       clipPathUnits="userSpaceOnUse"
       id="clipPath690">
      <g
         id="g694">
        <path
           d="M 0,0 H 821 V 113 H 0 Z"
           clip-rule="nonzero"
           id="path692" />
      </g>
    </clipPath>
    <clipPath
       clipPathUnits="userSpaceOnUse"
       id="clipPath696">
      <g
         id="g700">
        <path
           d="M 0,0 H 821 V 113 H 0 Z"
           clip-rule="nonzero"
           id="path698" />
      </g>
    </clipPath>
    <clipPath
       clipPathUnits="userSpaceOnUse"
       id="clipPath702">
      <g
         id="g706">
        <path
           d="M 0,0 H 821 V 113 H 0 Z"
           clip-rule="nonzero"
           id="path704" />
      </g>
    </clipPath>
    <clipPath
       clipPathUnits="userSpaceOnUse"
       id="clipPath708">
      <g
         id="g712">
        <path
           d="M 0,0 H 821 V 113 H 0 Z"
           clip-rule="nonzero"
           id="path710" />
      </g>
    </clipPath>
    <clipPath
       clipPathUnits="userSpaceOnUse"
       id="clipPath714">
      <g
         id="g718">
        <path
           d="M 0,0 H 821 V 113 H 0 Z"
           clip-rule="nonzero"
           id="path716" />
      </g>
    </clipPath>
    <clipPath
       clipPathUnits="userSpaceOnUse"
       id="clipPath720">
      <g
         id="g724">
        <path
           d="M 0,0 H 821 V 113 H 0 Z"
           clip-rule="nonzero"
           id="path722" />
      </g>
    </clipPath>
    <clipPath
       clipPathUnits="userSpaceOnUse"
       id="clipPath726">
      <g
         id="g730">
        <path
           d="M 0,0 H 821 V 113 H 0 Z"
           clip-rule="nonzero"
           id="path728" />
      </g>
    </clipPath>
    <clipPath
       clipPathUnits="userSpaceOnUse"
       id="clipPath732">
      <g
         id="g736">
        <path
           d="M 0,0 H 821 V 113 H 0 Z"
           clip-rule="nonzero"
           id="path734" />
      </g>
    </clipPath>
    <clipPath
       clipPathUnits="userSpaceOnUse"
       id="clipPath738">
      <g
         id="g742">
        <path
           d="M 0,0 H 821 V 113 H 0 Z"
           clip-rule="nonzero"
           id="path740" />
      </g>
    </clipPath>
    <clipPath
       clipPathUnits="userSpaceOnUse"
       id="clipPath744">
      <g
         id="g748">
        <path
           d="M 0,0 H 821 V 113 H 0 Z"
           clip-rule="nonzero"
           id="path746" />
      </g>
    </clipPath>
  </defs>
  <sodipodi:namedview
     id="namedview95"
     pagecolor="#ffffff"
     bordercolor="#000000"
     borderopacity="0.25"
     inkscape:showpageshadow="2"
     inkscape:pageopacity="0.0"
     inkscape:pagecheckerboard="0"
     inkscape:deskcolor="#d1d1d1"
     showgrid="false"
     inkscape:zoom="1.6747868"
     inkscape:cx="411.09709"
     inkscape:cy="56.723636"
     inkscape:window-width="2560"
     inkscape:window-height="1251"
     inkscape:window-x="0"
     inkscape:window-y="0"
     inkscape:window-maximized="1"
     inkscape:current-layer="svg93" />
  <path
     fill="#000000"
     fill-opacity="0"
     d="M 0,0 H 821 V 113 H 0 Z"
     fill-rule="evenodd"
     id="path5"
     clip-path="url(#clipPath744)" />
  <path
     fill="#1155cc"
     d="m 199.1693,28.55643 h 103.30708 v 66.4252 H 199.1693 Z"
     fill-rule="evenodd"
     id="path7"
     clip-path="url(#clipPath738)" />
  <path
     stroke="#1155cc"
     stroke-width="1"
     stroke-linejoin="round"
     stroke-linecap="butt"
     d="m 199.1693,28.55643 h 103.30708 v 66.4252 H 199.1693 Z"
     fill-rule="evenodd"
     id="path9"
     clip-path="url(#clipPath732)" />
  <path
     fill="#ffffff"
     d="m 220.01613,63.78278 v -2.25 h 5.8125 v 5.312496 q -0.84375,0.828125 -2.45313,1.453125 -1.60937,0.625 -3.25,0.625 -2.09375,0 -3.65625,-0.875 -1.5625,-0.890625 -2.34375,-2.515625 -0.78125,-1.640621 -0.78125,-3.562496 0,-2.09375 0.875,-3.703125 0.875,-1.625 2.5625,-2.5 1.28125,-0.65625 3.20313,-0.65625 2.48437,0 3.875,1.046875 1.40625,1.03125 1.79687,2.875 l -2.67187,0.5 q -0.28125,-0.984375 -1.0625,-1.546875 -0.78125,-0.578125 -1.9375,-0.578125 -1.78125,0 -2.82813,1.125 -1.03125,1.125 -1.03125,3.328125 0,2.374996 1.04688,3.562496 1.0625,1.1875 2.78125,1.1875 0.84375,0 1.6875,-0.328125 0.85937,-0.328125 1.46875,-0.8125 V 63.78278 Z m 10.19893,-1.8125 -2.32813,-0.421875 q 0.40625,-1.40625 1.35938,-2.078125 0.95312,-0.671875 2.84375,-0.671875 1.70312,0 2.54687,0.40625 0.84375,0.40625 1.17188,1.03125 0.34375,0.625 0.34375,2.28125 l -0.0156,2.999996 q 0,1.265625 0.10938,1.875 0.125,0.609375 0.46875,1.296875 h -2.53125 q -0.10938,-0.25 -0.25,-0.75 -0.0625,-0.234375 -0.0937,-0.3125 -0.65625,0.640625 -1.40625,0.96875 -0.73438,0.3125 -1.59375,0.3125 -1.48438,0 -2.34375,-0.8125 -0.85938,-0.8125 -0.85938,-2.046875 0,-0.828125 0.39063,-1.46875 0.39062,-0.640621 1.09375,-0.968746 0.70312,-0.34375 2.03125,-0.609375 1.79687,-0.328125 2.48437,-0.625 v -0.25 q 0,-0.75 -0.35937,-1.0625 -0.35938,-0.3125 -1.375,-0.3125 -0.6875,0 -1.07813,0.28125 -0.375,0.265625 -0.60937,0.9375 z m 3.42187,2.078121 q -0.48437,0.15625 -1.5625,0.390625 -1.0625,0.21875 -1.39062,0.4375 -0.5,0.359375 -0.5,0.90625 0,0.53125 0.40625,0.9375 0.40625,0.390625 1.01562,0.390625 0.70313,0 1.32813,-0.46875 0.46875,-0.34375 0.60937,-0.84375 0.0937,-0.328125 0.0937,-1.25 z m 9.4851,-5.031246 v 2.03125 h -1.75 v 3.906246 q 0,1.1875 0.0469,1.390625 0.0469,0.1875 0.21875,0.3125 0.1875,0.125 0.4375,0.125 0.35938,0 1.03125,-0.25 l 0.21875,2 q -0.89062,0.375 -2.01562,0.375 -0.70313,0 -1.26563,-0.234375 -0.54687,-0.234375 -0.8125,-0.59375 -0.25,-0.375 -0.34375,-1 -0.0937,-0.453125 -0.0937,-1.8125 v -4.218746 h -1.17187 v -2.03125 h 1.17187 V 57.09528 l 2.57813,-1.5 v 3.421875 z m 7.36892,6.593746 2.54688,0.421875 q -0.48438,1.40625 -1.54688,2.140625 -1.0625,0.734375 -2.65625,0.734375 -2.51562,0 -3.73437,-1.65625 -0.95313,-1.3125 -0.95313,-3.328121 0,-2.40625 1.25,-3.765625 1.26563,-1.359375 3.1875,-1.359375 2.15625,0 3.40625,1.421875 1.25,1.421875 1.1875,4.374996 h -6.40625 q 0.0312,1.140625 0.60938,1.78125 0.59375,0.625 1.48437,0.625 0.59375,0 1,-0.328125 0.42188,-0.328125 0.625,-1.0625 z m 0.15625,-2.593746 q -0.0312,-1.109375 -0.57812,-1.6875 -0.54688,-0.578125 -1.32813,-0.578125 -0.84375,0 -1.39062,0.609375 -0.54688,0.609375 -0.53125,1.65625 z m 6.42259,5.671871 -3.0625,-9.671871 h 2.48438 l 1.8125,6.343746 1.67187,-6.343746 h 2.46875 l 1.60938,6.343746 1.85937,-6.343746 h 2.51563 l -3.10938,9.671871 h -2.45312 l -1.67188,-6.218746 -1.64062,6.218746 z m 14.62082,-6.718746 -2.32812,-0.421875 q 0.40625,-1.40625 1.35937,-2.078125 0.95313,-0.671875 2.84375,-0.671875 1.70313,0 2.54688,0.40625 0.84375,0.40625 1.17187,1.03125 0.34375,0.625 0.34375,2.28125 l -0.0156,2.999996 q 0,1.265625 0.10937,1.875 0.125,0.609375 0.46875,1.296875 h -2.53125 q -0.10937,-0.25 -0.25,-0.75 -0.0625,-0.234375 -0.0937,-0.3125 -0.65625,0.640625 -1.40625,0.96875 -0.73437,0.3125 -1.59375,0.3125 -1.48437,0 -2.34375,-0.8125 -0.85937,-0.8125 -0.85937,-2.046875 0,-0.828125 0.39062,-1.46875 0.39063,-0.640621 1.09375,-0.968746 0.70313,-0.34375 2.03125,-0.609375 1.79688,-0.328125 2.48438,-0.625 v -0.25 q 0,-0.75 -0.35938,-1.0625 -0.35937,-0.3125 -1.375,-0.3125 -0.6875,0 -1.07812,0.28125 -0.375,0.265625 -0.60938,0.9375 z m 3.42188,2.078121 q -0.48438,0.15625 -1.5625,0.390625 -1.0625,0.21875 -1.39063,0.4375 -0.5,0.359375 -0.5,0.90625 0,0.53125 0.40625,0.9375 0.40625,0.390625 1.01563,0.390625 0.70312,0 1.32812,-0.46875 0.46875,-0.34375 0.60938,-0.84375 0.0937,-0.328125 0.0937,-1.25 z m 3.82883,-5.031246 h 2.71875 l 2.32812,6.859371 2.25,-6.859371 h 2.65625 l -3.42187,9.312496 -0.60938,1.6875 q -0.32812,0.84375 -0.64062,1.28125 -0.3125,0.453125 -0.70313,0.71875 -0.39062,0.28125 -0.96875,0.4375 -0.57812,0.15625 -1.3125,0.15625 -0.73437,0 -1.45312,-0.15625 l -0.21875,-2 q 0.59375,0.125 1.07812,0.125 0.89063,0 1.3125,-0.53125 0.4375,-0.515625 0.67188,-1.328125 z"
     fill-rule="nonzero"
     id="path11"
     clip-path="url(#clipPath726)" />
  <path
     fill="#000000"
     fill-opacity="0"
     d="M 85.531494,61.769028 H 199.16929"
     fill-rule="evenodd"
     id="path13"
     clip-path="url(#clipPath720)" />
  <path
     stroke="#000000"
     stroke-width="2"
     stroke-linejoin="round"
     stroke-linecap="butt"
     stroke-dasharray="2, 6"
     d="M 85.531494,61.769028 H 187.16929"
     fill-rule="evenodd"
     id="path15"
     clip-path="url(#clipPath714)" />
  <path
     fill="#000000"
     stroke="#000000"
     stroke-width="2"
     stroke-linecap="butt"
     d="m 187.1693,65.072495 9.07619,-3.303467 -9.07619,-3.303463 z"
     fill-rule="evenodd"
     id="path17"
     clip-path="url(#clipPath708)" />
  <path
     fill="#000000"
     fill-opacity="0"
     d="m 302.47638,61.769028 h 43.33859"
     fill-rule="evenodd"
     id="path19"
     clip-path="url(#clipPath702)" />
  <path
     stroke="#000000"
     stroke-width="2"
     stroke-linejoin="round"
     stroke-linecap="butt"
     d="m 302.47638,61.769028 h 31.33859"
     fill-rule="evenodd"
     id="path21"
     clip-path="url(#clipPath696)" />
  <path
     fill="#000000"
     stroke="#000000"
     stroke-width="2"
     stroke-linecap="butt"
     d="m 333.81497,65.072495 9.07617,-3.303467 -9.07617,-3.303463 z"
     fill-rule="evenodd"
     id="path23"
     clip-path="url(#clipPath690)" />
  <path
     fill="#d9d9d9"
     d="m 27.899902,43.32703 h 51.09812 v 0 c 6.693993,0 12.120544,8.256859 12.120544,18.442207 0,10.185345 -5.426552,18.442204 -12.120544,18.442204 h -51.09812 v 0 c -6.693993,0 -12.120544,-8.256859 -12.120544,-18.442204 0,-10.185349 5.426552,-18.442207 12.120544,-18.442207 z"
     fill-rule="evenodd"
     id="path25"
     clip-path="url(#clipPath684)" />
  <path
     stroke="#ffffff"
     stroke-width="1"
     stroke-linejoin="round"
     stroke-linecap="butt"
     d="m 27.899902,43.32703 h 51.09812 v 0 c 6.693993,0 12.120544,8.256859 12.120544,18.442207 0,10.185345 -5.426552,18.442204 -12.120544,18.442204 h -51.09812 v 0 c -6.693993,0 -12.120544,-8.256859 -12.120544,-18.442204 0,-10.185349 5.426552,-18.442207 12.120544,-18.442207 z"
     fill-rule="evenodd"
     id="path27"
     clip-path="url(#clipPath678)" />
  <path
     fill="#000000"
     d="m 39.219585,65.14236 1.609375,0.21875 q -0.265625,1.65625 -1.359375,2.609375 -1.078125,0.9375 -2.671875,0.9375 -1.984375,0 -3.1875,-1.296875 -1.203125,-1.296875 -1.203125,-3.71875 0,-1.578125 0.515625,-2.75 0.515625,-1.171875 1.578125,-1.75 1.0625,-0.59375 2.3125,-0.59375 1.578125,0 2.578125,0.796875 1,0.796875 1.28125,2.265625 l -1.59375,0.234375 q -0.234375,-0.96875 -0.8125,-1.453125 -0.578125,-0.5 -1.390625,-0.5 -1.234375,0 -2.015625,0.890625 -0.78125,0.890625 -0.78125,2.8125 0,1.953125 0.75,2.84375 0.75,0.875 1.953125,0.875 0.96875,0 1.609375,-0.59375 0.65625,-0.59375 0.828125,-1.828125 z m 2.96875,3.546875 V 55.32986 h 1.640625 v 13.359375 z m 4.191696,-11.46875 V 55.32986 h 1.640625 v 1.890625 z m 0,11.46875 V 59.01736 h 1.640625 v 9.671875 z m 10.769821,-3.109375 1.6875,0.203125 q -0.40625,1.484375 -1.484375,2.3125 -1.078125,0.8125 -2.765625,0.8125 -2.125,0 -3.375,-1.296875 -1.234375,-1.3125 -1.234375,-3.671875 0,-2.453125 1.25,-3.796875 1.265625,-1.34375 3.265625,-1.34375 1.9375,0 3.15625,1.328125 1.234375,1.3125 1.234375,3.703125 0,0.15625 0,0.4375 h -7.21875 q 0.09375,1.59375 0.90625,2.453125 0.8125,0.84375 2.015625,0.84375 0.90625,0 1.546875,-0.46875 0.640625,-0.484375 1.015625,-1.515625 z m -5.390625,-2.65625 h 5.40625 q -0.109375,-1.21875 -0.625,-1.828125 -0.78125,-0.953125 -2.03125,-0.953125 -1.125,0 -1.90625,0.765625 -0.765625,0.75 -0.84375,2.015625 z m 9.141342,5.765625 V 59.01736 h 1.46875 v 1.375 q 1.0625,-1.59375 3.078121,-1.59375 0.875,0 1.609375,0.3125 0.734375,0.3125 1.09375,0.828125 0.375,0.5 0.515625,1.203125 0.09375,0.453125 0.09375,1.59375 v 5.953125 H 67.119315 V 62.79861 q 0,-1 -0.203125,-1.484375 -0.1875,-0.5 -0.671875,-0.796875 -0.484375,-0.296875 -1.140625,-0.296875 -1.046875,0 -1.812496,0.671875 -0.75,0.65625 -0.75,2.515625 v 5.28125 z m 13.953838,-1.46875 0.234375,1.453125 q -0.6875,0.140625 -1.234375,0.140625 -0.890625,0 -1.390625,-0.28125 -0.484375,-0.28125 -0.6875,-0.734375 -0.203125,-0.46875 -0.203125,-1.9375 V 60.282985 H 70.370032 V 59.01736 h 1.203125 v -2.390625 l 1.625,-0.984375 v 3.375 h 1.65625 v 1.265625 h -1.65625 v 5.671875 q 0,0.6875 0.07813,0.890625 0.09375,0.203125 0.28125,0.328125 0.203125,0.109375 0.578125,0.109375 0.265625,0 0.71875,-0.0625 z"
     fill-rule="nonzero"
     id="path29"
     clip-path="url(#clipPath672)" />
  <path
     fill="#1155cc"
     d="M 345.82153,28.55643 H 467.5538 v 66.4252 H 345.82153 Z"
     fill-rule="evenodd"
     id="path31"
     clip-path="url(#clipPath666)" />
  <path
     stroke="#1155cc"
     stroke-width="1"
     stroke-linejoin="round"
     stroke-linecap="butt"
     d="M 345.82153,28.55643 H 467.5538 v 66.4252 H 345.82153 Z"
     fill-rule="evenodd"
     id="path33"
     clip-path="url(#clipPath660)" />
  <path
     fill="#d9d9d9"
     d="m 109.42257,42.04987 h 63.2441 v 18.456692 h -63.2441 z"
     fill-rule="evenodd"
     id="path37"
     clip-path="url(#clipPath648)" />
  <path
     stroke="#ffffff"
     stroke-width="1"
     stroke-linejoin="round"
     stroke-linecap="butt"
     d="m 109.42257,42.04987 h 63.2441 v 18.456692 h -63.2441 z"
     fill-rule="evenodd"
     id="path39"
     clip-path="url(#clipPath642)" />
  <path
     fill="#d9d9d9"
     d="m 109.42126,63.026245 h 63.2441 v 18.456696 h -63.2441 z"
     fill-rule="evenodd"
     id="path43"
     clip-path="url(#clipPath630)" />
  <path
     stroke="#ffffff"
     stroke-width="1"
     stroke-linejoin="round"
     stroke-linecap="butt"
     d="m 109.42126,63.026245 h 63.2441 v 18.456696 h -63.2441 z"
     fill-rule="evenodd"
     id="path45"
     clip-path="url(#clipPath624)" />
  <path
     fill="#000000"
     d="m 123.95911,75.99459 v -5.53125 h 0.84375 v 0.84375 q 0.32813,-0.59375 0.59375,-0.78125 0.28125,-0.1875 0.60938,-0.1875 0.46875,0 0.95312,0.3125 l -0.3125,0.859375 q -0.34375,-0.203125 -0.6875,-0.203125 -0.3125,0 -0.5625,0.1875 -0.23437,0.1875 -0.34375,0.515625 -0.15625,0.5 -0.15625,1.09375 v 2.890625 z m 7.3455,-1.78125 0.96875,0.125 q -0.23437,0.84375 -0.85937,1.3125 -0.60938,0.46875 -1.57813,0.46875 -1.20312,0 -1.92188,-0.75 -0.70313,-0.75 -0.70313,-2.09375 0,-1.390625 0.71875,-2.15625 0.71876,-0.78125 1.85939,-0.78125 1.10937,0 1.8125,0.765625 0.70312,0.75 0.70312,2.125 0,0.07813 0,0.234375 h -4.125 q 0.0469,0.921875 0.51563,1.40625 0.46875,0.484375 1.15625,0.484375 0.51562,0 0.875,-0.265625 0.35937,-0.28125 0.57812,-0.875 z m -3.07812,-1.515625 h 3.09375 q -0.0625,-0.6875 -0.35938,-1.046875 -0.45312,-0.53125 -1.15625,-0.53125 -0.64062,0 -1.09375,0.4375 -0.4375,0.421875 -0.48437,1.140625 z m 8.73899,5.421875 v -2.71875 q -0.21875,0.3125 -0.60937,0.515625 -0.39063,0.203125 -0.82813,0.203125 -0.98437,0 -1.70312,-0.78125 -0.70313,-0.796875 -0.70313,-2.15625 0,-0.828125 0.28125,-1.484375 0.29688,-0.671875 0.84375,-1.015625 0.54688,-0.34375 1.20313,-0.34375 1.03125,0 1.60937,0.875 v -0.75 h 0.84375 v 7.65625 z m -2.875,-4.90625 q 0,1.0625 0.4375,1.609375 0.45313,0.53125 1.07813,0.53125 0.59375,0 1.01562,-0.5 0.4375,-0.515625 0.4375,-1.546875 0,-1.109375 -0.45312,-1.65625 -0.45313,-0.5625 -1.0625,-0.5625 -0.60938,0 -1.03125,0.515625 -0.42188,0.515625 -0.42188,1.609375 z m 8.91088,2.78125 v -0.8125 q -0.65625,0.9375 -1.75,0.9375 -0.5,0 -0.92188,-0.1875 -0.42187,-0.1875 -0.625,-0.46875 -0.20312,-0.28125 -0.29687,-0.703125 -0.0469,-0.265625 -0.0469,-0.875 V 70.46334 h 0.9375 v 3.0625 q 0,0.734375 0.0469,1 0.0937,0.359375 0.375,0.578125 0.29687,0.203125 0.70312,0.203125 0.42188,0 0.79688,-0.203125 0.375,-0.21875 0.51562,-0.59375 0.15625,-0.375 0.15625,-1.078125 v -2.96875 h 0.9375 v 5.53125 z m 6.08275,-1.78125 0.96875,0.125 q -0.23438,0.84375 -0.85938,1.3125 -0.60937,0.46875 -1.57812,0.46875 -1.20313,0 -1.92188,-0.75 -0.70312,-0.75 -0.70312,-2.09375 0,-1.390625 0.71875,-2.15625 0.71875,-0.78125 1.85937,-0.78125 1.10938,0 1.8125,0.765625 0.70313,0.75 0.70313,2.125 0,0.07813 0,0.234375 h -4.125 q 0.0469,0.921875 0.51562,1.40625 0.46875,0.484375 1.15625,0.484375 0.51563,0 0.875,-0.265625 0.35938,-0.28125 0.57813,-0.875 z m -3.07813,-1.515625 h 3.09375 q -0.0625,-0.6875 -0.35937,-1.046875 -0.45313,-0.53125 -1.15625,-0.53125 -0.64063,0 -1.09375,0.4375 -0.4375,0.421875 -0.48438,1.140625 z m 4.84837,1.640625 0.92188,-0.140625 q 0.0781,0.5625 0.4375,0.859375 0.35937,0.296875 1,0.296875 0.64062,0 0.95312,-0.265625 0.3125,-0.265625 0.3125,-0.625 0,-0.3125 -0.28125,-0.5 -0.1875,-0.125 -0.95312,-0.3125 -1.03125,-0.265625 -1.4375,-0.453125 -0.39063,-0.1875 -0.59375,-0.515625 -0.20313,-0.34375 -0.20313,-0.75 0,-0.359375 0.17188,-0.671875 0.17187,-0.328125 0.45312,-0.53125 0.21875,-0.15625 0.59375,-0.265625 0.39063,-0.125 0.8125,-0.125 0.65625,0 1.14063,0.1875 0.5,0.1875 0.73437,0.515625 0.23438,0.3125 0.3125,0.859375 l -0.90625,0.125 q -0.0625,-0.4375 -0.375,-0.671875 -0.29687,-0.234375 -0.82812,-0.234375 -0.65625,0 -0.9375,0.21875 -0.26563,0.203125 -0.26563,0.484375 0,0.1875 0.10938,0.328125 0.125,0.15625 0.35937,0.25 0.14063,0.0625 0.82813,0.25 1,0.265625 1.39062,0.4375 0.39063,0.15625 0.60938,0.484375 0.23437,0.3125 0.23437,0.796875 0,0.46875 -0.28125,0.890625 -0.26562,0.40625 -0.78125,0.640625 -0.51562,0.21875 -1.17187,0.21875 -1.07813,0 -1.64063,-0.4375 -0.5625,-0.453125 -0.71875,-1.34375 z m 7.75,0.8125 0.125,0.828125 q -0.39062,0.09375 -0.70312,0.09375 -0.5,0 -0.78125,-0.15625 -0.28125,-0.171875 -0.40625,-0.4375 -0.10938,-0.265625 -0.10938,-1.109375 v -3.171875 h -0.6875 V 70.46334 h 0.6875 v -1.359375 l 0.9375,-0.5625 v 1.921875 h 0.9375 v 0.734375 h -0.9375 v 3.234375 q 0,0.390625 0.0469,0.515625 0.0469,0.109375 0.15625,0.1875 0.10937,0.0625 0.32812,0.0625 0.15625,0 0.40625,-0.04687 z"
     fill-rule="nonzero"
     id="path47"
     clip-path="url(#clipPath618)" />
  <path
     fill="#000000"
     fill-opacity="0"
     d="M 467.5538,61.769028 584.30969,60.918637"
     fill-rule="evenodd"
     id="path49"
     clip-path="url(#clipPath612)" />
  <path
     stroke="#000000"
     stroke-width="2"
     stroke-linejoin="round"
     stroke-linecap="butt"
     d="M 467.5538,61.769028 572.31006,61.006035"
     fill-rule="evenodd"
     id="path51"
     clip-path="url(#clipPath606)" />
  <path
     fill="#000000"
     stroke="#000000"
     stroke-width="2"
     stroke-linecap="butt"
     d="m 572.3341,64.30941 9.05188,-3.36948 -9.10004,-3.23727 z"
     fill-rule="evenodd"
     id="path53"
     clip-path="url(#clipPath600)" />
  <path
     fill="#d9d9d9"
     d="m 473.99738,52.540684 h 88.8819 v 18.456692 h -88.8819 z"
     fill-rule="evenodd"
     id="path55"
     clip-path="url(#clipPath594)" />
  <path
     stroke="#ffffff"
     stroke-width="1"
     stroke-linejoin="round"
     stroke-linecap="butt"
     d="m 473.99738,52.540684 h 88.8819 v 18.456692 h -88.8819 z"
     fill-rule="evenodd"
     id="path57"
     clip-path="url(#clipPath588)" />
  <path
     fill="#000000"
     d="M 490.55234,65.509026 V 57.88403 h 3.375 q 1.01563,0 1.54688,0.203125 0.53125,0.203125 0.84375,0.734375 0.32812,0.515625 0.32812,1.140625 0,0.8125 -0.53125,1.375 -0.51562,0.546875 -1.625,0.703125 0.40625,0.1875 0.60938,0.375 0.45312,0.40625 0.84375,1.015625 l 1.32812,2.078121 h -1.26562 l -1.01563,-1.593746 q -0.4375,-0.6875 -0.73437,-1.046875 -0.28125,-0.359375 -0.51563,-0.5 -0.21875,-0.15625 -0.45312,-0.203125 -0.17188,-0.04687 -0.5625,-0.04687 h -1.17188 v 3.390621 z m 1,-4.265621 h 2.17188 q 0.6875,0 1.07812,-0.140625 0.39063,-0.140625 0.59375,-0.453125 0.20313,-0.3125 0.20313,-0.6875 0,-0.546875 -0.39063,-0.890625 -0.39062,-0.34375 -1.23437,-0.34375 h -2.42188 z m 6.21124,1.5 q 0,-1.53125 0.84375,-2.265625 0.71875,-0.625 1.73438,-0.625 1.14062,0 1.85937,0.75 0.73438,0.75 0.73438,2.0625 0,1.0625 -0.32813,1.687496 -0.3125,0.609375 -0.92187,0.953125 -0.60938,0.328125 -1.34375,0.328125 -1.15625,0 -1.875,-0.734375 -0.70313,-0.75 -0.70313,-2.156246 z m 0.95313,0 q 0,1.0625 0.46875,1.593746 0.46875,0.53125 1.15625,0.53125 0.70312,0 1.15625,-0.53125 0.46875,-0.531246 0.46875,-1.624996 0,-1.015625 -0.46875,-1.546875 -0.45313,-0.53125 -1.15625,-0.53125 -0.6875,0 -1.15625,0.53125 -0.46875,0.515625 -0.46875,1.578125 z m 8.94211,2.765621 v -0.8125 q -0.65625,0.9375 -1.75,0.9375 -0.5,0 -0.92188,-0.1875 -0.42187,-0.1875 -0.625,-0.46875 -0.20312,-0.28125 -0.29687,-0.703125 -0.0469,-0.265625 -0.0469,-0.874996 V 59.97778 h 0.9375 v 3.0625 q 0,0.734375 0.0469,0.999996 0.0937,0.359375 0.375,0.578125 0.29687,0.203125 0.70312,0.203125 0.42188,0 0.79688,-0.203125 0.375,-0.21875 0.51562,-0.59375 0.15625,-0.374996 0.15625,-1.078121 v -2.96875 h 0.9375 v 5.531246 z m 4.34838,-0.84375 0.125,0.828125 q -0.39062,0.09375 -0.70312,0.09375 -0.5,0 -0.78125,-0.15625 -0.28125,-0.171875 -0.40625,-0.4375 -0.10938,-0.265625 -0.10938,-1.109371 v -3.171875 h -0.6875 V 59.97778 h 0.6875 v -1.359375 l 0.9375,-0.5625 v 1.921875 h 0.9375 v 0.734375 h -0.9375 v 3.234375 q 0,0.390621 0.0469,0.515621 0.0469,0.109375 0.15625,0.1875 0.10937,0.0625 0.32812,0.0625 0.15625,0 0.40625,-0.04687 z m 0.91376,-5.703121 V 57.88403 h 0.9375 v 1.078125 z m 0,6.546871 V 59.97778 h 0.9375 v 5.531246 z m 2.36749,0 V 59.97778 h 0.84375 v 0.796875 q 0.60938,-0.921875 1.75,-0.921875 0.5,0 0.92188,0.1875 0.42187,0.171875 0.625,0.46875 0.21875,0.296875 0.29687,0.6875 0.0469,0.265625 0.0469,0.921875 v 3.390621 h -0.9375 v -3.359371 q 0,-0.578125 -0.10938,-0.859375 -0.10937,-0.28125 -0.39062,-0.453125 -0.26563,-0.171875 -0.64063,-0.171875 -0.59375,0 -1.03125,0.390625 -0.4375,0.375 -0.4375,1.4375 v 3.015621 z m 5.75464,0.453125 0.90625,0.140625 q 0.0625,0.421875 0.32813,0.609375 0.34375,0.265625 0.9375,0.265625 0.65625,0 1,-0.265625 0.35937,-0.25 0.48437,-0.71875 0.0781,-0.296875 0.0781,-1.203125 -0.625,0.71875 -1.53125,0.71875 -1.14063,0 -1.76563,-0.8125 -0.625,-0.828121 -0.625,-1.984371 0,-0.78125 0.28125,-1.453125 0.29688,-0.671875 0.82813,-1.03125 0.54687,-0.375 1.28125,-0.375 0.98437,0 1.60937,0.796875 V 59.97778 h 0.875 v 4.781246 q 0,1.296875 -0.26562,1.828125 -0.26563,0.546875 -0.84375,0.859375 -0.5625,0.3125 -1.39063,0.3125 -0.98437,0 -1.59375,-0.453125 -0.60937,-0.4375 -0.59375,-1.34375 z m 0.78125,-3.312496 q 0,1.078125 0.42188,1.578121 0.4375,0.5 1.07812,0.5 0.65625,0 1.09375,-0.484375 0.4375,-0.499996 0.4375,-1.562496 0,-1.015625 -0.45312,-1.53125 -0.45313,-0.515625 -1.09375,-0.515625 -0.60938,0 -1.04688,0.515625 -0.4375,0.5 -0.4375,1.5 z m 8.26215,2.859371 V 59.97778 h 0.84375 v 0.84375 q 0.32812,-0.59375 0.59375,-0.78125 0.28125,-0.1875 0.60937,-0.1875 0.46875,0 0.95313,0.3125 l -0.3125,0.859375 q -0.34375,-0.203125 -0.6875,-0.203125 -0.3125,0 -0.5625,0.1875 -0.23438,0.1875 -0.34375,0.515625 -0.15625,0.5 -0.15625,1.09375 v 2.890621 z m 7.18921,0 v -0.8125 q -0.65625,0.9375 -1.75,0.9375 -0.5,0 -0.92188,-0.1875 -0.42187,-0.1875 -0.625,-0.46875 -0.20312,-0.28125 -0.29687,-0.703125 -0.0469,-0.265625 -0.0469,-0.874996 V 59.97778 h 0.9375 v 3.0625 q 0,0.734375 0.0469,0.999996 0.0937,0.359375 0.375,0.578125 0.29687,0.203125 0.70312,0.203125 0.42188,0 0.79688,-0.203125 0.375,-0.21875 0.51562,-0.59375 0.15625,-0.374996 0.15625,-1.078121 v -2.96875 h 0.9375 v 5.531246 z m 2.28589,0 V 57.88403 h 0.9375 v 7.624996 z m 6.1643,-1.781246 0.96875,0.125 q -0.23437,0.843746 -0.85937,1.312496 -0.60938,0.46875 -1.57813,0.46875 -1.20312,0 -1.92187,-0.75 -0.70313,-0.75 -0.70313,-2.093746 0,-1.390625 0.71875,-2.15625 0.71875,-0.78125 1.85938,-0.78125 1.10937,0 1.8125,0.765625 0.70312,0.75 0.70312,2.125 0,0.07813 0,0.234375 h -4.125 q 0.0469,0.921875 0.51563,1.406246 0.46875,0.484375 1.15625,0.484375 0.51562,0 0.875,-0.265625 0.35937,-0.28125 0.57812,-0.874996 z m -3.07812,-1.515625 h 3.09375 q -0.0625,-0.6875 -0.35938,-1.046875 -0.45312,-0.53125 -1.15625,-0.53125 -0.64062,0 -1.09375,0.4375 -0.4375,0.421875 -0.48437,1.140625 z"
     fill-rule="nonzero"
     id="path59"
     clip-path="url(#clipPath582)" />
  <path
     fill="#1155cc"
     d="m 584.3202,35.097115 h 100.40949 v 51.65354 H 584.3202 Z"
     fill-rule="evenodd"
     id="path61"
     clip-path="url(#clipPath576)" />
  <path
     stroke="#1155cc"
     stroke-width="1"
     stroke-linejoin="round"
     stroke-linecap="butt"
     d="m 584.3202,35.097115 h 100.40949 v 51.65354 H 584.3202 Z"
     fill-rule="evenodd"
     id="path63"
     clip-path="url(#clipPath570)" />
  <path
     fill="#ffffff"
     d="m 602.00183,63.500134 2.625,-0.25 q 0.23438,1.312496 0.95313,1.937496 0.73437,0.609375 1.96875,0.609375 1.29687,0 1.95312,-0.546875 0.67188,-0.546875 0.67188,-1.281246 0,-0.484375 -0.28125,-0.8125 -0.28125,-0.328125 -0.96875,-0.578125 -0.48438,-0.15625 -2.17188,-0.578125 -2.15625,-0.546875 -3.03125,-1.328125 -1.23437,-1.09375 -1.23437,-2.6875 0,-1.015625 0.57812,-1.90625 0.57813,-0.890625 1.65625,-1.34375 1.09375,-0.46875 2.64063,-0.46875 2.51562,0 3.78125,1.109375 1.28125,1.09375 1.34375,2.9375 l -2.70313,0.109375 q -0.17187,-1.03125 -0.75,-1.46875 -0.5625,-0.453125 -1.70312,-0.453125 -1.17188,0 -1.84375,0.46875 -0.42188,0.3125 -0.42188,0.84375 0,0.46875 0.40625,0.796875 0.5,0.4375 2.46875,0.90625 1.96875,0.453125 2.90625,0.953125 0.95313,0.5 1.48438,1.359375 0.53125,0.859375 0.53125,2.125 0,1.156246 -0.64063,2.156246 -0.64062,1 -1.8125,1.484375 -1.15625,0.484375 -2.89062,0.484375 -2.53125,0 -3.89063,-1.171875 -1.35937,-1.171875 -1.625,-3.406246 z m 18.70917,1.265621 2.54687,0.421875 q -0.48437,1.40625 -1.54687,2.140625 -1.0625,0.734375 -2.65625,0.734375 -2.51563,0 -3.73438,-1.65625 -0.95312,-1.3125 -0.95312,-3.328121 0,-2.40625 1.25,-3.765625 1.26562,-1.359375 3.1875,-1.359375 2.15625,0 3.40625,1.421875 1.25,1.421875 1.1875,4.375 h -6.40625 q 0.0312,1.140621 0.60937,1.781246 0.59375,0.625 1.48438,0.625 0.59375,0 1,-0.328125 0.42187,-0.328125 0.625,-1.0625 z m 0.15625,-2.593746 q -0.0312,-1.109375 -0.57813,-1.6875 -0.54687,-0.578125 -1.32812,-0.578125 -0.84375,0 -1.39063,0.609375 -0.54687,0.609375 -0.53125,1.65625 z m 7.07885,5.671871 h -2.5625 v -9.671871 h 2.375 v 1.375 q 0.60938,-0.984375 1.09375,-1.28125 0.48438,-0.3125 1.10938,-0.3125 0.875,0 1.6875,0.484375 l -0.79688,2.234375 q -0.64062,-0.421875 -1.20312,-0.421875 -0.53125,0 -0.90625,0.296875 -0.375,0.296875 -0.59375,1.078125 -0.20313,0.765625 -0.20313,3.234371 z m 7.46338,0 -3.90625,-9.671871 h 2.6875 l 1.82813,4.9375 0.53125,1.640621 q 0.20312,-0.625 0.26562,-0.828121 0.125,-0.40625 0.26563,-0.8125 l 1.84375,-4.9375 h 2.625 l -3.84375,9.671871 z m 7.71949,-10.984371 v -2.375 h 2.5625 v 2.375 z m 0,10.984371 v -9.671871 h 2.5625 v 9.671871 z m 13.62078,-6.812496 -2.53125,0.453125 q -0.125,-0.75 -0.57812,-1.125 -0.45313,-0.390625 -1.17188,-0.390625 -0.95312,0 -1.53125,0.65625 -0.5625,0.65625 -0.5625,2.203125 0,1.734371 0.57813,2.437496 0.57812,0.703125 1.54687,0.703125 0.73438,0 1.20313,-0.40625 0.46875,-0.421875 0.65625,-1.421875 l 2.51562,0.421875 q -0.39062,1.734375 -1.51562,2.625 -1.10938,0.875 -2.96875,0.875 -2.125,0 -3.39063,-1.328125 -1.25,-1.34375 -1.25,-3.718746 0,-2.390625 1.26563,-3.71875 1.26562,-1.34375 3.42187,-1.34375 1.76563,0 2.79688,0.765625 1.04687,0.75 1.51562,2.3125 z m 7.53199,3.734371 2.54687,0.421875 q -0.48437,1.40625 -1.54687,2.140625 -1.0625,0.734375 -2.65625,0.734375 -2.51563,0 -3.73438,-1.65625 -0.95312,-1.3125 -0.95312,-3.328121 0,-2.40625 1.25,-3.765625 1.26562,-1.359375 3.1875,-1.359375 2.15625,0 3.40625,1.421875 1.25,1.421875 1.1875,4.375 h -6.40625 q 0.0312,1.140621 0.60937,1.781246 0.59375,0.625 1.48438,0.625 0.59375,0 1,-0.328125 0.42187,-0.328125 0.625,-1.0625 z m 0.15625,-2.593746 q -0.0312,-1.109375 -0.57813,-1.6875 -0.54687,-0.578125 -1.32812,-0.578125 -0.84375,0 -1.39063,0.609375 -0.54687,0.609375 -0.53125,1.65625 z"
     fill-rule="nonzero"
     id="path65"
     clip-path="url(#clipPath564)" />
  <path
     fill="#000000"
     fill-opacity="0"
     d="M 684.7297,60.923885 741.39108,34.089237"
     fill-rule="evenodd"
     id="path67"
     clip-path="url(#clipPath558)" />
  <path
     stroke="#000000"
     stroke-width="2"
     stroke-linejoin="round"
     stroke-linecap="butt"
     d="M 684.7297,60.923885 730.54586,39.225494"
     fill-rule="evenodd"
     id="path69"
     clip-path="url(#clipPath552)" />
  <path
     fill="#000000"
     stroke="#000000"
     stroke-width="2"
     stroke-linecap="butt"
     d="m 731.95984,42.211063 6.78882,-6.870373 -9.61676,0.899239 z"
     fill-rule="evenodd"
     id="path71"
     clip-path="url(#clipPath546)" />
  <path
     fill="#1155cc"
     d="m 741.3963,15.661417 h 63.24414 v 36.88189 H 741.3963 Z"
     fill-rule="evenodd"
     id="path73"
     clip-path="url(#clipPath540)" />
  <path
     stroke="#1155cc"
     stroke-width="1"
     stroke-linejoin="round"
     stroke-linecap="butt"
     d="m 741.3963,15.661417 h 63.24414 v 36.88189 H 741.3963 Z"
     fill-rule="evenodd"
     id="path75"
     clip-path="url(#clipPath534)" />
  <path
     fill="#ffffff"
     d="M 756.76,41.02236 V 27.662983 h 4.32812 q 2.45313,0 3.20313,0.203125 1.14062,0.296875 1.92187,1.3125 0.78125,1 0.78125,2.59375 0,1.234377 -0.45312,2.078127 -0.45313,0.828125 -1.14063,1.3125 -0.6875,0.46875 -1.39062,0.625 -0.96875,0.203125 -2.79688,0.203125 h -1.76562 v 5.03125 z m 2.6875,-11.093752 v 3.781252 h 1.48437 q 1.59375,0 2.125,-0.203125 0.54688,-0.203125 0.84375,-0.65625 0.3125,-0.453125 0.3125,-1.031252 0,-0.734375 -0.4375,-1.203125 -0.42187,-0.484375 -1.07812,-0.59375 -0.48438,-0.09375 -1.9375,-0.09375 z m 9.14667,6.125002 q 0,-1.28125 0.625,-2.46875 0.625,-1.203125 1.78125,-1.828127 1.15625,-0.625 2.57812,-0.625 2.1875,0 3.59375,1.421877 1.40625,1.421875 1.40625,3.609375 0,2.1875 -1.42187,3.640625 -1.42188,1.4375 -3.5625,1.4375 -1.32813,0 -2.54688,-0.59375 -1.20312,-0.609375 -1.82812,-1.765625 -0.625,-1.171875 -0.625,-2.828125 z m 2.625,0.125 q 0,1.453125 0.67187,2.21875 0.6875,0.75 1.6875,0.75 1,0 1.67188,-0.75 0.6875,-0.765625 0.6875,-2.234375 0,-1.421875 -0.6875,-2.1875 -0.67188,-0.765625 -1.67188,-0.765625 -1,0 -1.6875,0.765625 -0.67187,0.765625 -0.67187,2.203125 z m 18.23974,4.84375 h -2.39062 v -1.421875 q -0.59375,0.828125 -1.40625,1.234375 -0.79688,0.40625 -1.60938,0.40625 -1.67187,0 -2.85937,-1.34375 -1.1875,-1.34375 -1.1875,-3.75 0,-2.453125 1.15625,-3.734375 1.15625,-1.281252 2.92187,-1.281252 1.625,0 2.8125,1.343752 v -4.812502 h 2.5625 z m -6.84375,-5.046875 q 0,1.546875 0.4375,2.234375 0.60938,1.015625 1.71875,1.015625 0.89063,0 1.5,-0.75 0.625,-0.765625 0.625,-2.25 0,-1.671875 -0.60937,-2.40625 -0.59375,-0.734375 -1.53125,-0.734375 -0.90625,0 -1.53125,0.734375 -0.60938,0.71875 -0.60938,2.15625 z"
     fill-rule="nonzero"
     id="path77"
     clip-path="url(#clipPath528)" />
  <path
     fill="#1155cc"
     d="m 741.3963,63.026245 h 63.24414 v 36.88189 H 741.3963 Z"
     fill-rule="evenodd"
     id="path79"
     clip-path="url(#clipPath522)" />
  <path
     stroke="#1155cc"
     stroke-width="1"
     stroke-linejoin="round"
     stroke-linecap="butt"
     d="m 741.3963,63.026245 h 63.24414 v 36.88189 H 741.3963 Z"
     fill-rule="evenodd"
     id="path81"
     clip-path="url(#clipPath516)" />
  <path
     fill="#ffffff"
     d="M 756.76,88.38719 V 75.027815 h 4.32812 q 2.45313,0 3.20313,0.203125 1.14062,0.296875 1.92187,1.3125 0.78125,1 0.78125,2.59375 0,1.234375 -0.45312,2.078125 -0.45313,0.828125 -1.14063,1.3125 -0.6875,0.46875 -1.39062,0.625 -0.96875,0.203125 -2.79688,0.203125 h -1.76562 v 5.03125 z m 2.6875,-11.09375 v 3.78125 h 1.48437 q 1.59375,0 2.125,-0.203125 0.54688,-0.203125 0.84375,-0.65625 0.3125,-0.453125 0.3125,-1.03125 0,-0.734375 -0.4375,-1.203125 -0.42187,-0.484375 -1.07812,-0.59375 -0.48438,-0.09375 -1.9375,-0.09375 z m 9.14667,6.125 q 0,-1.28125 0.625,-2.46875 0.625,-1.203125 1.78125,-1.828125 1.15625,-0.625 2.57812,-0.625 2.1875,0 3.59375,1.421875 1.40625,1.421875 1.40625,3.609375 0,2.1875 -1.42187,3.640625 -1.42188,1.4375 -3.5625,1.4375 -1.32813,0 -2.54688,-0.59375 -1.20312,-0.609375 -1.82812,-1.765625 -0.625,-1.171875 -0.625,-2.828125 z m 2.625,0.125 q 0,1.453125 0.67187,2.21875 0.6875,0.75 1.6875,0.75 1,0 1.67188,-0.75 0.6875,-0.765625 0.6875,-2.234375 0,-1.421875 -0.6875,-2.1875 -0.67188,-0.765625 -1.67188,-0.765625 -1,0 -1.6875,0.765625 -0.67187,0.765625 -0.67187,2.203125 z m 18.23974,4.84375 h -2.39062 v -1.421875 q -0.59375,0.828125 -1.40625,1.234375 -0.79688,0.40625 -1.60938,0.40625 -1.67187,0 -2.85937,-1.34375 -1.1875,-1.34375 -1.1875,-3.75 0,-2.453125 1.15625,-3.734375 1.15625,-1.28125 2.92187,-1.28125 1.625,0 2.8125,1.34375 v -4.8125 h 2.5625 z m -6.84375,-5.046875 q 0,1.546875 0.4375,2.234375 0.60938,1.015625 1.71875,1.015625 0.89063,0 1.5,-0.75 0.625,-0.765625 0.625,-2.25 0,-1.671875 -0.60937,-2.40625 -0.59375,-0.734375 -1.53125,-0.734375 -0.90625,0 -1.53125,0.734375 -0.60938,0.71875 -0.60938,2.15625 z"
     fill-rule="nonzero"
     id="path83"
     clip-path="url(#clipPath510)" />
  <path
     fill="#000000"
     fill-opacity="0"
     d="M 684.7297,60.923885 741.39108,81.45932"
     fill-rule="evenodd"
     id="path85"
     clip-path="url(#clipPath504)" />
  <path
     stroke="#000000"
     stroke-width="2"
     stroke-linejoin="round"
     stroke-linecap="butt"
     d="m 684.7297,60.923885 45.37952,16.446606"
     fill-rule="evenodd"
     id="path87"
     clip-path="url(#clipPath498)" />
  <path
     fill="#000000"
     stroke="#000000"
     stroke-width="2"
     stroke-linecap="butt"
     d="m 728.9836,80.47627 9.65863,-0.0132 -7.40741,-6.198372 z"
     fill-rule="evenodd"
     id="path89"
     clip-path="url(#clipPath492)" />
  <text
     xml:space="preserve"
     id="text802"
     style="text-align:center;white-space:pre;shape-inside:url(#rect804);fill:#000000;fill-opacity:1;stroke-width:1.75748;stroke-dashoffset:1.75748;font-size:10.66666667px"
     transform="translate(-1.1941818)"><tspan
       x="128.375"
       y="53.025391"
       id="tspan4259">gRPC</tspan></text>
  <text
     xml:space="preserve"
     id="text1568"
     style="font-size:16px;text-align:center;white-space:pre;shape-inside:url(#rect1570);fill:#000000;fill-opacity:1;stroke-width:1.75748;stroke-dashoffset:1.75748"
     transform="translate(0,4.7182874)"><tspan
       x="361.73633"
       y="62.777305"
       id="tspan4263"><tspan
         style="font-weight:bold;font-family:Arial;-inkscape-font-specification:'Arial Bold';fill:#ffffff"
         id="tspan4261">GRPCRoute</tspan></tspan></text>
</svg>
