<svg version="1.1" viewBox="160.0 120.0 660.0 240.0" fill="none" stroke="none" stroke-linecap="square" stroke-miterlimit="10" xmlns:xlink="http://www.w3.org/1999/xlink" xmlns="http://www.w3.org/2000/svg"><clipPath id="g13c18e3a7ab_0_171.0"><path d="m0 0l960.0 0l0 540.0l-960.0 0l0 -540.0z" clip-rule="nonzero"/></clipPath><g clip-path="url(#g13c18e3a7ab_0_171.0)"><path fill="#ffffff" d="m0 0l960.0 0l0 540.0l-960.0 0z" fill-rule="evenodd"/><path fill="#000000" fill-opacity="0.0" d="m217.9672 148.61154l196.59842 0l0 119.08661l-196.59842 0z" fill-rule="evenodd"/><path stroke="#595959" stroke-width="1.0" stroke-linejoin="round" stroke-linecap="butt" stroke-dasharray="1.0,3.0" d="m217.9672 148.61154l196.59842 0l0 119.08661l-196.59842 0z" fill-rule="evenodd"/><path fill="#595959" d="m247.1126 175.82841q-0.96875 0 -1.921875 -0.40625q-0.953125 -0.40625 -1.6875 -1.203125q-0.71875 -0.8125 -1.046875 -2.015625l1.515625 -0.609375q0.3125 1.15625 1.140625 1.9375q0.84375 0.78125 2.046875 0.78125q0.734375 0 1.359375 -0.265625q0.625 -0.265625 1.0 -0.78125q0.390625 -0.53125 0.390625 -1.28125q0 -0.671875 -0.328125 -1.140625q-0.3125 -0.46875 -0.96875 -0.828125q-0.65625 -0.359375 -1.609375 -0.703125l-0.84375 -0.296875q-0.546875 -0.203125 -1.125 -0.484375q-0.5625 -0.296875 -1.046875 -0.71875q-0.46875 -0.421875 -0.75 -1.0q-0.28125 -0.59375 -0.28125 -1.390625q0 -0.96875 0.515625 -1.765625q0.53125 -0.8125 1.4375 -1.296875q0.921875 -0.484375 2.109375 -0.484375q1.25 0 2.09375 0.453125q0.859375 0.453125 1.34375 1.078125q0.5 0.625 0.671875 1.15625l-1.46875 0.640625q-0.109375 -0.40625 -0.4375 -0.8125q-0.3125 -0.421875 -0.84375 -0.703125q-0.53125 -0.296875 -1.328125 -0.296875q-0.65625 0 -1.234375 0.265625q-0.5625 0.25 -0.90625 0.71875q-0.34375 0.453125 -0.34375 1.046875q0 0.84375 0.671875 1.328125q0.671875 0.484375 1.8125 0.875l0.875 0.296875q0.59375 0.203125 1.21875 0.5q0.625 0.296875 1.15625 0.765625q0.546875 0.46875 0.875 1.15625q0.34375 0.671875 0.34375 1.625q0 1.03125 -0.40625 1.765625q-0.390625 0.734375 -1.046875 1.203125q-0.65625 0.46875 -1.4375 0.671875q-0.765625 0.21875 -1.515625 0.21875zm5.315033 -9.8125l5.5781097 0l0 1.4375l-5.5781097 0l0 -1.4375zm1.671875 7.015625l0 -9.703125l1.578125 0l0 9.3125q0 0.75 0.3125 1.15625q0.31248474 0.40625 1.0156097 0.40625q0.3125 0 0.578125 -0.09375q0.265625 -0.09375 0.46875 -0.21875l0 1.546875q-0.25 0.109375 -0.546875 0.171875q-0.28125 0.078125 -0.765625 0.078125q-1.1874847 0 -1.9218597 -0.703125q-0.71875 -0.703125 -0.71875 -1.953125zm9.77388 2.796875q-1.4375 0 -2.546875 -0.671875q-1.09375 -0.671875 -1.71875 -1.8125q-0.625 -1.15625 -0.625 -2.5625q0 -1.421875 0.625 -2.5625q0.625 -1.15625 1.71875 -1.828125q1.109375 -0.671875 2.546875 -0.671875q1.4375 0 2.53125 0.6875q1.109375 0.671875 1.734375 1.828125q0.625 1.140625 0.625 2.546875q0 1.40625 -0.625 2.5625q-0.625 1.140625 -1.734375 1.8125q-1.09375 0.671875 -2.53125 0.671875zm0 -1.4375q0.859375 0 1.609375 -0.421875q0.75 -0.4375 1.21875 -1.25q0.46875 -0.8125 0.46875 -1.9375q0 -1.140625 -0.46875 -1.953125q-0.46875 -0.8125 -1.21875 -1.234375q-0.75 -0.4375 -1.609375 -0.4375q-0.859375 0 -1.625 0.4375q-0.765625 0.421875 -1.234375 1.234375q-0.46875 0.8125 -0.46875 1.953125q0 1.125 0.46875 1.9375q0.46875 0.8125 1.234375 1.25q0.765625 0.421875 1.625 0.421875zm6.5418396 1.140625l0 -9.515625l1.515625 0l0 1.53125l0.078125 0q0.1875 -0.546875 0.625 -0.9375q0.4375 -0.40625 1.0 -0.640625q0.578125 -0.234375 1.125 -0.234375q0.4375 0 0.671875 0.046875q0.25 0.046875 0.453125 0.140625l0 1.71875q-0.296875 -0.15625 -0.640625 -0.21875q-0.34375 -0.078125 -0.703125 -0.078125q-0.6875 0 -1.265625 0.390625q-0.578125 0.390625 -0.921875 1.046875q-0.34375 0.65625 -0.34375 1.4375l0 5.3125l-1.59375 0zm10.670471 0.296875q-1.375 0 -2.453125 -0.640625q-1.0625 -0.65625 -1.671875 -1.796875q-0.609375 -1.140625 -0.609375 -2.59375q0 -1.359375 0.5625 -2.515625q0.578125 -1.15625 1.609375 -1.859375q1.03125 -0.703125 2.4375 -0.703125q1.421875 0 2.4375 0.625q1.015625 0.625 1.5625 1.734375q0.546875 1.09375 0.546875 2.515625q0 0.125 -0.015625 0.265625q0 0.125 -0.015625 0.21875l-8.1875 0l0 -1.3125l6.546875 0q-0.015625 -0.390625 -0.1875 -0.84375q-0.15625 -0.46875 -0.5 -0.859375q-0.34375 -0.40625 -0.875 -0.65625q-0.53125 -0.25 -1.3125 -0.25q-0.9375 0 -1.625 0.484375q-0.671875 0.46875 -1.046875 1.296875q-0.359375 0.8125 -0.359375 1.859375q0 1.203125 0.46875 2.015625q0.46875 0.796875 1.203125 1.1875q0.75 0.390625 1.546875 0.390625q1.046875 0 1.71875 -0.484375q0.6875 -0.5 1.09375 -1.234375l1.34375 0.65625q-0.5625 1.078125 -1.609375 1.796875q-1.03125 0.703125 -2.609375 0.703125zm10.925446 -0.296875l0 -13.359375l1.9375 0l6.6875 10.640625l0.078125 0l-0.078125 -2.578125l0 -8.0625l1.59375 0l0 13.359375l-1.640625 0l-7.0 -11.140625l-0.078125 0l0.078125 2.578125l0 8.5625l-1.578125 0zm15.6474 0.296875q-1.0625 0 -1.875 -0.40625q-0.796875 -0.40625 -1.25 -1.125q-0.453125 -0.71875 -0.453125 -1.640625q0 -1.046875 0.53125 -1.765625q0.546875 -0.71875 1.453125 -1.078125q0.921875 -0.359375 2.015625 -0.359375q0.640625 0 1.171875 0.109375q0.546875 0.09375 0.9375 0.234375q0.40625 0.140625 0.625 0.265625l0 -0.578125q0 -1.078125 -0.765625 -1.703125q-0.765625 -0.640625 -1.875 -0.640625q-0.78125 0 -1.46875 0.34375q-0.671875 0.34375 -1.0625 0.953125l-1.203125 -0.890625q0.375 -0.5625 0.9375 -0.96875q0.5625 -0.40625 1.28125 -0.625q0.71875 -0.234375 1.515625 -0.234375q1.9375 0 3.03125 1.03125q1.109375 1.015625 1.109375 2.75l0 6.03125l-1.5 0l0 -1.359375l-0.078125 0q-0.25 0.40625 -0.703125 0.796875q-0.4375 0.375 -1.046875 0.609375q-0.609375 0.25 -1.328125 0.25zm0.140625 -1.390625q0.828125 0 1.5 -0.40625q0.6875 -0.421875 1.09375 -1.109375q0.421875 -0.6875 0.421875 -1.515625q-0.4375 -0.296875 -1.078125 -0.484375q-0.640625 -0.1875 -1.40625 -0.1875q-1.359375 0 -2.0 0.5625q-0.640625 0.5625 -0.640625 1.375q0 0.78125 0.59375 1.28125q0.609375 0.484375 1.515625 0.484375zm6.7189636 1.09375l0 -9.515625l1.515625 0l0 1.40625l0.078125 0q0.25 -0.46875 0.703125 -0.84375q0.46875 -0.390625 1.046875 -0.625q0.59375 -0.234375 1.21875 -0.234375q1.0625 0 1.828125 0.515625q0.765625 0.515625 1.09375 1.328125q0.484375 -0.796875 1.296875 -1.3125q0.828125 -0.53125 1.96875 -0.53125q1.703125 0 2.5 1.03125q0.796875 1.015625 0.796875 2.6875l0 6.09375l-1.5625 0l0 -5.859375q0 -1.375 -0.5625 -1.9375q-0.5625 -0.578125 -1.578125 -0.578125q-0.734375 0 -1.3125 0.421875q-0.5625 0.421875 -0.890625 1.109375q-0.3125 0.671875 -0.3125 1.46875l0 5.375l-1.59375 0l0 -5.84375q0 -1.375 -0.5625 -1.953125q-0.5625 -0.578125 -1.5625 -0.578125q-0.734375 0 -1.296875 0.4375q-0.5625 0.421875 -0.890625 1.109375q-0.328125 0.6875 -0.328125 1.5l0 5.328125l-1.59375 0zm20.558594 0.296875q-1.375 0 -2.453125 -0.640625q-1.0625 -0.65625 -1.671875 -1.796875q-0.609375 -1.140625 -0.609375 -2.59375q0 -1.359375 0.5625 -2.515625q0.578125 -1.15625 1.609375 -1.859375q1.03125 -0.703125 2.4375 -0.703125q1.421875 0 2.4375 0.625q1.015625 0.625 1.5625 1.734375q0.546875 1.09375 0.546875 2.515625q0 0.125 -0.015625 0.265625q0 0.125 -0.015625 0.21875l-8.1875 0l0 -1.3125l6.546875 0q-0.015625 -0.390625 -0.1875 -0.84375q-0.15625 -0.46875 -0.5 -0.859375q-0.34375 -0.40625 -0.875 -0.65625q-0.53125 -0.25 -1.3125 -0.25q-0.9375 0 -1.625 0.484375q-0.671875 0.46875 -1.046875 1.296875q-0.359375 0.8125 -0.359375 1.859375q0 1.203125 0.46875 2.015625q0.46875 0.796875 1.203125 1.1875q0.75 0.390625 1.546875 0.390625q1.046875 0 1.71875 -0.484375q0.6875 -0.5 1.09375 -1.234375l1.34375 0.65625q-0.5625 1.078125 -1.609375 1.796875q-1.03125 0.703125 -2.609375 0.703125zm9.690552 0q-1.0625 0 -1.875 -0.34375q-0.8125 -0.34375 -1.34375 -0.921875q-0.53125 -0.59375 -0.796875 -1.28125l1.421875 -0.640625q0.375 0.859375 1.078125 1.328125q0.703125 0.46875 1.625 0.46875q0.875 0 1.453125 -0.359375q0.59375 -0.359375 0.59375 -1.046875q0 -0.421875 -0.25 -0.703125q-0.234375 -0.296875 -0.703125 -0.5q-0.453125 -0.21875 -1.125 -0.375l-1.15625 -0.3125q-0.671875 -0.1875 -1.28125 -0.515625q-0.59375 -0.34375 -0.953125 -0.875q-0.359375 -0.53125 -0.359375 -1.296875q0 -0.84375 0.5 -1.453125q0.5 -0.625 1.3125 -0.953125q0.828125 -0.328125 1.765625 -0.328125q0.8125 0 1.53125 0.234375q0.71875 0.234375 1.265625 0.6875q0.546875 0.453125 0.8125 1.125l-1.375 0.640625q-0.359375 -0.703125 -0.953125 -0.984375q-0.59375 -0.28125 -1.328125 -0.28125q-0.78125 0 -1.359375 0.34375q-0.578125 0.34375 -0.578125 0.9375q0 0.59375 0.46875 0.90625q0.484375 0.296875 1.171875 0.46875l1.390625 0.359375q1.390625 0.359375 2.09375 1.0625q0.71875 0.6875 0.71875 1.703125q0 0.890625 -0.515625 1.546875q-0.5 0.65625 -1.359375 1.015625q-0.84375 0.34375 -1.890625 0.34375zm5.4029236 3.734375l0 -13.546875l1.515625 0l0 1.421875l0.078125 0q0.25 -0.453125 0.71875 -0.84375q0.484375 -0.390625 1.125 -0.625q0.640625 -0.25 1.390625 -0.25q1.3125 0 2.328125 0.65625q1.03125 0.65625 1.625 1.796875q0.609375 1.125 0.609375 2.609375q0 1.46875 -0.609375 2.609375q-0.59375 1.140625 -1.625 1.796875q-1.015625 0.640625 -2.328125 0.640625q-1.125 0 -1.984375 -0.515625q-0.859375 -0.53125 -1.25 -1.1875l-0.078125 0l0.078125 1.3125l0 4.125l-1.59375 0zm4.671875 -5.171875q0.8125 0 1.53125 -0.4375q0.71875 -0.4375 1.15625 -1.25q0.4375 -0.828125 0.4375 -1.921875q0 -1.125 -0.4375 -1.9375q-0.4375 -0.8125 -1.15625 -1.25q-0.71875 -0.4375 -1.53125 -0.4375q-0.828125 0 -1.546875 0.4375q-0.71875 0.4375 -1.171875 1.25q-0.4375 0.8125 -0.4375 1.9375q0 1.109375 0.4375 1.921875q0.453125 0.8125 1.171875 1.25q0.71875 0.4375 1.546875 0.4375zm9.606079 1.4375q-1.0625 0 -1.875 -0.40625q-0.796875 -0.40625 -1.25 -1.125q-0.453125 -0.71875 -0.453125 -1.640625q0 -1.046875 0.53125 -1.765625q0.546875 -0.71875 1.453125 -1.078125q0.921875 -0.359375 2.015625 -0.359375q0.640625 0 1.171875 0.109375q0.546875 0.09375 0.9375 0.234375q0.40625 0.140625 0.625 0.265625l0 -0.578125q0 -1.078125 -0.765625 -1.703125q-0.765625 -0.640625 -1.875 -0.640625q-0.78125 0 -1.46875 0.34375q-0.671875 0.34375 -1.0625 0.953125l-1.203125 -0.890625q0.375 -0.5625 0.9375 -0.96875q0.5625 -0.40625 1.28125 -0.625q0.71875 -0.234375 1.515625 -0.234375q1.9375 0 3.03125 1.03125q1.109375 1.015625 1.109375 2.75l0 6.03125l-1.5 0l0 -1.359375l-0.078125 0q-0.25 0.40625 -0.703125 0.796875q-0.4375 0.375 -1.046875 0.609375q-0.609375 0.25 -1.328125 0.25zm0.140625 -1.390625q0.828125 0 1.5 -0.40625q0.6875 -0.421875 1.09375 -1.109375q0.421875 -0.6875 0.421875 -1.515625q-0.4375 -0.296875 -1.078125 -0.484375q-0.640625 -0.1875 -1.40625 -0.1875q-1.359375 0 -2.0 0.5625q-0.640625 0.5625 -0.640625 1.375q0 0.78125 0.59375 1.28125q0.609375 0.484375 1.515625 0.484375zm10.93811 1.390625q-1.40625 0 -2.5 -0.65625q-1.078125 -0.671875 -1.703125 -1.8125q-0.609375 -1.15625 -0.609375 -2.578125q0 -1.46875 0.609375 -2.59375q0.625 -1.140625 1.703125 -1.796875q1.09375 -0.671875 2.5 -0.671875q1.609375 0 2.640625 0.734375q1.03125 0.734375 1.46875 1.890625l-1.4375 0.609375q-0.359375 -0.890625 -1.0625 -1.34375q-0.6875 -0.453125 -1.6875 -0.453125q-0.828125 0 -1.546875 0.453125q-0.71875 0.4375 -1.171875 1.25q-0.453125 0.8125 -0.453125 1.921875q0 1.078125 0.453125 1.90625q0.453125 0.8125 1.171875 1.265625q0.71875 0.4375 1.546875 0.4375q1.015625 0 1.734375 -0.46875q0.734375 -0.46875 1.09375 -1.3125l1.40625 0.59375q-0.46875 1.09375 -1.515625 1.859375q-1.03125 0.765625 -2.640625 0.765625zm10.014862 0q-1.375 0 -2.453125 -0.640625q-1.0625 -0.65625 -1.671875 -1.796875q-0.609375 -1.140625 -0.609375 -2.59375q0 -1.359375 0.5625 -2.515625q0.578125 -1.15625 1.609375 -1.859375q1.03125 -0.703125 2.4375 -0.703125q1.421875 0 2.4375 0.625q1.015625 0.625 1.5625 1.734375q0.546875 1.09375 0.546875 2.515625q0 0.125 -0.015625 0.265625q0 0.125 -0.015625 0.21875l-8.1875 0l0 -1.3125l6.546875 0q-0.015625 -0.390625 -0.1875 -0.84375q-0.15625 -0.46875 -0.5 -0.859375q-0.34375 -0.40625 -0.875 -0.65625q-0.53125 -0.25 -1.3125 -0.25q-0.9375 0 -1.625 0.484375q-0.671875 0.46875 -1.046875 1.296875q-0.359375 0.8125 -0.359375 1.859375q0 1.203125 0.46875 2.015625q0.46875 0.796875 1.203125 1.1875q0.75 0.390625 1.546875 0.390625q1.046875 0 1.71875 -0.484375q0.6875 -0.5 1.09375 -1.234375l1.34375 0.65625q-0.5625 1.078125 -1.609375 1.796875q-1.03125 0.703125 -2.609375 0.703125z" fill-rule="nonzero"/><path fill="#d9ead3" d="m234.41167 197.86726l0 0c0 -2.450531 1.986557 -4.4370728 4.437088 -4.4370728l151.72427 0c1.1767883 0 2.305359 0.46746826 3.1374817 1.2995911c0.8321228 0.83210754 1.2995911 1.9606934 1.2995911 3.1374817l0 44.38568c0 2.450531 -1.9865417 4.437088 -4.4370728 4.437088l-151.72427 0l0 0c-2.450531 0 -4.437088 -1.986557 -4.437088 -4.437088z" fill-rule="evenodd"/><path stroke="#b6d7a8" stroke-width="1.0" stroke-linejoin="round" stroke-linecap="butt" d="m234.41167 197.86726l0 0c0 -2.450531 1.986557 -4.4370728 4.437088 -4.4370728l151.72427 0c1.1767883 0 2.305359 0.46746826 3.1374817 1.2995911c0.8321228 0.83210754 1.2995911 1.9606934 1.2995911 3.1374817l0 44.38568c0 2.450531 -1.9865417 4.437088 -4.4370728 4.437088l-151.72427 0l0 0c-2.450531 0 -4.437088 -1.986557 -4.437088 -4.437088z" fill-rule="evenodd"/><path fill="#274e13" d="m272.87683 226.2001l0 -12.40625l1.46875 0l0 12.40625l-1.46875 0zm0.78125 -5.65625l0 -1.390625l7.40625 0l0 1.390625l-7.40625 0zm7.0625 5.65625l0 -12.40625l1.46875 0l0 12.40625l-1.46875 0zm6.7980957 0l0 -11.515625l1.46875 0l0 11.515625l-1.46875 0zm-3.484375 -11.0l0 -1.40625l8.421875 0l0 1.40625l-8.421875 0zm12.806854 11.0l0 -11.515625l1.46875 0l0 11.515625l-1.46875 0zm-3.484375 -11.0l0 -1.40625l8.421875 0l0 1.40625l-8.421875 0zm10.259979 11.0l0 -12.40625l4.171875 0q1.046875 0 1.921875 0.46875q0.890625 0.46875 1.40625 1.296875q0.53125 0.8125 0.53125 1.90625q0 1.078125 -0.53125 1.90625q-0.515625 0.828125 -1.40625 1.296875q-0.875 0.46875 -1.921875 0.46875l-3.390625 0l0 -1.40625l3.421875 0q0.734375 0 1.25 -0.328125q0.515625 -0.34375 0.796875 -0.859375q0.296875 -0.515625 0.296875 -1.078125q0 -0.546875 -0.296875 -1.0625q-0.28125 -0.53125 -0.796875 -0.859375q-0.515625 -0.34375 -1.25 -0.34375l-2.734375 0l0 11.0l-1.46875 0zm9.9809265 0l0 -12.40625l4.1875 0q1.046875 0 1.921875 0.46875q0.875 0.46875 1.390625 1.296875q0.53125 0.8125 0.53125 1.90625q0 0.65625 -0.25 1.3125q-0.234375 0.640625 -0.75 1.1875q-0.5 0.53125 -1.296875 0.859375q-0.78125 0.3125 -1.875 0.3125l-3.078125 0l0 -1.359375l3.328125 0q0.640625 0 1.1875 -0.296875q0.5625 -0.296875 0.90625 -0.8125q0.34375 -0.53125 0.34375 -1.203125q0 -0.546875 -0.296875 -1.0625q-0.28125 -0.53125 -0.796875 -0.859375q-0.515625 -0.34375 -1.25 -0.34375l-2.734375 0l0 11.0l-1.46875 0zm3.0 -5.6875l1.609375 -0.078125l3.90625 5.703125l0 0.0625l-1.734375 0l-3.78125 -5.6875zm10.746521 5.96875q-1.328125 0 -2.359375 -0.625q-1.015625 -0.625 -1.59375 -1.6875q-0.578125 -1.078125 -0.578125 -2.390625q0 -1.3125 0.578125 -2.375q0.578125 -1.0625 1.59375 -1.6875q1.03125 -0.625 2.359375 -0.625q1.34375 0 2.359375 0.640625q1.03125 0.625 1.609375 1.6875q0.578125 1.0625 0.578125 2.359375q0 1.3125 -0.578125 2.390625q-0.578125 1.0625 -1.609375 1.6875q-1.015625 0.625 -2.359375 0.625zm0 -1.34375q0.796875 0 1.5 -0.390625q0.703125 -0.40625 1.140625 -1.15625q0.4375 -0.75 0.4375 -1.8125q0 -1.046875 -0.4375 -1.796875q-0.4375 -0.765625 -1.140625 -1.15625q-0.703125 -0.40625 -1.5 -0.40625q-0.796875 0 -1.5 0.40625q-0.703125 0.390625 -1.140625 1.15625q-0.4375 0.75 -0.4375 1.796875q0 1.0625 0.4375 1.8125q0.4375 0.75 1.140625 1.15625q0.703125 0.390625 1.5 0.390625zm9.381439 1.34375q-1.625 0 -2.453125 -0.953125q-0.828125 -0.953125 -0.828125 -2.609375l0 -5.5625l1.484375 0l0 5.34375q0 1.3125 0.59375 1.875q0.609375 0.5625 1.515625 0.5625q0.78125 0 1.34375 -0.40625q0.578125 -0.40625 0.890625 -1.046875q0.3125 -0.640625 0.3125 -1.328125l0 -5.0l1.46875 0l0 8.84375l-1.40625 0l0 -1.28125l-0.0625 0q-0.21875 0.421875 -0.671875 0.78125q-0.4375 0.34375 -1.0 0.5625q-0.5625 0.21875 -1.1875 0.21875zm5.9952087 -9.125l5.1875 0l0 1.34375l-5.1875 0l0 -1.34375zm1.546875 6.515625l0 -9.0l1.46875 0l0 8.640625q0 0.6875 0.28125 1.078125q0.296875 0.375 0.953125 0.375q0.296875 0 0.53125 -0.078125q0.25 -0.09375 0.4375 -0.21875l0 1.4375q-0.234375 0.109375 -0.5 0.171875q-0.265625 0.0625 -0.71875 0.0625q-1.109375 0 -1.78125 -0.640625q-0.671875 -0.65625 -0.671875 -1.828125zm8.94339 2.609375q-1.28125 0 -2.28125 -0.609375q-1.0 -0.609375 -1.5625 -1.65625q-0.5625 -1.0625 -0.5625 -2.421875q0 -1.265625 0.53125 -2.328125q0.53125 -1.078125 1.484375 -1.71875q0.96875 -0.65625 2.265625 -0.65625q1.3125 0 2.25 0.578125q0.953125 0.578125 1.453125 1.609375q0.515625 1.015625 0.515625 2.328125q0 0.125 -0.015625 0.25q0 0.109375 -0.015625 0.203125l-7.609375 0l0 -1.21875l6.09375 0q-0.015625 -0.359375 -0.171875 -0.78125q-0.140625 -0.421875 -0.46875 -0.796875q-0.3125 -0.375 -0.8125 -0.609375q-0.5 -0.234375 -1.21875 -0.234375q-0.875 0 -1.515625 0.453125q-0.625 0.4375 -0.96875 1.203125q-0.328125 0.75 -0.328125 1.71875q0 1.125 0.4375 1.875q0.4375 0.75 1.109375 1.109375q0.6875 0.359375 1.4375 0.359375q0.96875 0 1.59375 -0.453125q0.640625 -0.453125 1.015625 -1.140625l1.25 0.609375q-0.515625 1.0 -1.484375 1.671875q-0.96875 0.65625 -2.421875 0.65625z" fill-rule="nonzero"/><path fill="#000000" fill-opacity="0.0" d="m533.7493 148.61154l208.28351 0l0 193.98425l-208.28351 0z" fill-rule="evenodd"/><path stroke="#595959" stroke-width="1.0" stroke-linejoin="round" stroke-linecap="butt" stroke-dasharray="1.0,3.0" d="m533.7493 148.61154l208.28351 0l0 193.98425l-208.28351 0z" fill-rule="evenodd"/><path fill="#595959" d="m550.8394 175.53154l0 -13.359375l4.78125 0q1.03125 0 1.890625 0.46875q0.875 0.453125 1.40625 1.265625q0.53125 0.796875 0.53125 1.875q0 0.984375 -0.5 1.71875q-0.5 0.71875 -1.328125 1.09375l0 0.078125q0.984375 0.3125 1.625 1.140625q0.65625 0.8125 0.65625 1.9375q0 1.109375 -0.5625 1.96875q-0.5625 0.84375 -1.484375 1.328125q-0.90625 0.484375 -1.96875 0.484375l-5.046875 0zm0.828125 -6.078125l0 -1.515625l3.953125 0q0.71875 0 1.21875 -0.328125q0.5 -0.328125 0.765625 -0.8125q0.28125 -0.484375 0.28125 -0.984375q0 -0.5 -0.265625 -0.984375q-0.265625 -0.484375 -0.75 -0.8125q-0.484375 -0.328125 -1.171875 -0.328125l-3.28125 0l0 10.328125l3.5625 0q0.703125 0 1.21875 -0.34375q0.53125 -0.34375 0.8125 -0.875q0.28125 -0.53125 0.28125 -1.078125q0 -0.546875 -0.296875 -1.0625q-0.28125 -0.53125 -0.8125 -0.859375q-0.53125 -0.34375 -1.28125 -0.34375l-4.234375 0zm13.19635 6.375q-1.0625 0 -1.875 -0.40625q-0.796875 -0.40625 -1.25 -1.125q-0.453125 -0.71875 -0.453125 -1.640625q0 -1.046875 0.53125 -1.765625q0.546875 -0.71875 1.453125 -1.078125q0.921875 -0.359375 2.015625 -0.359375q0.640625 0 1.171875 0.109375q0.546875 0.09375 0.9375 0.234375q0.40625 0.140625 0.625 0.265625l0 -0.578125q0 -1.078125 -0.765625 -1.703125q-0.765625 -0.640625 -1.875 -0.640625q-0.78125 0 -1.46875 0.34375q-0.671875 0.34375 -1.0625 0.953125l-1.203125 -0.890625q0.375 -0.5625 0.9375 -0.96875q0.5625 -0.40625 1.28125 -0.625q0.71875 -0.234375 1.515625 -0.234375q1.9375 0 3.03125 1.03125q1.109375 1.015625 1.109375 2.75l0 6.03125l-1.5 0l0 -1.359375l-0.078125 0q-0.25 0.40625 -0.703125 0.796875q-0.4375 0.375 -1.046875 0.609375q-0.609375 0.25 -1.328125 0.25zm0.140625 -1.390625q0.828125 0 1.5 -0.40625q0.6875 -0.421875 1.09375 -1.109375q0.421875 -0.6875 0.421875 -1.515625q-0.4375 -0.296875 -1.078125 -0.484375q-0.640625 -0.1875 -1.40625 -0.1875q-1.359375 0 -2.0 0.5625q-0.640625 0.5625 -0.640625 1.375q0 0.78125 0.59375 1.28125q0.609375 0.484375 1.515625 0.484375zm10.93811 1.390625q-1.40625 0 -2.5 -0.65625q-1.078125 -0.671875 -1.703125 -1.8125q-0.609375 -1.15625 -0.609375 -2.578125q0 -1.46875 0.609375 -2.59375q0.625 -1.140625 1.703125 -1.796875q1.09375 -0.671875 2.5 -0.671875q1.609375 0 2.640625 0.734375q1.03125 0.734375 1.46875 1.890625l-1.4375 0.609375q-0.359375 -0.890625 -1.0625 -1.34375q-0.6875 -0.453125 -1.6875 -0.453125q-0.828125 0 -1.546875 0.453125q-0.71875 0.4375 -1.171875 1.25q-0.453125 0.8125 -0.453125 1.921875q0 1.078125 0.453125 1.90625q0.453125 0.8125 1.171875 1.265625q0.71875 0.4375 1.546875 0.4375q1.015625 0 1.734375 -0.46875q0.734375 -0.46875 1.09375 -1.3125l1.40625 0.59375q-0.46875 1.09375 -1.515625 1.859375q-1.03125 0.765625 -2.640625 0.765625zm5.8738403 -0.296875l0 -13.359375l1.59375 0l0 13.359375l-1.59375 0zm0.59375 -1.9375l0 -2.03125l5.46875 -5.546875l2.015625 0l0 0.078125l-7.484375 7.5zm5.703125 1.9375l-3.4375 -5.109375l1.125 -1.109375l4.203125 6.140625l0 0.078125l-1.890625 0zm7.0788574 0.296875q-1.375 0 -2.453125 -0.640625q-1.0625 -0.65625 -1.671875 -1.796875q-0.609375 -1.140625 -0.609375 -2.59375q0 -1.359375 0.5625 -2.515625q0.578125 -1.15625 1.609375 -1.859375q1.03125 -0.703125 2.4375 -0.703125q1.421875 0 2.4375 0.625q1.015625 0.625 1.5625 1.734375q0.546875 1.09375 0.546875 2.515625q0 0.125 -0.015625 0.265625q0 0.125 -0.015625 0.21875l-8.1875 0l0 -1.3125l6.546875 0q-0.015625 -0.390625 -0.1875 -0.84375q-0.15625 -0.46875 -0.5 -0.859375q-0.34375 -0.40625 -0.875 -0.65625q-0.53125 -0.25 -1.3125 -0.25q-0.9375 0 -1.625 0.484375q-0.671875 0.46875 -1.046875 1.296875q-0.359375 0.8125 -0.359375 1.859375q0 1.203125 0.46875 2.015625q0.46875 0.796875 1.203125 1.1875q0.75 0.390625 1.546875 0.390625q1.046875 0 1.71875 -0.484375q0.6875 -0.5 1.09375 -1.234375l1.34375 0.65625q-0.5625 1.078125 -1.609375 1.796875q-1.03125 0.703125 -2.609375 0.703125zm6.269104 -0.296875l0 -9.515625l1.515625 0l0 1.40625l0.078125 0q0.375 -0.703125 1.21875 -1.203125q0.84375 -0.5 1.859375 -0.5q1.75 0 2.625 1.015625q0.890625 1.015625 0.890625 2.703125l0 6.09375l-1.578125 0l0 -5.859375q0 -1.375 -0.671875 -1.9375q-0.65625 -0.578125 -1.703125 -0.578125q-0.78125 0 -1.375 0.4375q-0.59375 0.4375 -0.9375 1.125q-0.328125 0.6875 -0.328125 1.453125l0 5.359375l-1.59375 0zm14.513062 0.296875q-1.28125 0 -2.328125 -0.640625q-1.03125 -0.65625 -1.625 -1.796875q-0.59375 -1.140625 -0.59375 -2.609375q0 -1.484375 0.59375 -2.609375q0.59375 -1.140625 1.625 -1.796875q1.046875 -0.65625 2.328125 -0.65625q0.765625 0 1.390625 0.25q0.640625 0.234375 1.109375 0.625q0.484375 0.390625 0.75 0.84375l0.078125 0l-0.078125 -1.328125l0 -3.9375l1.59375 0l0 13.359375l-1.515625 0l0 -1.40625l-0.078125 0q-0.265625 0.4375 -0.75 0.828125q-0.46875 0.390625 -1.109375 0.625q-0.625 0.25 -1.390625 0.25zm0.171875 -1.4375q0.828125 0 1.546875 -0.4375q0.71875 -0.4375 1.15625 -1.25q0.453125 -0.8125 0.453125 -1.921875q0 -1.125 -0.453125 -1.9375q-0.4375 -0.8125 -1.15625 -1.25q-0.71875 -0.4375 -1.546875 -0.4375q-0.8125 0 -1.53125 0.4375q-0.71875 0.4375 -1.171875 1.25q-0.453125 0.8125 -0.453125 1.9375q0 1.09375 0.453125 1.921875q0.453125 0.8125 1.171875 1.25q0.71875 0.4375 1.53125 0.4375zm11.66864 1.140625l0 -13.359375l1.9375 0l6.6875 10.640625l0.078125 0l-0.078125 -2.578125l0 -8.0625l1.59375 0l0 13.359375l-1.640625 0l-7.0 -11.140625l-0.078125 0l0.078125 2.578125l0 8.5625l-1.578125 0zm15.6474 0.296875q-1.0625 0 -1.875 -0.40625q-0.796875 -0.40625 -1.25 -1.125q-0.453125 -0.71875 -0.453125 -1.640625q0 -1.046875 0.53125 -1.765625q0.546875 -0.71875 1.453125 -1.078125q0.921875 -0.359375 2.015625 -0.359375q0.640625 0 1.171875 0.109375q0.546875 0.09375 0.9375 0.234375q0.40625 0.140625 0.625 0.265625l0 -0.578125q0 -1.078125 -0.765625 -1.703125q-0.765625 -0.640625 -1.875 -0.640625q-0.78125 0 -1.46875 0.34375q-0.671875 0.34375 -1.0625 0.953125l-1.203125 -0.890625q0.375 -0.5625 0.9375 -0.96875q0.5625 -0.40625 1.28125 -0.625q0.71875 -0.234375 1.515625 -0.234375q1.9375 0 3.03125 1.03125q1.109375 1.015625 1.109375 2.75l0 6.03125l-1.5 0l0 -1.359375l-0.078125 0q-0.25 0.40625 -0.703125 0.796875q-0.4375 0.375 -1.046875 0.609375q-0.609375 0.25 -1.328125 0.25zm0.140625 -1.390625q0.828125 0 1.5 -0.40625q0.6875 -0.421875 1.09375 -1.109375q0.421875 -0.6875 0.421875 -1.515625q-0.4375 -0.296875 -1.078125 -0.484375q-0.640625 -0.1875 -1.40625 -0.1875q-1.359375 0 -2.0 0.5625q-0.640625 0.5625 -0.640625 1.375q0 0.78125 0.59375 1.28125q0.609375 0.484375 1.515625 0.484375zm6.718994 1.09375l0 -9.515625l1.515625 0l0 1.40625l0.078125 0q0.25 -0.46875 0.703125 -0.84375q0.46875 -0.390625 1.046875 -0.625q0.59375 -0.234375 1.21875 -0.234375q1.0625 0 1.828125 0.515625q0.765625 0.515625 1.09375 1.328125q0.484375 -0.796875 1.296875 -1.3125q0.828125 -0.53125 1.96875 -0.53125q1.703125 0 2.5 1.03125q0.796875 1.015625 0.796875 2.6875l0 6.09375l-1.5625 0l0 -5.859375q0 -1.375 -0.5625 -1.9375q-0.5625 -0.578125 -1.578125 -0.578125q-0.734375 0 -1.3125 0.421875q-0.5625 0.421875 -0.890625 1.109375q-0.3125 0.671875 -0.3125 1.46875l0 5.375l-1.59375 0l0 -5.84375q0 -1.375 -0.5625 -1.953125q-0.5625 -0.578125 -1.5625 -0.578125q-0.734375 0 -1.296875 0.4375q-0.5625 0.421875 -0.890625 1.109375q-0.328125 0.6875 -0.328125 1.5l0 5.328125l-1.59375 0zm20.558594 0.296875q-1.375 0 -2.453125 -0.640625q-1.0625 -0.65625 -1.671875 -1.796875q-0.609375 -1.140625 -0.609375 -2.59375q0 -1.359375 0.5625 -2.515625q0.578125 -1.15625 1.609375 -1.859375q1.03125 -0.703125 2.4375 -0.703125q1.421875 0 2.4375 0.625q1.015625 0.625 1.5625 1.734375q0.546875 1.09375 0.546875 2.515625q0 0.125 -0.015625 0.265625q0 0.125 -0.015625 0.21875l-8.1875 0l0 -1.3125l6.546875 0q-0.015625 -0.390625 -0.1875 -0.84375q-0.15625 -0.46875 -0.5 -0.859375q-0.34375 -0.40625 -0.875 -0.65625q-0.53125 -0.25 -1.3125 -0.25q-0.9375 0 -1.625 0.484375q-0.671875 0.46875 -1.046875 1.296875q-0.359375 0.8125 -0.359375 1.859375q0 1.203125 0.46875 2.015625q0.46875 0.796875 1.203125 1.1875q0.75 0.390625 1.546875 0.390625q1.046875 0 1.71875 -0.484375q0.6875 -0.5 1.09375 -1.234375l1.34375 0.65625q-0.5625 1.078125 -1.609375 1.796875q-1.03125 0.703125 -2.609375 0.703125zm9.690552 0q-1.0625 0 -1.875 -0.34375q-0.8125 -0.34375 -1.34375 -0.921875q-0.53125 -0.59375 -0.796875 -1.28125l1.421875 -0.640625q0.375 0.859375 1.078125 1.328125q0.703125 0.46875 1.625 0.46875q0.875 0 1.453125 -0.359375q0.59375 -0.359375 0.59375 -1.046875q0 -0.421875 -0.25 -0.703125q-0.234375 -0.296875 -0.703125 -0.5q-0.453125 -0.21875 -1.125 -0.375l-1.15625 -0.3125q-0.671875 -0.1875 -1.28125 -0.515625q-0.59375 -0.34375 -0.953125 -0.875q-0.359375 -0.53125 -0.359375 -1.296875q0 -0.84375 0.5 -1.453125q0.5 -0.625 1.3125 -0.953125q0.828125 -0.328125 1.765625 -0.328125q0.8125 0 1.53125 0.234375q0.71875 0.234375 1.265625 0.6875q0.546875 0.453125 0.8125 1.125l-1.375 0.640625q-0.359375 -0.703125 -0.953125 -0.984375q-0.59375 -0.28125 -1.328125 -0.28125q-0.78125 0 -1.359375 0.34375q-0.578125 0.34375 -0.578125 0.9375q0 0.59375 0.46875 0.90625q0.484375 0.296875 1.171875 0.46875l1.390625 0.359375q1.390625 0.359375 2.09375 1.0625q0.71875 0.6875 0.71875 1.703125q0 0.890625 -0.515625 1.546875q-0.5 0.65625 -1.359375 1.015625q-0.84375 0.34375 -1.890625 0.34375zm5.402893 3.734375l0 -13.546875l1.515625 0l0 1.421875l0.078125 0q0.25 -0.453125 0.71875 -0.84375q0.484375 -0.390625 1.125 -0.625q0.640625 -0.25 1.390625 -0.25q1.3125 0 2.328125 0.65625q1.03125 0.65625 1.625 1.796875q0.609375 1.125 0.609375 2.609375q0 1.46875 -0.609375 2.609375q-0.59375 1.140625 -1.625 1.796875q-1.015625 0.640625 -2.328125 0.640625q-1.125 0 -1.984375 -0.515625q-0.859375 -0.53125 -1.25 -1.1875l-0.078125 0l0.078125 1.3125l0 4.125l-1.59375 0zm4.671875 -5.171875q0.8125 0 1.53125 -0.4375q0.71875 -0.4375 1.15625 -1.25q0.4375 -0.828125 0.4375 -1.921875q0 -1.125 -0.4375 -1.9375q-0.4375 -0.8125 -1.15625 -1.25q-0.71875 -0.4375 -1.53125 -0.4375q-0.828125 0 -1.546875 0.4375q-0.71875 0.4375 -1.171875 1.25q-0.4375 0.8125 -0.4375 1.9375q0 1.109375 0.4375 1.921875q0.453125 0.8125 1.171875 1.25q0.71875 0.4375 1.546875 0.4375zm9.606079 1.4375q-1.0625 0 -1.875 -0.40625q-0.796875 -0.40625 -1.25 -1.125q-0.453125 -0.71875 -0.453125 -1.640625q0 -1.046875 0.53125 -1.765625q0.546875 -0.71875 1.453125 -1.078125q0.921875 -0.359375 2.015625 -0.359375q0.640625 0 1.171875 0.109375q0.546875 0.09375 0.9375 0.234375q0.40625 0.140625 0.625 0.265625l0 -0.578125q0 -1.078125 -0.765625 -1.703125q-0.765625 -0.640625 -1.875 -0.640625q-0.78125 0 -1.46875 0.34375q-0.671875 0.34375 -1.0625 0.953125l-1.203125 -0.890625q0.375 -0.5625 0.9375 -0.96875q0.5625 -0.40625 1.28125 -0.625q0.71875 -0.234375 1.515625 -0.234375q1.9375 0 3.03125 1.03125q1.109375 1.015625 1.109375 2.75l0 6.03125l-1.5 0l0 -1.359375l-0.078125 0q-0.25 0.40625 -0.703125 0.796875q-0.4375 0.375 -1.046875 0.609375q-0.609375 0.25 -1.328125 0.25zm0.140625 -1.390625q0.828125 0 1.5 -0.40625q0.6875 -0.421875 1.09375 -1.109375q0.421875 -0.6875 0.421875 -1.515625q-0.4375 -0.296875 -1.078125 -0.484375q-0.640625 -0.1875 -1.40625 -0.1875q-1.359375 0 -2.0 0.5625q-0.640625 0.5625 -0.640625 1.375q0 0.78125 0.59375 1.28125q0.609375 0.484375 1.515625 0.484375zm10.93811 1.390625q-1.40625 0 -2.5 -0.65625q-1.078125 -0.671875 -1.703125 -1.8125q-0.609375 -1.15625 -0.609375 -2.578125q0 -1.46875 0.609375 -2.59375q0.625 -1.140625 1.703125 -1.796875q1.09375 -0.671875 2.5 -0.671875q1.609375 0 2.640625 0.734375q1.03125 0.734375 1.46875 1.890625l-1.4375 0.609375q-0.359375 -0.890625 -1.0625 -1.34375q-0.6875 -0.453125 -1.6875 -0.453125q-0.828125 0 -1.546875 0.453125q-0.71875 0.4375 -1.171875 1.25q-0.453125 0.8125 -0.453125 1.921875q0 1.078125 0.453125 1.90625q0.453125 0.8125 1.171875 1.265625q0.71875 0.4375 1.546875 0.4375q1.015625 0 1.734375 -0.46875q0.734375 -0.46875 1.09375 -1.3125l1.40625 0.59375q-0.46875 1.09375 -1.515625 1.859375q-1.03125 0.765625 -2.640625 0.765625zm10.014893 0q-1.375 0 -2.453125 -0.640625q-1.0625 -0.65625 -1.671875 -1.796875q-0.609375 -1.140625 -0.609375 -2.59375q0 -1.359375 0.5625 -2.515625q0.578125 -1.15625 1.609375 -1.859375q1.03125 -0.703125 2.4375 -0.703125q1.421875 0 2.4375 0.625q1.015625 0.625 1.5625 1.734375q0.546875 1.09375 0.546875 2.515625q0 0.125 -0.015625 0.265625q0 0.125 -0.015625 0.21875l-8.1875 0l0 -1.3125l6.546875 0q-0.015625 -0.390625 -0.1875 -0.84375q-0.15625 -0.46875 -0.5 -0.859375q-0.34375 -0.40625 -0.875 -0.65625q-0.53125 -0.25 -1.3125 -0.25q-0.9375 0 -1.625 0.484375q-0.671875 0.46875 -1.046875 1.296875q-0.359375 0.8125 -0.359375 1.859375q0 1.203125 0.46875 2.015625q0.46875 0.796875 1.203125 1.1875q0.75 0.390625 1.546875 0.390625q1.046875 0 1.71875 -0.484375q0.6875 -0.5 1.09375 -1.234375l1.34375 0.65625q-0.5625 1.078125 -1.609375 1.796875q-1.03125 0.703125 -2.609375 0.703125z" fill-rule="nonzero"/><path fill="#d9d2e9" d="m565.4602 197.86858l0 0c0 -2.450531 1.9865723 -4.4370728 4.4370728 -4.4370728l151.7243 0c1.1767578 0 2.305359 0.46746826 3.1374512 1.2995911c0.8321533 0.83210754 1.2996216 1.9606934 1.2996216 3.1374817l0 44.38568c0 2.450531 -1.9865723 4.437088 -4.4370728 4.437088l-151.7243 0l0 0c-2.4505005 0 -4.4370728 -1.986557 -4.4370728 -4.437088z" fill-rule="evenodd"/><path stroke="#b4a7d6" stroke-width="1.0" stroke-linejoin="round" stroke-linecap="butt" d="m565.4602 197.86858l0 0c0 -2.450531 1.9865723 -4.4370728 4.4370728 -4.4370728l151.7243 0c1.1767578 0 2.305359 0.46746826 3.1374512 1.2995911c0.8321533 0.83210754 1.2996216 1.9606934 1.2996216 3.1374817l0 44.38568c0 2.450531 -1.9865723 4.437088 -4.4370728 4.437088l-151.7243 0l0 0c-2.4505005 0 -4.4370728 -1.986557 -4.4370728 -4.437088z" fill-rule="evenodd"/><path fill="#20124d" d="m621.54236 226.48267q-0.90625 0 -1.796875 -0.375q-0.875 -0.390625 -1.5625 -1.125q-0.671875 -0.75 -0.984375 -1.859375l1.40625 -0.578125q0.296875 1.078125 1.078125 1.8125q0.78125 0.71875 1.890625 0.71875q0.6875 0 1.265625 -0.25q0.578125 -0.25 0.9375 -0.734375q0.359375 -0.484375 0.359375 -1.1875q0 -0.625 -0.3125 -1.046875q-0.296875 -0.4375 -0.90625 -0.765625q-0.609375 -0.34375 -1.484375 -0.65625l-0.78125 -0.28125q-0.515625 -0.1875 -1.046875 -0.453125q-0.53125 -0.28125 -0.984375 -0.671875q-0.4375 -0.390625 -0.703125 -0.921875q-0.25 -0.546875 -0.25 -1.296875q0 -0.90625 0.484375 -1.640625q0.484375 -0.75 1.328125 -1.203125q0.859375 -0.453125 1.96875 -0.453125q1.15625 0 1.9375 0.4375q0.796875 0.421875 1.25 1.0q0.46875 0.578125 0.625 1.0625l-1.375 0.59375q-0.09375 -0.375 -0.390625 -0.765625q-0.296875 -0.390625 -0.796875 -0.65625q-0.484375 -0.265625 -1.234375 -0.265625q-0.609375 0 -1.140625 0.25q-0.515625 0.234375 -0.84375 0.65625q-0.3125 0.421875 -0.3125 0.984375q0 0.78125 0.609375 1.234375q0.625 0.4375 1.6875 0.8125l0.8125 0.28125q0.5625 0.1875 1.140625 0.46875q0.578125 0.265625 1.078125 0.703125q0.5 0.4375 0.8125 1.078125q0.3125 0.625 0.3125 1.5q0 0.953125 -0.375 1.640625q-0.359375 0.6875 -0.96875 1.125q-0.609375 0.421875 -1.328125 0.625q-0.71875 0.203125 -1.40625 0.203125zm9.910217 0q-1.28125 0 -2.28125 -0.609375q-1.0 -0.609375 -1.5625 -1.65625q-0.5625 -1.0625 -0.5625 -2.421875q0 -1.265625 0.53125 -2.328125q0.53125 -1.078125 1.484375 -1.71875q0.96875 -0.65625 2.265625 -0.65625q1.3125 0 2.25 0.578125q0.953125 0.578125 1.453125 1.609375q0.515625 1.015625 0.515625 2.328125q0 0.125 -0.015625 0.25q0 0.109375 -0.015625 0.203125l-7.609375 0l0 -1.21875l6.09375 0q-0.015625 -0.359375 -0.171875 -0.78125q-0.140625 -0.421875 -0.46875 -0.796875q-0.3125 -0.375 -0.8125 -0.609375q-0.5 -0.234375 -1.21875 -0.234375q-0.875 0 -1.515625 0.453125q-0.625 0.4375 -0.96875 1.203125q-0.328125 0.75 -0.328125 1.71875q0 1.125 0.4375 1.875q0.4375 0.75 1.109375 1.109375q0.6875 0.359375 1.4375 0.359375q0.96875 0 1.59375 -0.453125q0.640625 -0.453125 1.015625 -1.140625l1.25 0.609375q-0.515625 1.0 -1.484375 1.671875q-0.96875 0.65625 -2.421875 0.65625zm5.8181763 -0.28125l0 -8.84375l1.40625 0l0 1.421875l0.0625 0q0.171875 -0.5 0.578125 -0.859375q0.40625 -0.375 0.9375 -0.59375q0.53125 -0.21875 1.046875 -0.21875q0.40625 0 0.625 0.046875q0.234375 0.03125 0.421875 0.125l0 1.59375q-0.28125 -0.140625 -0.609375 -0.203125q-0.3125 -0.078125 -0.640625 -0.078125q-0.640625 0 -1.1875 0.375q-0.53125 0.359375 -0.859375 0.96875q-0.3125 0.59375 -0.3125 1.328125l0 4.9375l-1.46875 0zm9.386414 0l-3.5625 -8.84375l1.578125 0l2.734375 7.109375l0.03125 0l2.78125 -7.109375l1.53125 0l-3.59375 8.84375l-1.5 0zm6.453491 0l0 -8.84375l1.46875 0l0 8.84375l-1.46875 0zm0.71875 -10.46875q-0.421875 0 -0.734375 -0.3125q-0.3125 -0.3125 -0.3125 -0.734375q0 -0.453125 0.3125 -0.75q0.3125 -0.3125 0.734375 -0.3125q0.453125 0 0.75 0.3125q0.3125 0.296875 0.3125 0.75q0 0.421875 -0.3125 0.734375q-0.296875 0.3125 -0.75 0.3125zm6.970093 10.75q-1.296875 0 -2.3125 -0.609375q-1.015625 -0.625 -1.59375 -1.6875q-0.5625 -1.0625 -0.5625 -2.40625q0 -1.34375 0.5625 -2.40625q0.578125 -1.0625 1.59375 -1.671875q1.015625 -0.609375 2.3125 -0.609375q1.484375 0 2.453125 0.6875q0.96875 0.671875 1.359375 1.75l-1.328125 0.5625q-0.328125 -0.828125 -0.984375 -1.25q-0.65625 -0.421875 -1.5625 -0.421875q-0.78125 0 -1.453125 0.421875q-0.671875 0.40625 -1.09375 1.171875q-0.40625 0.75 -0.40625 1.765625q0 1.015625 0.40625 1.78125q0.421875 0.75 1.09375 1.171875q0.671875 0.40625 1.453125 0.40625q0.921875 0 1.59375 -0.421875q0.6875 -0.4375 1.015625 -1.234375l1.3125 0.546875q-0.421875 1.03125 -1.40625 1.75q-0.96875 0.703125 -2.453125 0.703125zm9.311951 0q-1.28125 0 -2.28125 -0.609375q-1.0 -0.609375 -1.5625 -1.65625q-0.5625 -1.0625 -0.5625 -2.421875q0 -1.265625 0.53125 -2.328125q0.53125 -1.078125 1.484375 -1.71875q0.96875 -0.65625 2.265625 -0.65625q1.3125 0 2.25 0.578125q0.953125 0.578125 1.453125 1.609375q0.515625 1.015625 0.515625 2.328125q0 0.125 -0.015625 0.25q0 0.109375 -0.015625 0.203125l-7.609375 0l0 -1.21875l6.09375 0q-0.015625 -0.359375 -0.171875 -0.78125q-0.140625 -0.421875 -0.46875 -0.796875q-0.3125 -0.375 -0.8125 -0.609375q-0.5 -0.234375 -1.21875 -0.234375q-0.875 0 -1.515625 0.453125q-0.625 0.4375 -0.96875 1.203125q-0.328125 0.75 -0.328125 1.71875q0 1.125 0.4375 1.875q0.4375 0.75 1.109375 1.109375q0.6875 0.359375 1.4375 0.359375q0.96875 0 1.59375 -0.453125q0.640625 -0.453125 1.015625 -1.140625l1.25 0.609375q-0.515625 1.0 -1.484375 1.671875q-0.96875 0.65625 -2.421875 0.65625z" fill-rule="nonzero"/><path fill="#000000" fill-opacity="0.0" d="m395.0101 220.0601c42.612457 0 63.917847 0.01574707 85.224945 0.03149414c21.307068 0.01574707 42.615845 0.03149414 85.23175 0.03149414" fill-rule="evenodd"/><path stroke="#595959" stroke-width="2.0" stroke-linejoin="round" stroke-linecap="butt" d="m395.0101 220.0601c42.612488 0 63.917847 0.01574707 85.224945 0.03149414c10.653534 0.007873535 21.307526 0.01574707 34.62506 0.021652222c6.6588135 0.0029449463 13.983459 0.00541687 22.306946 0.0071411133l16.299744 0.0015563965" fill-rule="evenodd"/><path fill="#595959" stroke="#595959" stroke-width="2.0" stroke-linecap="butt" d="m553.4665 223.42542l9.076477 -3.302597l-9.075867 -3.3043365z" fill-rule="evenodd"/><path fill="#fce5cd" d="m565.1575 272.40262l0 0c0 -2.450531 1.9865723 -4.4370728 4.4370728 -4.4370728l151.69281 0c1.1767578 0 2.305359 0.46749878 3.1374512 1.2995911c0.8321533 0.8321228 1.2996216 1.9606934 1.2996216 3.1374817l0 44.38571c0 2.450531 -1.9865723 4.4370728 -4.4370728 4.4370728l-151.69281 0c-2.4505005 0 -4.4370728 -1.9865417 -4.4370728 -4.4370728z" fill-rule="evenodd"/><path stroke="#f9cb9c" stroke-width="1.0" stroke-linejoin="round" stroke-linecap="butt" d="m565.1575 272.40262l0 0c0 -2.450531 1.9865723 -4.4370728 4.4370728 -4.4370728l151.69281 0c1.1767578 0 2.305359 0.46749878 3.1374512 1.2995911c0.8321533 0.8321228 1.2996216 1.9606934 1.2996216 3.1374817l0 44.38571c0 2.450531 -1.9865723 4.4370728 -4.4370728 4.4370728l-151.69281 0c-2.4505005 0 -4.4370728 -1.9865417 -4.4370728 -4.4370728z" fill-rule="evenodd"/><path fill="#783f04" d="m584.71967 300.73547l0 -12.40625l4.1875 0q1.046875 0 1.921875 0.46875q0.875 0.46875 1.390625 1.296875q0.53125 0.8125 0.53125 1.90625q0 0.65625 -0.25 1.3125q-0.234375 0.640625 -0.75 1.1875q-0.5 0.53125 -1.296875 0.859375q-0.78125 0.3125 -1.875 0.3125l-3.078125 0l0 -1.359375l3.328125 0q0.640625 0 1.1875 -0.296875q0.5625 -0.296875 0.90625 -0.8125q0.34375 -0.53125 0.34375 -1.203125q0 -0.546875 -0.296875 -1.0625q-0.28125 -0.53125 -0.796875 -0.859375q-0.515625 -0.34375 -1.25 -0.34375l-2.734375 0l0 11.0l-1.46875 0zm3.0 -5.6875l1.609375 -0.078125l3.90625 5.703125l0 0.0625l-1.734375 0l-3.78125 -5.6875zm10.621521 5.96875q-1.28125 0 -2.28125 -0.609375q-1.0 -0.609375 -1.5625 -1.65625q-0.5625 -1.0625 -0.5625 -2.421875q0 -1.265625 0.53125 -2.328125q0.53125 -1.078125 1.484375 -1.71875q0.96875 -0.65625 2.265625 -0.65625q1.3125 0 2.25 0.578125q0.953125 0.578125 1.453125 1.609375q0.515625 1.015625 0.515625 2.328125q0 0.125 -0.015625 0.25q0 0.109375 -0.015625 0.203125l-7.609375 0l0 -1.21875l6.09375 0q-0.015625 -0.359375 -0.171875 -0.78125q-0.140625 -0.421875 -0.46875 -0.796875q-0.3125 -0.375 -0.8125 -0.609375q-0.5 -0.234375 -1.21875 -0.234375q-0.875 0 -1.515625 0.453125q-0.625 0.4375 -0.96875 1.203125q-0.328125 0.75 -0.328125 1.71875q0 1.125 0.4375 1.875q0.4375 0.75 1.109375 1.109375q0.6875 0.359375 1.4375 0.359375q0.96875 0 1.59375 -0.453125q0.640625 -0.453125 1.015625 -1.140625l1.25 0.609375q-0.515625 1.0 -1.484375 1.671875q-0.96875 0.65625 -2.421875 0.65625zm5.0354614 -7.78125l0 -1.34375l5.375 0l0 1.34375l-5.375 0zm1.625 7.5l0 -9.796875q0 -0.859375 0.375 -1.46875q0.390625 -0.625 1.03125 -0.953125q0.65625 -0.328125 1.421875 -0.328125q0.5 0 0.796875 0.0625q0.296875 0.0625 0.5 0.140625l0 1.4375q-0.21875 -0.078125 -0.515625 -0.171875q-0.296875 -0.09375 -0.734375 -0.09375q-0.53125 0 -0.96875 0.390625q-0.421875 0.390625 -0.421875 1.140625l0 9.640625l-1.484375 0zm8.951843 0.28125q-1.28125 0 -2.28125 -0.609375q-1.0 -0.609375 -1.5625 -1.65625q-0.5625 -1.0625 -0.5625 -2.421875q0 -1.265625 0.53125 -2.328125q0.53125 -1.078125 1.484375 -1.71875q0.96875 -0.65625 2.265625 -0.65625q1.3125 0 2.25 0.578125q0.953125 0.578125 1.453125 1.609375q0.515625 1.015625 0.515625 2.328125q0 0.125 -0.015625 0.25q0 0.109375 -0.015625 0.203125l-7.609375 0l0 -1.21875l6.09375 0q-0.015625 -0.359375 -0.171875 -0.78125q-0.140625 -0.421875 -0.46875 -0.796875q-0.3125 -0.375 -0.8125 -0.609375q-0.5 -0.234375 -1.21875 -0.234375q-0.875 0 -1.515625 0.453125q-0.625 0.4375 -0.96875 1.203125q-0.328125 0.75 -0.328125 1.71875q0 1.125 0.4375 1.875q0.4375 0.75 1.109375 1.109375q0.6875 0.359375 1.4375 0.359375q0.96875 0 1.59375 -0.453125q0.640625 -0.453125 1.015625 -1.140625l1.25 0.609375q-0.515625 1.0 -1.484375 1.671875q-0.96875 0.65625 -2.421875 0.65625zm5.8181763 -0.28125l0 -8.84375l1.40625 0l0 1.421875l0.0625 0q0.171875 -0.5 0.578125 -0.859375q0.40625 -0.375 0.9375 -0.59375q0.53125 -0.21875 1.046875 -0.21875q0.40625 0 0.625 0.046875q0.234375 0.03125 0.421875 0.125l0 1.59375q-0.28125 -0.140625 -0.609375 -0.203125q-0.3125 -0.078125 -0.640625 -0.078125q-0.640625 0 -1.1875 0.375q-0.53125 0.359375 -0.859375 0.96875q-0.3125 0.59375 -0.3125 1.328125l0 4.9375l-1.46875 0zm9.915527 0.28125q-1.28125 0 -2.28125 -0.609375q-1.0 -0.609375 -1.5625 -1.65625q-0.5625 -1.0625 -0.5625 -2.421875q0 -1.265625 0.53125 -2.328125q0.53125 -1.078125 1.484375 -1.71875q0.96875 -0.65625 2.265625 -0.65625q1.3125 0 2.25 0.578125q0.953125 0.578125 1.453125 1.609375q0.515625 1.015625 0.515625 2.328125q0 0.125 -0.015625 0.25q0 0.109375 -0.015625 0.203125l-7.609375 0l0 -1.21875l6.09375 0q-0.015625 -0.359375 -0.171875 -0.78125q-0.140625 -0.421875 -0.46875 -0.796875q-0.3125 -0.375 -0.8125 -0.609375q-0.5 -0.234375 -1.21875 -0.234375q-0.875 0 -1.515625 0.453125q-0.625 0.4375 -0.96875 1.203125q-0.328125 0.75 -0.328125 1.71875q0 1.125 0.4375 1.875q0.4375 0.75 1.109375 1.109375q0.6875 0.359375 1.4375 0.359375q0.96875 0 1.59375 -0.453125q0.640625 -0.453125 1.015625 -1.140625l1.25 0.609375q-0.515625 1.0 -1.484375 1.671875q-0.96875 0.65625 -2.421875 0.65625zm5.8181763 -0.28125l0 -8.84375l1.40625 0l0 1.3125l0.0625 0q0.34375 -0.640625 1.125 -1.109375q0.796875 -0.46875 1.734375 -0.46875q1.625 0 2.453125 0.953125q0.828125 0.9375 0.828125 2.484375l0 5.671875l-1.484375 0l0 -5.4375q0 -1.28125 -0.609375 -1.8125q-0.609375 -0.53125 -1.578125 -0.53125q-0.734375 0 -1.296875 0.40625q-0.546875 0.40625 -0.859375 1.046875q-0.3125 0.640625 -0.3125 1.359375l0 4.96875l-1.46875 0zm13.721008 0.28125q-1.296875 0 -2.3125 -0.609375q-1.015625 -0.625 -1.59375 -1.6875q-0.5625 -1.0625 -0.5625 -2.40625q0 -1.34375 0.5625 -2.40625q0.578125 -1.0625 1.59375 -1.671875q1.015625 -0.609375 2.3125 -0.609375q1.484375 0 2.453125 0.6875q0.96875 0.671875 1.359375 1.75l-1.328125 0.5625q-0.328125 -0.828125 -0.984375 -1.25q-0.65625 -0.421875 -1.5625 -0.421875q-0.78125 0 -1.453125 0.421875q-0.671875 0.40625 -1.09375 1.171875q-0.40625 0.75 -0.40625 1.765625q0 1.015625 0.40625 1.78125q0.421875 0.75 1.09375 1.171875q0.671875 0.40625 1.453125 0.40625q0.921875 0 1.59375 -0.421875q0.6875 -0.4375 1.015625 -1.234375l1.3125 0.546875q-0.421875 1.03125 -1.40625 1.75q-0.96875 0.703125 -2.453125 0.703125zm9.311951 0q-1.28125 0 -2.28125 -0.609375q-1.0 -0.609375 -1.5625 -1.65625q-0.5625 -1.0625 -0.5625 -2.421875q0 -1.265625 0.53125 -2.328125q0.53125 -1.078125 1.484375 -1.71875q0.96875 -0.65625 2.265625 -0.65625q1.3125 0 2.25 0.578125q0.953125 0.578125 1.453125 1.609375q0.515625 1.015625 0.515625 2.328125q0 0.125 -0.015625 0.25q0 0.109375 -0.015625 0.203125l-7.609375 0l0 -1.21875l6.09375 0q-0.015625 -0.359375 -0.171875 -0.78125q-0.140625 -0.421875 -0.46875 -0.796875q-0.3125 -0.375 -0.8125 -0.609375q-0.5 -0.234375 -1.21875 -0.234375q-0.875 0 -1.515625 0.453125q-0.625 0.4375 -0.96875 1.203125q-0.328125 0.75 -0.328125 1.71875q0 1.125 0.4375 1.875q0.4375 0.75 1.109375 1.109375q0.6875 0.359375 1.4375 0.359375q0.96875 0 1.59375 -0.453125q0.640625 -0.453125 1.015625 -1.140625l1.25 0.609375q-0.515625 1.0 -1.484375 1.671875q-0.96875 0.65625 -2.421875 0.65625zm11.927551 0q-1.3125 0 -2.484375 -0.484375q-1.171875 -0.484375 -2.0625 -1.359375q-0.875 -0.890625 -1.375 -2.0625q-0.5 -1.1875 -0.5 -2.578125q0 -1.390625 0.5 -2.5625q0.5 -1.1875 1.375 -2.0625q0.890625 -0.890625 2.0625 -1.375q1.171875 -0.484375 2.484375 -0.484375q1.375 0 2.578125 0.484375q1.203125 0.484375 1.984375 1.375l-1.046875 1.03125q-0.390625 -0.484375 -0.953125 -0.8125q-0.546875 -0.328125 -1.1875 -0.5q-0.640625 -0.171875 -1.359375 -0.171875q-0.984375 0 -1.890625 0.359375q-0.890625 0.359375 -1.578125 1.03125q-0.6875 0.65625 -1.09375 1.59375q-0.390625 0.9375 -0.390625 2.09375q0 1.15625 0.40625 2.09375q0.40625 0.9375 1.09375 1.609375q0.703125 0.65625 1.59375 1.015625q0.890625 0.359375 1.859375 0.359375q0.84375 0 1.625 -0.234375q0.796875 -0.234375 1.421875 -0.71875q0.640625 -0.5 1.046875 -1.28125q0.421875 -0.78125 0.5 -1.875l-4.5625 0l0 -1.375l5.953125 0q0.03125 0.234375 0.0625 0.453125q0.03125 0.203125 0.03125 0.4375l0 0l0 0l0 0.015625q0 1.34375 -0.453125 2.4375q-0.453125 1.09375 -1.265625 1.890625q-0.8125 0.78125 -1.921875 1.21875q-1.109375 0.4375 -2.453125 0.4375zm7.2157593 -0.28125l0 -8.84375l1.40625 0l0 1.421875l0.0625 0q0.171875 -0.5 0.578125 -0.859375q0.40625 -0.375 0.9375 -0.59375q0.53125 -0.21875 1.046875 -0.21875q0.40625 0 0.625 0.046875q0.234375 0.03125 0.421875 0.125l0 1.59375q-0.28125 -0.140625 -0.609375 -0.203125q-0.3125 -0.078125 -0.640625 -0.078125q-0.640625 0 -1.1875 0.375q-0.53125 0.359375 -0.859375 0.96875q-0.3125 0.59375 -0.3125 1.328125l0 4.9375l-1.46875 0zm8.979492 0.28125q-1.0 0 -1.75 -0.375q-0.734375 -0.390625 -1.15625 -1.046875q-0.421875 -0.671875 -0.421875 -1.53125q0 -0.96875 0.5 -1.625q0.5 -0.671875 1.34375 -1.015625q0.859375 -0.34375 1.875 -0.34375q0.59375 0 1.09375 0.109375q0.5 0.09375 0.875 0.21875q0.375 0.125 0.5625 0.25l0 -0.53125q0 -1.015625 -0.71875 -1.59375q-0.703125 -0.59375 -1.71875 -0.59375q-0.734375 0 -1.375 0.328125q-0.625 0.3125 -0.984375 0.890625l-1.109375 -0.84375q0.34375 -0.515625 0.859375 -0.890625q0.53125 -0.390625 1.1875 -0.59375q0.671875 -0.203125 1.421875 -0.203125q1.796875 0 2.8125 0.953125q1.03125 0.953125 1.03125 2.5625l0 5.59375l-1.40625 0l0 -1.265625l-0.0625 0q-0.234375 0.375 -0.65625 0.734375q-0.40625 0.359375 -0.96875 0.578125q-0.5625 0.234375 -1.234375 0.234375zm0.140625 -1.296875q0.75 0 1.375 -0.375q0.640625 -0.390625 1.015625 -1.03125q0.390625 -0.640625 0.390625 -1.40625q-0.390625 -0.28125 -1.0 -0.453125q-0.59375 -0.171875 -1.296875 -0.171875q-1.265625 0 -1.859375 0.53125q-0.59375 0.515625 -0.59375 1.265625q0 0.734375 0.546875 1.1875q0.5625 0.453125 1.421875 0.453125zm6.232422 1.015625l0 -8.84375l1.40625 0l0 1.3125l0.0625 0q0.34375 -0.640625 1.125 -1.109375q0.796875 -0.46875 1.734375 -0.46875q1.625 0 2.453125 0.953125q0.828125 0.9375 0.828125 2.484375l0 5.671875l-1.484375 0l0 -5.4375q0 -1.28125 -0.609375 -1.8125q-0.609375 -0.53125 -1.578125 -0.53125q-0.734375 0 -1.296875 0.40625q-0.546875 0.40625 -0.859375 1.046875q-0.3125 0.640625 -0.3125 1.359375l0 4.96875l-1.46875 0zm8.678284 -8.84375l5.1875 0l0 1.34375l-5.1875 0l0 -1.34375zm1.546875 6.515625l0 -9.0l1.46875 0l0 8.640625q0 0.6875 0.28125 1.078125q0.296875 0.375 0.953125 0.375q0.296875 0 0.53125 -0.078125q0.25 -0.09375 0.4375 -0.21875l0 1.4375q-0.234375 0.109375 -0.5 0.171875q-0.265625 0.0625 -0.71875 0.0625q-1.109375 0 -1.78125 -0.640625q-0.671875 -0.65625 -0.671875 -1.828125z" fill-rule="nonzero"/><path fill="#000000" fill-opacity="0.0" d="m565.1575 294.5955c-37.648376 0 -53.684814 -44.762436 -75.29672 -85.49205c-21.611908 -40.7296 -48.799255 -77.42639 -86.79257 -85.49202c-37.993317 -8.065628 -86.79257 12.499908 -86.79257 24.999802" fill-rule="evenodd"/><path stroke="#6d9eeb" stroke-width="2.0" stroke-linejoin="round" stroke-linecap="butt" d="m565.1575 294.59546c-37.648376 0 -53.684814 -44.762405 -75.29669 -85.492004c-21.611938 -40.729614 -48.799316 -77.42641 -86.79263 -85.49204c-18.996613 -4.032814 -40.694794 -0.9078369 -57.64377 4.787834c-8.474487 2.8478394 -15.761688 6.338333 -20.930267 9.898132c-0.32302856 0.2224884 -0.63778687 0.4452362 -0.94403076 0.6681366l-0.06826782 0.050369263" fill-rule="evenodd"/><path fill="#6d9eeb" stroke="#6d9eeb" stroke-width="2.0" stroke-linecap="butt" d="m320.84033 137.0321l-2.8089294 9.241211l8.091888 -5.2736206z" fill-rule="evenodd"/></g></svg>