<svg version="1.1" viewBox="0.0 0.0 960.0 540.0" fill="none" stroke="none" stroke-linecap="square" stroke-miterlimit="10" xmlns:xlink="http://www.w3.org/1999/xlink" xmlns="http://www.w3.org/2000/svg"><clipPath id="g126a0ad2688_0_55.0"><path d="m0 0l960.0 0l0 540.0l-960.0 0l0 -540.0z" clip-rule="nonzero"/></clipPath><g clip-path="url(#g126a0ad2688_0_55.0)"><path fill="#ffffff" d="m0 0l960.0 0l0 540.0l-960.0 0z" fill-rule="evenodd"/><path fill="#c9daf8" d="m232.25197 272.65878l0 0c0 -136.82745 110.92058 -247.74802 247.74803 -247.74802l0 0c65.70685 0 128.72253 26.10195 175.18433 72.56372c46.46173 46.46177 72.56372 109.477455 72.56372 175.1843l0 0c0 136.82748 -110.92059 247.74802 -247.74805 247.74802l0 0c-136.82745 0 -247.74803 -110.92053 -247.74803 -247.74802z" fill-rule="evenodd"/><path stroke="#a4c2f4" stroke-width="1.0" stroke-linejoin="round" stroke-linecap="butt" d="m232.25197 272.65878l0 0c0 -136.82745 110.92058 -247.74802 247.74803 -247.74802l0 0c65.70685 0 128.72253 26.10195 175.18433 72.56372c46.46173 46.46177 72.56372 109.477455 72.56372 175.1843l0 0c0 136.82748 -110.92059 247.74802 -247.74805 247.74802l0 0c-136.82745 0 -247.74803 -110.92053 -247.74803 -247.74802z" fill-rule="evenodd"/><path fill="#000000" fill-opacity="0.0" d="m297.3071 94.3727l365.38583 0l0 109.88976l-365.38583 0z" fill-rule="evenodd"/><path fill="#1c4587" d="m383.64233 121.2927l0 -13.359375l8.46875 0l0 2.390625l-5.953125 0l0 8.578125l5.953125 0l0 2.390625l-8.46875 0zm1.390625 -5.484375l0 -2.390625l6.484375 0l0 2.390625l-6.484375 0zm8.20462 5.484375l4.015625 -5.890625l0.25 0l2.25 -3.625l2.984375 0l-4.046875 5.671875l-0.09375 0l-2.46875 3.84375l-2.890625 0zm0.015625 -9.515625l2.890625 0l2.453125 3.6875l0.125 0l4.015625 5.828125l-2.890625 0l-2.546875 -3.875l-0.09375 0l-3.953125 -5.640625zm10.859131 13.546875l0 -13.546875l2.296875 0l0 1.15625l0.140625 0q0.25 -0.375 0.640625 -0.703125q0.40625 -0.34375 0.96875 -0.546875q0.5625 -0.203125 1.25 -0.203125q1.296875 0 2.328125 0.640625q1.046875 0.640625 1.640625 1.78125q0.609375 1.140625 0.609375 2.640625q0 1.484375 -0.609375 2.625q-0.59375 1.140625 -1.640625 1.78125q-1.03125 0.640625 -2.328125 0.640625q-1.03125 0 -1.765625 -0.4375q-0.734375 -0.4375 -1.09375 -1.0l-0.140625 0l0.140625 1.34375l0 3.828125l-2.4375 0zm4.859375 -5.984375q0.6875 0 1.28125 -0.34375q0.59375 -0.359375 0.953125 -0.984375q0.359375 -0.640625 0.359375 -1.46875q0 -0.859375 -0.359375 -1.46875q-0.359375 -0.625 -0.953125 -0.96875q-0.59375 -0.34375 -1.28125 -0.34375q-0.671875 0 -1.265625 0.34375q-0.578125 0.34375 -0.9375 0.96875q-0.359375 0.625 -0.359375 1.46875q0 0.828125 0.359375 1.453125q0.359375 0.625 0.9375 0.984375q0.59375 0.359375 1.265625 0.359375zm11.369324 2.25q-1.4375 0 -2.578125 -0.640625q-1.125 -0.65625 -1.765625 -1.796875q-0.640625 -1.140625 -0.640625 -2.59375q0 -1.359375 0.625 -2.515625q0.640625 -1.15625 1.734375 -1.859375q1.109375 -0.703125 2.53125 -0.703125q1.53125 0 2.5625 0.65625q1.046875 0.65625 1.59375 1.75q0.546875 1.078125 0.546875 2.40625q0 0.296875 -0.03125 0.515625q-0.015625 0.21875 -0.03125 0.3125l-8.171875 0l0 -1.734375l5.875 0q-0.015625 -0.328125 -0.1875 -0.65625q-0.15625 -0.34375 -0.46875 -0.625q-0.296875 -0.28125 -0.71875 -0.453125q-0.40625 -0.171875 -0.953125 -0.171875q-0.703125 0 -1.296875 0.375q-0.59375 0.359375 -0.9375 1.03125q-0.328125 0.65625 -0.328125 1.578125q0 0.953125 0.359375 1.609375q0.359375 0.65625 0.953125 1.015625q0.609375 0.34375 1.359375 0.34375q0.875 0 1.46875 -0.375q0.609375 -0.390625 0.9375 -0.96875l1.984375 0.96875q-0.671875 1.171875 -1.765625 1.859375q-1.078125 0.671875 -2.65625 0.671875zm6.482483 -0.296875l0 -9.515625l2.296875 0l0 1.265625l0.15625 0q0.234375 -0.4375 0.640625 -0.78125q0.40625 -0.359375 0.9375 -0.5625q0.546875 -0.203125 1.15625 -0.203125q0.375 0 0.671875 0.0625q0.296875 0.046875 0.53125 0.140625l0 2.453125q-0.390625 -0.15625 -0.78125 -0.25q-0.375 -0.109375 -0.8125 -0.109375q-0.71875 0 -1.25 0.375q-0.53125 0.359375 -0.8125 0.984375q-0.28125 0.625 -0.28125 1.40625l0 4.734375l-2.453125 0zm8.122467 0l0 -9.515625l2.4375 0l0 9.515625l-2.4375 0zm1.234375 -10.5625q-0.65625 0 -1.125 -0.46875q-0.46875 -0.46875 -0.46875 -1.109375q0 -0.65625 0.46875 -1.109375q0.46875 -0.46875 1.125 -0.46875q0.65625 0 1.109375 0.46875q0.453125 0.453125 0.453125 1.109375q0 0.640625 -0.453125 1.109375q-0.453125 0.46875 -1.109375 0.46875zm3.7398376 10.5625l0 -9.515625l2.296875 0l0 1.1875l0.15625 0q0.296875 -0.4375 0.71875 -0.765625q0.4375 -0.34375 0.984375 -0.53125q0.546875 -0.1875 1.1875 -0.1875q1.046875 0 1.78125 0.484375q0.734375 0.484375 1.03125 1.1875q0.4375 -0.6875 1.21875 -1.171875q0.796875 -0.5 1.96875 -0.5q1.671875 0 2.5 1.015625q0.828125 1.0 0.828125 2.671875l0 6.125l-2.421875 0l0 -5.671875q0 -0.90625 -0.4375 -1.375q-0.421875 -0.484375 -1.15625 -0.484375q-0.625 0 -1.109375 0.34375q-0.46875 0.34375 -0.734375 0.96875q-0.25 0.609375 -0.25 1.421875l0 4.796875l-2.4375 0l0 -5.671875q0 -0.90625 -0.4375 -1.375q-0.4375 -0.484375 -1.234375 -0.484375q-0.609375 0 -1.0625 0.34375q-0.453125 0.34375 -0.703125 0.96875q-0.234375 0.609375 -0.234375 1.421875l0 4.796875l-2.453125 0zm21.445923 0.296875q-1.4375 0 -2.578125 -0.640625q-1.125 -0.65625 -1.765625 -1.796875q-0.640625 -1.140625 -0.640625 -2.59375q0 -1.359375 0.625 -2.515625q0.640625 -1.15625 1.734375 -1.859375q1.109375 -0.703125 2.53125 -0.703125q1.53125 0 2.5625 0.65625q1.046875 0.65625 1.59375 1.75q0.546875 1.078125 0.546875 2.40625q0 0.296875 -0.03125 0.515625q-0.015625 0.21875 -0.03125 0.3125l-8.171875 0l0 -1.734375l5.875 0q-0.015625 -0.328125 -0.1875 -0.65625q-0.15625 -0.34375 -0.46875 -0.625q-0.296875 -0.28125 -0.71875 -0.453125q-0.40625 -0.171875 -0.953125 -0.171875q-0.703125 0 -1.296875 0.375q-0.59375 0.359375 -0.9375 1.03125q-0.328125 0.65625 -0.328125 1.578125q0 0.953125 0.359375 1.609375q0.359375 0.65625 0.953125 1.015625q0.609375 0.34375 1.359375 0.34375q0.875 0 1.46875 -0.375q0.609375 -0.390625 0.9375 -0.96875l1.984375 0.96875q-0.671875 1.171875 -1.765625 1.859375q-1.078125 0.671875 -2.65625 0.671875zm6.482483 -0.296875l0 -9.515625l2.296875 0l0 1.1875l0.15625 0q0.421875 -0.6875 1.203125 -1.078125q0.796875 -0.40625 1.703125 -0.40625q1.75 0 2.625 1.0625q0.890625 1.0625 0.890625 2.84375l0 5.90625l-2.453125 0l0 -5.609375q0 -0.9375 -0.484375 -1.421875q-0.46875 -0.5 -1.28125 -0.5q-0.671875 0 -1.171875 0.359375q-0.5 0.359375 -0.765625 0.96875q-0.265625 0.609375 -0.265625 1.359375l0 4.84375l-2.453125 0zm10.03656 -9.515625l6.4375 0l0 2.09375l-6.4375 0l0 -2.09375zm1.671875 6.46875l0 -9.15625l2.4375 0l0 8.71875q0 0.65625 0.28125 1.0q0.28125 0.34375 0.9375 0.34375q0.375 0 0.625 -0.109375q0.25 -0.125 0.5625 -0.3125l0 2.390625q-0.390625 0.15625 -0.8125 0.234375q-0.421875 0.09375 -0.890625 0.09375q-1.46875 0 -2.3125 -0.84375q-0.828125 -0.859375 -0.828125 -2.359375zm9.533508 3.34375q-1.015625 0 -1.796875 -0.390625q-0.765625 -0.40625 -1.21875 -1.125q-0.4375 -0.734375 -0.4375 -1.6875q0 -1.0 0.5 -1.703125q0.515625 -0.703125 1.390625 -1.09375q0.875 -0.390625 1.9375 -0.390625q0.578125 0 1.046875 0.0625q0.46875 0.0625 0.84375 0.15625q0.375 0.09375 0.625 0.203125l0 -0.40625q0 -0.765625 -0.578125 -1.25q-0.578125 -0.5 -1.59375 -0.5q-0.671875 0 -1.296875 0.3125q-0.625 0.296875 -1.03125 0.796875l-1.5625 -1.234375q0.46875 -0.59375 1.078125 -1.015625q0.609375 -0.421875 1.359375 -0.625q0.75 -0.21875 1.5625 -0.21875q2.1875 0 3.328125 1.015625q1.140625 1.0 1.140625 2.9375l0 5.859375l-2.40625 0l0 -0.96875l-0.15625 0q-0.265625 0.328125 -0.65625 0.625q-0.390625 0.28125 -0.921875 0.453125q-0.515625 0.1875 -1.15625 0.1875zm0.578125 -1.90625q0.734375 0 1.25 -0.3125q0.515625 -0.328125 0.78125 -0.84375q0.28125 -0.53125 0.28125 -1.109375q-0.421875 -0.203125 -0.9375 -0.328125q-0.515625 -0.125 -1.0625 -0.125q-1.078125 0 -1.5 0.421875q-0.40625 0.40625 -0.40625 1.0q0 0.5625 0.40625 0.9375q0.40625 0.359375 1.1875 0.359375zm6.997406 1.609375l0 -13.359375l2.4375 0l0 13.359375l-2.4375 0zm15.502136 0.296875q-1.484375 0 -2.765625 -0.53125q-1.265625 -0.53125 -2.21875 -1.484375q-0.953125 -0.953125 -1.484375 -2.21875q-0.53125 -1.265625 -0.53125 -2.734375q0 -1.484375 0.53125 -2.75q0.53125 -1.265625 1.484375 -2.21875q0.953125 -0.953125 2.21875 -1.484375q1.28125 -0.53125 2.765625 -0.53125q1.0625 0 1.953125 0.25q0.890625 0.25 1.640625 0.734375q0.765625 0.484375 1.40625 1.203125l-1.78125 1.71875q-0.390625 -0.46875 -0.875 -0.796875q-0.46875 -0.34375 -1.046875 -0.53125q-0.578125 -0.1875 -1.28125 -0.1875q-1.25 0 -2.265625 0.578125q-1.015625 0.5625 -1.625 1.59375q-0.59375 1.015625 -0.59375 2.421875q0 1.375 0.59375 2.40625q0.609375 1.03125 1.625 1.609375q1.015625 0.5625 2.265625 0.5625q0.75 0 1.375 -0.203125q0.640625 -0.203125 1.171875 -0.59375q0.53125 -0.40625 0.984375 -0.953125l1.78125 1.703125q-0.65625 0.78125 -1.484375 1.328125q-0.8125 0.546875 -1.78125 0.828125q-0.96875 0.28125 -2.0625 0.28125zm7.133667 -0.296875l0 -13.359375l2.453125 0l0 3.375l-0.15625 1.65625l0.15625 0q0.40625 -0.640625 1.171875 -1.0625q0.78125 -0.421875 1.71875 -0.421875q1.171875 0 1.96875 0.484375q0.8125 0.46875 1.203125 1.34375q0.40625 0.875 0.40625 2.078125l0 5.90625l-2.4375 0l0 -5.609375q0 -0.640625 -0.234375 -1.0625q-0.234375 -0.421875 -0.640625 -0.640625q-0.390625 -0.21875 -0.9375 -0.21875q-0.65625 0 -1.15625 0.359375q-0.5 0.359375 -0.78125 0.984375q-0.28125 0.609375 -0.28125 1.359375l0 4.828125l-2.453125 0zm14.05957 0.296875q-1.015625 0 -1.796875 -0.390625q-0.765625 -0.40625 -1.21875 -1.125q-0.4375 -0.734375 -0.4375 -1.6875q0 -1.0 0.5 -1.703125q0.515625 -0.703125 1.390625 -1.09375q0.875 -0.390625 1.9375 -0.390625q0.578125 0 1.046875 0.0625q0.46875 0.0625 0.84375 0.15625q0.375 0.09375 0.625 0.203125l0 -0.40625q0 -0.765625 -0.578125 -1.25q-0.578125 -0.5 -1.59375 -0.5q-0.671875 0 -1.296875 0.3125q-0.625 0.296875 -1.03125 0.796875l-1.5625 -1.234375q0.46875 -0.59375 1.078125 -1.015625q0.609375 -0.421875 1.359375 -0.625q0.75 -0.21875 1.5625 -0.21875q2.1875 0 3.328125 1.015625q1.140625 1.0 1.140625 2.9375l0 5.859375l-2.40625 0l0 -0.96875l-0.15625 0q-0.265625 0.328125 -0.65625 0.625q-0.390625 0.28125 -0.921875 0.453125q-0.515625 0.1875 -1.15625 0.1875zm0.578125 -1.90625q0.734375 0 1.25 -0.3125q0.515625 -0.328125 0.78125 -0.84375q0.28125 -0.53125 0.28125 -1.109375q-0.421875 -0.203125 -0.9375 -0.328125q-0.515625 -0.125 -1.0625 -0.125q-1.078125 0 -1.5 0.421875q-0.40625 0.40625 -0.40625 1.0q0 0.5625 0.40625 0.9375q0.40625 0.359375 1.1875 0.359375zm6.9661865 1.609375l0 -9.515625l2.296875 0l0 1.1875l0.15625 0q0.421875 -0.6875 1.203125 -1.078125q0.796875 -0.40625 1.703125 -0.40625q1.75 0 2.625 1.0625q0.890625 1.0625 0.890625 2.84375l0 5.90625l-2.453125 0l0 -5.609375q0 -0.9375 -0.484375 -1.421875q-0.46875 -0.5 -1.28125 -0.5q-0.671875 0 -1.171875 0.359375q-0.5 0.359375 -0.765625 0.96875q-0.265625 0.609375 -0.265625 1.359375l0 4.84375l-2.453125 0zm11.17511 0l0 -9.515625l2.296814 0l0 1.1875l0.15625 0q0.421875 -0.6875 1.203125 -1.078125q0.796875 -0.40625 1.703125 -0.40625q1.75 0 2.625 1.0625q0.890625 1.0625 0.890625 2.84375l0 5.90625l-2.453125 0l0 -5.609375q0 -0.9375 -0.484375 -1.421875q-0.46875 -0.5 -1.28125 -0.5q-0.671875 0 -1.171875 0.359375q-0.5 0.359375 -0.765625 0.96875q-0.265625 0.609375 -0.265625 1.359375l0 4.84375l-2.453064 0zm15.643799 0.296875q-1.4375 0 -2.578125 -0.640625q-1.125 -0.65625 -1.765625 -1.796875q-0.640625 -1.140625 -0.640625 -2.59375q0 -1.359375 0.625 -2.515625q0.640625 -1.15625 1.734375 -1.859375q1.109375 -0.703125 2.53125 -0.703125q1.53125 0 2.5625 0.65625q1.046875 0.65625 1.59375 1.75q0.546875 1.078125 0.546875 2.40625q0 0.296875 -0.03125 0.515625q-0.015625 0.21875 -0.03125 0.3125l-8.171875 0l0 -1.734375l5.875 0q-0.015625 -0.328125 -0.1875 -0.65625q-0.15625 -0.34375 -0.46875 -0.625q-0.296875 -0.28125 -0.71875 -0.453125q-0.40625 -0.171875 -0.953125 -0.171875q-0.703125 0 -1.296875 0.375q-0.59375 0.359375 -0.9375 1.03125q-0.328125 0.65625 -0.328125 1.578125q0 0.953125 0.359375 1.609375q0.359375 0.65625 0.953125 1.015625q0.609375 0.34375 1.359375 0.34375q0.875 0 1.46875 -0.375q0.609375 -0.390625 0.9375 -0.96875l1.984375 0.96875q-0.671875 1.171875 -1.765625 1.859375q-1.078125 0.671875 -2.65625 0.671875zm6.513733 -0.296875l0 -13.359375l2.4375 0l0 13.359375l-2.4375 0z" fill-rule="nonzero"/><path fill="#1c4587" d="m326.3033 166.0927l5.078125 -13.359375l1.78125 0l5.078125 13.359375l-1.734375 0l-3.671875 -9.984375l-0.53125 -1.4375l-0.0625 0l-0.53125 1.4375l-3.671875 9.984375l-1.734375 0zm5.78125 -3.671875l0 -1.5l3.078125 0l0.546875 1.5l-3.625 0zm-3.625 0l0.546875 -1.5l3.078125 0l0 1.5l-3.625 0zm11.562195 3.671875l0 -13.359375l4.484375 0q1.125 0 2.078125 0.515625q0.953125 0.5 1.515625 1.390625q0.578125 0.875 0.578125 2.046875q0 1.15625 -0.578125 2.0625q-0.5625 0.890625 -1.515625 1.390625q-0.953125 0.5 -2.078125 0.5l-3.65625 0l0 -1.5l3.703125 0q0.78125 0 1.328125 -0.359375q0.5625 -0.375 0.875 -0.9375q0.3125 -0.5625 0.3125 -1.15625q0 -0.59375 -0.3125 -1.15625q-0.3125 -0.5625 -0.875 -0.921875q-0.546875 -0.359375 -1.328125 -0.359375l-2.953125 0l0 11.84375l-1.578125 0zm10.746002 0l0 -13.359375l1.578125 0l0 13.359375l-1.578125 0zm11.652374 0l-4.734375 -13.359375l1.75 0l3.296875 9.6875l0.453125 1.328125l0.078125 0l0.46875 -1.328125l3.4375 -9.6875l1.765625 0l-4.890625 13.359375l-1.625 0zm11.05835 0.296875q-1.375 0 -2.453125 -0.640625q-1.0625 -0.65625 -1.671875 -1.796875q-0.609375 -1.140625 -0.609375 -2.59375q0 -1.359375 0.5625 -2.515625q0.578125 -1.15625 1.609375 -1.859375q1.03125 -0.703125 2.4375 -0.703125q1.421875 0 2.4375 0.625q1.015625 0.625 1.5625 1.734375q0.546875 1.09375 0.546875 2.515625q0 0.125 -0.015625 0.265625q0 0.125 -0.015625 0.21875l-8.1875 0l0 -1.3125l6.546875 0q-0.015625 -0.390625 -0.1875 -0.84375q-0.15625 -0.46875 -0.5 -0.859375q-0.34375 -0.40625 -0.875 -0.65625q-0.53125 -0.25 -1.3125 -0.25q-0.9375 0 -1.625 0.484375q-0.671875 0.46875 -1.046875 1.296875q-0.359375 0.8125 -0.359375 1.859375q0 1.203125 0.46875 2.015625q0.46875 0.796875 1.203125 1.1875q0.75 0.390625 1.546875 0.390625q1.046875 0 1.71875 -0.484375q0.6875 -0.5 1.09375 -1.234375l1.34375 0.65625q-0.5625 1.078125 -1.609375 1.796875q-1.03125 0.703125 -2.609375 0.703125zm6.2690735 -0.296875l0 -9.515625l1.515625 0l0 1.53125l0.078125 0q0.1875 -0.546875 0.625 -0.9375q0.4375 -0.40625 1.0 -0.640625q0.578125 -0.234375 1.125 -0.234375q0.4375 0 0.671875 0.046875q0.25 0.046875 0.453125 0.140625l0 1.71875q-0.296875 -0.15625 -0.640625 -0.21875q-0.34375 -0.078125 -0.703125 -0.078125q-0.6875 0 -1.265625 0.390625q-0.578125 0.390625 -0.921875 1.046875q-0.34375 0.65625 -0.34375 1.4375l0 5.3125l-1.59375 0zm9.950897 0.296875q-1.0625 0 -1.875 -0.34375q-0.8125 -0.34375 -1.34375 -0.921875q-0.53125 -0.59375 -0.796875 -1.28125l1.421875 -0.640625q0.375 0.859375 1.078125 1.328125q0.703125 0.46875 1.625 0.46875q0.875 0 1.453125 -0.359375q0.59375 -0.359375 0.59375 -1.046875q0 -0.421875 -0.25 -0.703125q-0.234375 -0.296875 -0.703125 -0.5q-0.453125 -0.21875 -1.125 -0.375l-1.15625 -0.3125q-0.671875 -0.1875 -1.28125 -0.515625q-0.59375 -0.34375 -0.953125 -0.875q-0.359375 -0.53125 -0.359375 -1.296875q0 -0.84375 0.5 -1.453125q0.5 -0.625 1.3125 -0.953125q0.828125 -0.328125 1.765625 -0.328125q0.8125 0 1.53125 0.234375q0.71875 0.234375 1.265625 0.6875q0.546875 0.453125 0.8125 1.125l-1.375 0.640625q-0.359375 -0.703125 -0.953125 -0.984375q-0.59375 -0.28125 -1.328125 -0.28125q-0.78125 0 -1.359375 0.34375q-0.578125 0.34375 -0.578125 0.9375q0 0.59375 0.46875 0.90625q0.484375 0.296875 1.171875 0.46875l1.390625 0.359375q1.390625 0.359375 2.09375 1.0625q0.71875 0.6875 0.71875 1.703125q0 0.890625 -0.515625 1.546875q-0.5 0.65625 -1.359375 1.015625q-0.84375 0.34375 -1.890625 0.34375zm5.5591736 -0.296875l0 -9.515625l1.578125 0l0 9.515625l-1.578125 0zm0.78125 -11.265625q-0.46875 0 -0.8125 -0.328125q-0.328125 -0.34375 -0.328125 -0.8125q0 -0.484375 0.328125 -0.8125q0.34375 -0.328125 0.8125 -0.328125q0.484375 0 0.8125 0.328125q0.328125 0.328125 0.328125 0.8125q0 0.46875 -0.328125 0.8125q-0.328125 0.328125 -0.8125 0.328125zm7.576111 11.5625q-1.4375 0 -2.546875 -0.671875q-1.09375 -0.671875 -1.71875 -1.8125q-0.625 -1.15625 -0.625 -2.5625q0 -1.421875 0.625 -2.5625q0.625 -1.15625 1.71875 -1.828125q1.109375 -0.671875 2.546875 -0.671875q1.4375 0 2.53125 0.6875q1.109375 0.671875 1.734375 1.828125q0.625 1.140625 0.625 2.546875q0 1.40625 -0.625 2.5625q-0.625 1.140625 -1.734375 1.8125q-1.09375 0.671875 -2.53125 0.671875zm0 -1.4375q0.859375 0 1.609375 -0.421875q0.75 -0.4375 1.21875 -1.25q0.46875 -0.8125 0.46875 -1.9375q0 -1.140625 -0.46875 -1.953125q-0.46875 -0.8125 -1.21875 -1.234375q-0.75 -0.4375 -1.609375 -0.4375q-0.859375 0 -1.625 0.4375q-0.765625 0.421875 -1.234375 1.234375q-0.46875 0.8125 -0.46875 1.953125q0 1.125 0.46875 1.9375q0.46875 0.8125 1.234375 1.25q0.765625 0.421875 1.625 0.421875zm6.5418396 1.140625l0 -9.515625l1.515625 0l0 1.40625l0.078125 0q0.375 -0.703125 1.21875 -1.203125q0.84375 -0.5 1.859375 -0.5q1.75 0 2.625 1.015625q0.890625 1.015625 0.890625 2.703125l0 6.09375l-1.578125 0l0 -5.859375q0 -1.375 -0.671875 -1.9375q-0.65625 -0.578125 -1.703125 -0.578125q-0.78125 0 -1.375 0.4375q-0.59375 0.4375 -0.9375 1.125q-0.328125 0.6875 -0.328125 1.453125l0 5.359375l-1.59375 0zm13.700928 0.296875q-1.0625 0 -1.875 -0.34375q-0.8125 -0.34375 -1.34375 -0.921875q-0.53125 -0.59375 -0.796875 -1.28125l1.421875 -0.640625q0.375 0.859375 1.078125 1.328125q0.703125 0.46875 1.625 0.46875q0.875 0 1.453125 -0.359375q0.59375 -0.359375 0.59375 -1.046875q0 -0.421875 -0.25 -0.703125q-0.234375 -0.296875 -0.703125 -0.5q-0.453125 -0.21875 -1.125 -0.375l-1.15625 -0.3125q-0.671875 -0.1875 -1.28125 -0.515625q-0.59375 -0.34375 -0.953125 -0.875q-0.359375 -0.53125 -0.359375 -1.296875q0 -0.84375 0.5 -1.453125q0.5 -0.625 1.3125 -0.953125q0.828125 -0.328125 1.765625 -0.328125q0.8125 0 1.53125 0.234375q0.71875 0.234375 1.265625 0.6875q0.546875 0.453125 0.8125 1.125l-1.375 0.640625q-0.359375 -0.703125 -0.953125 -0.984375q-0.59375 -0.28125 -1.328125 -0.28125q-0.78125 0 -1.359375 0.34375q-0.578125 0.34375 -0.578125 0.9375q0 0.59375 0.46875 0.90625q0.484375 0.296875 1.171875 0.46875l1.390625 0.359375q1.390625 0.359375 2.09375 1.0625q0.71875 0.6875 0.71875 1.703125q0 0.890625 -0.515625 1.546875q-0.5 0.65625 -1.359375 1.015625q-0.84375 0.34375 -1.890625 0.34375zm6.543152 -7.53125q-0.5 0 -0.84375 -0.34375q-0.34375 -0.34375 -0.34375 -0.859375q0 -0.5 0.34375 -0.84375q0.34375 -0.34375 0.84375 -0.34375q0.5 0 0.84375 0.34375q0.359375 0.34375 0.359375 0.84375q0 0.515625 -0.359375 0.859375q-0.34375 0.34375 -0.84375 0.34375zm0 7.34375q-0.5 0 -0.84375 -0.34375q-0.34375 -0.34375 -0.34375 -0.84375q0 -0.484375 0.34375 -0.828125q0.34375 -0.34375 0.84375 -0.34375q0.5 0 0.84375 0.34375q0.359375 0.34375 0.359375 0.828125q0 0.5 -0.359375 0.84375q-0.34375 0.34375 -0.84375 0.34375zm6.270935 -0.109375l5.078125 -13.359375l1.78125 0l5.078125 13.359375l-1.734375 0l-3.671875 -9.984375l-0.53125 -1.4375l-0.0625 0l-0.53125 1.4375l-3.671875 9.984375l-1.734375 0zm5.78125 -3.671875l0 -1.5l3.078125 0l0.546875 1.5l-3.625 0zm-3.625 0l0.546875 -1.5l3.078125 0l0 1.5l-3.625 0zm11.23407 3.671875l0 -13.359375l1.59375 0l0 13.359375l-1.59375 0zm3.9364624 4.03125l0 -13.546875l1.515625 0l0 1.421875l0.078125 0q0.25 -0.453125 0.71875 -0.84375q0.484375 -0.390625 1.125 -0.625q0.640625 -0.25 1.390625 -0.25q1.3125 0 2.328125 0.65625q1.03125 0.65625 1.625 1.796875q0.609375 1.125 0.609375 2.609375q0 1.46875 -0.609375 2.609375q-0.59375 1.140625 -1.625 1.796875q-1.015625 0.640625 -2.328125 0.640625q-1.125 0 -1.984375 -0.515625q-0.859375 -0.53125 -1.25 -1.1875l-0.078125 0l0.078125 1.3125l0 4.125l-1.59375 0zm4.671875 -5.171875q0.8125 0 1.53125 -0.4375q0.71875 -0.4375 1.15625 -1.25q0.4375 -0.828125 0.4375 -1.921875q0 -1.125 -0.4375 -1.9375q-0.4375 -0.8125 -1.15625 -1.25q-0.71875 -0.4375 -1.53125 -0.4375q-0.828125 0 -1.546875 0.4375q-0.71875 0.4375 -1.171875 1.25q-0.4375 0.8125 -0.4375 1.9375q0 1.109375 0.4375 1.921875q0.453125 0.8125 1.171875 1.25q0.71875 0.4375 1.546875 0.4375zm6.372528 1.140625l0 -13.359375l1.59375 0l0 3.9375l-0.078125 1.3125l0.078125 0q0.375 -0.71875 1.21875 -1.203125q0.84375 -0.5 1.875 -0.5q1.21875 0 2.0 0.484375q0.78125 0.484375 1.171875 1.3125q0.390625 0.828125 0.390625 1.921875l0 6.09375l-1.59375 0l0 -5.859375q0 -0.90625 -0.328125 -1.453125q-0.3125 -0.5625 -0.84375 -0.8125q-0.53125 -0.25 -1.171875 -0.25q-0.78125 0 -1.40625 0.453125q-0.609375 0.4375 -0.96875 1.15625q-0.34375 0.703125 -0.34375 1.46875l0 5.296875l-1.59375 0zm13.4756775 0.296875q-1.0625 0 -1.875 -0.40625q-0.796875 -0.40625 -1.25 -1.125q-0.453125 -0.71875 -0.453125 -1.640625q0 -1.046875 0.53125 -1.765625q0.546875 -0.71875 1.453125 -1.078125q0.921875 -0.359375 2.015625 -0.359375q0.640625 0 1.171875 0.109375q0.546875 0.09375 0.9375 0.234375q0.40625 0.140625 0.625 0.265625l0 -0.578125q0 -1.078125 -0.765625 -1.703125q-0.765625 -0.640625 -1.875 -0.640625q-0.78125 0 -1.46875 0.34375q-0.671875 0.34375 -1.0625 0.953125l-1.203125 -0.890625q0.375 -0.5625 0.9375 -0.96875q0.5625 -0.40625 1.28125 -0.625q0.71875 -0.234375 1.515625 -0.234375q1.9375 0 3.03125 1.03125q1.109375 1.015625 1.109375 2.75l0 6.03125l-1.5 0l0 -1.359375l-0.078125 0q-0.25 0.40625 -0.703125 0.796875q-0.4375 0.375 -1.046875 0.609375q-0.609375 0.25 -1.328125 0.25zm0.140625 -1.390625q0.828125 0 1.5 -0.40625q0.6875 -0.421875 1.09375 -1.109375q0.421875 -0.6875 0.421875 -1.515625q-0.4375 -0.296875 -1.078125 -0.484375q-0.640625 -0.1875 -1.40625 -0.1875q-1.359375 0 -2.0 0.5625q-0.640625 0.5625 -0.640625 1.375q0 0.78125 0.59375 1.28125q0.609375 0.484375 1.515625 0.484375zm7.2658386 3.140625l-0.765625 -0.5l1.0 -1.546875q-0.296875 -0.0625 -0.59375 -0.328125q-0.28125 -0.28125 -0.28125 -0.75q0 -0.484375 0.34375 -0.828125q0.34375 -0.34375 0.859375 -0.34375q0.25 0 0.46875 0.09375q0.21875 0.078125 0.375 0.25q0.15625 0.15625 0.25 0.375q0.09375 0.203125 0.09375 0.453125q0 0.21875 -0.078125 0.4375q-0.0625 0.21875 -0.1875 0.421875q-0.109375 0.203125 -0.25 0.40625l-1.234375 1.859375zm8.549683 -2.046875l0 -13.359375l4.78125 0q1.03125 0 1.890625 0.46875q0.875 0.453125 1.40625 1.265625q0.53125 0.796875 0.53125 1.875q0 0.984375 -0.5 1.71875q-0.5 0.71875 -1.328125 1.09375l0 0.078125q0.984375 0.3125 1.625 1.140625q0.65625 0.8125 0.65625 1.9375q0 1.109375 -0.5625 1.96875q-0.5625 0.84375 -1.484375 1.328125q-0.90625 0.484375 -1.96875 0.484375l-5.046875 0zm0.828125 -6.078125l0 -1.515625l3.953125 0q0.71875 0 1.21875 -0.328125q0.5 -0.328125 0.765625 -0.8125q0.28125 -0.484375 0.28125 -0.984375q0 -0.5 -0.265625 -0.984375q-0.265625 -0.484375 -0.75 -0.8125q-0.484375 -0.328125 -1.171875 -0.328125l-3.28125 0l0 10.328125l3.5625 0q0.703125 0 1.21875 -0.34375q0.53125 -0.34375 0.8125 -0.875q0.28125 -0.53125 0.28125 -1.078125q0 -0.546875 -0.296875 -1.0625q-0.28125 -0.53125 -0.8125 -0.859375q-0.53125 -0.34375 -1.28125 -0.34375l-4.234375 0zm14.38382 6.375q-1.375 0 -2.453125 -0.640625q-1.0625 -0.65625 -1.671875 -1.796875q-0.609375 -1.140625 -0.609375 -2.59375q0 -1.359375 0.5625 -2.515625q0.578125 -1.15625 1.609375 -1.859375q1.03125 -0.703125 2.4375 -0.703125q1.421875 0 2.4375 0.625q1.0155945 0.625 1.5624695 1.734375q0.546875 1.09375 0.546875 2.515625q0 0.125 -0.015625 0.265625q0 0.125 -0.015625 0.21875l-8.1874695 0l0 -1.3125l6.5468445 0q-0.015625 -0.390625 -0.1875 -0.84375q-0.15625 -0.46875 -0.49996948 -0.859375q-0.34375 -0.40625 -0.875 -0.65625q-0.53125 -0.25 -1.3125 -0.25q-0.9375 0 -1.625 0.484375q-0.671875 0.46875 -1.046875 1.296875q-0.359375 0.8125 -0.359375 1.859375q0 1.203125 0.46875 2.015625q0.46875 0.796875 1.203125 1.1875q0.75 0.390625 1.546875 0.390625q1.046875 0 1.71875 -0.484375q0.6874695 -0.5 1.0937195 -1.234375l1.34375 0.65625q-0.5625 1.078125 -1.609375 1.796875q-1.0312195 0.703125 -2.6093445 0.703125zm5.332855 -9.8125l5.578125 0l0 1.4375l-5.578125 0l0 -1.4375zm1.671875 7.015625l0 -9.703125l1.578125 0l0 9.3125q0 0.75 0.3125 1.15625q0.3125 0.40625 1.015625 0.40625q0.3125 0 0.578125 -0.09375q0.265625 -0.09375 0.46875 -0.21875l0 1.546875q-0.25 0.109375 -0.546875 0.171875q-0.28125 0.078125 -0.765625 0.078125q-1.1875 0 -1.921875 -0.703125q-0.71875 -0.703125 -0.71875 -1.953125zm8.654114 2.796875q-1.0625 0 -1.875 -0.40625q-0.796875 -0.40625 -1.25 -1.125q-0.453125 -0.71875 -0.453125 -1.640625q0 -1.046875 0.53125 -1.765625q0.546875 -0.71875 1.453125 -1.078125q0.921875 -0.359375 2.015625 -0.359375q0.640625 0 1.171875 0.109375q0.546875 0.09375 0.9375 0.234375q0.40625 0.140625 0.625 0.265625l0 -0.578125q0 -1.078125 -0.765625 -1.703125q-0.765625 -0.640625 -1.875 -0.640625q-0.78125 0 -1.46875 0.34375q-0.671875 0.34375 -1.0625 0.953125l-1.203125 -0.890625q0.375 -0.5625 0.9375 -0.96875q0.5625 -0.40625 1.28125 -0.625q0.71875 -0.234375 1.515625 -0.234375q1.9375 0 3.03125 1.03125q1.109375 1.015625 1.109375 2.75l0 6.03125l-1.5 0l0 -1.359375l-0.078125 0q-0.25 0.40625 -0.703125 0.796875q-0.4375 0.375 -1.046875 0.609375q-0.609375 0.25 -1.328125 0.25zm0.140625 -1.390625q0.828125 0 1.5 -0.40625q0.6875 -0.421875 1.09375 -1.109375q0.421875 -0.6875 0.421875 -1.515625q-0.4375 -0.296875 -1.078125 -0.484375q-0.640625 -0.1875 -1.40625 -0.1875q-1.359375 0 -2.0 0.5625q-0.640625 0.5625 -0.640625 1.375q0 0.78125 0.59375 1.28125q0.609375 0.484375 1.515625 0.484375zm7.265808 3.140625l-0.765625 -0.5l1.0 -1.546875q-0.296875 -0.0625 -0.59375 -0.328125q-0.28125 -0.28125 -0.28125 -0.75q0 -0.484375 0.34375 -0.828125q0.34375 -0.34375 0.859375 -0.34375q0.25 0 0.46875 0.09375q0.21875 0.078125 0.375 0.25q0.15625 0.15625 0.25 0.375q0.09375 0.203125 0.09375 0.453125q0 0.21875 -0.078125 0.4375q-0.0625 0.21875 -0.1875 0.421875q-0.109375 0.203125 -0.25 0.40625l-1.234375 1.859375zm11.268433 -1.75q-1.0625 0 -1.875 -0.40625q-0.796875 -0.40625 -1.25 -1.125q-0.453125 -0.71875 -0.453125 -1.640625q0 -1.046875 0.53125 -1.765625q0.546875 -0.71875 1.453125 -1.078125q0.921875 -0.359375 2.015625 -0.359375q0.640625 0 1.171875 0.109375q0.546875 0.09375 0.9375 0.234375q0.40625 0.140625 0.625 0.265625l0 -0.578125q0 -1.078125 -0.765625 -1.703125q-0.765625 -0.640625 -1.875 -0.640625q-0.78125 0 -1.46875 0.34375q-0.671875 0.34375 -1.0625 0.953125l-1.203125 -0.890625q0.375 -0.5625 0.9375 -0.96875q0.5625 -0.40625 1.28125 -0.625q0.71875 -0.234375 1.515625 -0.234375q1.9375 0 3.03125 1.03125q1.109375 1.015625 1.109375 2.75l0 6.03125l-1.5 0l0 -1.359375l-0.078125 0q-0.25 0.40625 -0.703125 0.796875q-0.4375 0.375 -1.046875 0.609375q-0.609375 0.25 -1.328125 0.25zm0.140625 -1.390625q0.828125 0 1.5 -0.40625q0.6875 -0.421875 1.09375 -1.109375q0.421875 -0.6875 0.421875 -1.515625q-0.4375 -0.296875 -1.078125 -0.484375q-0.640625 -0.1875 -1.40625 -0.1875q-1.359375 0 -2.0 0.5625q-0.640625 0.5625 -0.640625 1.375q0 0.78125 0.59375 1.28125q0.609375 0.484375 1.515625 0.484375zm6.718994 1.09375l0 -9.515625l1.515625 0l0 1.40625l0.078125 0q0.375 -0.703125 1.21875 -1.203125q0.84375 -0.5 1.859375 -0.5q1.75 0 2.625 1.015625q0.890625 1.015625 0.890625 2.703125l0 6.09375l-1.578125 0l0 -5.859375q0 -1.375 -0.671875 -1.9375q-0.65625 -0.578125 -1.703125 -0.578125q-0.78125 0 -1.375 0.4375q-0.59375 0.4375 -0.9375 1.125q-0.328125 0.6875 -0.328125 1.453125l0 5.359375l-1.59375 0zm14.5130005 0.296875q-1.28125 0 -2.328125 -0.640625q-1.03125 -0.65625 -1.625 -1.796875q-0.59375 -1.140625 -0.59375 -2.609375q0 -1.484375 0.59375 -2.609375q0.59375 -1.140625 1.625 -1.796875q1.046875 -0.65625 2.328125 -0.65625q0.765625 0 1.390625 0.25q0.640625 0.234375 1.109375 0.625q0.484375 0.390625 0.75 0.84375l0.078125 0l-0.078125 -1.328125l0 -3.9375l1.59375 0l0 13.359375l-1.515625 0l0 -1.40625l-0.078125 0q-0.265625 0.4375 -0.75 0.828125q-0.46875 0.390625 -1.109375 0.625q-0.625 0.25 -1.390625 0.25zm0.171875 -1.4375q0.828125 0 1.546875 -0.4375q0.71875 -0.4375 1.15625 -1.25q0.453125 -0.8125 0.453125 -1.921875q0 -1.125 -0.453125 -1.9375q-0.4375 -0.8125 -1.15625 -1.25q-0.71875 -0.4375 -1.546875 -0.4375q-0.8125 0 -1.53125 0.4375q-0.71875 0.4375 -1.171875 1.25q-0.453125 0.8125 -0.453125 1.9375q0 1.09375 0.453125 1.921875q0.453125 0.8125 1.171875 1.25q0.71875 0.4375 1.53125 0.4375zm17.560974 1.4375q-1.421875 0 -2.6875 -0.515625q-1.25 -0.53125 -2.203125 -1.484375q-0.953125 -0.953125 -1.5 -2.21875q-0.53125 -1.265625 -0.53125 -2.75q0 -1.5 0.53125 -2.765625q0.546875 -1.265625 1.5 -2.21875q0.953125 -0.953125 2.203125 -1.46875q1.265625 -0.53125 2.6875 -0.53125q1.46875 0 2.765625 0.53125q1.296875 0.515625 2.140625 1.46875l-1.125 1.109375q-0.421875 -0.515625 -1.03125 -0.859375q-0.59375 -0.359375 -1.28125 -0.546875q-0.6875 -0.1875 -1.453125 -0.1875q-1.0625 0 -2.03125 0.390625q-0.96875 0.375 -1.71875 1.09375q-0.734375 0.71875 -1.171875 1.734375q-0.421875 1.0 -0.421875 2.25q0 1.25 0.4375 2.25q0.453125 1.0 1.1875 1.71875q0.75 0.71875 1.703125 1.109375q0.96875 0.375 2.015625 0.375q0.890625 0 1.734375 -0.25q0.859375 -0.25 1.53125 -0.78125q0.6875 -0.53125 1.125 -1.359375q0.453125 -0.84375 0.546875 -2.03125l-4.921875 0l0 -1.46875l6.421875 0q0.03125 0.25 0.0625 0.46875q0.03125 0.21875 0.03125 0.484375l0 0l0 0l0 0.015625q0 1.4375 -0.484375 2.625q-0.484375 1.1875 -1.375 2.03125q-0.875 0.84375 -2.0625 1.3125q-1.1875 0.46875 -2.625 0.46875zm7.048767 -0.296875l5.078125 -13.359375l1.78125 0l5.078125 13.359375l-1.734375 0l-3.671875 -9.984375l-0.53125 -1.4375l-0.0625 0l-0.53125 1.4375l-3.671875 9.984375l-1.734375 0zm5.78125 -3.671875l0 -1.5l3.078125 0l0.546875 1.5l-3.625 0zm-3.625 0l0.546875 -1.5l3.078125 0l0 1.5l-3.625 0zm14.111694 3.671875l5.078125 -13.359375l1.78125 0l5.078125 13.359375l-1.734375 0l-3.671875 -9.984375l-0.53125 -1.4375l-0.0625 0l-0.53125 1.4375l-3.671875 9.984375l-1.734375 0zm5.78125 -3.671875l0 -1.5l3.078125 0l0.546875 1.5l-3.625 0zm-3.625 0l0.546875 -1.5l3.078125 0l0 1.5l-3.625 0zm11.562195 3.671875l0 -13.359375l4.484375 0q1.125 0 2.078125 0.515625q0.953125 0.5 1.515625 1.390625q0.578125 0.875 0.578125 2.046875q0 1.15625 -0.578125 2.0625q-0.5625 0.890625 -1.515625 1.390625q-0.953125 0.5 -2.078125 0.5l-3.65625 0l0 -1.5l3.703125 0q0.78125 0 1.328125 -0.359375q0.5625 -0.375 0.875 -0.9375q0.3125 -0.5625 0.3125 -1.15625q0 -0.59375 -0.3125 -1.15625q-0.3125 -0.5625 -0.875 -0.921875q-0.546875 -0.359375 -1.328125 -0.359375l-2.953125 0l0 11.84375l-1.578125 0zm10.745972 0l0 -13.359375l1.578125 0l0 13.359375l-1.578125 0z" fill-rule="nonzero"/><path fill="#1c4587" d="m340.61823 188.49269l0 -13.359375l7.71875 0l0 1.515625l-6.140625 0l0 11.84375l-1.578125 0zm0.828125 -5.78125l0 -1.5l6.296875 0l0 1.5l-6.296875 0zm8.719818 5.78125l0 -9.515625l1.578125 0l0 9.515625l-1.578125 0zm0.78125 -11.265625q-0.46875 0 -0.8125 -0.328125q-0.328125 -0.34375 -0.328125 -0.8125q0 -0.484375 0.328125 -0.8125q0.34375 -0.328125 0.8125 -0.328125q0.484375 0 0.8125 0.328125q0.328125 0.328125 0.328125 0.8125q0 0.46875 -0.328125 0.8125q-0.328125 0.328125 -0.8125 0.328125zm7.4198303 11.5625q-1.375 0 -2.453125 -0.640625q-1.0625 -0.65625 -1.671875 -1.796875q-0.609375 -1.140625 -0.609375 -2.59375q0 -1.359375 0.5625 -2.515625q0.578125 -1.15625 1.609375 -1.859375q1.03125 -0.703125 2.4375 -0.703125q1.421875 0 2.4375 0.625q1.015625 0.625 1.5625 1.734375q0.546875 1.09375 0.546875 2.515625q0 0.125 -0.015625 0.265625q0 0.125 -0.015625 0.21875l-8.1875 0l0 -1.3125l6.546875 0q-0.015625 -0.390625 -0.1875 -0.84375q-0.15625 -0.46875 -0.5 -0.859375q-0.34375 -0.40625 -0.875 -0.65625q-0.53125 -0.25 -1.3125 -0.25q-0.9375 0 -1.625 0.484375q-0.671875 0.46875 -1.046875 1.296875q-0.359375 0.8125 -0.359375 1.859375q0 1.203125 0.46875 2.015625q0.46875 0.796875 1.203125 1.1875q0.75 0.390625 1.546875 0.390625q1.046875 0 1.71875 -0.484375q0.6875 -0.5 1.09375 -1.234375l1.34375 0.65625q-0.5625 1.078125 -1.609375 1.796875q-1.03125 0.703125 -2.609375 0.703125zm6.269104 -0.296875l0 -13.359375l1.59375 0l0 13.359375l-1.59375 0zm7.889984 0.296875q-1.28125 0 -2.328125 -0.640625q-1.03125 -0.65625 -1.625 -1.796875q-0.59375 -1.140625 -0.59375 -2.609375q0 -1.484375 0.59375 -2.609375q0.59375 -1.140625 1.625 -1.796875q1.046875 -0.65625 2.328125 -0.65625q0.765625 0 1.390625 0.25q0.640625 0.234375 1.109375 0.625q0.484375 0.390625 0.75 0.84375l0.078125 0l-0.078125 -1.328125l0 -3.9375l1.59375 0l0 13.359375l-1.515625 0l0 -1.40625l-0.078125 0q-0.265625 0.4375 -0.75 0.828125q-0.46875 0.390625 -1.109375 0.625q-0.625 0.25 -1.390625 0.25zm0.171875 -1.4375q0.828125 0 1.546875 -0.4375q0.71875 -0.4375 1.15625 -1.25q0.453125 -0.8125 0.453125 -1.921875q0 -1.125 -0.453125 -1.9375q-0.4375 -0.8125 -1.15625 -1.25q-0.71875 -0.4375 -1.546875 -0.4375q-0.8125 0 -1.53125 0.4375q-0.71875 0.4375 -1.171875 1.25q-0.453125 0.8125 -0.453125 1.9375q0 1.09375 0.453125 1.921875q0.453125 0.8125 1.171875 1.25q0.71875 0.4375 1.53125 0.4375zm10.247101 1.4375q-1.0625 0 -1.875 -0.34375q-0.8125 -0.34375 -1.34375 -0.921875q-0.53125 -0.59375 -0.796875 -1.28125l1.421875 -0.640625q0.375 0.859375 1.078125 1.328125q0.703125 0.46875 1.625 0.46875q0.875 0 1.453125 -0.359375q0.59375 -0.359375 0.59375 -1.046875q0 -0.421875 -0.25 -0.703125q-0.234375 -0.296875 -0.703125 -0.5q-0.453125 -0.21875 -1.125 -0.375l-1.15625 -0.3125q-0.671875 -0.1875 -1.28125 -0.515625q-0.59375 -0.34375 -0.953125 -0.875q-0.359375 -0.53125 -0.359375 -1.296875q0 -0.84375 0.5 -1.453125q0.5 -0.625 1.3125 -0.953125q0.828125 -0.328125 1.765625 -0.328125q0.8125 0 1.53125 0.234375q0.71875 0.234375 1.265625 0.6875q0.546875 0.453125 0.8125 1.125l-1.375 0.640625q-0.359375 -0.703125 -0.953125 -0.984375q-0.59375 -0.28125 -1.328125 -0.28125q-0.78125 0 -1.359375 0.34375q-0.578125 0.34375 -0.578125 0.9375q0 0.59375 0.46875 0.90625q0.484375 0.296875 1.171875 0.46875l1.390625 0.359375q1.390625 0.359375 2.09375 1.0625q0.71875 0.6875 0.71875 1.703125q0 0.890625 -0.515625 1.546875q-0.5 0.65625 -1.359375 1.015625q-0.84375 0.34375 -1.890625 0.34375zm6.543152 -7.53125q-0.5 0 -0.84375 -0.34375q-0.34375 -0.34375 -0.34375 -0.859375q0 -0.5 0.34375 -0.84375q0.34375 -0.34375 0.84375 -0.34375q0.5 0 0.84375 0.34375q0.359375 0.34375 0.359375 0.84375q0 0.515625 -0.359375 0.859375q-0.34375 0.34375 -0.84375 0.34375zm0 7.34375q-0.5 0 -0.84375 -0.34375q-0.34375 -0.34375 -0.34375 -0.84375q0 -0.484375 0.34375 -0.828125q0.34375 -0.34375 0.84375 -0.34375q0.5 0 0.84375 0.34375q0.359375 0.34375 0.359375 0.828125q0 0.5 -0.359375 0.84375q-0.34375 0.34375 -0.84375 0.34375zm8.049683 -0.109375l0 -13.359375l7.71875 0l0 1.515625l-6.140625 0l0 10.328125l6.140625 0l0 1.515625l-7.71875 0zm0.828125 -5.9375l0 -1.484375l6.296875 0l0 1.484375l-6.296875 0zm8.014832 5.9375l3.796875 -5.46875l0.171875 0l2.703125 -4.046875l1.859375 0l-3.71875 5.25l-0.125 0l-2.84375 4.265625l-1.84375 0zm0.0625 -9.515625l1.796875 0l2.953125 4.234375l0.0625 0l3.71875 5.28125l-1.84375 0l-2.84375 -4.21875l-0.125 0l-3.71875 -5.296875zm9.944977 13.546875l0 -13.546875l1.515625 0l0 1.421875l0.078125 0q0.25 -0.453125 0.71875 -0.84375q0.484375 -0.390625 1.125 -0.625q0.640625 -0.25 1.390625 -0.25q1.3125 0 2.328125 0.65625q1.03125 0.65625 1.625 1.796875q0.609375 1.125 0.609375 2.609375q0 1.46875 -0.609375 2.609375q-0.59375 1.140625 -1.625 1.796875q-1.015625 0.640625 -2.328125 0.640625q-1.125 0 -1.984375 -0.515625q-0.859375 -0.53125 -1.25 -1.1875l-0.078125 0l0.078125 1.3125l0 4.125l-1.59375 0zm4.671875 -5.171875q0.8125 0 1.53125 -0.4375q0.71875 -0.4375 1.15625 -1.25q0.4375 -0.828125 0.4375 -1.921875q0 -1.125 -0.4375 -1.9375q-0.4375 -0.8125 -1.15625 -1.25q-0.71875 -0.4375 -1.53125 -0.4375q-0.828125 0 -1.546875 0.4375q-0.71875 0.4375 -1.171875 1.25q-0.4375 0.8125 -0.4375 1.9375q0 1.109375 0.4375 1.921875q0.453125 0.8125 1.171875 1.25q0.71875 0.4375 1.546875 0.4375zm10.793549 1.4375q-1.375 0 -2.453125 -0.640625q-1.0625 -0.65625 -1.671875 -1.796875q-0.609375 -1.140625 -0.609375 -2.59375q0 -1.359375 0.5625 -2.515625q0.578125 -1.15625 1.609375 -1.859375q1.03125 -0.703125 2.4375 -0.703125q1.421875 0 2.4375 0.625q1.015625 0.625 1.5625 1.734375q0.546875 1.09375 0.546875 2.515625q0 0.125 -0.015625 0.265625q0 0.125 -0.015625 0.21875l-8.1875 0l0 -1.3125l6.546875 0q-0.015625 -0.390625 -0.1875 -0.84375q-0.15625 -0.46875 -0.5 -0.859375q-0.34375 -0.40625 -0.875 -0.65625q-0.53125 -0.25 -1.3125 -0.25q-0.9375 0 -1.625 0.484375q-0.671875 0.46875 -1.046875 1.296875q-0.359375 0.8125 -0.359375 1.859375q0 1.203125 0.46875 2.015625q0.46875 0.796875 1.203125 1.1875q0.75 0.390625 1.546875 0.390625q1.046875 0 1.71875 -0.484375q0.6875 -0.5 1.09375 -1.234375l1.34375 0.65625q-0.5625 1.078125 -1.609375 1.796875q-1.03125 0.703125 -2.609375 0.703125zm6.269104 -0.296875l0 -9.515625l1.515625 0l0 1.53125l0.078125 0q0.1875 -0.546875 0.625 -0.9375q0.4375 -0.40625 1.0 -0.640625q0.578125 -0.234375 1.125 -0.234375q0.4375 0 0.671875 0.046875q0.25 0.046875 0.453125 0.140625l0 1.71875q-0.296875 -0.15625 -0.640625 -0.21875q-0.34375 -0.078125 -0.703125 -0.078125q-0.6875 0 -1.265625 0.390625q-0.578125 0.390625 -0.921875 1.046875q-0.34375 0.65625 -0.34375 1.4375l0 5.3125l-1.59375 0zm7.1523438 0l0 -9.515625l1.578125 0l0 9.515625l-1.578125 0zm0.78125 -11.265625q-0.46875 0 -0.8125 -0.328125q-0.328125 -0.34375 -0.328125 -0.8125q0 -0.484375 0.328125 -0.8125q0.34375 -0.328125 0.8125 -0.328125q0.484375 0 0.8125 0.328125q0.328125 0.328125 0.328125 0.8125q0 0.46875 -0.328125 0.8125q-0.328125 0.328125 -0.8125 0.328125zm3.2788086 11.265625l0 -9.515625l1.515625 0l0 1.40625l0.078125 0q0.25 -0.46875 0.703125 -0.84375q0.46875 -0.390625 1.046875 -0.625q0.59375 -0.234375 1.21875 -0.234375q1.0625 0 1.828125 0.515625q0.765625 0.515625 1.09375 1.328125q0.484375 -0.796875 1.296875 -1.3125q0.828125 -0.53125 1.96875 -0.53125q1.703125 0 2.5 1.03125q0.796875 1.015625 0.796875 2.6875l0 6.09375l-1.5625 0l0 -5.859375q0 -1.375 -0.5625 -1.9375q-0.5625 -0.578125 -1.578125 -0.578125q-0.734375 0 -1.3125 0.421875q-0.5625 0.421875 -0.890625 1.109375q-0.3125 0.671875 -0.3125 1.46875l0 5.375l-1.59375 0l0 -5.84375q0 -1.375 -0.5625 -1.953125q-0.5625 -0.578125 -1.5625 -0.578125q-0.734375 0 -1.296875 0.4375q-0.5625 0.421875 -0.890625 1.109375q-0.328125 0.6875 -0.328125 1.5l0 5.328125l-1.59375 0zm20.558594 0.296875q-1.375 0 -2.453125 -0.640625q-1.0625 -0.65625 -1.671875 -1.796875q-0.609375 -1.140625 -0.609375 -2.59375q0 -1.359375 0.5625 -2.515625q0.578125 -1.15625 1.609375 -1.859375q1.03125 -0.703125 2.4375 -0.703125q1.421875 0 2.4375 0.625q1.015625 0.625 1.5625 1.734375q0.546875 1.09375 0.546875 2.515625q0 0.125 -0.015625 0.265625q0 0.125 -0.015625 0.21875l-8.1875 0l0 -1.3125l6.546875 0q-0.015625 -0.390625 -0.1875 -0.84375q-0.15625 -0.46875 -0.5 -0.859375q-0.34375 -0.40625 -0.875 -0.65625q-0.53125 -0.25 -1.3125 -0.25q-0.9375 0 -1.625 0.484375q-0.671875 0.46875 -1.046875 1.296875q-0.359375 0.8125 -0.359375 1.859375q0 1.203125 0.46875 2.015625q0.46875 0.796875 1.203125 1.1875q0.75 0.390625 1.546875 0.390625q1.046875 0 1.71875 -0.484375q0.6875 -0.5 1.09375 -1.234375l1.34375 0.65625q-0.5625 1.078125 -1.609375 1.796875q-1.03125 0.703125 -2.609375 0.703125zm6.2690735 -0.296875l0 -9.515625l1.515625 0l0 1.40625l0.078125 0q0.375 -0.703125 1.21875 -1.203125q0.84375 -0.5 1.859375 -0.5q1.75 0 2.625 1.015625q0.890625 1.015625 0.890625 2.703125l0 6.09375l-1.578125 0l0 -5.859375q0 -1.375 -0.671875 -1.9375q-0.65625 -0.578125 -1.703125 -0.578125q-0.78125 0 -1.375 0.4375q-0.59375 0.4375 -0.9375 1.125q-0.328125 0.6875 -0.328125 1.453125l0 5.359375l-1.59375 0zm9.343262 -9.515625l5.578125 0l0 1.4375l-5.578125 0l0 -1.4375zm1.671875 7.015625l0 -9.703125l1.578125 0l0 9.3125q0 0.75 0.3125 1.15625q0.3125 0.40625 1.015625 0.40625q0.3125 0 0.578125 -0.09375q0.265625 -0.09375 0.46875 -0.21875l0 1.546875q-0.25 0.109375 -0.546875 0.171875q-0.28125 0.078125 -0.765625 0.078125q-1.1875 0 -1.921875 -0.703125q-0.71875 -0.703125 -0.71875 -1.953125zm8.654114 2.796875q-1.0625 0 -1.875 -0.40625q-0.796875 -0.40625 -1.25 -1.125q-0.453125 -0.71875 -0.453125 -1.640625q0 -1.046875 0.53125 -1.765625q0.546875 -0.71875 1.453125 -1.078125q0.921875 -0.359375 2.015625 -0.359375q0.640625 0 1.171875 0.109375q0.546875 0.09375 0.9375 0.234375q0.40625 0.140625 0.625 0.265625l0 -0.578125q0 -1.078125 -0.765625 -1.703125q-0.765625 -0.640625 -1.875 -0.640625q-0.78125 0 -1.46875 0.34375q-0.671875 0.34375 -1.0625 0.953125l-1.203125 -0.890625q0.375 -0.5625 0.9375 -0.96875q0.5625 -0.40625 1.28125 -0.625q0.71875 -0.234375 1.515625 -0.234375q1.9375 0 3.03125 1.03125q1.109375 1.015625 1.109375 2.75l0 6.03125l-1.5 0l0 -1.359375l-0.078125 0q-0.25 0.40625 -0.703125 0.796875q-0.4375 0.375 -1.046875 0.609375q-0.609375 0.25 -1.328125 0.25zm0.140625 -1.390625q0.828125 0 1.5 -0.40625q0.6875 -0.421875 1.09375 -1.109375q0.421875 -0.6875 0.421875 -1.515625q-0.4375 -0.296875 -1.078125 -0.484375q-0.640625 -0.1875 -1.40625 -0.1875q-1.359375 0 -2.0 0.5625q-0.640625 0.5625 -0.640625 1.375q0 0.78125 0.59375 1.28125q0.609375 0.484375 1.515625 0.484375zm6.7189636 1.09375l0 -13.359375l1.59375 0l0 13.359375l-1.59375 0zm11.311584 0.296875q-1.0625 0 -1.875 -0.40625q-0.796875 -0.40625 -1.25 -1.125q-0.453125 -0.71875 -0.453125 -1.640625q0 -1.046875 0.53125 -1.765625q0.546875 -0.71875 1.453125 -1.078125q0.921875 -0.359375 2.015625 -0.359375q0.640625 0 1.171875 0.109375q0.546875 0.09375 0.9375 0.234375q0.40625 0.140625 0.625 0.265625l0 -0.578125q0 -1.078125 -0.765625 -1.703125q-0.765625 -0.640625 -1.875 -0.640625q-0.78125 0 -1.46875 0.34375q-0.671875 0.34375 -1.0625 0.953125l-1.203125 -0.890625q0.375 -0.5625 0.9375 -0.96875q0.5625 -0.40625 1.28125 -0.625q0.71875 -0.234375 1.515625 -0.234375q1.9375 0 3.03125 1.03125q1.109375 1.015625 1.109375 2.75l0 6.03125l-1.5 0l0 -1.359375l-0.078125 0q-0.25 0.40625 -0.703125 0.796875q-0.4375 0.375 -1.046875 0.609375q-0.609375 0.25 -1.328125 0.25zm0.140625 -1.390625q0.828125 0 1.5 -0.40625q0.6875 -0.421875 1.09375 -1.109375q0.421875 -0.6875 0.421875 -1.515625q-0.4375 -0.296875 -1.078125 -0.484375q-0.640625 -0.1875 -1.40625 -0.1875q-1.359375 0 -2.0 0.5625q-0.640625 0.5625 -0.640625 1.375q0 0.78125 0.59375 1.28125q0.609375 0.484375 1.515625 0.484375zm6.718994 1.09375l0 -9.515625l1.515625 0l0 1.40625l0.078125 0q0.375 -0.703125 1.21875 -1.203125q0.84375 -0.5 1.859375 -0.5q1.75 0 2.625 1.015625q0.890625 1.015625 0.890625 2.703125l0 6.09375l-1.578125 0l0 -5.859375q0 -1.375 -0.671875 -1.9375q-0.65625 -0.578125 -1.703125 -0.578125q-0.78125 0 -1.375 0.4375q-0.59375 0.4375 -0.9375 1.125q-0.328125 0.6875 -0.328125 1.453125l0 5.359375l-1.59375 0zm14.5130005 0.296875q-1.28125 0 -2.328125 -0.640625q-1.03125 -0.65625 -1.625 -1.796875q-0.59375 -1.140625 -0.59375 -2.609375q0 -1.484375 0.59375 -2.609375q0.59375 -1.140625 1.625 -1.796875q1.046875 -0.65625 2.328125 -0.65625q0.765625 0 1.390625 0.25q0.640625 0.234375 1.109375 0.625q0.484375 0.390625 0.75 0.84375l0.078125 0l-0.078125 -1.328125l0 -3.9375l1.59375 0l0 13.359375l-1.515625 0l0 -1.40625l-0.078125 0q-0.265625 0.4375 -0.75 0.828125q-0.46875 0.390625 -1.109375 0.625q-0.625 0.25 -1.390625 0.25zm0.171875 -1.4375q0.828125 0 1.546875 -0.4375q0.71875 -0.4375 1.15625 -1.25q0.453125 -0.8125 0.453125 -1.921875q0 -1.125 -0.453125 -1.9375q-0.4375 -0.8125 -1.15625 -1.25q-0.71875 -0.4375 -1.546875 -0.4375q-0.8125 0 -1.53125 0.4375q-0.71875 0.4375 -1.171875 1.25q-0.453125 0.8125 -0.453125 1.9375q0 1.09375 0.453125 1.921875q0.453125 0.8125 1.171875 1.25q0.71875 0.4375 1.53125 0.4375zm14.827454 1.4375q-0.96875 0 -1.921875 -0.40625q-0.953125 -0.40625 -1.6875 -1.203125q-0.71875 -0.8125 -1.046875 -2.015625l1.515625 -0.609375q0.3125 1.15625 1.140625 1.9375q0.84375 0.78125 2.046875 0.78125q0.734375 0 1.359375 -0.265625q0.625 -0.265625 1.0 -0.78125q0.390625 -0.53125 0.390625 -1.28125q0 -0.671875 -0.328125 -1.140625q-0.3125 -0.46875 -0.96875 -0.828125q-0.65625 -0.359375 -1.609375 -0.703125l-0.84375 -0.296875q-0.546875 -0.203125 -1.125 -0.484375q-0.5625 -0.296875 -1.046875 -0.71875q-0.46875 -0.421875 -0.75 -1.0q-0.28125 -0.59375 -0.28125 -1.390625q0 -0.96875 0.515625 -1.765625q0.53125 -0.8125 1.4375 -1.296875q0.921875 -0.484375 2.109375 -0.484375q1.25 0 2.09375 0.453125q0.859375 0.453125 1.34375 1.078125q0.5 0.625 0.671875 1.15625l-1.46875 0.640625q-0.109375 -0.40625 -0.4375 -0.8125q-0.3125 -0.421875 -0.84375 -0.703125q-0.53125 -0.296875 -1.328125 -0.296875q-0.65625 0 -1.234375 0.265625q-0.5625 0.25 -0.90625 0.71875q-0.34375 0.453125 -0.34375 1.046875q0 0.84375 0.671875 1.328125q0.671875 0.484375 1.8125 0.875l0.875 0.296875q0.59375 0.203125 1.21875 0.5q0.625 0.296875 1.15625 0.765625q0.546875 0.46875 0.875 1.15625q0.34375 0.671875 0.34375 1.625q0 1.03125 -0.40625 1.765625q-0.390625 0.734375 -1.046875 1.203125q-0.65625 0.46875 -1.4375 0.671875q-0.765625 0.21875 -1.515625 0.21875zm5.3150024 -9.8125l5.578125 0l0 1.4375l-5.578125 0l0 -1.4375zm1.671875 7.015625l0 -9.703125l1.578125 0l0 9.3125q0 0.75 0.3125 1.15625q0.3125 0.40625 1.015625 0.40625q0.3125 0 0.578125 -0.09375q0.265625 -0.09375 0.46875 -0.21875l0 1.546875q-0.25 0.109375 -0.546875 0.171875q-0.28125 0.078125 -0.765625 0.078125q-1.1875 0 -1.921875 -0.703125q-0.71875 -0.703125 -0.71875 -1.953125zm8.654114 2.796875q-1.0625 0 -1.875 -0.40625q-0.796875 -0.40625 -1.25 -1.125q-0.453125 -0.71875 -0.453125 -1.640625q0 -1.046875 0.53125 -1.765625q0.546875 -0.71875 1.453125 -1.078125q0.921875 -0.359375 2.015625 -0.359375q0.640625 0 1.171875 0.109375q0.546875 0.09375 0.9375 0.234375q0.40625 0.140625 0.625 0.265625l0 -0.578125q0 -1.078125 -0.765625 -1.703125q-0.765625 -0.640625 -1.875 -0.640625q-0.78125 0 -1.46875 0.34375q-0.671875 0.34375 -1.0625 0.953125l-1.203125 -0.890625q0.375 -0.5625 0.9375 -0.96875q0.5625 -0.40625 1.28125 -0.625q0.71875 -0.234375 1.515625 -0.234375q1.9375 0 3.03125 1.03125q1.109375 1.015625 1.109375 2.75l0 6.03125l-1.5 0l0 -1.359375l-0.078125 0q-0.25 0.40625 -0.703125 0.796875q-0.4375 0.375 -1.046875 0.609375q-0.609375 0.25 -1.328125 0.25zm0.140625 -1.390625q0.828125 0 1.5 -0.40625q0.6875 -0.421875 1.09375 -1.109375q0.421875 -0.6875 0.421875 -1.515625q-0.4375 -0.296875 -1.078125 -0.484375q-0.640625 -0.1875 -1.40625 -0.1875q-1.359375 0 -2.0 0.5625q-0.640625 0.5625 -0.640625 1.375q0 0.78125 0.59375 1.28125q0.609375 0.484375 1.515625 0.484375zm6.718994 1.09375l0 -9.515625l1.515625 0l0 1.40625l0.078125 0q0.375 -0.703125 1.21875 -1.203125q0.84375 -0.5 1.859375 -0.5q1.75 0 2.625 1.015625q0.890625 1.015625 0.890625 2.703125l0 6.09375l-1.578125 0l0 -5.859375q0 -1.375 -0.671875 -1.9375q-0.65625 -0.578125 -1.703125 -0.578125q-0.78125 0 -1.375 0.4375q-0.59375 0.4375 -0.9375 1.125q-0.328125 0.6875 -0.328125 1.453125l0 5.359375l-1.59375 0zm14.5130005 0.296875q-1.28125 0 -2.328125 -0.640625q-1.03125 -0.65625 -1.625 -1.796875q-0.59375 -1.140625 -0.59375 -2.609375q0 -1.484375 0.59375 -2.609375q0.59375 -1.140625 1.625 -1.796875q1.046875 -0.65625 2.328125 -0.65625q0.765625 0 1.390625 0.25q0.640625 0.234375 1.109375 0.625q0.484375 0.390625 0.75 0.84375l0.078125 0l-0.078125 -1.328125l0 -3.9375l1.59375 0l0 13.359375l-1.515625 0l0 -1.40625l-0.078125 0q-0.265625 0.4375 -0.75 0.828125q-0.46875 0.390625 -1.109375 0.625q-0.625 0.25 -1.390625 0.25zm0.171875 -1.4375q0.828125 0 1.546875 -0.4375q0.71875 -0.4375 1.15625 -1.25q0.453125 -0.8125 0.453125 -1.921875q0 -1.125 -0.453125 -1.9375q-0.4375 -0.8125 -1.15625 -1.25q-0.71875 -0.4375 -1.546875 -0.4375q-0.8125 0 -1.53125 0.4375q-0.71875 0.4375 -1.171875 1.25q-0.453125 0.8125 -0.453125 1.9375q0 1.09375 0.453125 1.921875q0.453125 0.8125 1.171875 1.25q0.71875 0.4375 1.53125 0.4375zm9.965881 1.4375q-1.0625 0 -1.875 -0.40625q-0.796875 -0.40625 -1.25 -1.125q-0.453125 -0.71875 -0.453125 -1.640625q0 -1.046875 0.53125 -1.765625q0.546875 -0.71875 1.453125 -1.078125q0.921875 -0.359375 2.015625 -0.359375q0.640625 0 1.171875 0.109375q0.546875 0.09375 0.9375 0.234375q0.40625 0.140625 0.625 0.265625l0 -0.578125q0 -1.078125 -0.765625 -1.703125q-0.765625 -0.640625 -1.875 -0.640625q-0.78125 0 -1.46875 0.34375q-0.671875 0.34375 -1.0625 0.953125l-1.203125 -0.890625q0.375 -0.5625 0.9375 -0.96875q0.5625 -0.40625 1.28125 -0.625q0.71875 -0.234375 1.515625 -0.234375q1.9375 0 3.03125 1.03125q1.109375 1.015625 1.109375 2.75l0 6.03125l-1.5 0l0 -1.359375l-0.078125 0q-0.25 0.40625 -0.703125 0.796875q-0.4375 0.375 -1.046875 0.609375q-0.609375 0.25 -1.328125 0.25zm0.140625 -1.390625q0.828125 0 1.5 -0.40625q0.6875 -0.421875 1.09375 -1.109375q0.421875 -0.6875 0.421875 -1.515625q-0.4375 -0.296875 -1.078125 -0.484375q-0.640625 -0.1875 -1.40625 -0.1875q-1.359375 0 -2.0 0.5625q-0.640625 0.5625 -0.640625 1.375q0 0.78125 0.59375 1.28125q0.609375 0.484375 1.515625 0.484375zm6.718933 1.09375l0 -9.515625l1.515625 0l0 1.53125l0.078125 0q0.1875 -0.546875 0.625 -0.9375q0.4375 -0.40625 1.0 -0.640625q0.578125 -0.234375 1.125 -0.234375q0.4375 0 0.671875 0.046875q0.25 0.046875 0.453125 0.140625l0 1.71875q-0.296875 -0.15625 -0.640625 -0.21875q-0.34375 -0.078125 -0.703125 -0.078125q-0.6875 0 -1.265625 0.390625q-0.578125 0.390625 -0.921875 1.046875q-0.34375 0.65625 -0.34375 1.4375l0 5.3125l-1.59375 0zm10.482971 0.296875q-1.28125 0 -2.328125 -0.640625q-1.03125 -0.65625 -1.625 -1.796875q-0.59375 -1.140625 -0.59375 -2.609375q0 -1.484375 0.59375 -2.609375q0.59375 -1.140625 1.625 -1.796875q1.046875 -0.65625 2.328125 -0.65625q0.765625 0 1.390625 0.25q0.640625 0.234375 1.109375 0.625q0.484375 0.390625 0.75 0.84375l0.078125 0l-0.078125 -1.328125l0 -3.9375l1.59375 0l0 13.359375l-1.515625 0l0 -1.40625l-0.078125 0q-0.265625 0.4375 -0.75 0.828125q-0.46875 0.390625 -1.109375 0.625q-0.625 0.25 -1.390625 0.25zm0.171875 -1.4375q0.828125 0 1.546875 -0.4375q0.71875 -0.4375 1.15625 -1.25q0.453125 -0.8125 0.453125 -1.921875q0 -1.125 -0.453125 -1.9375q-0.4375 -0.8125 -1.15625 -1.25q-0.71875 -0.4375 -1.546875 -0.4375q-0.8125 0 -1.53125 0.4375q-0.71875 0.4375 -1.171875 1.25q-0.453125 0.8125 -0.453125 1.9375q0 1.09375 0.453125 1.921875q0.453125 0.8125 1.171875 1.25q0.71875 0.4375 1.53125 0.4375z" fill-rule="nonzero"/><path fill="#d9ead3" d="m344.8819 350.0551l0 0c0 -74.62366 60.494446 -135.1181 135.1181 -135.1181l0 0c35.83557 0 70.20337 14.235611 95.54291 39.57518c25.3396 25.339554 39.575195 59.707382 39.575195 95.54292l0 0c0 74.62369 -60.494446 135.1181 -135.1181 135.1181l0 0c-74.62366 0 -135.1181 -60.494415 -135.1181 -135.1181z" fill-rule="evenodd"/><path stroke="#b6d7a8" stroke-width="1.0" stroke-linejoin="round" stroke-linecap="butt" d="m344.8819 350.0551l0 0c0 -74.62366 60.494446 -135.1181 135.1181 -135.1181l0 0c35.83557 0 70.20337 14.235611 95.54291 39.57518c25.3396 25.339554 39.575195 59.707382 39.575195 95.54292l0 0c0 74.62369 -60.494446 135.1181 -135.1181 135.1181l0 0c-74.62366 0 -135.1181 -60.494415 -135.1181 -135.1181z" fill-rule="evenodd"/><path fill="#000000" fill-opacity="0.0" d="m344.8819 295.11023l270.2362 0l0 109.88977l-270.2362 0z" fill-rule="evenodd"/><path fill="#274e13" d="m406.22733 322.32712q-1.140625 0 -2.140625 -0.421875q-1.0 -0.4375 -1.734375 -1.28125q-0.734375 -0.84375 -1.109375 -2.078125l2.375 -0.9375q0.25 0.984375 0.90625 1.65625q0.65625 0.671875 1.71875 0.671875q0.515625 0 0.984375 -0.171875q0.46875 -0.171875 0.75 -0.53125q0.296875 -0.359375 0.296875 -0.875q0 -0.5 -0.25 -0.859375q-0.234375 -0.375 -0.8125 -0.703125q-0.5625 -0.328125 -1.53125 -0.671875l-0.8125 -0.3125q-0.546875 -0.203125 -1.09375 -0.5q-0.546875 -0.3125 -1.015625 -0.765625q-0.453125 -0.46875 -0.734375 -1.0625q-0.28125 -0.59375 -0.28125 -1.359375q0 -1.046875 0.546875 -1.890625q0.546875 -0.859375 1.515625 -1.359375q0.96875 -0.5 2.25 -0.5q1.34375 0 2.21875 0.453125q0.875 0.453125 1.375 1.109375q0.5 0.65625 0.703125 1.265625l-2.21875 0.9375q-0.125 -0.375 -0.390625 -0.703125q-0.25 -0.34375 -0.671875 -0.546875q-0.40625 -0.203125 -0.984375 -0.203125q-0.53125 0 -0.96875 0.1875q-0.421875 0.171875 -0.671875 0.484375q-0.234375 0.296875 -0.234375 0.703125q0 0.609375 0.515625 1.046875q0.515625 0.421875 1.640625 0.78125l0.84375 0.28125q0.703125 0.25 1.34375 0.578125q0.65625 0.328125 1.15625 0.8125q0.5 0.484375 0.78125 1.15625q0.296875 0.671875 0.296875 1.59375q0 1.03125 -0.40625 1.796875q-0.40625 0.765625 -1.078125 1.25q-0.671875 0.484375 -1.484375 0.71875q-0.8125 0.25 -1.59375 0.25zm5.475006 -9.8125l6.4375 0l0 2.09375l-6.4375 0l0 -2.09375zm1.671875 6.46875l0 -9.15625l2.4375 0l0 8.71875q0 0.65625 0.28125 1.0q0.28125 0.34375 0.9375 0.34375q0.375 0 0.625 -0.109375q0.25 -0.125 0.5625 -0.3125l0 2.390625q-0.390625 0.15625 -0.8125 0.234375q-0.421875 0.09375 -0.890625 0.09375q-1.46875 0 -2.3125 -0.84375q-0.828125 -0.859375 -0.828125 -2.359375zm9.533539 3.34375q-1.015625 0 -1.796875 -0.390625q-0.765625 -0.40625 -1.21875 -1.125q-0.4375 -0.734375 -0.4375 -1.6875q0 -1.0 0.5 -1.703125q0.515625 -0.703125 1.390625 -1.09375q0.875 -0.390625 1.9375 -0.390625q0.578125 0 1.046875 0.0625q0.46875 0.0625 0.84375 0.15625q0.375 0.09375 0.625 0.203125l0 -0.40625q0 -0.765625 -0.578125 -1.25q-0.578125 -0.5 -1.59375 -0.5q-0.671875 0 -1.296875 0.3125q-0.625 0.296875 -1.03125 0.796875l-1.5625 -1.234375q0.46875 -0.59375 1.078125 -1.015625q0.609375 -0.421875 1.359375 -0.625q0.75 -0.21875 1.5625 -0.21875q2.1875 0 3.328125 1.015625q1.140625 1.0 1.140625 2.9375l0 5.859375l-2.40625 0l0 -0.96875l-0.15625 0q-0.265625 0.328125 -0.65625 0.625q-0.390625 0.28125 -0.921875 0.453125q-0.515625 0.1875 -1.15625 0.1875zm0.578125 -1.90625q0.734375 0 1.25 -0.3125q0.515625 -0.328125 0.78125 -0.84375q0.28125 -0.53125 0.28125 -1.109375q-0.421875 -0.203125 -0.9375 -0.328125q-0.515625 -0.125 -1.0625 -0.125q-1.078125 0 -1.5 0.421875q-0.40625 0.40625 -0.40625 1.0q0 0.5625 0.40625 0.9375q0.40625 0.359375 1.1875 0.359375zm6.966156 1.609375l0 -9.515625l2.296875 0l0 1.1875l0.15625 0q0.421875 -0.6875 1.203125 -1.078125q0.796875 -0.40625 1.703125 -0.40625q1.75 0 2.625 1.0625q0.890625 1.0625 0.890625 2.84375l0 5.90625l-2.453125 0l0 -5.609375q0 -0.9375 -0.484375 -1.421875q-0.46875 -0.5 -1.28125 -0.5q-0.671875 0 -1.171875 0.359375q-0.5 0.359375 -0.765625 0.96875q-0.265625 0.609375 -0.265625 1.359375l0 4.84375l-2.453125 0zm15.268829 0.296875q-1.3125 0 -2.359375 -0.640625q-1.03125 -0.640625 -1.640625 -1.78125q-0.609375 -1.140625 -0.609375 -2.625q0 -1.5 0.609375 -2.640625q0.609375 -1.140625 1.640625 -1.78125q1.046875 -0.640625 2.359375 -0.640625q0.6875 0 1.25 0.203125q0.5625 0.203125 0.96875 0.546875q0.40625 0.328125 0.640625 0.703125l0.140625 0l-0.140625 -1.34375l0 -3.65625l2.421875 0l0 13.359375l-2.28125 0l0 -1.140625l-0.140625 0q-0.234375 0.375 -0.640625 0.703125q-0.40625 0.328125 -0.96875 0.53125q-0.5625 0.203125 -1.25 0.203125zm0.40625 -2.25q0.6875 0 1.28125 -0.359375q0.59375 -0.359375 0.953125 -0.984375q0.359375 -0.625 0.359375 -1.453125q0 -0.84375 -0.359375 -1.46875q-0.359375 -0.625 -0.953125 -0.96875q-0.59375 -0.34375 -1.28125 -0.34375q-0.671875 0 -1.265625 0.34375q-0.578125 0.34375 -0.953125 0.96875q-0.359375 0.609375 -0.359375 1.46875q0 0.828125 0.359375 1.46875q0.375 0.625 0.953125 0.984375q0.59375 0.34375 1.265625 0.34375zm10.100647 2.25q-1.015625 0 -1.796875 -0.390625q-0.765625 -0.40625 -1.21875 -1.125q-0.4375 -0.734375 -0.4375 -1.6875q0 -1.0 0.5 -1.703125q0.515625 -0.703125 1.390625 -1.09375q0.875 -0.390625 1.9375 -0.390625q0.578125 0 1.046875 0.0625q0.46875 0.0625 0.84375 0.15625q0.375 0.09375 0.625 0.203125l0 -0.40625q0 -0.765625 -0.578125 -1.25q-0.578125 -0.5 -1.59375 -0.5q-0.671875 0 -1.296875 0.3125q-0.625 0.296875 -1.03125 0.796875l-1.5625 -1.234375q0.46875 -0.59375 1.078125 -1.015625q0.609375 -0.421875 1.359375 -0.625q0.75 -0.21875 1.5625 -0.21875q2.1875 0 3.328125 1.015625q1.140625 1.0 1.140625 2.9375l0 5.859375l-2.40625 0l0 -0.96875l-0.15625 0q-0.265625 0.328125 -0.65625 0.625q-0.390625 0.28125 -0.921875 0.453125q-0.515625 0.1875 -1.15625 0.1875zm0.578125 -1.90625q0.734375 0 1.25 -0.3125q0.515625 -0.328125 0.78125 -0.84375q0.28125 -0.53125 0.28125 -1.109375q-0.421875 -0.203125 -0.9375 -0.328125q-0.515625 -0.125 -1.0625 -0.125q-1.078125 0 -1.5 0.421875q-0.40625 0.40625 -0.40625 1.0q0 0.5625 0.40625 0.9375q0.40625 0.359375 1.1875 0.359375zm6.966156 1.609375l0 -9.515625l2.296875 0l0 1.265625l0.15625 0q0.234375 -0.4375 0.640625 -0.78125q0.40625 -0.359375 0.9375 -0.5625q0.546875 -0.203125 1.15625 -0.203125q0.375 0 0.671875 0.0625q0.296875 0.046875 0.53125 0.140625l0 2.453125q-0.390625 -0.15625 -0.78125 -0.25q-0.375 -0.109375 -0.8125 -0.109375q-0.71875 0 -1.25 0.375q-0.53125 0.359375 -0.8125 0.984375q-0.28125 0.625 -0.28125 1.40625l0 4.734375l-2.453125 0zm11.4999695 0.296875q-1.3125 0 -2.359375 -0.640625q-1.03125 -0.640625 -1.640625 -1.78125q-0.609375 -1.140625 -0.609375 -2.625q0 -1.5 0.609375 -2.640625q0.609375 -1.140625 1.640625 -1.78125q1.046875 -0.640625 2.359375 -0.640625q0.6875 0 1.25 0.203125q0.5625 0.203125 0.96875 0.546875q0.40625 0.328125 0.640625 0.703125l0.140625 0l-0.140625 -1.34375l0 -3.65625l2.421875 0l0 13.359375l-2.28125 0l0 -1.140625l-0.140625 0q-0.234375 0.375 -0.640625 0.703125q-0.40625 0.328125 -0.96875 0.53125q-0.5625 0.203125 -1.25 0.203125zm0.40625 -2.25q0.6875 0 1.28125 -0.359375q0.59375 -0.359375 0.953125 -0.984375q0.359375 -0.625 0.359375 -1.453125q0 -0.84375 -0.359375 -1.46875q-0.359375 -0.625 -0.953125 -0.96875q-0.59375 -0.34375 -1.28125 -0.34375q-0.671875 0 -1.265625 0.34375q-0.578125 0.34375 -0.953125 0.96875q-0.359375 0.609375 -0.359375 1.46875q0 0.828125 0.359375 1.46875q0.375 0.625 0.953125 0.984375q0.59375 0.34375 1.265625 0.34375zm17.936188 2.25q-1.484375 0 -2.765625 -0.53125q-1.265625 -0.53125 -2.21875 -1.484375q-0.953125 -0.953125 -1.484375 -2.21875q-0.53125 -1.265625 -0.53125 -2.734375q0 -1.484375 0.53125 -2.75q0.53125 -1.265625 1.484375 -2.21875q0.953125 -0.953125 2.21875 -1.484375q1.28125 -0.53125 2.765625 -0.53125q1.0625 0 1.953125 0.25q0.890625 0.25 1.640625 0.734375q0.765625 0.484375 1.40625 1.203125l-1.78125 1.71875q-0.390625 -0.46875 -0.875 -0.796875q-0.46875 -0.34375 -1.046875 -0.53125q-0.578125 -0.1875 -1.28125 -0.1875q-1.25 0 -2.265625 0.578125q-1.015625 0.5625 -1.625 1.59375q-0.59375 1.015625 -0.59375 2.421875q0 1.375 0.59375 2.40625q0.609375 1.03125 1.625 1.609375q1.015625 0.5625 2.265625 0.5625q0.75 0 1.375 -0.203125q0.640625 -0.203125 1.171875 -0.59375q0.53125 -0.40625 0.984375 -0.953125l1.78125 1.703125q-0.65625 0.78125 -1.484375 1.328125q-0.8125 0.546875 -1.78125 0.828125q-0.96875 0.28125 -2.0625 0.28125zm7.133667 -0.296875l0 -13.359375l2.453125 0l0 3.375l-0.15625 1.65625l0.15625 0q0.40625 -0.640625 1.171875 -1.0625q0.78125 -0.421875 1.71875 -0.421875q1.171875 0 1.96875 0.484375q0.8125 0.46875 1.203125 1.34375q0.40625 0.875 0.40625 2.078125l0 5.90625l-2.4375 0l0 -5.609375q0 -0.640625 -0.234375 -1.0625q-0.234375 -0.421875 -0.640625 -0.640625q-0.390625 -0.21875 -0.9375 -0.21875q-0.65625 0 -1.15625 0.359375q-0.5 0.359375 -0.78125 0.984375q-0.28125 0.609375 -0.28125 1.359375l0 4.828125l-2.453125 0zm14.05957 0.296875q-1.015625 0 -1.796875 -0.390625q-0.765625 -0.40625 -1.2187195 -1.125q-0.4375 -0.734375 -0.4375 -1.6875q0 -1.0 0.5 -1.703125q0.5155945 -0.703125 1.3905945 -1.09375q0.875 -0.390625 1.9375 -0.390625q0.578125 0 1.046875 0.0625q0.46875 0.0625 0.84375 0.15625q0.375 0.09375 0.625 0.203125l0 -0.40625q0 -0.765625 -0.578125 -1.25q-0.578125 -0.5 -1.59375 -0.5q-0.671875 0 -1.296875 0.3125q-0.625 0.296875 -1.03125 0.796875l-1.5624695 -1.234375q0.46871948 -0.59375 1.0780945 -1.015625q0.609375 -0.421875 1.359375 -0.625q0.75 -0.21875 1.5625 -0.21875q2.1875 0 3.328125 1.015625q1.140625 1.0 1.140625 2.9375l0 5.859375l-2.40625 0l0 -0.96875l-0.15625 0q-0.265625 0.328125 -0.65625 0.625q-0.390625 0.28125 -0.921875 0.453125q-0.515625 0.1875 -1.15625 0.1875zm0.578125 -1.90625q0.734375 0 1.25 -0.3125q0.515625 -0.328125 0.78125 -0.84375q0.28125 -0.53125 0.28125 -1.109375q-0.421875 -0.203125 -0.9375 -0.328125q-0.515625 -0.125 -1.0625 -0.125q-1.078125 0 -1.5 0.421875q-0.40625 0.40625 -0.40625 1.0q0 0.5625 0.40625 0.9375q0.40625 0.359375 1.1875 0.359375zm6.9661865 1.609375l0 -9.515625l2.296875 0l0 1.1875l0.15625 0q0.421875 -0.6875 1.203125 -1.078125q0.796875 -0.40625 1.703125 -0.40625q1.75 0 2.625 1.0625q0.890625 1.0625 0.890625 2.84375l0 5.90625l-2.453125 0l0 -5.609375q0 -0.9375 -0.484375 -1.421875q-0.46875 -0.5 -1.28125 -0.5q-0.671875 0 -1.171875 0.359375q-0.5 0.359375 -0.765625 0.96875q-0.265625 0.609375 -0.265625 1.359375l0 4.84375l-2.453125 0zm11.17511 0l0 -9.515625l2.296875 0l0 1.1875l0.15625 0q0.421875 -0.6875 1.203125 -1.078125q0.796875 -0.40625 1.703125 -0.40625q1.75 0 2.625 1.0625q0.890625 1.0625 0.890625 2.84375l0 5.90625l-2.453125 0l0 -5.609375q0 -0.9375 -0.484375 -1.421875q-0.46875 -0.5 -1.28125 -0.5q-0.671875 0 -1.171875 0.359375q-0.5 0.359375 -0.765625 0.96875q-0.265625 0.609375 -0.265625 1.359375l0 4.84375l-2.453125 0zm15.643799 0.296875q-1.4375 0 -2.578125 -0.640625q-1.125 -0.65625 -1.765625 -1.796875q-0.640625 -1.140625 -0.640625 -2.59375q0 -1.359375 0.625 -2.515625q0.640625 -1.15625 1.734375 -1.859375q1.109375 -0.703125 2.53125 -0.703125q1.53125 0 2.5625 0.65625q1.046875 0.65625 1.59375 1.75q0.546875 1.078125 0.546875 2.40625q0 0.296875 -0.03125 0.515625q-0.015625 0.21875 -0.03125 0.3125l-8.171875 0l0 -1.734375l5.875 0q-0.015625 -0.328125 -0.1875 -0.65625q-0.15625 -0.34375 -0.46875 -0.625q-0.296875 -0.28125 -0.71875 -0.453125q-0.40625 -0.171875 -0.953125 -0.171875q-0.703125 0 -1.296875 0.375q-0.59375 0.359375 -0.9375 1.03125q-0.328125 0.65625 -0.328125 1.578125q0 0.953125 0.359375 1.609375q0.359375 0.65625 0.953125 1.015625q0.609375 0.34375 1.359375 0.34375q0.875 0 1.46875 -0.375q0.609375 -0.390625 0.9375 -0.96875l1.984375 0.96875q-0.671875 1.171875 -1.765625 1.859375q-1.078125 0.671875 -2.65625 0.671875zm6.513733 -0.296875l0 -13.359375l2.4375 0l0 13.359375l-2.4375 0z" fill-rule="nonzero"/><path fill="#274e13" d="m372.3279 366.83023l5.078125 -13.359375l1.78125 0l5.078125 13.359375l-1.734375 0l-3.671875 -9.984375l-0.53125 -1.4375l-0.0625 0l-0.53125 1.4375l-3.671875 9.984375l-1.734375 0zm5.78125 -3.671875l0 -1.5l3.078125 0l0.546875 1.5l-3.625 0zm-3.625 0l0.546875 -1.5l3.078125 0l0 1.5l-3.625 0zm11.562195 3.671875l0 -13.359375l4.484375 0q1.125 0 2.078125 0.515625q0.953125 0.5 1.515625 1.390625q0.578125 0.875 0.578125 2.046875q0 1.15625 -0.578125 2.0625q-0.5625 0.890625 -1.515625 1.390625q-0.953125 0.5 -2.078125 0.5l-3.65625 0l0 -1.5l3.703125 0q0.78125 0 1.328125 -0.359375q0.5625 -0.375 0.875 -0.9375q0.3125 -0.5625 0.3125 -1.15625q0 -0.59375 -0.3125 -1.15625q-0.3125 -0.5625 -0.875 -0.921875q-0.546875 -0.359375 -1.328125 -0.359375l-2.953125 0l0 11.84375l-1.578125 0zm10.746002 0l0 -13.359375l1.578125 0l0 13.359375l-1.578125 0zm11.652344 0l-4.734375 -13.359375l1.75 0l3.296875 9.6875l0.453125 1.328125l0.078125 0l0.46875 -1.328125l3.4375 -9.6875l1.765625 0l-4.890625 13.359375l-1.625 0zm11.05835 0.296875q-1.375 0 -2.453125 -0.640625q-1.0625 -0.65625 -1.671875 -1.796875q-0.609375 -1.140625 -0.609375 -2.59375q0 -1.359375 0.5625 -2.515625q0.578125 -1.15625 1.609375 -1.859375q1.03125 -0.703125 2.4375 -0.703125q1.421875 0 2.4375 0.625q1.015625 0.625 1.5625 1.734375q0.546875 1.09375 0.546875 2.515625q0 0.125 -0.015625 0.265625q0 0.125 -0.015625 0.21875l-8.1875 0l0 -1.3125l6.546875 0q-0.015625 -0.390625 -0.1875 -0.84375q-0.15625 -0.46875 -0.5 -0.859375q-0.34375 -0.40625 -0.875 -0.65625q-0.53125 -0.25 -1.3125 -0.25q-0.9375 0 -1.625 0.484375q-0.671875 0.46875 -1.046875 1.296875q-0.359375 0.8125 -0.359375 1.859375q0 1.203125 0.46875 2.015625q0.46875 0.796875 1.203125 1.1875q0.75 0.390625 1.546875 0.390625q1.046875 0 1.71875 -0.484375q0.6875 -0.5 1.09375 -1.234375l1.34375 0.65625q-0.5625 1.078125 -1.609375 1.796875q-1.03125 0.703125 -2.609375 0.703125zm6.269104 -0.296875l0 -9.515625l1.515625 0l0 1.53125l0.078125 0q0.1875 -0.546875 0.625 -0.9375q0.4375 -0.40625 1.0 -0.640625q0.578125 -0.234375 1.125 -0.234375q0.4375 0 0.671875 0.046875q0.25 0.046875 0.453125 0.140625l0 1.71875q-0.296875 -0.15625 -0.640625 -0.21875q-0.34375 -0.078125 -0.703125 -0.078125q-0.6875 0 -1.265625 0.390625q-0.578125 0.390625 -0.921875 1.046875q-0.34375 0.65625 -0.34375 1.4375l0 5.3125l-1.59375 0zm9.950867 0.296875q-1.0625 0 -1.875 -0.34375q-0.8125 -0.34375 -1.34375 -0.921875q-0.53125 -0.59375 -0.796875 -1.28125l1.421875 -0.640625q0.375 0.859375 1.078125 1.328125q0.703125 0.46875 1.625 0.46875q0.875 0 1.453125 -0.359375q0.59375 -0.359375 0.59375 -1.046875q0 -0.421875 -0.25 -0.703125q-0.234375 -0.296875 -0.703125 -0.5q-0.453125 -0.21875 -1.125 -0.375l-1.15625 -0.3125q-0.671875 -0.1875 -1.28125 -0.515625q-0.59375 -0.34375 -0.953125 -0.875q-0.359375 -0.53125 -0.359375 -1.296875q0 -0.84375 0.5 -1.453125q0.5 -0.625 1.3125 -0.953125q0.828125 -0.328125 1.765625 -0.328125q0.8125 0 1.53125 0.234375q0.71875 0.234375 1.265625 0.6875q0.546875 0.453125 0.8125 1.125l-1.375 0.640625q-0.359375 -0.703125 -0.953125 -0.984375q-0.59375 -0.28125 -1.328125 -0.28125q-0.78125 0 -1.359375 0.34375q-0.578125 0.34375 -0.578125 0.9375q0 0.59375 0.46875 0.90625q0.484375 0.296875 1.171875 0.46875l1.390625 0.359375q1.390625 0.359375 2.09375 1.0625q0.71875 0.6875 0.71875 1.703125q0 0.890625 -0.515625 1.546875q-0.5 0.65625 -1.359375 1.015625q-0.84375 0.34375 -1.890625 0.34375zm5.559204 -0.296875l0 -9.515625l1.578125 0l0 9.515625l-1.578125 0zm0.78125 -11.265625q-0.46875 0 -0.8125 -0.328125q-0.328125 -0.34375 -0.328125 -0.8125q0 -0.484375 0.328125 -0.8125q0.34375 -0.328125 0.8125 -0.328125q0.484375 0 0.8125 0.328125q0.328125 0.328125 0.328125 0.8125q0 0.46875 -0.328125 0.8125q-0.328125 0.328125 -0.8125 0.328125zm7.5760803 11.5625q-1.4375 0 -2.546875 -0.671875q-1.09375 -0.671875 -1.71875 -1.8125q-0.625 -1.15625 -0.625 -2.5625q0 -1.421875 0.625 -2.5625q0.625 -1.15625 1.71875 -1.828125q1.109375 -0.671875 2.546875 -0.671875q1.4375 0 2.53125 0.6875q1.109375 0.671875 1.734375 1.828125q0.625 1.140625 0.625 2.546875q0 1.40625 -0.625 2.5625q-0.625 1.140625 -1.734375 1.8125q-1.09375 0.671875 -2.53125 0.671875zm0 -1.4375q0.859375 0 1.609375 -0.421875q0.75 -0.4375 1.21875 -1.25q0.46875 -0.8125 0.46875 -1.9375q0 -1.140625 -0.46875 -1.953125q-0.46875 -0.8125 -1.21875 -1.234375q-0.75 -0.4375 -1.609375 -0.4375q-0.859375 0 -1.625 0.4375q-0.765625 0.421875 -1.234375 1.234375q-0.46875 0.8125 -0.46875 1.953125q0 1.125 0.46875 1.9375q0.46875 0.8125 1.234375 1.25q0.765625 0.421875 1.625 0.421875zm6.5418396 1.140625l0 -9.515625l1.515625 0l0 1.40625l0.078125 0q0.375 -0.703125 1.21875 -1.203125q0.84375 -0.5 1.859375 -0.5q1.75 0 2.625 1.015625q0.890625 1.015625 0.890625 2.703125l0 6.09375l-1.578125 0l0 -5.859375q0 -1.375 -0.671875 -1.9375q-0.65625 -0.578125 -1.703125 -0.578125q-0.78125 0 -1.375 0.4375q-0.59375 0.4375 -0.9375 1.125q-0.328125 0.6875 -0.328125 1.453125l0 5.359375l-1.59375 0zm13.700958 0.296875q-1.0625 0 -1.875 -0.34375q-0.8125 -0.34375 -1.34375 -0.921875q-0.53125 -0.59375 -0.796875 -1.28125l1.421875 -0.640625q0.375 0.859375 1.078125 1.328125q0.703125 0.46875 1.625 0.46875q0.875 0 1.453125 -0.359375q0.59375 -0.359375 0.59375 -1.046875q0 -0.421875 -0.25 -0.703125q-0.234375 -0.296875 -0.703125 -0.5q-0.453125 -0.21875 -1.125 -0.375l-1.15625 -0.3125q-0.671875 -0.1875 -1.28125 -0.515625q-0.59375 -0.34375 -0.953125 -0.875q-0.359375 -0.53125 -0.359375 -1.296875q0 -0.84375 0.5 -1.453125q0.5 -0.625 1.3125 -0.953125q0.828125 -0.328125 1.765625 -0.328125q0.8125 0 1.53125 0.234375q0.71875 0.234375 1.265625 0.6875q0.546875 0.453125 0.8125 1.125l-1.375 0.640625q-0.359375 -0.703125 -0.953125 -0.984375q-0.59375 -0.28125 -1.328125 -0.28125q-0.78125 0 -1.359375 0.34375q-0.578125 0.34375 -0.578125 0.9375q0 0.59375 0.46875 0.90625q0.484375 0.296875 1.171875 0.46875l1.390625 0.359375q1.390625 0.359375 2.09375 1.0625q0.71875 0.6875 0.71875 1.703125q0 0.890625 -0.515625 1.546875q-0.5 0.65625 -1.359375 1.015625q-0.84375 0.34375 -1.890625 0.34375zm6.543152 -7.53125q-0.5 0 -0.84375 -0.34375q-0.34375 -0.34375 -0.34375 -0.859375q0 -0.5 0.34375 -0.84375q0.34375 -0.34375 0.84375 -0.34375q0.5 0 0.84375 0.34375q0.359375 0.34375 0.359375 0.84375q0 0.515625 -0.359375 0.859375q-0.34375 0.34375 -0.84375 0.34375zm0 7.34375q-0.5 0 -0.84375 -0.34375q-0.34375 -0.34375 -0.34375 -0.84375q0 -0.484375 0.34375 -0.828125q0.34375 -0.34375 0.84375 -0.34375q0.5 0 0.84375 0.34375q0.359375 0.34375 0.359375 0.828125q0 0.5 -0.359375 0.84375q-0.34375 0.34375 -0.84375 0.34375zm8.049683 -0.109375l0 -13.359375l4.78125 0q1.03125 0 1.890625 0.46875q0.875 0.453125 1.40625 1.265625q0.53125 0.796875 0.53125 1.875q0 0.984375 -0.5 1.71875q-0.5 0.71875 -1.328125 1.09375l0 0.078125q0.984375 0.3125 1.625 1.140625q0.65625 0.8125 0.65625 1.9375q0 1.109375 -0.5625 1.96875q-0.5625 0.84375 -1.484375 1.328125q-0.90625 0.484375 -1.96875 0.484375l-5.046875 0zm0.828125 -6.078125l0 -1.515625l3.953125 0q0.71875 0 1.21875 -0.328125q0.5 -0.328125 0.765625 -0.8125q0.28125 -0.484375 0.28125 -0.984375q0 -0.5 -0.265625 -0.984375q-0.265625 -0.484375 -0.75 -0.8125q-0.484375 -0.328125 -1.171875 -0.328125l-3.28125 0l0 10.328125l3.5625 0q0.703125 0 1.21875 -0.34375q0.53125 -0.34375 0.8125 -0.875q0.28125 -0.53125 0.28125 -1.078125q0 -0.546875 -0.296875 -1.0625q-0.28125 -0.53125 -0.8125 -0.859375q-0.53125 -0.34375 -1.28125 -0.34375l-4.234375 0zm14.38382 6.375q-1.375 0 -2.453125 -0.640625q-1.0625 -0.65625 -1.671875 -1.796875q-0.609375 -1.140625 -0.609375 -2.59375q0 -1.359375 0.5625 -2.515625q0.578125 -1.15625 1.609375 -1.859375q1.03125 -0.703125 2.4375 -0.703125q1.421875 0 2.4375 0.625q1.015625 0.625 1.5625 1.734375q0.546875 1.09375 0.546875 2.515625q0 0.125 -0.015625 0.265625q0 0.125 -0.015625 0.21875l-8.1875 0l0 -1.3125l6.546875 0q-0.015625 -0.390625 -0.1875 -0.84375q-0.15625 -0.46875 -0.5 -0.859375q-0.34375 -0.40625 -0.875 -0.65625q-0.53125 -0.25 -1.3125 -0.25q-0.9375 0 -1.625 0.484375q-0.671875 0.46875 -1.046875 1.296875q-0.359375 0.8125 -0.359375 1.859375q0 1.203125 0.46875 2.015625q0.46875 0.796875 1.203125 1.1875q0.75 0.390625 1.546875 0.390625q1.046875 0 1.71875 -0.484375q0.6875 -0.5 1.09375 -1.234375l1.34375 0.65625q-0.5625 1.078125 -1.609375 1.796875q-1.03125 0.703125 -2.609375 0.703125zm5.3328247 -9.8125l5.578125 0l0 1.4375l-5.578125 0l0 -1.4375zm1.671875 7.015625l0 -9.703125l1.578125 0l0 9.3125q0 0.75 0.3125 1.15625q0.3125 0.40625 1.015625 0.40625q0.3125 0 0.578125 -0.09375q0.265625 -0.09375 0.46875 -0.21875l0 1.546875q-0.25 0.109375 -0.546875 0.171875q-0.28125 0.078125 -0.765625 0.078125q-1.1875 0 -1.921875 -0.703125q-0.71875 -0.703125 -0.71875 -1.953125zm8.654114 2.796875q-1.0625 0 -1.875 -0.40625q-0.796875 -0.40625 -1.25 -1.125q-0.45309448 -0.71875 -0.45309448 -1.640625q0 -1.046875 0.5312195 -1.765625q0.546875 -0.71875 1.453125 -1.078125q0.921875 -0.359375 2.015625 -0.359375q0.640625 0 1.171875 0.109375q0.546875 0.09375 0.9375 0.234375q0.40625 0.140625 0.625 0.265625l0 -0.578125q0 -1.078125 -0.765625 -1.703125q-0.765625 -0.640625 -1.875 -0.640625q-0.78125 0 -1.46875 0.34375q-0.671875 0.34375 -1.0625 0.953125l-1.203125 -0.890625q0.375 -0.5625 0.9375 -0.96875q0.5625 -0.40625 1.28125 -0.625q0.71875 -0.234375 1.515625 -0.234375q1.9375 0 3.03125 1.03125q1.109375 1.015625 1.109375 2.75l0 6.03125l-1.5 0l0 -1.359375l-0.078125 0q-0.25 0.40625 -0.703125 0.796875q-0.4375 0.375 -1.046875 0.609375q-0.609375 0.25 -1.328125 0.25zm0.140625 -1.390625q0.828125 0 1.5 -0.40625q0.6875 -0.421875 1.09375 -1.109375q0.421875 -0.6875 0.421875 -1.515625q-0.4375 -0.296875 -1.078125 -0.484375q-0.640625 -0.1875 -1.40625 -0.1875q-1.359375 0 -2.0 0.5625q-0.640625 0.5625 -0.640625 1.375q0 0.78125 0.59375 1.28125q0.609375 0.484375 1.515625 0.484375zm14.094116 1.390625q-1.0625 0 -1.875 -0.40625q-0.796875 -0.40625 -1.25 -1.125q-0.453125 -0.71875 -0.453125 -1.640625q0 -1.046875 0.53125 -1.765625q0.546875 -0.71875 1.453125 -1.078125q0.921875 -0.359375 2.015625 -0.359375q0.640625 0 1.171875 0.109375q0.546875 0.09375 0.9375 0.234375q0.40625 0.140625 0.625 0.265625l0 -0.578125q0 -1.078125 -0.765625 -1.703125q-0.765625 -0.640625 -1.875 -0.640625q-0.78125 0 -1.46875 0.34375q-0.671875 0.34375 -1.0625 0.953125l-1.203125 -0.890625q0.375 -0.5625 0.9375 -0.96875q0.5625 -0.40625 1.28125 -0.625q0.71875 -0.234375 1.515625 -0.234375q1.9375 0 3.03125 1.03125q1.109375 1.015625 1.109375 2.75l0 6.03125l-1.5 0l0 -1.359375l-0.078125 0q-0.25 0.40625 -0.703125 0.796875q-0.4375 0.375 -1.046875 0.609375q-0.609375 0.25 -1.328125 0.25zm0.140625 -1.390625q0.828125 0 1.5 -0.40625q0.6875 -0.421875 1.09375 -1.109375q0.421875 -0.6875 0.421875 -1.515625q-0.4375 -0.296875 -1.078125 -0.484375q-0.640625 -0.1875 -1.40625 -0.1875q-1.359375 0 -2.0 0.5625q-0.640625 0.5625 -0.640625 1.375q0 0.78125 0.59375 1.28125q0.609375 0.484375 1.515625 0.484375zm6.718933 1.09375l0 -9.515625l1.515625 0l0 1.40625l0.078125 0q0.375 -0.703125 1.21875 -1.203125q0.84375 -0.5 1.859375 -0.5q1.75 0 2.625 1.015625q0.890625 1.015625 0.890625 2.703125l0 6.09375l-1.578125 0l0 -5.859375q0 -1.375 -0.671875 -1.9375q-0.65625 -0.578125 -1.703125 -0.578125q-0.78125 0 -1.375 0.4375q-0.59375 0.4375 -0.9375 1.125q-0.328125 0.6875 -0.328125 1.453125l0 5.359375l-1.59375 0zm14.513062 0.296875q-1.28125 0 -2.328125 -0.640625q-1.03125 -0.65625 -1.625 -1.796875q-0.59375 -1.140625 -0.59375 -2.609375q0 -1.484375 0.59375 -2.609375q0.59375 -1.140625 1.625 -1.796875q1.046875 -0.65625 2.328125 -0.65625q0.765625 0 1.390625 0.25q0.640625 0.234375 1.109375 0.625q0.484375 0.390625 0.75 0.84375l0.078125 0l-0.078125 -1.328125l0 -3.9375l1.59375 0l0 13.359375l-1.515625 0l0 -1.40625l-0.078125 0q-0.265625 0.4375 -0.75 0.828125q-0.46875 0.390625 -1.109375 0.625q-0.625 0.25 -1.390625 0.25zm0.171875 -1.4375q0.828125 0 1.546875 -0.4375q0.71875 -0.4375 1.15625 -1.25q0.453125 -0.8125 0.453125 -1.921875q0 -1.125 -0.453125 -1.9375q-0.4375 -0.8125 -1.15625 -1.25q-0.71875 -0.4375 -1.546875 -0.4375q-0.8125 0 -1.53125 0.4375q-0.71875 0.4375 -1.171875 1.25q-0.453125 0.8125 -0.453125 1.9375q0 1.09375 0.453125 1.921875q0.453125 0.8125 1.171875 1.25q0.71875 0.4375 1.53125 0.4375zm17.560974 1.4375q-1.421875 0 -2.6875 -0.515625q-1.25 -0.53125 -2.203125 -1.484375q-0.953125 -0.953125 -1.5 -2.21875q-0.53125 -1.265625 -0.53125 -2.75q0 -1.5 0.53125 -2.765625q0.546875 -1.265625 1.5 -2.21875q0.953125 -0.953125 2.203125 -1.46875q1.265625 -0.53125 2.6875 -0.53125q1.46875 0 2.765625 0.53125q1.296875 0.515625 2.140625 1.46875l-1.125 1.109375q-0.421875 -0.515625 -1.03125 -0.859375q-0.59375 -0.359375 -1.28125 -0.546875q-0.6875 -0.1875 -1.453125 -0.1875q-1.0625 0 -2.03125 0.390625q-0.96875 0.375 -1.71875 1.09375q-0.734375 0.71875 -1.171875 1.734375q-0.421875 1.0 -0.421875 2.25q0 1.25 0.4375 2.25q0.453125 1.0 1.1875 1.71875q0.75 0.71875 1.703125 1.109375q0.96875 0.375 2.015625 0.375q0.890625 0 1.734375 -0.25q0.859375 -0.25 1.53125 -0.78125q0.6875 -0.53125 1.125 -1.359375q0.453125 -0.84375 0.546875 -2.03125l-4.921875 0l0 -1.46875l6.421875 0q0.03125 0.25 0.0625 0.46875q0.03125 0.21875 0.03125 0.484375l0 0l0 0l0 0.015625q0 1.4375 -0.484375 2.625q-0.484375 1.1875 -1.375 2.03125q-0.875 0.84375 -2.0625 1.3125q-1.1875 0.46875 -2.625 0.46875zm7.048767 -0.296875l5.078125 -13.359375l1.78125 0l5.078125 13.359375l-1.734375 0l-3.671875 -9.984375l-0.53125 -1.4375l-0.0625 0l-0.53125 1.4375l-3.671875 9.984375l-1.734375 0zm5.78125 -3.671875l0 -1.5l3.078125 0l0.546875 1.5l-3.625 0zm-3.625 0l0.546875 -1.5l3.078125 0l0 1.5l-3.625 0z" fill-rule="nonzero"/><path fill="#274e13" d="m400.05054 389.23022l5.078125 -13.359375l1.78125 0l5.078125 13.359375l-1.734375 0l-3.671875 -9.984375l-0.53125 -1.4375l-0.0625 0l-0.53125 1.4375l-3.671875 9.984375l-1.734375 0zm5.78125 -3.671875l0 -1.5l3.078125 0l0.546875 1.5l-3.625 0zm-3.625 0l0.546875 -1.5l3.078125 0l0 1.5l-3.625 0zm11.562195 3.671875l0 -13.359375l4.484375 0q1.125 0 2.078125 0.515625q0.953125 0.5 1.515625 1.390625q0.578125 0.875 0.578125 2.046875q0 1.15625 -0.578125 2.0625q-0.5625 0.890625 -1.515625 1.390625q-0.953125 0.5 -2.078125 0.5l-3.65625 0l0 -1.5l3.703125 0q0.78125 0 1.328125 -0.359375q0.5625 -0.375 0.875 -0.9375q0.3125 -0.5625 0.3125 -1.15625q0 -0.59375 -0.3125 -1.15625q-0.3125 -0.5625 -0.875 -0.921875q-0.546875 -0.359375 -1.328125 -0.359375l-2.953125 0l0 11.84375l-1.578125 0zm10.746002 0l0 -13.359375l1.578125 0l0 13.359375l-1.578125 0zm8.899048 0l0 -13.359375l7.71875 0l0 1.515625l-6.140625 0l0 11.84375l-1.578125 0zm0.828125 -5.78125l0 -1.5l6.296875 0l0 1.5l-6.296875 0zm8.719788 5.78125l0 -9.515625l1.578125 0l0 9.515625l-1.578125 0zm0.78125 -11.265625q-0.46875 0 -0.8125 -0.328125q-0.328125 -0.34375 -0.328125 -0.8125q0 -0.484375 0.328125 -0.8125q0.34375 -0.328125 0.8125 -0.328125q0.484375 0 0.8125 0.328125q0.328125 0.328125 0.328125 0.8125q0 0.46875 -0.328125 0.8125q-0.328125 0.328125 -0.8125 0.328125zm7.419861 11.5625q-1.375 0 -2.453125 -0.640625q-1.0625 -0.65625 -1.671875 -1.796875q-0.609375 -1.140625 -0.609375 -2.59375q0 -1.359375 0.5625 -2.515625q0.578125 -1.15625 1.609375 -1.859375q1.03125 -0.703125 2.4375 -0.703125q1.421875 0 2.4375 0.625q1.015625 0.625 1.5625 1.734375q0.546875 1.09375 0.546875 2.515625q0 0.125 -0.015625 0.265625q0 0.125 -0.015625 0.21875l-8.1875 0l0 -1.3125l6.546875 0q-0.015625 -0.390625 -0.1875 -0.84375q-0.15625 -0.46875 -0.5 -0.859375q-0.34375 -0.40625 -0.875 -0.65625q-0.53125 -0.25 -1.3125 -0.25q-0.9375 0 -1.625 0.484375q-0.671875 0.46875 -1.046875 1.296875q-0.359375 0.8125 -0.359375 1.859375q0 1.203125 0.46875 2.015625q0.46875 0.796875 1.203125 1.1875q0.75 0.390625 1.546875 0.390625q1.046875 0 1.71875 -0.484375q0.6875 -0.5 1.09375 -1.234375l1.34375 0.65625q-0.5625 1.078125 -1.609375 1.796875q-1.03125 0.703125 -2.609375 0.703125zm6.2690735 -0.296875l0 -13.359375l1.59375 0l0 13.359375l-1.59375 0zm7.8900146 0.296875q-1.28125 0 -2.328125 -0.640625q-1.03125 -0.65625 -1.625 -1.796875q-0.59375 -1.140625 -0.59375 -2.609375q0 -1.484375 0.59375 -2.609375q0.59375 -1.140625 1.625 -1.796875q1.046875 -0.65625 2.328125 -0.65625q0.765625 0 1.390625 0.25q0.640625 0.234375 1.109375 0.625q0.484375 0.390625 0.75 0.84375l0.078125 0l-0.078125 -1.328125l0 -3.9375l1.59375 0l0 13.359375l-1.515625 0l0 -1.40625l-0.078125 0q-0.265625 0.4375 -0.75 0.828125q-0.46875 0.390625 -1.109375 0.625q-0.625 0.25 -1.390625 0.25zm0.171875 -1.4375q0.828125 0 1.546875 -0.4375q0.71875 -0.4375 1.15625 -1.25q0.453125 -0.8125 0.453125 -1.921875q0 -1.125 -0.453125 -1.9375q-0.4375 -0.8125 -1.15625 -1.25q-0.71875 -0.4375 -1.546875 -0.4375q-0.8125 0 -1.53125 0.4375q-0.71875 0.4375 -1.171875 1.25q-0.453125 0.8125 -0.453125 1.9375q0 1.09375 0.453125 1.921875q0.453125 0.8125 1.171875 1.25q0.71875 0.4375 1.53125 0.4375zm10.247101 1.4375q-1.0625 0 -1.875 -0.34375q-0.8125 -0.34375 -1.34375 -0.921875q-0.53125 -0.59375 -0.796875 -1.28125l1.421875 -0.640625q0.375 0.859375 1.078125 1.328125q0.703125 0.46875 1.625 0.46875q0.875 0 1.453125 -0.359375q0.59375 -0.359375 0.59375 -1.046875q0 -0.421875 -0.25 -0.703125q-0.234375 -0.296875 -0.703125 -0.5q-0.453125 -0.21875 -1.125 -0.375l-1.15625 -0.3125q-0.671875 -0.1875 -1.28125 -0.515625q-0.59375 -0.34375 -0.953125 -0.875q-0.359375 -0.53125 -0.359375 -1.296875q0 -0.84375 0.5 -1.453125q0.5 -0.625 1.3125 -0.953125q0.828125 -0.328125 1.765625 -0.328125q0.8125 0 1.53125 0.234375q0.71875 0.234375 1.265625 0.6875q0.546875 0.453125 0.8125 1.125l-1.375 0.640625q-0.359375 -0.703125 -0.953125 -0.984375q-0.59375 -0.28125 -1.328125 -0.28125q-0.78125 0 -1.359375 0.34375q-0.578125 0.34375 -0.578125 0.9375q0 0.59375 0.46875 0.90625q0.484375 0.296875 1.171875 0.46875l1.390625 0.359375q1.390625 0.359375 2.09375 1.0625q0.71875 0.6875 0.71875 1.703125q0 0.890625 -0.515625 1.546875q-0.5 0.65625 -1.359375 1.015625q-0.84375 0.34375 -1.890625 0.34375zm6.543152 -7.53125q-0.5 0 -0.84375 -0.34375q-0.34375 -0.34375 -0.34375 -0.859375q0 -0.5 0.34375 -0.84375q0.34375 -0.34375 0.84375 -0.34375q0.5 0 0.84375 0.34375q0.359375 0.34375 0.359375 0.84375q0 0.515625 -0.359375 0.859375q-0.34375 0.34375 -0.84375 0.34375zm0 7.34375q-0.5 0 -0.84375 -0.34375q-0.34375 -0.34375 -0.34375 -0.84375q0 -0.484375 0.34375 -0.828125q0.34375 -0.34375 0.84375 -0.34375q0.5 0 0.84375 0.34375q0.359375 0.34375 0.359375 0.828125q0 0.5 -0.359375 0.84375q-0.34375 0.34375 -0.84375 0.34375zm11.208435 0.1875q-0.96875 0 -1.921875 -0.40625q-0.953125 -0.40625 -1.6875 -1.203125q-0.71875 -0.8125 -1.046875 -2.015625l1.515625 -0.609375q0.3125 1.15625 1.140625 1.9375q0.84375 0.78125 2.046875 0.78125q0.734375 0 1.359375 -0.265625q0.625 -0.265625 1.0 -0.78125q0.390625 -0.53125 0.390625 -1.28125q0 -0.671875 -0.328125 -1.140625q-0.3125 -0.46875 -0.96875 -0.828125q-0.65625 -0.359375 -1.609375 -0.703125l-0.84375 -0.296875q-0.546875 -0.203125 -1.125 -0.484375q-0.5625 -0.296875 -1.046875 -0.71875q-0.46875 -0.421875 -0.75 -1.0q-0.28125 -0.59375 -0.28125 -1.390625q0 -0.96875 0.515625 -1.765625q0.53125 -0.8125 1.4375 -1.296875q0.921875 -0.484375 2.109375 -0.484375q1.25 0 2.09375 0.453125q0.859375 0.453125 1.34375 1.078125q0.5 0.625 0.671875 1.15625l-1.46875 0.640625q-0.109375 -0.40625 -0.4375 -0.8125q-0.3125 -0.421875 -0.84375 -0.703125q-0.53125 -0.296875 -1.328125 -0.296875q-0.65625 0 -1.234375 0.265625q-0.5625 0.25 -0.90625 0.71875q-0.34375 0.453125 -0.34375 1.046875q0 0.84375 0.671875 1.328125q0.671875 0.484375 1.8125 0.875l0.875 0.296875q0.59375 0.203125 1.21875 0.5q0.625 0.296875 1.15625 0.765625q0.546875 0.46875 0.875 1.15625q0.34375 0.671875 0.34375 1.625q0 1.03125 -0.40625 1.765625q-0.390625 0.734375 -1.046875 1.203125q-0.65625 0.46875 -1.4375 0.671875q-0.765625 0.21875 -1.515625 0.21875zm5.315033 -9.8125l5.578125 0l0 1.4375l-5.578125 0l0 -1.4375zm1.671875 7.015625l0 -9.703125l1.578125 0l0 9.3125q0 0.75 0.3125 1.15625q0.3125 0.40625 1.015625 0.40625q0.3125 0 0.578125 -0.09375q0.265625 -0.09375 0.46875 -0.21875l0 1.546875q-0.25 0.109375 -0.546875 0.171875q-0.28125 0.078125 -0.765625 0.078125q-1.1875 0 -1.921875 -0.703125q-0.71875 -0.703125 -0.71875 -1.953125zm8.654114 2.796875q-1.0625 0 -1.875 -0.40625q-0.796875 -0.40625 -1.25 -1.125q-0.453125 -0.71875 -0.453125 -1.640625q0 -1.046875 0.53125 -1.765625q0.546875 -0.71875 1.453125 -1.078125q0.921875 -0.359375 2.015625 -0.359375q0.640625 0 1.171875 0.109375q0.546875 0.09375 0.9375 0.234375q0.40625 0.140625 0.625 0.265625l0 -0.578125q0 -1.078125 -0.765625 -1.703125q-0.765625 -0.640625 -1.875 -0.640625q-0.78125 0 -1.46875 0.34375q-0.671875 0.34375 -1.0625 0.953125l-1.203125 -0.890625q0.375 -0.5625 0.9375 -0.96875q0.5625 -0.40625 1.28125 -0.625q0.71875 -0.234375 1.515625 -0.234375q1.9375 0 3.03125 1.03125q1.109375 1.015625 1.109375 2.75l0 6.03125l-1.5 0l0 -1.359375l-0.078125 0q-0.25 0.40625 -0.703125 0.796875q-0.4375 0.375 -1.046875 0.609375q-0.609375 0.25 -1.328125 0.25zm0.140625 -1.390625q0.828125 0 1.5 -0.40625q0.6875 -0.421875 1.09375 -1.109375q0.421875 -0.6875 0.421875 -1.515625q-0.4375 -0.296875 -1.078125 -0.484375q-0.640625 -0.1875 -1.40625 -0.1875q-1.359375 0 -2.0 0.5625q-0.640625 0.5625 -0.640625 1.375q0 0.78125 0.59375 1.28125q0.609375 0.484375 1.515625 0.484375zm6.718994 1.09375l0 -9.515625l1.515625 0l0 1.40625l0.078125 0q0.375 -0.703125 1.21875 -1.203125q0.84375 -0.5 1.859375 -0.5q1.75 0 2.625 1.015625q0.890625 1.015625 0.890625 2.703125l0 6.09375l-1.578125 0l0 -5.859375q0 -1.375 -0.671875 -1.9375q-0.65625 -0.578125 -1.703125 -0.578125q-0.78125 0 -1.375 0.4375q-0.59375 0.4375 -0.9375 1.125q-0.328125 0.6875 -0.328125 1.453125l0 5.359375l-1.59375 0zm14.5130005 0.296875q-1.28125 0 -2.328125 -0.640625q-1.03125 -0.65625 -1.625 -1.796875q-0.59375 -1.140625 -0.59375 -2.609375q0 -1.484375 0.59375 -2.609375q0.59375 -1.140625 1.625 -1.796875q1.046875 -0.65625 2.328125 -0.65625q0.765625 0 1.390625 0.25q0.640625 0.234375 1.109375 0.625q0.484375 0.390625 0.75 0.84375l0.078125 0l-0.078125 -1.328125l0 -3.9375l1.59375 0l0 13.359375l-1.515625 0l0 -1.40625l-0.078125 0q-0.265625 0.4375 -0.75 0.828125q-0.46875 0.390625 -1.109375 0.625q-0.625 0.25 -1.390625 0.25zm0.171875 -1.4375q0.828125 0 1.546875 -0.4375q0.71875 -0.4375 1.15625 -1.25q0.453125 -0.8125 0.453125 -1.921875q0 -1.125 -0.453125 -1.9375q-0.4375 -0.8125 -1.15625 -1.25q-0.71875 -0.4375 -1.546875 -0.4375q-0.8125 0 -1.53125 0.4375q-0.71875 0.4375 -1.171875 1.25q-0.453125 0.8125 -0.453125 1.9375q0 1.09375 0.453125 1.921875q0.453125 0.8125 1.171875 1.25q0.71875 0.4375 1.53125 0.4375zm9.965881 1.4375q-1.0625 0 -1.875 -0.40625q-0.796875 -0.40625 -1.25 -1.125q-0.453125 -0.71875 -0.453125 -1.640625q0 -1.046875 0.53125 -1.765625q0.546875 -0.71875 1.453125 -1.078125q0.921875 -0.359375 2.015625 -0.359375q0.640625 0 1.171875 0.109375q0.546875 0.09375 0.9375 0.234375q0.40625 0.140625 0.625 0.265625l0 -0.578125q0 -1.078125 -0.765625 -1.703125q-0.765625 -0.640625 -1.875 -0.640625q-0.78125 0 -1.46875 0.34375q-0.671875 0.34375 -1.0625 0.953125l-1.203125 -0.890625q0.375 -0.5625 0.9375 -0.96875q0.5625 -0.40625 1.28125 -0.625q0.71875 -0.234375 1.515625 -0.234375q1.9375 0 3.03125 1.03125q1.109375 1.015625 1.109375 2.75l0 6.03125l-1.5 0l0 -1.359375l-0.078125 0q-0.25 0.40625 -0.703125 0.796875q-0.4375 0.375 -1.046875 0.609375q-0.609375 0.25 -1.328125 0.25zm0.140625 -1.390625q0.828125 0 1.5 -0.40625q0.6875 -0.421875 1.09375 -1.109375q0.421875 -0.6875 0.421875 -1.515625q-0.4375 -0.296875 -1.078125 -0.484375q-0.640625 -0.1875 -1.40625 -0.1875q-1.359375 0 -2.0 0.5625q-0.640625 0.5625 -0.640625 1.375q0 0.78125 0.59375 1.28125q0.609375 0.484375 1.515625 0.484375zm6.718933 1.09375l0 -9.515625l1.515625 0l0 1.53125l0.078125 0q0.1875 -0.546875 0.625 -0.9375q0.4375 -0.40625 1.0 -0.640625q0.578125 -0.234375 1.125 -0.234375q0.4375 0 0.671875 0.046875q0.25 0.046875 0.453125 0.140625l0 1.71875q-0.296875 -0.15625 -0.640625 -0.21875q-0.34375 -0.078125 -0.703125 -0.078125q-0.6875 0 -1.265625 0.390625q-0.578125 0.390625 -0.921875 1.046875q-0.34375 0.65625 -0.34375 1.4375l0 5.3125l-1.59375 0zm10.482971 0.296875q-1.28125 0 -2.328125 -0.640625q-1.03125 -0.65625 -1.625 -1.796875q-0.59375 -1.140625 -0.59375 -2.609375q0 -1.484375 0.59375 -2.609375q0.59375 -1.140625 1.625 -1.796875q1.046875 -0.65625 2.328125 -0.65625q0.765625 0 1.390625 0.25q0.640625 0.234375 1.109375 0.625q0.484375 0.390625 0.75 0.84375l0.078125 0l-0.078125 -1.328125l0 -3.9375l1.59375 0l0 13.359375l-1.515625 0l0 -1.40625l-0.078125 0q-0.265625 0.4375 -0.75 0.828125q-0.46875 0.390625 -1.109375 0.625q-0.625 0.25 -1.390625 0.25zm0.171875 -1.4375q0.828125 0 1.546875 -0.4375q0.71875 -0.4375 1.15625 -1.25q0.453125 -0.8125 0.453125 -1.921875q0 -1.125 -0.453125 -1.9375q-0.4375 -0.8125 -1.15625 -1.25q-0.71875 -0.4375 -1.546875 -0.4375q-0.8125 0 -1.53125 0.4375q-0.71875 0.4375 -1.171875 1.25q-0.453125 0.8125 -0.453125 1.9375q0 1.09375 0.453125 1.921875q0.453125 0.8125 1.171875 1.25q0.71875 0.4375 1.53125 0.4375z" fill-rule="nonzero"/></g></svg>