<?xml version="1.0" encoding="UTF-8" standalone="no"?>
<svg
   width="681"
   height="661"
   viewBox="0 0 681 661"
   version="1.1"
   xml:space="preserve"
   style="clip-rule:evenodd;fill-rule:evenodd;stroke-linecap:round;stroke-linejoin:round;stroke-miterlimit:1.5"
   id="svg12"
   sodipodi:docname="Gateway API Logo.svg"
   inkscape:version="1.3 (0e150ed, 2023-07-21)"
   xmlns:inkscape="http://www.inkscape.org/namespaces/inkscape"
   xmlns:sodipodi="http://sodipodi.sourceforge.net/DTD/sodipodi-0.dtd"
   xmlns="http://www.w3.org/2000/svg"
   xmlns:svg="http://www.w3.org/2000/svg"><sodipodi:namedview
   id="namedview12"
   pagecolor="#56ffff"
   bordercolor="#000000"
   borderopacity="0.25"
   inkscape:showpageshadow="2"
   inkscape:pageopacity="0.0"
   inkscape:pagecheckerboard="0"
   inkscape:deskcolor="#d1d1d1"
   inkscape:zoom="0.48687264"
   inkscape:cx="163.28706"
   inkscape:cy="354.3021"
   inkscape:window-width="1192"
   inkscape:window-height="760"
   inkscape:window-x="321"
   inkscape:window-y="38"
   inkscape:window-maximized="0"
   inkscape:current-layer="svg12" /><defs
   id="defs12"><marker
     style="overflow:visible"
     id="marker8"
     refX="0"
     refY="0"
     orient="auto-start-reverse"
     inkscape:stockid="marker8"
     markerWidth="0.40000001"
     markerHeight="0.40000001"
     viewBox="0 0 1 1"
     inkscape:isstock="true"
     inkscape:collect="always"
     preserveAspectRatio="xMidYMid"><path
       transform="scale(0.5)"
       style="fill:#ffffff;fill-rule:evenodd;stroke:#ffffff;stroke-width:1pt"
       d="M 5.77,0 -2.88,5 V -5 Z"
       id="path8" /></marker><marker
     style="overflow:visible"
     id="Triangle"
     refX="0"
     refY="0"
     orient="auto-start-reverse"
     inkscape:stockid="Triangle"
     markerWidth="0.40000001"
     markerHeight="0.40000001"
     viewBox="0 0 1 1"
     inkscape:isstock="true"
     inkscape:collect="always"
     preserveAspectRatio="xMidYMid"><path
       transform="scale(0.5)"
       style="fill:#ffffff;fill-rule:evenodd;stroke:#ffffff;stroke-width:1pt"
       d="M 5.77,0 -2.88,5 V -5 Z"
       id="path135" /></marker><marker
     style="overflow:visible"
     refX="0"
     refY="0"
     orient="auto-start-reverse"
     inkscape:stockid="marker8-939207134"
     markerWidth="0.40000001"
     markerHeight="0.40000001"
     viewBox="0 0 1 1"
     inkscape:isstock="true"
     inkscape:collect="always"
     preserveAspectRatio="xMidYMid"
     id="marker8-939207134"><path
       transform="scale(0.5)"
       style="fill:#ffffff;fill-rule:evenodd;stroke:#ffffff;stroke-width:1pt"
       d="M 5.77,0 -2.88,5 V -5 Z"
       id="path17" /></marker></defs>&#10;    <g
   id="g13"
   inkscape:label="base"
   style="clip-rule:evenodd;fill-rule:evenodd;stroke:#ffffff;stroke-width:20;stroke-linecap:round;stroke-linejoin:round;stroke-miterlimit:1.5;stroke-dasharray:none;stroke-opacity:1"
   transform="translate(-34.717245,-44.527423)"><path
     id="path3055"
     d="m 386.932,178.598 c -6.507,0.328 -12.882,1.941 -18.751,4.745 l -255.875,122.26 c -13.407,6.402 -23.162,18.533 -26.475,32.921 L 22.705,613.15 c -2.943,12.778 -0.545,26.21 6.643,37.208 0.864,1.332 1.792,2.62 2.782,3.862 l 177.106,220.205 c 9.281,11.534 23.377,18.263 38.256,18.26 L 531.51,892.62 c 14.873,0.01 28.968,-6.705 38.255,-18.228 L 746.806,654.154 c 9.285,-11.54 12.771,-26.675 9.458,-41.069 L 693.039,338.458 C 689.727,324.071 679.972,311.94 666.565,305.537 L 410.657,183.343 c -7.382,-3.527 -15.541,-5.159 -23.725,-4.745 z"
     style="clip-rule:evenodd;display:inline;fill:#326ce5;fill-rule:nonzero;stroke:#ffffff;stroke-width:22.2842;stroke-linecap:round;stroke-linejoin:round;stroke-miterlimit:1.5;stroke-dasharray:none;stroke-opacity:1"
     inkscape:label="septagon"
     transform="matrix(0.89749856,0,0,0.89749856,25.440716,-105.70745)" /></g><g
   transform="matrix(0.901034,0,0,0.901034,37.1122,37.1122)"
   id="g5"
   inkscape:label="k8s-logo"
   style="clip-rule:evenodd;display:none;mix-blend-mode:difference;fill-rule:evenodd;stroke-linecap:round;stroke-linejoin:round;stroke-miterlimit:1.5">&#10;            &#10;            &#10;        <path
   id="path3059"
   d="m 389.467,272.057 c -8.458,10e-4 -15.316,7.619 -15.315,17.017 0,0.144 0.03,0.282 0.033,0.425 -0.013,1.277 -0.074,2.815 -0.033,3.927 0.202,5.42 1.383,9.569 2.094,14.563 1.289,10.688 2.368,19.548 1.702,27.783 -0.648,3.105 -2.935,5.945 -4.974,7.919 l -0.36,6.48 c -9.191,0.761 -18.443,2.156 -27.685,4.254 -39.767,9.029 -74.005,29.513 -100.072,57.17 -1.692,-1.154 -4.651,-3.277 -5.531,-3.927 -2.734,0.37 -5.498,1.213 -9.097,-0.883 -6.854,-4.614 -13.097,-10.982 -20.65,-18.653 -3.461,-3.67 -5.967,-7.164 -10.079,-10.701 -0.934,-0.804 -2.359,-1.89 -3.403,-2.717 -3.215,-2.563 -7.007,-3.899 -10.669,-4.025 -4.708,-0.161 -9.24,1.68 -12.206,5.4 -5.273,6.613 -3.585,16.721 3.763,22.58 0.075,0.059 0.154,0.105 0.229,0.164 1.01,0.818 2.247,1.867 3.175,2.552 4.363,3.222 8.349,4.871 12.697,7.429 9.16,5.656 16.753,10.347 22.776,16.002 2.352,2.507 2.763,6.925 3.077,8.836 l 4.908,4.385 c -26.277,39.546 -38.439,88.393 -31.252,138.164 l -6.414,1.865 c -1.69,2.183 -4.079,5.618 -6.578,6.643 -7.88,2.482 -16.749,3.394 -27.456,4.516 -5.027,0.418 -9.364,0.169 -14.693,1.178 -1.173,0.223 -2.807,0.648 -4.091,0.949 -0.044,0.009 -0.086,0.023 -0.131,0.033 -0.07,0.016 -0.161,0.05 -0.229,0.065 -9.027,2.182 -14.826,10.479 -12.959,18.654 1.868,8.176 10.685,13.149 19.766,11.191 0.066,-0.015 0.161,-0.017 0.229,-0.032 0.103,-0.024 0.193,-0.073 0.295,-0.098 1.266,-0.278 2.852,-0.587 3.959,-0.884 5.24,-1.403 9.034,-3.464 13.745,-5.269 10.133,-3.634 18.526,-6.67 26.703,-7.854 3.415,-0.267 7.013,2.108 8.803,3.109 l 6.676,-1.145 c 15.362,47.629 47.557,86.126 88.324,110.282 l -2.782,6.676 c 1.003,2.592 2.109,6.1 1.362,8.66 -2.973,7.708 -8.064,15.845 -13.862,24.916 -2.808,4.191 -5.681,7.443 -8.214,12.239 -0.607,1.148 -1.379,2.91 -1.964,4.123 -3.936,8.422 -1.049,18.122 6.512,21.762 7.609,3.663 17.053,-0.2 21.141,-8.639 0.006,-0.012 0.027,-0.021 0.032,-0.033 0.004,-0.009 -0.004,-0.023 0,-0.033 0.583,-1.196 1.407,-2.769 1.898,-3.894 2.17,-4.971 2.892,-9.231 4.418,-14.039 4.052,-10.179 6.279,-20.859 11.857,-27.514 1.528,-1.822 4.018,-2.523 6.6,-3.214 l 3.469,-6.283 c 35.54,13.641 75.321,17.302 115.06,8.279 9.066,-2.058 17.817,-4.722 26.278,-7.919 0.975,1.729 2.787,5.053 3.273,5.89 2.623,0.854 5.487,1.294 7.821,4.745 4.173,7.13 7.027,15.566 10.504,25.754 1.527,4.808 2.281,9.068 4.451,14.039 0.495,1.133 1.315,2.728 1.898,3.927 4.079,8.467 13.553,12.343 21.173,8.672 7.56,-3.642 10.451,-13.341 6.512,-21.762 -0.585,-1.212 -1.39,-2.975 -1.996,-4.123 -2.534,-4.796 -5.406,-8.016 -8.214,-12.206 -5.798,-9.071 -10.608,-16.606 -13.581,-24.315 -1.243,-3.975 0.21,-6.448 1.178,-9.032 -0.58,-0.664 -1.821,-4.419 -2.552,-6.185 42.366,-25.015 73.616,-64.948 88.291,-111.068 1.982,0.312 5.426,0.921 6.545,1.146 2.304,-1.519 4.421,-3.501 8.574,-3.174 8.177,1.182 16.57,4.219 26.703,7.853 4.711,1.805 8.505,3.899 13.745,5.302 1.107,0.296 2.694,0.573 3.96,0.851 0.101,0.025 0.192,0.075 0.294,0.098 0.068,0.015 0.164,0.018 0.229,0.033 9.082,1.955 17.901,-3.015 19.766,-11.192 1.865,-8.176 -3.932,-16.475 -12.959,-18.653 -1.313,-0.299 -3.175,-0.806 -4.451,-1.048 -5.329,-1.009 -9.666,-0.76 -14.693,-1.178 -10.707,-1.122 -19.576,-2.034 -27.456,-4.516 -3.213,-1.246 -5.499,-5.069 -6.611,-6.643 l -6.185,-1.8 c 3.207,-23.2 2.343,-47.345 -3.207,-71.503 -5.6,-24.384 -15.498,-46.685 -28.699,-66.333 1.586,-1.443 4.582,-4.096 5.432,-4.876 0.248,-2.748 0.035,-5.63 2.88,-8.672 6.023,-5.656 13.617,-10.346 22.776,-16.003 4.348,-2.558 8.367,-4.206 12.73,-7.428 0.987,-0.729 2.334,-1.883 3.371,-2.717 7.346,-5.86 9.038,-15.968 3.763,-22.58 -5.274,-6.612 -15.495,-7.235 -22.842,-1.374 -1.045,0.828 -2.464,1.908 -3.403,2.716 -4.112,3.537 -6.651,7.031 -10.112,10.701 -7.553,7.672 -13.796,14.072 -20.649,18.686 -2.97,1.729 -7.32,1.131 -9.294,1.014 l -5.825,4.156 c -33.216,-34.83 -78.44,-57.098 -127.136,-61.424 -0.136,-2.041 -0.314,-5.729 -0.36,-6.84 -1.993,-1.907 -4.401,-3.536 -5.007,-7.657 -0.666,-8.235 0.447,-17.095 1.735,-27.783 0.711,-4.994 1.893,-9.143 2.094,-14.563 0.046,-1.232 -0.027,-3.02 -0.032,-4.352 -0.001,-9.398 -6.858,-17.018 -15.316,-17.017 z m -19.176,118.791 -4.549,80.339 -0.327,0.164 c -0.306,7.187 -6.221,12.926 -13.483,12.926 -2.975,0 -5.721,-0.955 -7.952,-2.585 l -0.131,0.065 -65.875,-46.698 c 20.246,-19.908 46.142,-34.621 75.987,-41.397 5.452,-1.238 10.901,-2.156 16.33,-2.814 z m 38.386,0 c 34.843,4.285 67.067,20.063 91.76,44.244 l -65.45,46.403 -0.229,-0.098 c -5.809,4.243 -13.994,3.19 -18.522,-2.487 -1.855,-2.326 -2.828,-5.06 -2.945,-7.821 l -0.066,-0.033 z m -154.592,74.219 60.148,53.8 -0.065,0.327 c 5.429,4.72 6.229,12.91 1.701,18.588 -1.854,2.326 -4.337,3.886 -7.003,4.614 l -0.065,0.262 -77.1,22.253 c -3.924,-35.882 4.533,-70.763 22.384,-99.844 z m 270.339,0.033 c 8.937,14.486 15.704,30.664 19.733,48.204 3.981,17.329 4.98,34.627 3.338,51.345 l -77.492,-22.318 -0.065,-0.328 c -6.94,-1.896 -11.204,-8.955 -9.589,-16.035 0.662,-2.9 2.202,-5.354 4.287,-7.166 l -0.033,-0.164 z M 377.13,523.023 h 24.642 l 15.315,19.144 -5.498,23.889 -22.122,10.636 -22.187,-10.669 -5.498,-23.889 z m 78.998,65.515 c 1.047,-0.053 2.089,0.041 3.108,0.229 l 0.131,-0.164 79.751,13.483 c -11.672,32.791 -34.006,61.198 -63.846,80.208 l -30.958,-74.776 0.098,-0.131 c -2.844,-6.607 0.002,-14.356 6.545,-17.507 1.675,-0.807 3.425,-1.254 5.171,-1.342 z m -133.943,0.327 c 6.086,0.086 11.545,4.31 12.959,10.505 0.662,2.9 0.34,5.774 -0.752,8.312 l 0.229,0.294 L 303.99,682 c -28.638,-18.377 -51.448,-45.892 -63.649,-79.652 l 79.063,-13.417 0.13,0.163 c 0.885,-0.162 1.782,-0.241 2.651,-0.229 z m 66.791,32.431 c 2.12,-0.078 4.272,0.357 6.316,1.341 2.681,1.291 4.751,3.323 6.054,5.76 h 0.295 l 38.975,70.423 c -5.058,1.696 -10.258,3.145 -15.577,4.353 -29.808,6.768 -59.521,4.717 -86.426,-4.451 L 377.49,628.43 h 0.065 c 2.333,-4.361 6.757,-6.963 11.421,-7.134 z"
   style="clip-rule:evenodd;display:inline;fill:#ffffff;fill-rule:nonzero;stroke-linecap:round;stroke-linejoin:round;stroke-miterlimit:1.5"
   inkscape:label="k8s"
   transform="matrix(0.99607624,0,0,0.99607624,-12.953433,-158.50639)" /></g><g
   id="g12"
   inkscape:label="arrows"
   transform="translate(-34.717245,-44.527423)">&#10;        &#10;        &#10;        &#10;        &#10;        &#10;        &#10;        &#10;        &#10;    <g
   id="g14"
   inkscape:label="left"
   style="clip-rule:evenodd;fill-rule:evenodd;stroke-linecap:round;stroke-linejoin:round;stroke-miterlimit:1.5"
   transform="matrix(0.93889305,0,0,1.0068906,7.8476083,-2.369358)"><path
     style="fill:none;fill-rule:evenodd;stroke:#ffffff;stroke-width:35;stroke-linecap:butt;stroke-linejoin:miter;stroke-dasharray:none;stroke-opacity:1;marker-start:url(#Triangle)"
     d="M 158.3659,438.12833 359.99809,391.84586"
     id="path13"
     inkscape:connector-type="polyline"
     inkscape:connector-curvature="0"
     inkscape:connection-end="#g11"
     sodipodi:nodetypes="cc"
     inkscape:label="l-arrow" /><path
     style="clip-rule:evenodd;fill:none;fill-rule:evenodd;stroke:#ffffff;stroke-width:35;stroke-linecap:square;stroke-linejoin:miter;stroke-miterlimit:1.5;stroke-dasharray:none;stroke-opacity:1"
     d="M 200.97459,242.82667 363.15499,363.8957"
     id="path13-9"
     inkscape:connector-type="polyline"
     inkscape:connector-curvature="0"
     inkscape:connection-end="#g11"
     sodipodi:nodetypes="cc"
     inkscape:label="l-line" /></g><g
   id="g2"
   inkscape:label="right"
   style="clip-rule:evenodd;fill-rule:evenodd;stroke-linecap:round;stroke-linejoin:round;stroke-miterlimit:1.5"
   transform="matrix(-0.93889305,0,0,1.0068906,742.87026,-2.0241999)"><path
     style="fill:none;fill-rule:evenodd;stroke:#ffffff;stroke-width:35;stroke-linecap:butt;stroke-linejoin:miter;stroke-dasharray:none;stroke-opacity:1;marker-start:url(#Triangle)"
     d="M 158.3659,438.12833 380.05768,387.08232"
     id="path1"
     inkscape:connector-type="polyline"
     inkscape:connector-curvature="0"
     inkscape:connection-end="#g11"
     sodipodi:nodetypes="cc"
     inkscape:label="r-arrow" /><path
     style="clip-rule:evenodd;fill:none;fill-rule:evenodd;stroke:#ffffff;stroke-width:35;stroke-linecap:square;stroke-linejoin:bevel;stroke-miterlimit:1.3;stroke-dasharray:none;stroke-opacity:1"
     d="M 201.73818,242.68203 376.83371,373.20976"
     id="path2"
     inkscape:connector-type="polyline"
     inkscape:connector-curvature="0"
     sodipodi:nodetypes="cc"
     inkscape:label="r-line"
     inkscape:connection-end="#g11" /></g><g
   id="g15"
   inkscape:label="middle"><path
     style="clip-rule:evenodd;fill:none;fill-rule:evenodd;stroke:#ffffff;stroke-width:34.0304;stroke-linecap:square;stroke-linejoin:bevel;stroke-miterlimit:1.5;stroke-dasharray:none;stroke-opacity:1"
     d="m 375,157.18502 -0.49437,213.8605"
     id="path4"
     inkscape:connector-type="polyline"
     inkscape:connector-curvature="0"
     sodipodi:nodetypes="cc"
     inkscape:label="middle-line" /><path
     style="clip-rule:evenodd;fill:none;fill-rule:evenodd;stroke:#ffffff;stroke-width:34.0304;stroke-linecap:butt;stroke-linejoin:miter;stroke-miterlimit:1.5;stroke-dasharray:none;stroke-opacity:1;marker-end:url(#marker8)"
     d="M 368.59471,397.24705 279.23475,590.81597"
     id="path3"
     inkscape:connector-type="polyline"
     inkscape:connector-curvature="0"
     sodipodi:nodetypes="cc"
     inkscape:label="middle-left-arrow" /><path
     style="clip-rule:evenodd;fill:none;fill-rule:evenodd;stroke:#ffffff;stroke-width:34.0304;stroke-linecap:butt;stroke-linejoin:miter;stroke-miterlimit:1.5;stroke-dasharray:none;stroke-opacity:1;marker-end:url(#marker8-939207134)"
     d="m 385.77249,403.0904 88.02804,188.75906"
     id="path3-1"
     inkscape:connector-type="polyline"
     inkscape:connector-curvature="0"
     sodipodi:nodetypes="cc"
     inkscape:label="middle-right-arrow" /></g></g><g
   transform="matrix(-0.244253,0,0,-0.244253,432.28675,428.42258)"
   id="g11"
   style="clip-rule:evenodd;display:inline;fill-rule:evenodd;stroke-linecap:round;stroke-linejoin:round;stroke-miterlimit:1.5"
   inkscape:label="circles">&#10;            <path
   d="m 144.534,76.837 c 31.985,0 57.953,25.968 57.953,57.952 0,31.985 -25.968,57.953 -57.953,57.953 -31.984,0 -57.952,-25.968 -57.952,-57.953 0,-31.984 25.968,-57.952 57.952,-57.952 z m 0,10.873 c 25.984,0 47.08,21.095 47.08,47.079 0,25.984 -21.096,47.08 -47.08,47.08 -25.984,0 -47.079,-21.096 -47.079,-47.08 0,-25.984 21.095,-47.079 47.079,-47.079 z"
   style="clip-rule:evenodd;display:inline;fill:#ffffff;fill-rule:evenodd;stroke:#ffffff;stroke-width:0.83px;stroke-linecap:round;stroke-linejoin:round;stroke-miterlimit:1.5"
   id="path5"
   transform="matrix(-12.517799,0,0,-12.517799,2185.9269,2047.3448)"
   inkscape:label="outer circle" /><g
   id="g9"
   inkscape:label="inner"
   transform="matrix(1.2637463,0,0,1.2637463,-99.348755,-94.971501)"><circle
     cx="383.57401"
     cy="382.97501"
     r="37.626999"
     style="clip-rule:evenodd;display:inline;fill:#ffffff;fill-rule:evenodd;stroke:#ffffff;stroke-width:1.67px;stroke-linecap:round;stroke-linejoin:round;stroke-miterlimit:1.5"
     id="circle9"
     transform="matrix(-4.3433243,0,0,-4.3433243,2042.6693,2023.4712)"
     inkscape:label="inner circle" /><path
     d="m 376.673,284.828 c 2.753,-0.009 60.047,27.921 61.608,29.669 1.516,1.698 15.732,64.728 15.215,66.665 -0.538,2.016 -40.619,52.618 -42.633,53.461 -2.182,0.913 -66.537,0.954 -68.38,0 -1.922,-0.994 -42.273,-51.719 -42.634,-53.461 -0.348,-1.678 13.665,-64.853 15.216,-66.665 1.481,-1.731 58.799,-29.659 61.608,-29.669 z"
     style="fill:#326ce5;stroke:#326ce5;stroke-width:1.67px"
     id="path10"
     inkscape:label="septagon" /></g>&#10;        </g>&#10;</svg>
