<?xml version="1.0" encoding="UTF-8" standalone="no"?>
<svg
   width="837.32959"
   height="206.85352"
   viewBox="0 0 1395.5493 344.75586"
   version="1.1"
   xml:space="preserve"
   style="clip-rule:evenodd;fill-rule:evenodd;stroke-linecap:round;stroke-linejoin:round;stroke-miterlimit:1.5"
   id="svg12"
   xmlns="http://www.w3.org/2000/svg"
   xmlns:svg="http://www.w3.org/2000/svg"><defs
   id="defs12" />
    
<g
   id="g3"
   transform="translate(-134.96343,-34.392495)"><path
     id="path3055"
     style="clip-rule:evenodd;display:inline;fill:#ffffff;fill-opacity:1;fill-rule:nonzero;stroke:#ffffff;stroke-width:22.2842;stroke-linecap:round;stroke-linejoin:round;stroke-miterlimit:1.5;stroke-dasharray:none;stroke-opacity:0"
     d="m 387.49101,189.72373 c -5.03814,0.25397 -9.97423,1.50069 -14.51111,3.66824 L 117.10701,315.65748 c -10.36454,4.94921 -17.870916,14.29883 -20.418042,25.36073 L 33.560259,615.6436 a 11.143215,11.143215 0 0 0 0,0.007 c -2.262588,9.82378 -0.424698,20.14061 5.111254,28.61089 a 11.143215,11.143215 0 0 1 0.02023,0.0337 c 0.665834,1.0265 1.386606,2.01453 2.151043,2.9737 v 0.007 L 217.91605,867.43693 c 7.15348,8.89006 18.05688,14.10851 29.57514,14.10652 l 284.01176,-0.0674 a 11.143215,11.143215 0 0 1 0.0135,0 c 11.51365,0.008 22.41069,-5.1931 29.5684,-14.07281 l 177.0328,-220.229 a 11.143215,11.143215 0 0 0 0.007,-0.007 c 7.15612,-8.89409 9.82938,-20.51927 7.28253,-31.58459 L 682.18381,340.95752 c -2.54616,-11.06024 -10.05295,-20.41724 -20.41805,-25.36747 L 405.85241,193.39871 a 11.143215,11.143215 0 0 0 0,-0.007 c -5.70682,-2.72662 -12.02617,-3.9887 -18.3614,-3.66824 z m -16.92513,71.87449 37.91633,0.0877 -0.0405,18.96154 -0.13487,58.42878 c 47.69331,4.51994 90.46772,26.03345 122.19135,58.4153 l 46.83068,-37.72079 14.63923,-11.7869 21.98918,31.39577 -14.63923,11.79365 -44.8145,36.08896 c 20.48203,31.11282 32.40724,68.34804 32.40724,108.3478 0,9.2357 -0.63809,18.32208 -1.86784,27.22181 l 27.34993,6.62171 4.03237,-19.15035 a 4.8823911,5.235989 0 0 1 3.31085,-3.84355 4.8823911,5.235989 0 0 1 4.76735,1.15306 l 53.72212,53.26359 a 4.8823911,5.235989 0 0 1 -1.86109,8.84017 l -69.85156,23.34454 a 4.8823911,5.235989 0 0 1 -6.21712,-6.15643 l 4.03236,-19.15034 -28.47602,-6.89143 c -15.1905,43.33335 -45.08115,79.77871 -83.67487,103.35118 l 13.20294,28.30744 17.18137,-8.01077 a 5.0560975,5.0560975 0 0 1 7.17464,5.02359 l -6.64194,75.47529 a 5.0560975,5.0560975 0 0 1 -7.92986,3.6952 L 453.0742,765.28602 a 5.0560975,5.0560975 0 0 1 0.76197,-8.72555 l 17.18136,-8.01078 -12.95345,-27.77474 c -21.36712,7.92626 -44.47299,12.25892 -68.58386,12.25892 -23.2732,0 -45.6109,-4.03337 -66.3519,-11.44301 l -11.86108,25.69788 17.20834,7.94335 a 5.0560975,5.0560975 0 0 1 0.79568,8.7188 l -61.91495,43.66818 a 5.0560975,5.0560975 0 0 1 -7.95009,-3.66824 l -6.93189,-75.44831 a 5.0560975,5.0560975 0 0 1 7.15441,-5.05731 l 17.20834,7.94335 11.98245,-25.94737 C 249.19899,681.89125 218.50149,644.8754 203.06104,600.72116 l -27.63313,6.66891 4.01887,19.15709 a 4.8823911,5.235989 0 0 1 -6.22386,6.14969 L 103.39159,609.3051 a 4.8823911,5.235989 0 0 1 -1.86109,-8.84692 l 53.76257,-53.22312 a 4.8823911,5.235989 0 0 1 4.76061,-1.15307 4.8823911,5.235989 0 0 1 3.31086,3.8503 l 4.01887,19.15035 26.52053,-6.39919 c -1.21639,-8.85269 -1.8476,-17.88871 -1.8476,-27.07346 0,-40.04818 11.94784,-77.3268 32.47467,-108.46243 l -44.89542,-36.21034 -14.62574,-11.79364 22.00267,-31.38229 14.63248,11.79364 46.91834,37.84216 c 31.65355,-32.26805 74.29058,-53.72996 121.82722,-58.30066 l 0.13486,-58.53667 z m 37.65335,114.71326 -0.24275,106.21699 a 56.206677,56.206677 0 0 1 10.6743,5.03708 l 82.83199,-66.70928 c -24.70834,-24.11733 -57.16489,-40.33539 -93.26354,-44.54479 z m -37.91633,0.0539 c -35.88513,4.28477 -68.14712,20.43741 -92.74431,44.41666 l 82.78478,66.76323 a 56.206677,56.206677 0 0 1 9.71004,-4.6797 z m -116.77665,74.16713 c -15.47852,24.66658 -24.43018,53.83314 -24.43018,85.07743 0,6.19641 0.3531,12.31344 1.03844,18.32769 l 103.53324,-24.98311 a 56.206677,56.206677 0 0 1 2.66352,-11.6453 z m 271.96862,0.0944 -82.85896,66.72951 a 56.206677,56.206677 0 0 1 2.65677,11.63856 l 103.5265,25.06403 c 0.69495,-6.05514 1.05192,-12.20907 1.05192,-18.44907 0,-31.20265 -8.93463,-60.33734 -24.37623,-84.98303 z M 377.72703,509.9728 c -0.69267,0.28993 -14.48116,17.69502 -14.6662,18.38838 -0.1778,0.66618 4.71123,22.34247 5.23263,22.92647 0.53687,0.60117 20.23992,10.20537 21.18676,10.20228 0.96609,-0.003 20.68414,-9.60695 21.1935,-10.20228 0.53343,-0.62321 5.35231,-22.34936 5.23262,-22.92647 -0.12413,-0.59913 -14.00518,-18.04651 -14.66619,-18.38838 -0.63386,-0.32811 -22.76267,-0.31401 -23.51312,0 z m -34.88195,57.01274 -103.54673,24.98985 c 12.45469,33.13299 35.56233,61.06589 65.14489,79.61554 h 0.007 l 44.69987,-96.83062 a 56.206677,56.206677 0 0 1 -6.30478,-7.77477 z m 93.2433,0.0337 a 56.206677,56.206677 0 0 1 -4.94942,6.31827 l 45.26629,97.05314 c 28.64608,-18.52225 51.02357,-45.92667 63.22312,-78.30064 z m -38.44229,24.20092 a 56.206677,56.206677 0 0 1 -8.16587,0.59339 56.206677,56.206677 0 0 1 -6.28455,-0.35064 L 338.7318,687.7878 c 15.95171,5.32372 33.01585,8.20632 50.74842,8.20632 18.51824,0 36.31013,-3.14301 52.86574,-8.92783 z"
     transform="matrix(0.48274804,0,0,0.48274804,124.59624,-51.793846)" /><text
     xml:space="preserve"
     style="font-style:normal;font-variant:normal;font-weight:bold;font-stretch:normal;font-size:172.122px;line-height:0.9;font-family:Ubuntu;-inkscape-font-specification:'Ubuntu, Bold';font-variant-ligatures:normal;font-variant-caps:normal;font-variant-numeric:normal;font-variant-east-asian:normal;text-align:center;text-anchor:middle;fill:#ffffff;fill-opacity:1;stroke:#ffffff;stroke-width:0;stroke-linecap:square;stroke-linejoin:bevel;stroke-miterlimit:1.3;stroke-dasharray:none"
     x="558.71234"
     y="256.51407"
     id="text1"><tspan
       x="558.71234"
       y="256.51407"
       id="tspan2"
       style="font-style:normal;font-variant:normal;font-weight:bold;font-stretch:normal;font-size:172.122px;font-family:Ubuntu;-inkscape-font-specification:'Ubuntu, Bold';font-variant-ligatures:normal;font-variant-caps:normal;font-variant-numeric:normal;font-variant-east-asian:normal;text-align:start;text-anchor:start;fill:#ffffff;fill-opacity:1;stroke-width:0">gateway api</tspan></text></g></svg>
