<?xml version="1.0" encoding="UTF-8" standalone="no"?>
<svg
   xmlns:dc="http://purl.org/dc/elements/1.1/"
   xmlns:cc="http://creativecommons.org/ns#"
   xmlns:rdf="http://www.w3.org/1999/02/22-rdf-syntax-ns#"
   xmlns:svg="http://www.w3.org/2000/svg"
   xmlns="http://www.w3.org/2000/svg"
   xmlns:sodipodi="http://sodipodi.sourceforge.net/DTD/sodipodi-0.dtd"
   xmlns:inkscape="http://www.inkscape.org/namespaces/inkscape"
   version="1.1"
   viewBox="0 0 575.62866 283.90552"
   stroke-miterlimit="10"
   id="svg89"
   sodipodi:docname="schema-uml.svg"
   width="575.62866"
   height="283.90552"
   style="fill:none;stroke:none;stroke-linecap:square;stroke-miterlimit:10"
   inkscape:version="0.92.4 (5da689c313, 2019-01-14)">
  <metadata
     id="metadata95">
    <rdf:RDF>
      <cc:Work
         rdf:about="">
        <dc:format>image/svg+xml</dc:format>
        <dc:type
           rdf:resource="http://purl.org/dc/dcmitype/StillImage" />
        <dc:title></dc:title>
      </cc:Work>
    </rdf:RDF>
  </metadata>
  <defs
     id="defs93" />
  <sodipodi:namedview
     pagecolor="#ffffff"
     bordercolor="#666666"
     borderopacity="1"
     objecttolerance="10"
     gridtolerance="10"
     guidetolerance="10"
     inkscape:pageopacity="0"
     inkscape:pageshadow="2"
     inkscape:window-width="3840"
     inkscape:window-height="2046"
     id="namedview91"
     showgrid="false"
     fit-margin-top="0"
     fit-margin-left="0"
     fit-margin-right="0"
     fit-margin-bottom="0"
     inkscape:zoom="2.3580729"
     inkscape:cx="496.50919"
     inkscape:cy="-66.168472"
     inkscape:window-x="0"
     inkscape:window-y="0"
     inkscape:window-maximized="1"
     inkscape:current-layer="g87" />
  <clipPath
     id="p.0">
    <path
       d="M 0,0 H 1024 V 768 H 0 Z"
       id="path2"
       inkscape:connector-curvature="0"
       style="clip-rule:nonzero" />
  </clipPath>
  <g
     clip-path="url(#p.0)"
     id="g87"
     transform="translate(-15.490813)">
    <path
       d="M 0,0 H 1024 V 768 H 0 Z"
       id="path5"
       inkscape:connector-curvature="0"
       style="fill:#000000;fill-opacity:0;fill-rule:evenodd" />
    <path
       d="m 291.5013,185.08685 v 0 c 0,-10.16727 9.99075,-18.40945 22.31497,-18.40945 v 0 c 12.32419,0 22.31494,8.24218 22.31494,18.40945 v 0 c 0,10.16725 -9.99075,18.40944 -22.31494,18.40944 v 0 c -12.32422,0 -22.31497,-8.24219 -22.31497,-18.40944 z"
       id="path7"
       inkscape:connector-curvature="0"
       style="fill:#000000;fill-opacity:0;fill-rule:evenodd" />
    <path
       d="m 291.5013,185.08685 v 0 c 0,-10.16727 9.99075,-18.40945 22.31497,-18.40945 v 0 c 12.32419,0 22.31494,8.24218 22.31494,18.40945 v 0 c 0,10.16725 -9.99075,18.40944 -22.31494,18.40944 v 0 c -12.32422,0 -22.31497,-8.24219 -22.31497,-18.40944 z"
       id="path9"
       inkscape:connector-curvature="0"
       style="fill-rule:evenodd;stroke:#000000;stroke-width:1;stroke-linecap:butt;stroke-linejoin:round" />
    <path
       d="m 293.3622,169.48032 h 48.06299 v 12.28346 H 293.3622 Z"
       id="path11"
       inkscape:connector-curvature="0"
       style="fill:#ffffff;fill-rule:evenodd" />
    <path
       d="m 282.11942,143.8012 h 67.49606 v 36.81889 h -67.49606 z"
       id="path13"
       inkscape:connector-curvature="0"
       style="fill:#ffffff;fill-rule:evenodd" />
    <path
       d="M 27.475065,54.181103 H 168.60891 V 119.62992 H 27.475065 Z"
       id="path15"
       inkscape:connector-curvature="0"
       style="fill:#cfe2f3;fill-rule:evenodd" />
    <path
       d="M 27.475065,54.181103 H 168.60891 V 119.62992 H 27.475065 Z"
       id="path17"
       inkscape:connector-curvature="0"
       style="fill-rule:evenodd;stroke:#000000;stroke-width:1;stroke-linecap:butt;stroke-linejoin:round" />
    <path
       d="m 50.28809,88.54676 v -1.921875 h 4.984375 v 4.5625 q -0.734375,0.703125 -2.109375,1.25 -1.375,0.53125 -2.796875,0.53125 -1.796875,0 -3.140625,-0.75 -1.328125,-0.765625 -2,-2.171875 -0.671875,-1.40625 -0.671875,-3.046875 0,-1.796875 0.75,-3.1875 0.75,-1.390625 2.203125,-2.125 1.09375,-0.578125 2.734375,-0.578125 2.140625,0 3.328125,0.90625 1.203125,0.890625 1.546875,2.46875 l -2.296875,0.421875 q -0.234375,-0.84375 -0.90625,-1.328125 -0.671875,-0.484375 -1.671875,-0.484375 -1.515625,0 -2.40625,0.96875 -0.890625,0.953125 -0.890625,2.84375 0,2.03125 0.90625,3.0625 0.90625,1.015625 2.375,1.015625 0.71875,0 1.453125,-0.28125 0.734375,-0.296875 1.25,-0.703125 V 88.54676 Z m 8.742187,-1.546875 -2,-0.359375 q 0.34375,-1.203125 1.15625,-1.78125 0.828125,-0.578125 2.4375,-0.578125 1.46875,0 2.1875,0.34375 0.71875,0.34375 1.015625,0.890625 0.296872,0.53125 0.296872,1.953125 l -0.03125,2.5625 q 0,1.09375 0.109375,1.625 0.109375,0.515625 0.390625,1.109375 h -2.171872 q -0.07813,-0.21875 -0.203125,-0.65625 -0.0625,-0.1875 -0.07813,-0.25 -0.5625,0.546875 -1.203125,0.828125 -0.640625,0.265625 -1.375,0.265625 -1.28125,0 -2.015625,-0.6875 -0.734375,-0.703125 -0.734375,-1.765625 0,-0.703125 0.328125,-1.25 0.34375,-0.5625 0.9375,-0.84375 0.609375,-0.296875 1.75,-0.515625 1.546875,-0.296875 2.140625,-0.546875 v -0.21875 q 0,-0.625 -0.3125,-0.890625 -0.3125,-0.28125 -1.1875,-0.28125 -0.578125,0 -0.90625,0.234375 -0.328125,0.234375 -0.53125,0.8125 z m 2.9375,1.78125 q -0.421875,0.140625 -1.34375,0.34375 -0.90625,0.1875 -1.1875,0.375 -0.4375,0.296875 -0.4375,0.765625 0,0.46875 0.34375,0.8125 0.34375,0.328125 0.875,0.328125 0.59375,0 1.140625,-0.390625 0.390625,-0.296875 0.515625,-0.734375 0.09375,-0.28125 0.09375,-1.0625 z m 8.117184,-4.3125 v 1.75 h -1.5 v 3.34375 q 0,1.015625 0.04687,1.1875 0.04687,0.15625 0.1875,0.265625 0.15625,0.109375 0.375,0.109375 0.3125,0 0.890625,-0.203125 l 0.1875,1.703125 q -0.765625,0.328125 -1.734375,0.328125 -0.59375,0 -1.078125,-0.203125 -0.46875,-0.203125 -0.703125,-0.515625 -0.21875,-0.3125 -0.296875,-0.859375 -0.07813,-0.375 -0.07813,-1.546875 v -3.609375 h -1 v -1.75 h 1 v -1.65625 l 2.203125,-1.28125 v 2.9375 z m 6.328125,5.65625 2.1875,0.359375 q -0.421875,1.203125 -1.328125,1.84375 -0.90625,0.625 -2.28125,0.625 -2.15625,0 -3.203125,-1.421875 -0.8125,-1.125 -0.8125,-2.859375 0,-2.0625 1.078125,-3.21875 1.078125,-1.171875 2.71875,-1.171875 1.859375,0 2.921875,1.21875 1.078125,1.21875 1.03125,3.75 h -5.5 q 0.01563,0.96875 0.515625,1.515625 0.515625,0.546875 1.28125,0.546875 0.515625,0 0.859375,-0.28125 0.359375,-0.28125 0.53125,-0.90625 z m 0.125,-2.21875 q -0.01563,-0.953125 -0.484375,-1.453125 -0.46875,-0.5 -1.140625,-0.5 -0.71875,0 -1.1875,0.53125 -0.46875,0.515625 -0.46875,1.421875 z m 5.523438,4.859375 -2.625,-8.296875 h 2.125 l 1.5625,5.4375 1.421875,-5.4375 h 2.125 l 1.375,5.4375 1.59375,-5.4375 h 2.15625 l -2.65625,8.296875 h -2.109375 l -1.4375,-5.34375 -1.40625,5.34375 z m 12.539062,-5.765625 -2,-0.359375 q 0.34375,-1.203125 1.15625,-1.78125 0.828125,-0.578125 2.4375,-0.578125 1.46875,0 2.1875,0.34375 0.71875,0.34375 1.015625,0.890625 0.296875,0.53125 0.296875,1.953125 l -0.03125,2.5625 q 0,1.09375 0.109375,1.625 0.109375,0.515625 0.390629,1.109375 h -2.171879 q -0.07813,-0.21875 -0.203125,-0.65625 -0.0625,-0.1875 -0.07813,-0.25 -0.5625,0.546875 -1.203125,0.828125 -0.640625,0.265625 -1.375,0.265625 -1.28125,0 -2.015625,-0.6875 -0.734375,-0.703125 -0.734375,-1.765625 0,-0.703125 0.328125,-1.25 0.34375,-0.5625 0.9375,-0.84375 0.609375,-0.296875 1.75,-0.515625 1.546875,-0.296875 2.140625,-0.546875 v -0.21875 q 0,-0.625 -0.3125,-0.890625 -0.3125,-0.28125 -1.1875,-0.28125 -0.578125,0 -0.90625,0.234375 -0.328125,0.234375 -0.53125,0.8125 z m 2.9375,1.78125 q -0.421875,0.140625 -1.34375,0.34375 -0.90625,0.1875 -1.1875,0.375 -0.4375,0.296875 -0.4375,0.765625 0,0.46875 0.34375,0.8125 0.34375,0.328125 0.875,0.328125 0.59375,0 1.140625,-0.390625 0.390625,-0.296875 0.515625,-0.734375 0.09375,-0.28125 0.09375,-1.0625 z m 3.273434,-4.3125 h 2.34375 l 1.98438,5.890625 1.9375,-5.890625 h 2.26562 l -2.92187,7.984375 -0.53125,1.453125 q -0.28125,0.71875 -0.54688,1.09375 -0.26562,0.390625 -0.60937,0.625 -0.32813,0.25 -0.82813,0.375 -0.5,0.140625 -1.125,0.140625 -0.625,0 -1.23437,-0.140625 l -0.20313,-1.71875 q 0.51563,0.109375 0.9375,0.109375 0.76563,0 1.125,-0.453125 0.375,-0.453125 0.5625,-1.140625 z m 17.28907,4.078125 2.23437,0.71875 q -0.51562,1.875 -1.71875,2.796875 -1.1875,0.90625 -3.03125,0.90625 -2.28125,0 -3.75,-1.5625 -1.46875,-1.5625 -1.46875,-4.265625 0,-2.859375 1.46875,-4.4375 1.48438,-1.59375 3.89063,-1.59375 2.09375,0 3.40625,1.25 0.78125,0.734375 1.17187,2.109375 l -2.28125,0.546875 q -0.20312,-0.890625 -0.85937,-1.40625 -0.64063,-0.515625 -1.5625,-0.515625 -1.26563,0 -2.0625,0.921875 -0.79688,0.90625 -0.79688,2.953125 0,2.171875 0.78125,3.09375 0.78125,0.921875 2.03125,0.921875 0.92188,0 1.57813,-0.578125 0.67187,-0.59375 0.96875,-1.859375 z m 4.21093,4.21875 V 81.312385 h 2.1875 V 92.76551 Z m 6.08594,-5.765625 -2,-0.359375 q 0.34375,-1.203125 1.15625,-1.78125 0.82813,-0.578125 2.4375,-0.578125 1.46875,0 2.1875,0.34375 0.71875,0.34375 1.01563,0.890625 0.29687,0.53125 0.29687,1.953125 l -0.0312,2.5625 q 0,1.09375 0.10938,1.625 0.10937,0.515625 0.39062,1.109375 h -2.17187 q -0.0781,-0.21875 -0.20313,-0.65625 -0.0625,-0.1875 -0.0781,-0.25 -0.5625,0.546875 -1.20313,0.828125 -0.64062,0.265625 -1.375,0.265625 -1.28125,0 -2.01562,-0.6875 -0.73438,-0.703125 -0.73438,-1.765625 0,-0.703125 0.32813,-1.25 0.34375,-0.5625 0.9375,-0.84375 0.60937,-0.296875 1.75,-0.515625 1.54687,-0.296875 2.14062,-0.546875 v -0.21875 q 0,-0.625 -0.3125,-0.890625 -0.3125,-0.28125 -1.1875,-0.28125 -0.57812,0 -0.90625,0.234375 -0.32812,0.234375 -0.53125,0.8125 z m 2.9375,1.78125 q -0.42187,0.140625 -1.34375,0.34375 -0.90625,0.1875 -1.1875,0.375 -0.4375,0.296875 -0.4375,0.765625 0,0.46875 0.34375,0.8125 0.34375,0.328125 0.875,0.328125 0.59375,0 1.14063,-0.390625 0.39062,-0.296875 0.51562,-0.734375 0.0937,-0.28125 0.0937,-1.0625 z m 3.53906,1.609375 2.20313,-0.328125 q 0.14062,0.640625 0.5625,0.96875 0.4375,0.328125 1.21875,0.328125 0.84375,0 1.28125,-0.3125 0.28125,-0.21875 0.28125,-0.578125 0,-0.25 -0.15625,-0.421875 -0.15625,-0.15625 -0.73438,-0.28125 -2.65625,-0.59375 -3.35937,-1.078125 -0.98438,-0.671875 -0.98438,-1.859375 0,-1.078125 0.84375,-1.8125 0.85938,-0.734375 2.64063,-0.734375 1.70312,0 2.53125,0.5625 0.82812,0.546875 1.14062,1.625 l -2.0625,0.390625 q -0.14062,-0.484375 -0.51562,-0.734375 -0.35938,-0.265625 -1.04688,-0.265625 -0.875,0 -1.25,0.234375 -0.25,0.171875 -0.25,0.453125 0,0.234375 0.21875,0.390625 0.29688,0.21875 2.04688,0.625 1.76562,0.390625 2.45312,0.96875 0.6875,0.59375 0.6875,1.640625 0,1.140625 -0.95312,1.96875 -0.95313,0.8125 -2.8125,0.8125 -1.70313,0 -2.6875,-0.6875 -0.98438,-0.6875 -1.29688,-1.875 z m 8.89844,0 2.20313,-0.328125 q 0.14062,0.640625 0.5625,0.96875 0.4375,0.328125 1.21875,0.328125 0.84375,0 1.28125,-0.3125 0.28125,-0.21875 0.28125,-0.578125 0,-0.25 -0.15625,-0.421875 -0.15625,-0.15625 -0.73438,-0.28125 -2.65625,-0.59375 -3.35937,-1.078125 -0.98438,-0.671875 -0.98438,-1.859375 0,-1.078125 0.84375,-1.8125 0.85938,-0.734375 2.64063,-0.734375 1.70312,0 2.53125,0.5625 0.82812,0.546875 1.14062,1.625 l -2.0625,0.390625 q -0.14062,-0.484375 -0.51562,-0.734375 -0.35938,-0.265625 -1.04688,-0.265625 -0.875,0 -1.25,0.234375 -0.25,0.171875 -0.25,0.453125 0,0.234375 0.21875,0.390625 0.29688,0.21875 2.04688,0.625 1.76562,0.390625 2.45312,0.96875 0.6875,0.59375 0.6875,1.640625 0,1.140625 -0.95312,1.96875 -0.95313,0.8125 -2.8125,0.8125 -1.70313,0 -2.6875,-0.6875 -0.98438,-0.6875 -1.29688,-1.875 z"
       id="path19"
       inkscape:connector-curvature="0"
       style="fill:#000000;fill-rule:nonzero" />
    <path
       d="M 27.475065,164.26772 H 168.60891 v 65.44882 H 27.475065 Z"
       id="path21"
       inkscape:connector-curvature="0"
       style="fill:#9fc5e8;fill-rule:evenodd" />
    <path
       d="M 27.475065,164.26772 H 168.60891 v 65.44882 H 27.475065 Z"
       id="path23"
       inkscape:connector-curvature="0"
       style="fill-rule:evenodd;stroke:#000000;stroke-width:1;stroke-linecap:butt;stroke-linejoin:round" />
    <path
       d="m 71.63574,198.63338 v -1.92188 h 4.984375 v 4.5625 q -0.734375,0.70313 -2.109375,1.25 -1.375,0.53125 -2.796875,0.53125 -1.796875,0 -3.140625,-0.75 -1.328125,-0.76562 -2,-2.17187 -0.671875,-1.40625 -0.671875,-3.04688 0,-1.79687 0.75,-3.1875 0.75,-1.39062 2.203125,-2.125 1.09375,-0.57812 2.734375,-0.57812 2.140625,0 3.328125,0.90625 1.203125,0.89062 1.546875,2.46875 l -2.296875,0.42187 q -0.234375,-0.84375 -0.90625,-1.32812 -0.671875,-0.48438 -1.671875,-0.48438 -1.515625,0 -2.40625,0.96875 -0.890625,0.95313 -0.890625,2.84375 0,2.03125 0.90625,3.0625 0.90625,1.01563 2.375,1.01563 0.71875,0 1.453125,-0.28125 0.734375,-0.29688 1.25,-0.70313 v -1.45312 z m 8.742187,-1.54688 -2,-0.35937 q 0.34375,-1.20313 1.15625,-1.78125 0.828125,-0.57813 2.4375,-0.57813 1.46875,0 2.1875,0.34375 0.71875,0.34375 1.015625,0.89063 0.296875,0.53125 0.296875,1.95312 l -0.03125,2.5625 q 0,1.09375 0.109375,1.625 0.109375,0.51563 0.390625,1.10938 h -2.171875 q -0.07813,-0.21875 -0.203125,-0.65625 -0.0625,-0.1875 -0.07813,-0.25 -0.5625,0.54687 -1.203125,0.82812 -0.640625,0.26563 -1.375,0.26563 -1.28125,0 -2.015625,-0.6875 -0.734375,-0.70313 -0.734375,-1.76563 0,-0.70312 0.328125,-1.25 0.34375,-0.5625 0.9375,-0.84375 0.609375,-0.29687 1.75,-0.51562 1.546875,-0.29688 2.140625,-0.54688 v -0.21875 q 0,-0.625 -0.3125,-0.89062 -0.3125,-0.28125 -1.1875,-0.28125 -0.578125,0 -0.90625,0.23437 -0.328125,0.23438 -0.53125,0.8125 z m 2.9375,1.78125 q -0.421875,0.14063 -1.34375,0.34375 -0.90625,0.1875 -1.1875,0.375 -0.4375,0.29688 -0.4375,0.76563 0,0.46875 0.34375,0.8125 0.34375,0.32812 0.875,0.32812 0.59375,0 1.140625,-0.39062 0.390625,-0.29688 0.515625,-0.73438 0.09375,-0.28125 0.09375,-1.0625 z m 8.117188,-4.3125 v 1.75 h -1.5 v 3.34375 q 0,1.01563 0.04687,1.1875 0.04687,0.15625 0.1875,0.26563 0.15625,0.10937 0.375,0.10937 0.3125,0 0.890625,-0.20312 l 0.1875,1.70312 q -0.765625,0.32813 -1.734375,0.32813 -0.59375,0 -1.078125,-0.20313 -0.46875,-0.20312 -0.703125,-0.51562 -0.21875,-0.3125 -0.296875,-0.85938 -0.07813,-0.375 -0.07813,-1.54687 v -3.60938 h -1 v -1.75 h 1 V 192.899 l 2.203125,-1.28125 v 2.9375 z m 6.328125,5.65625 2.1875,0.35938 q -0.421875,1.20312 -1.328125,1.84375 -0.90625,0.625 -2.28125,0.625 -2.15625,0 -3.203125,-1.42188 -0.8125,-1.125 -0.8125,-2.85937 0,-2.0625 1.078125,-3.21875 1.078125,-1.17188 2.71875,-1.17188 1.859375,0 2.921875,1.21875 1.07813,1.21875 1.03125,3.75 h -5.5 q 0.01563,0.96875 0.515625,1.51563 0.515625,0.54687 1.28125,0.54687 0.515625,0 0.859375,-0.28125 0.359375,-0.28125 0.53125,-0.90625 z m 0.125,-2.21875 q -0.01563,-0.95312 -0.484375,-1.45312 -0.46875,-0.5 -1.140625,-0.5 -0.71875,0 -1.1875,0.53125 -0.46875,0.51562 -0.46875,1.42187 z m 5.52344,4.85938 -2.625,-8.29688 h 2.125 l 1.5625,5.4375 1.42187,-5.4375 h 2.125 l 1.375,5.4375 1.59375,-5.4375 h 2.15625 l -2.65625,8.29688 h -2.10937 l -1.4375,-5.34375 -1.40625,5.34375 z m 12.53906,-5.76563 -2,-0.35937 q 0.34375,-1.20313 1.15625,-1.78125 0.82813,-0.57813 2.4375,-0.57813 1.46875,0 2.1875,0.34375 0.71875,0.34375 1.01563,0.89063 0.29687,0.53125 0.29687,1.95312 l -0.0312,2.5625 q 0,1.09375 0.10938,1.625 0.10937,0.51563 0.39062,1.10938 h -2.17187 q -0.0781,-0.21875 -0.20313,-0.65625 -0.0625,-0.1875 -0.0781,-0.25 -0.5625,0.54687 -1.20313,0.82812 -0.64062,0.26563 -1.375,0.26563 -1.28125,0 -2.01562,-0.6875 -0.73438,-0.70313 -0.73438,-1.76563 0,-0.70312 0.32813,-1.25 0.34375,-0.5625 0.9375,-0.84375 0.60937,-0.29687 1.75,-0.51562 1.54687,-0.29688 2.14062,-0.54688 v -0.21875 q 0,-0.625 -0.3125,-0.89062 -0.3125,-0.28125 -1.1875,-0.28125 -0.57812,0 -0.90625,0.23437 -0.32812,0.23438 -0.53125,0.8125 z m 2.9375,1.78125 q -0.42187,0.14063 -1.34375,0.34375 -0.90625,0.1875 -1.1875,0.375 -0.4375,0.29688 -0.4375,0.76563 0,0.46875 0.34375,0.8125 0.34375,0.32812 0.875,0.32812 0.59375,0 1.14063,-0.39062 0.39062,-0.29688 0.51562,-0.73438 0.0937,-0.28125 0.0937,-1.0625 z m 3.27344,-4.3125 h 2.34375 l 1.98437,5.89063 1.9375,-5.89063 h 2.26563 l -2.92188,7.98438 -0.53125,1.45312 q -0.28125,0.71875 -0.54687,1.09375 -0.26563,0.39063 -0.60938,0.625 -0.32812,0.25 -0.82812,0.375 -0.5,0.14063 -1.125,0.14063 -0.625,0 -1.23438,-0.14063 l -0.20312,-1.71875 q 0.51562,0.10938 0.9375,0.10938 0.76562,0 1.125,-0.45313 0.375,-0.45312 0.5625,-1.14062 z"
       id="path25"
       inkscape:connector-curvature="0"
       style="fill:#000000;fill-rule:nonzero" />
    <path
       d="m 245.29921,109.22835 h 141.13387 v 65.44882 H 245.29921 Z"
       id="path27"
       inkscape:connector-curvature="0"
       style="fill:#d9ead3;fill-rule:evenodd" />
    <path
       d="m 245.29921,109.22835 h 141.13387 v 65.44882 H 245.29921 Z"
       id="path29"
       inkscape:connector-curvature="0"
       style="fill-rule:evenodd;stroke:#000000;stroke-width:1;stroke-linecap:butt;stroke-linejoin:round" />
    <path
       d="m 292.01068,141.62526 -1.1875,-0.92188 q 0.5625,-0.625 1.17187,-1.20312 0.25,-0.23438 0.3125,-0.29688 -0.20312,-0.0312 -1.125,-0.26562 -0.65625,-0.15625 -0.875,-0.23438 l 0.46875,-1.375 q 1.01563,0.40625 1.82813,0.90625 -0.1875,-1.26562 -0.1875,-2.07812 h 1.39062 q 0,0.57812 -0.21875,2.09375 0.15625,-0.0625 0.67188,-0.29688 0.70312,-0.32812 1.29687,-0.54687 l 0.42188,1.40625 q -0.875,0.20312 -2.01563,0.39062 l 0.9375,1.04688 q 0.28125,0.32812 0.45313,0.53125 l -1.20313,0.78125 -1.04687,-1.73438 q -0.48438,0.84375 -1.09375,1.79688 z m 5.47656,6.1875 v -11.45313 h 4.875 q 1.82813,0 2.65625,0.3125 0.84375,0.29688 1.34375,1.09375 0.5,0.78125 0.5,1.79688 0,1.29687 -0.76562,2.14062 -0.75,0.82813 -2.26563,1.04688 0.75,0.4375 1.23438,0.96875 0.5,0.51562 1.32812,1.85937 l 1.39063,2.23438 h -2.76563 l -1.67187,-2.5 q -0.89063,-1.32813 -1.21875,-1.67188 -0.32813,-0.35937 -0.70313,-0.48437 -0.35937,-0.125 -1.15625,-0.125 h -0.46875 v 4.78125 z m 2.3125,-6.60938 h 1.71875 q 1.65625,0 2.0625,-0.14062 0.42188,-0.14063 0.65625,-0.48438 0.23438,-0.34375 0.23438,-0.85937 0,-0.57813 -0.3125,-0.9375 -0.29688,-0.35938 -0.85938,-0.45313 -0.28125,-0.0312 -1.6875,-0.0312 h -1.8125 z m 8.71094,2.34375 q 0,-1.09375 0.53125,-2.10937 0.54687,-1.03125 1.53125,-1.5625 1,-0.54688 2.21875,-0.54688 1.875,0 3.07812,1.21875 1.20313,1.21875 1.20313,3.09375 0,1.875 -1.21875,3.125 -1.20313,1.23438 -3.04688,1.23438 -1.14062,0 -2.1875,-0.51563 -1.03125,-0.51562 -1.57812,-1.51562 -0.53125,-1 -0.53125,-2.42188 z m 2.25,0.10938 q 0,1.23437 0.57812,1.89062 0.59375,0.65625 1.45313,0.65625 0.85937,0 1.4375,-0.65625 0.59375,-0.65625 0.59375,-1.90625 0,-1.21875 -0.59375,-1.875 -0.57813,-0.65625 -1.4375,-0.65625 -0.85938,0 -1.45313,0.65625 -0.57812,0.65625 -0.57812,1.89063 z m 13.49219,4.15625 v -1.25 q -0.45313,0.67187 -1.1875,1.0625 -0.73438,0.375 -1.5625,0.375 -0.82813,0 -1.5,-0.35938 -0.65625,-0.375 -0.95313,-1.03125 -0.29687,-0.67187 -0.29687,-1.84375 v -5.25 h 2.1875 v 3.8125 q 0,1.75 0.125,2.14063 0.125,0.39062 0.4375,0.625 0.32812,0.23437 0.8125,0.23437 0.5625,0 1,-0.3125 0.45312,-0.3125 0.60937,-0.76562 0.17188,-0.45313 0.17188,-2.23438 v -3.5 h 2.20312 v 8.29688 z m 8.11718,-8.29688 v 1.75 h -1.5 v 3.34375 q 0,1.01563 0.0469,1.1875 0.0469,0.15625 0.1875,0.26563 0.15625,0.10937 0.375,0.10937 0.3125,0 0.89062,-0.20312 l 0.1875,1.70312 q -0.76562,0.32813 -1.73437,0.32813 -0.59375,0 -1.07813,-0.20313 -0.46875,-0.20312 -0.70312,-0.51562 -0.21875,-0.3125 -0.29688,-0.85938 -0.0781,-0.375 -0.0781,-1.54687 v -3.60938 h -1 v -1.75 h 1 v -1.65625 l 2.20312,-1.28125 v 2.9375 z m 6.32813,5.65625 2.1875,0.35938 q -0.42188,1.20312 -1.32813,1.84375 -0.90625,0.625 -2.28125,0.625 -2.15625,0 -3.20312,-1.42188 -0.8125,-1.125 -0.8125,-2.85937 0,-2.0625 1.07812,-3.21875 1.07813,-1.17188 2.71875,-1.17188 1.85938,0 2.92188,1.21875 1.07812,1.21875 1.03125,3.75 h -5.5 q 0.0156,0.96875 0.51562,1.51563 0.51563,0.54687 1.28125,0.54687 0.51563,0 0.85938,-0.28125 0.35937,-0.28125 0.53125,-0.90625 z m 0.125,-2.21875 q -0.0156,-0.95312 -0.48438,-1.45312 -0.46875,-0.5 -1.14062,-0.5 -0.71875,0 -1.1875,0.53125 -0.46875,0.51562 -0.46875,1.42187 z"
       id="path31"
       inkscape:connector-curvature="0"
       style="fill:#000000;fill-rule:nonzero" />
    <path
       d="m 449.48557,109.22835 h 141.13388 v 65.44882 H 449.48557 Z"
       id="path33"
       inkscape:connector-curvature="0"
       style="fill:#fff2cc;fill-rule:evenodd" />
    <path
       d="m 449.48557,109.22835 h 141.13388 v 65.44882 H 449.48557 Z"
       id="path35"
       inkscape:connector-curvature="0"
       style="fill-rule:evenodd;stroke:#000000;stroke-width:1;stroke-linecap:butt;stroke-linejoin:round" />
    <path
       d="m 492.16187,144.07838 2.25,-0.21875 q 0.20313,1.14062 0.82813,1.67187 0.625,0.53125 1.67187,0.53125 1.125,0 1.6875,-0.46875 0.5625,-0.48437 0.5625,-1.10937 0,-0.40625 -0.23437,-0.6875 -0.23438,-0.29688 -0.82813,-0.5 -0.40625,-0.14063 -1.85937,-0.5 -1.85938,-0.46875 -2.60938,-1.14063 -1.04687,-0.9375 -1.04687,-2.29687 0,-0.875 0.48437,-1.64063 0.5,-0.76562 1.4375,-1.15625 0.9375,-0.40625 2.25,-0.40625 2.15625,0 3.25,0.95313 1.09375,0.9375 1.14063,2.51562 l -2.3125,0.10938 q -0.14063,-0.89063 -0.64063,-1.26563 -0.48437,-0.39062 -1.45312,-0.39062 -1.01563,0 -1.57813,0.40625 -0.375,0.26562 -0.375,0.71875 0,0.40625 0.34375,0.6875 0.4375,0.375 2.125,0.78125 1.6875,0.39062 2.5,0.8125 0.8125,0.42187 1.26563,1.17187 0.45312,0.73438 0.45312,1.8125 0,0.98438 -0.54687,1.84375 -0.54688,0.85938 -1.54688,1.28125 -1,0.42188 -2.48437,0.42188 -2.17188,0 -3.34375,-1 -1.15625,-1.01563 -1.39063,-2.9375 z m 16.04688,1.09375 2.1875,0.35937 q -0.42188,1.20313 -1.32813,1.84375 -0.90625,0.625 -2.28125,0.625 -2.15625,0 -3.20312,-1.42187 -0.8125,-1.125 -0.8125,-2.85938 0,-2.0625 1.07812,-3.21875 1.07813,-1.17187 2.71875,-1.17187 1.85938,0 2.92188,1.21875 1.07812,1.21875 1.03125,3.75 h -5.5 q 0.0156,0.96875 0.51562,1.51562 0.51563,0.54688 1.28125,0.54688 0.51563,0 0.85938,-0.28125 0.35937,-0.28125 0.53125,-0.90625 z m 0.125,-2.21875 q -0.0156,-0.95313 -0.48438,-1.45313 -0.46875,-0.5 -1.14062,-0.5 -0.71875,0 -1.1875,0.53125 -0.46875,0.51563 -0.46875,1.42188 z m 6.07031,4.85937 h -2.1875 v -8.29687 h 2.03125 v 1.17187 q 0.53125,-0.82812 0.9375,-1.09375 0.42187,-0.26562 0.95312,-0.26562 0.75,0 1.45313,0.40625 l -0.6875,1.92187 q -0.54688,-0.35937 -1.03125,-0.35937 -0.45313,0 -0.78125,0.25 -0.3125,0.25 -0.5,0.92187 -0.1875,0.65625 -0.1875,2.78125 z m 6.41406,0 -3.34375,-8.29687 h 2.29688 l 1.5625,4.23437 0.45312,1.40625 q 0.1875,-0.53125 0.23438,-0.70312 0.10937,-0.35938 0.23437,-0.70313 l 1.57813,-4.23437 h 2.25 l -3.29688,8.29687 z m 6.61719,-9.42187 v -2.03125 h 2.1875 v 2.03125 z m 0,9.42187 v -8.29687 h 2.1875 v 8.29687 z m 11.67969,-5.84375 -2.17188,0.39063 q -0.10937,-0.65625 -0.5,-0.98438 -0.375,-0.32812 -1,-0.32812 -0.8125,0 -1.3125,0.57812 -0.48437,0.5625 -0.48437,1.89063 0,1.46875 0.5,2.07812 0.5,0.60938 1.32812,0.60938 0.625,0 1.01563,-0.34375 0.40625,-0.35938 0.57812,-1.23438 l 2.15625,0.375 q -0.34375,1.48438 -1.29687,2.25 -0.95313,0.75 -2.54688,0.75 -1.82812,0 -2.90625,-1.14062 -1.07812,-1.15625 -1.07812,-3.1875 0,-2.0625 1.07812,-3.20313 1.09375,-1.14062 2.9375,-1.14062 1.51563,0 2.40625,0.65625 0.90625,0.64062 1.29688,1.98437 z m 6.46093,3.20313 2.1875,0.35937 q -0.42187,1.20313 -1.32812,1.84375 -0.90625,0.625 -2.28125,0.625 -2.15625,0 -3.20313,-1.42187 -0.8125,-1.125 -0.8125,-2.85938 0,-2.0625 1.07813,-3.21875 1.07812,-1.17187 2.71875,-1.17187 1.85937,0 2.92187,1.21875 1.07813,1.21875 1.03125,3.75 h -5.5 q 0.0156,0.96875 0.51563,1.51562 0.51562,0.54688 1.28125,0.54688 0.51562,0 0.85937,-0.28125 0.35938,-0.28125 0.53125,-0.90625 z m 0.125,-2.21875 q -0.0156,-0.95313 -0.48437,-1.45313 -0.46875,-0.5 -1.14063,-0.5 -0.71875,0 -1.1875,0.53125 -0.46875,0.51563 -0.46875,1.42188 z"
       id="path37"
       inkscape:connector-curvature="0"
       style="fill:#000000;fill-rule:nonzero" />
    <path
       d="M 98.04199,164.26772 V 119.6378"
       id="path39"
       inkscape:connector-curvature="0"
       style="fill:#000000;fill-opacity:0;fill-rule:evenodd" />
    <path
       d="M 98.04199,164.26772 V 125.6378"
       id="path41"
       inkscape:connector-curvature="0"
       style="fill-rule:evenodd;stroke:#000000;stroke-width:1;stroke-linecap:butt;stroke-linejoin:round" />
    <path
       d="m 99.693726,125.63779 -1.651733,-4.53809 -1.651734,4.53809 z"
       id="path43"
       inkscape:connector-curvature="0"
       style="fill-rule:evenodd;stroke:#000000;stroke-width:1;stroke-linecap:butt" />
    <path
       d="m 386.43307,141.95276 c 15.76315,0 23.64441,0.0157 31.52631,0.0315 7.88186,0.0157 15.7644,0.0315 31.5288,0.0315"
       id="path45"
       inkscape:connector-curvature="0"
       style="fill:#000000;fill-opacity:0;fill-rule:evenodd" />
    <path
       d="m 386.43307,141.95276 c 15.76315,0 23.64438,0.0157 31.52628,0.0315 3.94094,0.008 7.88205,0.0157 12.8085,0.0217 2.46319,0.003 5.17273,0.005 8.25174,0.007 l 4.46859,0.001"
       id="path47"
       inkscape:connector-curvature="0"
       style="fill-rule:evenodd;stroke:#000000;stroke-width:1;stroke-linecap:butt;stroke-linejoin:round" />
    <path
       d="m 443.48776,143.66592 4.53851,-1.65056 -4.53766,-1.65291 z"
       id="path49"
       inkscape:connector-curvature="0"
       style="fill:#000000;fill-rule:evenodd;stroke:#000000;stroke-width:1;stroke-linecap:butt" />
    <path
       d="m 426.30447,114.07349 h 23.18109 v 36.8189 h -23.18109 z"
       id="path51"
       inkscape:connector-curvature="0"
       style="fill:#000000;fill-opacity:0;fill-rule:evenodd" />
    <path
       d="m 435.8826,130.08723 0.42188,-1.29688 q 1.45312,0.51563 2.10937,0.89063 -0.17187,-1.65625 -0.1875,-2.26562 h 1.32813 q -0.0312,0.89062 -0.21875,2.24999 0.9375,-0.46875 2.15625,-0.875 l 0.42187,1.29688 q -1.15625,0.39062 -2.26562,0.51562 0.54687,0.48438 1.5625,1.71875 l -1.09375,0.78125 q -0.53125,-0.73437 -1.25,-1.96875 -0.67188,1.28125 -1.1875,1.96875 l -1.07813,-0.78125 q 1.0625,-1.29687 1.51563,-1.71875 -1.17188,-0.23437 -2.23438,-0.51562 z"
       id="path53"
       inkscape:connector-curvature="0"
       style="fill:#000000;fill-rule:nonzero" />
    <path
       d="m 330.6903,167.6998 h 23.18109 v 36.81889 H 330.6903 Z"
       id="path55"
       inkscape:connector-curvature="0"
       style="fill:#000000;fill-opacity:0;fill-rule:evenodd" />
    <path
       d="m 340.26843,183.71355 0.42188,-1.29688 q 1.45312,0.51563 2.10937,0.89063 -0.17187,-1.65625 -0.1875,-2.26563 h 1.32813 q -0.0312,0.89063 -0.21875,2.25 0.9375,-0.46875 2.15625,-0.875 l 0.42187,1.29688 q -1.15625,0.39062 -2.26562,0.51562 0.54687,0.48438 1.5625,1.71875 l -1.09375,0.78125 q -0.53125,-0.73437 -1.25,-1.96875 -0.67188,1.28125 -1.1875,1.96875 l -1.07813,-0.78125 q 1.0625,-1.29687 1.51563,-1.71875 -1.17188,-0.23437 -2.23438,-0.51562 z"
       id="path57"
       inkscape:connector-curvature="0"
       style="fill:#000000;fill-rule:nonzero" />
    <path
       d="m 162.67203,185.95491 h 30.67715 v 36.81889 h -30.67715 z"
       id="path59"
       inkscape:connector-curvature="0"
       style="fill:#000000;fill-opacity:0;fill-rule:evenodd" />
    <path
       d="m 172.9064,212.87491 v -9.67188 h 1.46875 v 1.35938 q 0.45312,-0.71875 1.20312,-1.14063 0.76563,-0.4375 1.71875,-0.4375 1.07813,0 1.76563,0.45313 0.6875,0.4375 0.96875,1.23437 1.15625,-1.6875 2.98437,-1.6875 1.45313,0 2.21875,0.79688 0.78125,0.79687 0.78125,2.45312 v 6.64063 h -1.64062 v -6.09375 q 0,-0.98438 -0.15625,-1.40625 -0.15625,-0.4375 -0.57813,-0.70313 -0.42187,-0.26562 -0.98437,-0.26562 -1.01563,0 -1.6875,0.6875 -0.67188,0.67187 -0.67188,2.15625 v 5.625 h -1.64062 v -6.28125 q 0,-1.09375 -0.40625,-1.64063 -0.40625,-0.54687 -1.3125,-0.54687 -0.6875,0 -1.28125,0.35937 -0.59375,0.35938 -0.85938,1.0625 -0.25,0.70313 -0.25,2.03125 v 5.01563 z"
       id="path61"
       inkscape:connector-curvature="0"
       style="fill:#000000;fill-rule:nonzero" />
    <path
       d="m 220.39261,108.16759 h 30.67717 v 36.81889 h -30.67717 z"
       id="path63"
       inkscape:connector-curvature="0"
       style="fill:#000000;fill-opacity:0;fill-rule:evenodd" />
    <path
       d="m 231.77771,135.08759 v -9.67187 h 1.46875 v 1.375 q 1.0625,-1.59375 3.07813,-1.59375 0.875,0 1.60937,0.3125 0.73438,0.3125 1.09375,0.82812 0.375,0.5 0.51563,1.20313 0.0937,0.45312 0.0937,1.59374 v 5.95313 h -1.64063 v -5.89063 q 0,-1 -0.20312,-1.48437 -0.1875,-0.5 -0.67188,-0.79687 -0.48437,-0.29688 -1.14062,-0.29688 -1.04688,0 -1.8125,0.67188 -0.75,0.65625 -0.75,2.51562 v 5.28125 z"
       id="path65"
       inkscape:connector-curvature="0"
       style="fill:#000000;fill-rule:nonzero" />
    <path
       d="m 168.60892,196.99213 h 38.34492 v -55.05512 h 38.348"
       id="path67"
       inkscape:connector-curvature="0"
       style="fill:#000000;fill-opacity:0;fill-rule:evenodd" />
    <path
       d="m 168.60892,196.99213 h 38.34492 v -55.05512 h 38.348"
       id="path69"
       inkscape:connector-curvature="0"
       style="fill-rule:evenodd;stroke:#000000;stroke-width:1;stroke-linecap:butt;stroke-linejoin:round" />
    <path
       d="M 15.490813,229.16536 H 180.59317 v 54.74016 H 15.490813 Z"
       id="path71"
       inkscape:connector-curvature="0"
       style="fill:#000000;fill-opacity:0;fill-rule:evenodd" />
    <path
       d="m 48.31543,249.50974 1.515625,0.375 q -0.46875,1.875 -1.71875,2.85937 -1.234375,0.98438 -3.015625,0.98438 -1.859375,0 -3.015625,-0.75 -1.15625,-0.76563 -1.765625,-2.1875 -0.609375,-1.4375 -0.609375,-3.07813 0,-1.79687 0.6875,-3.125 0.6875,-1.32812 1.9375,-2.01562 1.265625,-0.70313 2.78125,-0.70313 1.71875,0 2.890625,0.875 1.171875,0.875 1.640625,2.46875 l -1.5,0.34375 q -0.390625,-1.25 -1.15625,-1.8125 -0.75,-0.57812 -1.90625,-0.57812 -1.3125,0 -2.203125,0.64062 -0.890625,0.625 -1.25,1.70313 -0.359375,1.0625 -0.359375,2.1875 0,1.46875 0.421875,2.5625 0.4375,1.07812 1.328125,1.625 0.90625,0.53125 1.953125,0.53125 1.265625,0 2.140625,-0.73438 0.890625,-0.73437 1.203125,-2.17187 z m 3.179687,4.01562 v -11.45312 h 1.40625 v 11.45312 z m 9.023438,0 v -1.21875 q -0.96875,1.40625 -2.640625,1.40625 -0.734375,0 -1.375,-0.28125 -0.625,-0.28125 -0.9375,-0.70312 -0.3125,-0.4375 -0.4375,-1.04688 -0.07813,-0.42187 -0.07813,-1.3125 v -5.14062 h 1.40625 v 4.59375 q 0,1.10937 0.07813,1.48437 0.140625,0.5625 0.5625,0.875 0.4375,0.3125 1.0625,0.3125 0.640625,0 1.1875,-0.3125 0.5625,-0.32812 0.78125,-0.89062 0.234375,-0.5625 0.234375,-1.625 v -4.4375 h 1.40625 v 8.29687 z m 2.898437,-2.48437 1.390625,-0.21875 q 0.109375,0.84375 0.640625,1.29687 0.546875,0.4375 1.5,0.4375 0.96875,0 1.4375,-0.39062 0.46875,-0.40625 0.46875,-0.9375 0,-0.46875 -0.40625,-0.75 -0.296875,-0.1875 -1.4375,-0.46875 -1.546875,-0.39063 -2.15625,-0.67188 -0.59375,-0.29687 -0.90625,-0.79687 -0.296875,-0.5 -0.296875,-1.10938 0,-0.5625 0.25,-1.03125 0.25,-0.46875 0.6875,-0.78125 0.328125,-0.25 0.890625,-0.40625 0.578125,-0.17187 1.21875,-0.17187 0.984375,0 1.71875,0.28125 0.734375,0.28125 1.078125,0.76562 0.359375,0.46875 0.5,1.28125 l -1.375,0.1875 q -0.09375,-0.64062 -0.546875,-1 -0.453125,-0.35937 -1.265625,-0.35937 -0.96875,0 -1.390625,0.32812 -0.40625,0.3125 -0.40625,0.73438 0,0.28125 0.171875,0.5 0.171875,0.21875 0.53125,0.375 0.21875,0.0781 1.25,0.35937 1.484375,0.39063 2.078125,0.65625 0.59375,0.25 0.921875,0.73438 0.34375,0.48437 0.34375,1.20312 0,0.70313 -0.421875,1.32813 -0.40625,0.60937 -1.1875,0.95312 -0.765625,0.34375 -1.734375,0.34375 -1.625,0 -2.46875,-0.67187 -0.84375,-0.67188 -1.078125,-2 z m 11.625,1.21875 0.203125,1.25 q -0.59375,0.125 -1.0625,0.125 -0.765625,0 -1.1875,-0.23438 -0.421875,-0.25 -0.59375,-0.64062 -0.171875,-0.40625 -0.171875,-1.67188 v -4.76562 h -1.03125 v -1.09375 h 1.03125 v -2.0625 l 1.40625,-0.84375 v 2.90625 h 1.40625 v 1.09375 h -1.40625 v 4.84375 q 0,0.60937 0.0625,0.78125 0.07813,0.17187 0.25,0.28125 0.171875,0.0937 0.484375,0.0937 0.234375,0 0.609375,-0.0625 z m 7.054688,-1.40625 1.453125,0.17187 q -0.34375,1.28125 -1.28125,1.98438 -0.921875,0.70312 -2.359375,0.70312 -1.828125,0 -2.890625,-1.125 -1.0625,-1.125 -1.0625,-3.14062 0,-2.09375 1.078125,-3.25 1.078125,-1.15625 2.796875,-1.15625 1.65625,0 2.703125,1.14062 1.0625,1.125 1.0625,3.17188 0,0.125 0,0.375 h -6.1875 q 0.07813,1.375 0.765625,2.10937 0.703125,0.71875 1.734375,0.71875 0.78125,0 1.328125,-0.40625 0.546875,-0.40625 0.859375,-1.29687 z m -4.609375,-2.28125 h 4.625 q -0.09375,-1.04688 -0.53125,-1.5625 -0.671875,-0.8125 -1.734375,-0.8125 -0.96875,0 -1.640625,0.65625 -0.65625,0.64062 -0.71875,1.71875 z m 7.820312,4.95312 v -8.29687 h 1.265625 v 1.25 q 0.484375,-0.875 0.890625,-1.15625 0.40625,-0.28125 0.90625,-0.28125 0.703125,0 1.4375,0.45312 l -0.484375,1.29688 q -0.515625,-0.29688 -1.03125,-0.29688 -0.453125,0 -0.828125,0.28125 -0.359375,0.26563 -0.515625,0.76563 -0.234375,0.75 -0.234375,1.64062 v 4.34375 z m 9.507813,-5.57812 q 0,-2.85938 1.53125,-4.46875 1.53125,-1.60938 3.95312,-1.60938 1.57813,0 2.84375,0.76563 1.28125,0.75 1.95313,2.10937 0.67187,1.34375 0.67187,3.0625 0,1.75 -0.70312,3.125 -0.70313,1.375 -2,2.09375 -1.28125,0.70313 -2.78125,0.70313 -1.609375,0 -2.890625,-0.78125 -1.265625,-0.79688 -1.921875,-2.14063 -0.65625,-1.35937 -0.65625,-2.85937 z m 1.5625,0.0156 q 0,2.07813 1.109375,3.26563 1.109375,1.1875 2.796875,1.1875 1.70312,0 2.8125,-1.20313 1.10937,-1.20312 1.10937,-3.40625 0,-1.40625 -0.48437,-2.4375 -0.46875,-1.04687 -1.375,-1.625 -0.90625,-0.57812 -2.04688,-0.57812 -1.60937,0 -2.76562,1.10937 -1.15625,1.10938 -1.15625,3.6875 z m 11.16406,8.75 v -11.48437 h 1.28125 v 1.07812 q 0.45313,-0.64062 1.01563,-0.95312 0.57812,-0.3125 1.39062,-0.3125 1.0625,0 1.875,0.54687 0.8125,0.54688 1.21875,1.54688 0.42188,0.98437 0.42188,2.17187 0,1.28125 -0.46875,2.29688 -0.45313,1.01562 -1.32813,1.5625 -0.85937,0.54687 -1.82812,0.54687 -0.70313,0 -1.26563,-0.29687 -0.54687,-0.29688 -0.90625,-0.75 v 4.04687 z m 1.26563,-7.29687 q 0,1.60937 0.64062,2.375 0.65625,0.76562 1.57813,0.76562 0.9375,0 1.60937,-0.79687 0.67188,-0.79688 0.67188,-2.45313 0,-1.59375 -0.65625,-2.375 -0.65625,-0.79687 -1.5625,-0.79687 -0.89063,0 -1.59375,0.84375 -0.6875,0.84375 -0.6875,2.4375 z m 13.30468,1.4375 1.45313,0.17187 q -0.34375,1.28125 -1.28125,1.98438 -0.92188,0.70312 -2.35938,0.70312 -1.82812,0 -2.89062,-1.125 -1.0625,-1.125 -1.0625,-3.14062 0,-2.09375 1.07812,-3.25 1.07813,-1.15625 2.79688,-1.15625 1.65625,0 2.70312,1.14062 1.0625,1.125 1.0625,3.17188 0,0.125 0,0.375 h -6.1875 q 0.0781,1.375 0.76563,2.10937 0.70312,0.71875 1.73437,0.71875 0.78125,0 1.32813,-0.40625 0.54687,-0.40625 0.85937,-1.29687 z m -4.60937,-2.28125 h 4.625 q -0.0937,-1.04688 -0.53125,-1.5625 -0.67188,-0.8125 -1.73438,-0.8125 -0.96875,0 -1.64062,0.65625 -0.65625,0.64062 -0.71875,1.71875 z m 7.82031,4.95312 v -8.29687 h 1.26563 v 1.25 q 0.48437,-0.875 0.89062,-1.15625 0.40625,-0.28125 0.90625,-0.28125 0.70313,0 1.4375,0.45312 l -0.48437,1.29688 q -0.51563,-0.29688 -1.03125,-0.29688 -0.45313,0 -0.82813,0.28125 -0.35937,0.26563 -0.51562,0.76563 -0.23438,0.75 -0.23438,1.64062 v 4.34375 z m 10.75,-1.03125 q -0.78125,0.67188 -1.5,0.95313 -0.71875,0.26562 -1.54687,0.26562 -1.375,0 -2.10938,-0.67187 -0.73437,-0.67188 -0.73437,-1.70313 0,-0.60937 0.28125,-1.10937 0.28125,-0.51563 0.71875,-0.8125 0.45312,-0.3125 1.01562,-0.46875 0.42188,-0.10938 1.25,-0.20313 1.70313,-0.20312 2.51563,-0.48437 0,-0.29688 0,-0.375 0,-0.85938 -0.39063,-1.20313 -0.54687,-0.48437 -1.60937,-0.48437 -0.98438,0 -1.46875,0.35937 -0.46875,0.34375 -0.6875,1.21875 l -1.375,-0.1875 q 0.1875,-0.875 0.60937,-1.42187 0.4375,-0.54688 1.25,-0.82813 0.8125,-0.29687 1.875,-0.29687 1.0625,0 1.71875,0.25 0.67188,0.25 0.98438,0.625 0.3125,0.375 0.4375,0.95312 0.0781,0.35938 0.0781,1.29688 v 1.875 q 0,1.96875 0.0781,2.48437 0.0937,0.51563 0.35937,1 h -1.46875 q -0.21875,-0.4375 -0.28125,-1.03125 z m -0.10937,-3.14062 q -0.76563,0.3125 -2.29688,0.53125 -0.875,0.125 -1.23437,0.28125 -0.35938,0.15625 -0.5625,0.46875 -0.1875,0.29687 -0.1875,0.65625 0,0.5625 0.42187,0.9375 0.4375,0.375 1.25,0.375 0.8125,0 1.4375,-0.34375 0.64063,-0.35938 0.9375,-0.98438 0.23438,-0.46875 0.23438,-1.40625 z m 6.66406,2.90625 0.20312,1.25 q -0.59375,0.125 -1.0625,0.125 -0.76562,0 -1.1875,-0.23438 -0.42187,-0.25 -0.59375,-0.64062 -0.17187,-0.40625 -0.17187,-1.67188 v -4.76562 h -1.03125 v -1.09375 h 1.03125 v -2.0625 l 1.40625,-0.84375 v 2.90625 h 1.40625 v 1.09375 h -1.40625 v 4.84375 q 0,0.60937 0.0625,0.78125 0.0781,0.17187 0.25,0.28125 0.17187,0.0937 0.48437,0.0937 0.23438,0 0.60938,-0.0625 z m 0.85156,-2.89063 q 0,-2.29687 1.28125,-3.40625 1.07813,-0.92187 2.60938,-0.92187 1.71875,0 2.79687,1.125 1.09375,1.10937 1.09375,3.09375 0,1.59375 -0.48437,2.51562 -0.48438,0.92188 -1.40625,1.4375 -0.90625,0.5 -2,0.5 -1.73438,0 -2.8125,-1.10937 -1.07813,-1.125 -1.07813,-3.23438 z m 1.45313,0 q 0,1.59375 0.6875,2.39063 0.70312,0.79687 1.75,0.79687 1.04687,0 1.73437,-0.79687 0.70313,-0.79688 0.70313,-2.4375 0,-1.53125 -0.70313,-2.32813 -0.6875,-0.79687 -1.73437,-0.79687 -1.04688,0 -1.75,0.79687 -0.6875,0.78125 -0.6875,2.375 z m 7.96093,4.15625 v -8.29687 h 1.26563 v 1.25 q 0.48437,-0.875 0.89062,-1.15625 0.40625,-0.28125 0.90625,-0.28125 0.70313,0 1.4375,0.45312 l -0.48437,1.29688 q -0.51563,-0.29688 -1.03125,-0.29688 -0.45313,0 -0.82813,0.28125 -0.35937,0.26563 -0.51562,0.76563 -0.23438,0.75 -0.23438,1.64062 v 4.34375 z"
       id="path73"
       inkscape:connector-curvature="0"
       style="fill:#000000;fill-rule:nonzero" />
    <path
       d="M 335.40945,189.71654 H 500.51181 V 244.4567 H 335.40945 Z"
       id="path75"
       inkscape:connector-curvature="0"
       style="fill:#000000;fill-opacity:0;fill-rule:evenodd" />
    <path
       d="m 378.79266,214.07654 4.40625,-11.45313 h 1.64062 l 4.6875,11.45313 h -1.73437 l -1.32813,-3.46875 h -4.79687 l -1.25,3.46875 z m 3.3125,-4.70313 h 3.89062 l -1.20312,-3.17187 q -0.54688,-1.45313 -0.8125,-2.375 -0.21875,1.09375 -0.60938,2.1875 z m 8.45312,7.89063 v -11.48438 h 1.28125 v 1.07813 q 0.45313,-0.64063 1.01563,-0.95313 0.57812,-0.3125 1.39062,-0.3125 1.0625,0 1.875,0.54688 0.8125,0.54687 1.21875,1.54687 0.42188,0.98438 0.42188,2.17188 0,1.28125 -0.46875,2.29687 -0.45313,1.01563 -1.32813,1.5625 -0.85937,0.54688 -1.82812,0.54688 -0.70313,0 -1.26563,-0.29688 -0.54687,-0.29687 -0.90625,-0.75 v 4.04688 z m 1.26563,-7.29688 q 0,1.60938 0.64062,2.375 0.65625,0.76563 1.57813,0.76563 0.9375,0 1.60937,-0.79688 0.67188,-0.79687 0.67188,-2.45312 0,-1.59375 -0.65625,-2.375 -0.65625,-0.79688 -1.5625,-0.79688 -0.89063,0 -1.59375,0.84375 -0.6875,0.84375 -0.6875,2.4375 z m 7.63281,7.29688 v -11.48438 h 1.28125 v 1.07813 q 0.45313,-0.64063 1.01563,-0.95313 0.57812,-0.3125 1.39062,-0.3125 1.0625,0 1.875,0.54688 0.8125,0.54687 1.21875,1.54687 0.42188,0.98438 0.42188,2.17188 0,1.28125 -0.46875,2.29687 -0.45313,1.01563 -1.32813,1.5625 -0.85937,0.54688 -1.82812,0.54688 -0.70313,0 -1.26563,-0.29688 -0.54687,-0.29687 -0.90625,-0.75 v 4.04688 z m 1.26563,-7.29688 q 0,1.60938 0.64062,2.375 0.65625,0.76563 1.57813,0.76563 0.9375,0 1.60937,-0.79688 0.67188,-0.79687 0.67188,-2.45312 0,-1.59375 -0.65625,-2.375 -0.65625,-0.79688 -1.5625,-0.79688 -0.89063,0 -1.59375,0.84375 -0.6875,0.84375 -0.6875,2.4375 z m 7.60156,4.10938 v -11.45313 h 1.40625 v 11.45313 z m 3.58594,-9.84375 v -1.60938 h 1.40625 v 1.60938 z m 0,9.84375 v -8.29688 h 1.40625 v 8.29688 z m 8.96093,-3.04688 1.39063,0.1875 q -0.23438,1.42188 -1.17188,2.23438 -0.92187,0.8125 -2.28125,0.8125 -1.70312,0 -2.75,-1.10938 -1.03125,-1.125 -1.03125,-3.20312 0,-1.34375 0.4375,-2.34375 0.45313,-1.01563 1.35938,-1.51563 0.92187,-0.5 1.98437,-0.5 1.35938,0 2.21875,0.6875 0.85938,0.67188 1.09375,1.9375 l -1.35937,0.20313 q -0.20313,-0.82813 -0.70313,-1.25 -0.48437,-0.42188 -1.1875,-0.42188 -1.0625,0 -1.73437,0.76563 -0.65625,0.75 -0.65625,2.40625 0,1.67187 0.64062,2.4375 0.64063,0.75 1.67188,0.75 0.82812,0 1.375,-0.5 0.5625,-0.51563 0.70312,-1.57813 z m 8,2.01563 q -0.78125,0.67187 -1.5,0.95312 -0.71875,0.26563 -1.54687,0.26563 -1.375,0 -2.10938,-0.67188 -0.73437,-0.67187 -0.73437,-1.70312 0,-0.60938 0.28125,-1.10938 0.28125,-0.51562 0.71875,-0.8125 0.45312,-0.3125 1.01562,-0.46875 0.42188,-0.10937 1.25,-0.20312 1.70313,-0.20313 2.51563,-0.48438 0,-0.29687 0,-0.375 0,-0.85937 -0.39063,-1.20312 -0.54687,-0.48438 -1.60937,-0.48438 -0.98438,0 -1.46875,0.35938 -0.46875,0.34375 -0.6875,1.21875 l -1.375,-0.1875 q 0.1875,-0.875 0.60937,-1.42188 0.4375,-0.54687 1.25,-0.82812 0.8125,-0.29688 1.875,-0.29688 1.0625,0 1.71875,0.25 0.67188,0.25 0.98438,0.625 0.3125,0.375 0.4375,0.95313 0.0781,0.35937 0.0781,1.29687 v 1.875 q 0,1.96875 0.0781,2.48438 0.0937,0.51562 0.35937,1 h -1.46875 q -0.21875,-0.4375 -0.28125,-1.03125 z m -0.10937,-3.14063 q -0.76563,0.3125 -2.29688,0.53125 -0.875,0.125 -1.23437,0.28125 -0.35938,0.15625 -0.5625,0.46875 -0.1875,0.29688 -0.1875,0.65625 0,0.5625 0.42187,0.9375 0.4375,0.375 1.25,0.375 0.8125,0 1.4375,-0.34375 0.64063,-0.35937 0.9375,-0.98437 0.23438,-0.46875 0.23438,-1.40625 z m 6.66406,2.90625 0.20313,1.25 q -0.59375,0.125 -1.0625,0.125 -0.76563,0 -1.1875,-0.23437 -0.42188,-0.25 -0.59375,-0.64063 -0.17188,-0.40625 -0.17188,-1.67187 v -4.76563 h -1.03125 v -1.09375 h 1.03125 v -2.0625 l 1.40625,-0.84375 v 2.90625 h 1.40625 v 1.09375 h -1.40625 v 4.84375 q 0,0.60938 0.0625,0.78125 0.0781,0.17188 0.25,0.28125 0.17188,0.0937 0.48438,0.0937 0.23437,0 0.60937,-0.0625 z m 1.38281,-8.57812 v -1.60938 h 1.40625 v 1.60938 z m 0,9.84375 v -8.29688 h 1.40625 v 8.29688 z m 3.02344,-4.15625 q 0,-2.29688 1.28125,-3.40625 1.07813,-0.92188 2.60938,-0.92188 1.71875,0 2.79687,1.125 1.09375,1.10938 1.09375,3.09375 0,1.59375 -0.48437,2.51563 -0.48438,0.92187 -1.40625,1.4375 -0.90625,0.5 -2,0.5 -1.73438,0 -2.8125,-1.10938 -1.07813,-1.125 -1.07813,-3.23437 z m 1.45313,0 q 0,1.59375 0.6875,2.39062 0.70312,0.79688 1.75,0.79688 1.04687,0 1.73437,-0.79688 0.70313,-0.79687 0.70313,-2.4375 0,-1.53125 -0.70313,-2.32812 -0.6875,-0.79688 -1.73437,-0.79688 -1.04688,0 -1.75,0.79688 -0.6875,0.78125 -0.6875,2.375 z m 7.97656,4.15625 v -8.29688 h 1.26562 v 1.17188 q 0.90625,-1.35938 2.64063,-1.35938 0.75,0 1.375,0.26563 0.625,0.26562 0.9375,0.70312 0.3125,0.4375 0.4375,1.04688 0.0781,0.39062 0.0781,1.35937 v 5.10938 h -1.40625 v -5.04688 q 0,-0.85937 -0.17187,-1.28125 -0.15625,-0.4375 -0.57813,-0.6875 -0.40625,-0.25 -0.96875,-0.25 -0.90625,0 -1.5625,0.57813 -0.64062,0.5625 -0.64062,2.15625 v 4.53125 z"
       id="path77"
       inkscape:connector-curvature="0"
       style="fill:#000000;fill-rule:nonzero" />
    <path
       d="m 395.64032,233.07654 v -11.45313 h 3.95312 q 1.32813,0 2.03125,0.15625 0.98438,0.23438 1.6875,0.82813 0.90625,0.76562 1.34375,1.95312 0.45313,1.1875 0.45313,2.71875 0,1.3125 -0.3125,2.32813 -0.29688,1 -0.78125,1.65625 -0.46875,0.65625 -1.03125,1.04687 -0.5625,0.375 -1.375,0.57813 -0.79688,0.1875 -1.82813,0.1875 z m 1.51562,-1.35938 h 2.45313 q 1.125,0 1.76562,-0.20312 0.65625,-0.21875 1.03125,-0.59375 0.54688,-0.54688 0.84375,-1.45313 0.29688,-0.90625 0.29688,-2.20312 0,-1.79688 -0.59375,-2.76563 -0.57813,-0.96875 -1.42188,-1.29687 -0.60937,-0.23438 -1.96875,-0.23438 h -2.40625 z m 15.53907,-1.3125 1.45312,0.17188 q -0.34375,1.28125 -1.28125,1.98437 -0.92187,0.70313 -2.35937,0.70313 -1.82813,0 -2.89063,-1.125 -1.0625,-1.125 -1.0625,-3.14063 0,-2.09375 1.07813,-3.25 1.07812,-1.15625 2.79687,-1.15625 1.65625,0 2.70313,1.14063 1.0625,1.125 1.0625,3.17187 0,0.125 0,0.375 h -6.1875 q 0.0781,1.375 0.76562,2.10938 0.70313,0.71875 1.73438,0.71875 0.78125,0 1.32812,-0.40625 0.54688,-0.40625 0.85938,-1.29688 z m -4.60938,-2.28125 h 4.625 q -0.0937,-1.04687 -0.53125,-1.5625 -0.67187,-0.8125 -1.73437,-0.8125 -0.96875,0 -1.64063,0.65625 -0.65625,0.64063 -0.71875,1.71875 z m 10.13281,4.95313 -3.15625,-8.29688 h 1.48438 l 1.78125,4.96875 q 0.29687,0.79688 0.53125,1.67188 0.1875,-0.65625 0.53125,-1.57813 l 1.84375,-5.0625 h 1.4375 l -3.14063,8.29688 z m 8.39063,3.375 q -1.17188,-1.46875 -1.98438,-3.4375 -0.79687,-1.98438 -0.79687,-4.09375 0,-1.85938 0.60937,-3.5625 0.70313,-1.96875 2.17188,-3.9375 h 1 q -0.9375,1.625 -1.25,2.32812 -0.46875,1.07813 -0.75,2.25 -0.32813,1.45313 -0.32813,2.9375 0,3.75 2.32813,7.51563 z m 2.07812,-5.85938 1.39063,-0.21875 q 0.10937,0.84375 0.64062,1.29688 0.54688,0.4375 1.5,0.4375 0.96875,0 1.4375,-0.39063 0.46875,-0.40625 0.46875,-0.9375 0,-0.46875 -0.40625,-0.75 -0.29687,-0.1875 -1.4375,-0.46875 -1.54687,-0.39062 -2.15625,-0.67187 -0.59375,-0.29688 -0.90625,-0.79688 -0.29687,-0.5 -0.29687,-1.10937 0,-0.5625 0.25,-1.03125 0.25,-0.46875 0.6875,-0.78125 0.32812,-0.25 0.89062,-0.40625 0.57813,-0.17188 1.21875,-0.17188 0.98438,0 1.71875,0.28125 0.73438,0.28125 1.07813,0.76563 0.35937,0.46875 0.5,1.28125 l -1.375,0.1875 q -0.0937,-0.64063 -0.54688,-1 -0.45312,-0.35938 -1.26562,-0.35938 -0.96875,0 -1.39063,0.32813 -0.40625,0.3125 -0.40625,0.73437 0,0.28125 0.17188,0.5 0.17187,0.21875 0.53125,0.375 0.21875,0.0781 1.25,0.35938 1.48437,0.39062 2.07812,0.65625 0.59375,0.25 0.92188,0.73437 0.34375,0.48438 0.34375,1.20313 0,0.70312 -0.42188,1.32812 -0.40625,0.60938 -1.1875,0.95313 -0.76562,0.34375 -1.73437,0.34375 -1.625,0 -2.46875,-0.67188 -0.84375,-0.67187 -1.07813,-2 z m 9.48438,5.85938 h -1.01563 q 2.34375,-3.76563 2.34375,-7.51563 0,-1.46875 -0.34375,-2.92187 -0.26562,-1.17188 -0.73437,-2.25 -0.3125,-0.70313 -1.26563,-2.34375 h 1.01563 q 1.46875,1.96875 2.17187,3.9375 0.59375,1.70312 0.59375,3.5625 0,2.10937 -0.8125,4.09375 -0.79687,1.96875 -1.95312,3.4375 z"
       id="path79"
       inkscape:connector-curvature="0"
       style="fill:#000000;fill-rule:nonzero" />
    <path
       d="M 15.490813,0 H 180.59317 V 54.740158 H 15.490813 Z"
       id="path81"
       inkscape:connector-curvature="0"
       style="fill:#000000;fill-opacity:0;fill-rule:evenodd" />
    <path
       d="M 52.413086,24.36 V 12.906875 h 1.515625 V 24.36 Z m 4.007812,0 v -8.296875 h 1.265625 V 17.235 q 0.90625,-1.359375 2.640625,-1.359375 0.75,0 1.375,0.265625 0.625,0.265625 0.9375,0.703125 0.3125,0.4375 0.4375,1.046875 0.07813,0.390625 0.07813,1.359375 V 24.36 h -1.40625 v -5.046875 q 0,-0.859375 -0.171875,-1.28125 -0.15625,-0.4375 -0.578125,-0.6875 -0.40625,-0.25 -0.96875,-0.25 -0.90625,0 -1.5625,0.578125 -0.640625,0.5625 -0.640625,2.15625 V 24.36 Z m 9.226563,0 v -7.203125 h -1.234375 v -1.09375 h 1.234375 V 15.1725 q 0,-0.828125 0.15625,-1.234375 0.203125,-0.546875 0.703125,-0.890625 0.515625,-0.34375 1.4375,-0.34375 0.59375,0 1.3125,0.140625 l -0.203125,1.234375 q -0.4375,-0.07813 -0.828125,-0.07813 -0.640625,0 -0.90625,0.28125 -0.265625,0.265625 -0.265625,1.015625 v 0.765625 h 1.609375 v 1.09375 H 67.053711 V 24.36 Z m 4.101562,0 v -8.296875 h 1.265625 v 1.25 q 0.484375,-0.875 0.890625,-1.15625 0.40625,-0.28125 0.90625,-0.28125 0.703125,0 1.4375,0.453125 l -0.484375,1.296875 q -0.515625,-0.296875 -1.03125,-0.296875 -0.453125,0 -0.828125,0.28125 -0.359375,0.265625 -0.515625,0.765625 -0.234375,0.75 -0.234375,1.640625 V 24.36 Z m 10.75,-1.03125 q -0.78125,0.671875 -1.5,0.953125 -0.71875,0.265625 -1.546875,0.265625 -1.375,0 -2.109375,-0.671875 -0.734375,-0.671875 -0.734375,-1.703125 0,-0.609375 0.28125,-1.109375 0.28125,-0.515625 0.71875,-0.8125 0.453125,-0.3125 1.015625,-0.46875 0.421875,-0.109375 1.25,-0.203125 1.703125,-0.203125 2.515625,-0.484375 0,-0.296875 0,-0.375 0,-0.859375 -0.390625,-1.203125 -0.546875,-0.484375 -1.609375,-0.484375 -0.984375,0 -1.46875,0.359375 -0.46875,0.34375 -0.6875,1.21875 l -1.375,-0.1875 q 0.1875,-0.875 0.609375,-1.421875 0.4375,-0.546875 1.25,-0.828125 0.8125,-0.296875 1.875,-0.296875 1.0625,0 1.71875,0.25 0.671875,0.25 0.984375,0.625 0.3125,0.375 0.4375,0.953125 0.07813,0.359375 0.07813,1.296875 v 1.875 q 0,1.96875 0.07813,2.484375 0.09375,0.515625 0.359375,1 h -1.46875 q -0.21875,-0.4375 -0.28125,-1.03125 z m -0.109375,-3.140625 q -0.765625,0.3125 -2.296875,0.53125 -0.875,0.125 -1.234375,0.28125 -0.359375,0.15625 -0.5625,0.46875 -0.1875,0.296875 -0.1875,0.65625 0,0.5625 0.421875,0.9375 0.4375,0.375 1.25,0.375 0.8125,0 1.4375,-0.34375 0.640625,-0.359375 0.9375,-0.984375 0.234375,-0.46875 0.234375,-1.40625 z m 3.039063,1.6875 1.390625,-0.21875 q 0.109375,0.84375 0.640625,1.296875 0.546875,0.4375 1.5,0.4375 0.96875,0 1.4375,-0.390625 0.46875,-0.40625 0.46875,-0.9375 0,-0.46875 -0.40625,-0.75 -0.296875,-0.1875 -1.4375,-0.46875 -1.546875,-0.390625 -2.15625,-0.671875 -0.59375,-0.296875 -0.90625,-0.796875 -0.296875,-0.5 -0.296875,-1.109375 0,-0.5625 0.25,-1.03125 0.25,-0.46875 0.6875,-0.78125 0.328125,-0.25 0.890625,-0.40625 0.578125,-0.171875 1.21875,-0.171875 0.984375,0 1.71875,0.28125 0.734375,0.28125 1.078125,0.765625 0.359375,0.46875 0.5,1.28125 l -1.375,0.1875 q -0.09375,-0.640625 -0.546875,-1 -0.453125,-0.359375 -1.265625,-0.359375 -0.96875,0 -1.390625,0.328125 -0.40625,0.3125 -0.40625,0.734375 0,0.28125 0.171875,0.5 0.171875,0.21875 0.53125,0.375 0.21875,0.07813 1.25,0.359375 1.484375,0.390625 2.078125,0.65625 0.59375,0.25 0.921875,0.734375 0.34375,0.484375 0.34375,1.203125 0,0.703125 -0.421875,1.328125 -0.40625,0.609375 -1.1875,0.953125 -0.765625,0.34375 -1.734375,0.34375 -1.625,0 -2.46875,-0.671875 -0.84375,-0.671875 -1.078125,-2 z m 11.625,1.21875 0.203125,1.25 q -0.59375,0.125 -1.0625,0.125 -0.765625,0 -1.1875,-0.234375 -0.421875,-0.25 -0.59375,-0.640625 -0.171875,-0.40625 -0.171875,-1.671875 v -4.765625 h -1.03125 v -1.09375 h 1.03125 v -2.0625 l 1.40625,-0.84375 v 2.90625 h 1.40625 v 1.09375 h -1.40625 v 4.84375 q 0,0.609375 0.0625,0.78125 0.07813,0.171875 0.25,0.28125 0.171875,0.09375 0.484375,0.09375 0.234375,0 0.609375,-0.0625 z M 96.420898,24.36 v -8.296875 h 1.265625 v 1.25 q 0.484375,-0.875 0.890625,-1.15625 0.40625,-0.28125 0.90625,-0.28125 0.703122,0 1.437502,0.453125 l -0.48438,1.296875 q -0.515622,-0.296875 -1.031247,-0.296875 -0.453125,0 -0.828125,0.28125 -0.359375,0.265625 -0.515625,0.765625 -0.234375,0.75 -0.234375,1.640625 V 24.36 Z m 10.781252,0 v -1.21875 q -0.96875,1.40625 -2.64063,1.40625 -0.73437,0 -1.375,-0.28125 -0.625,-0.28125 -0.9375,-0.703125 -0.3125,-0.4375 -0.4375,-1.046875 -0.0781,-0.421875 -0.0781,-1.3125 v -5.140625 h 1.40625 v 4.59375 q 0,1.109375 0.0781,1.484375 0.14063,0.5625 0.5625,0.875 0.4375,0.3125 1.0625,0.3125 0.64063,0 1.1875,-0.3125 0.5625,-0.328125 0.78125,-0.890625 0.23438,-0.5625 0.23438,-1.625 v -4.4375 h 1.40625 V 24.36 Z m 8.86719,-3.046875 1.39062,0.1875 q -0.23437,1.421875 -1.17187,2.234375 -0.92188,0.8125 -2.28125,0.8125 -1.70313,0 -2.75,-1.109375 -1.03125,-1.125 -1.03125,-3.203125 0,-1.34375 0.4375,-2.34375 0.45312,-1.015625 1.35937,-1.515625 0.92188,-0.5 1.98438,-0.5 1.35937,0 2.21875,0.6875 0.85937,0.671875 1.09375,1.9375 l -1.35938,0.203125 q -0.20312,-0.828125 -0.70312,-1.25 -0.48438,-0.421875 -1.1875,-0.421875 -1.0625,0 -1.73438,0.765625 -0.65625,0.75 -0.65625,2.40625 0,1.671875 0.64063,2.4375 0.64062,0.75 1.67187,0.75 0.82813,0 1.375,-0.5 0.5625,-0.515625 0.70313,-1.578125 z m 5.65625,1.78125 0.20312,1.25 q -0.59375,0.125 -1.0625,0.125 -0.76562,0 -1.1875,-0.234375 -0.42187,-0.25 -0.59375,-0.640625 -0.17187,-0.40625 -0.17187,-1.671875 v -4.765625 h -1.03125 v -1.09375 h 1.03125 v -2.0625 l 1.40625,-0.84375 v 2.90625 h 1.40625 v 1.09375 h -1.40625 v 4.84375 q 0,0.609375 0.0625,0.78125 0.0781,0.171875 0.25,0.28125 0.17187,0.09375 0.48437,0.09375 0.23438,0 0.60938,-0.0625 z M 128.5459,24.36 v -1.21875 q -0.96875,1.40625 -2.64063,1.40625 -0.73437,0 -1.375,-0.28125 -0.625,-0.28125 -0.9375,-0.703125 -0.3125,-0.4375 -0.4375,-1.046875 -0.0781,-0.421875 -0.0781,-1.3125 v -5.140625 h 1.40625 v 4.59375 q 0,1.109375 0.0781,1.484375 0.14063,0.5625 0.5625,0.875 0.4375,0.3125 1.0625,0.3125 0.64063,0 1.1875,-0.3125 0.5625,-0.328125 0.78125,-0.890625 0.23438,-0.5625 0.23438,-1.625 v -4.4375 h 1.40625 V 24.36 Z m 3.44531,0 v -8.296875 h 1.26563 v 1.25 q 0.48437,-0.875 0.89062,-1.15625 0.40625,-0.28125 0.90625,-0.28125 0.70313,0 1.4375,0.453125 l -0.48437,1.296875 q -0.51563,-0.296875 -1.03125,-0.296875 -0.45313,0 -0.82813,0.28125 -0.35937,0.265625 -0.51562,0.765625 -0.23438,0.75 -0.23438,1.640625 V 24.36 Z m 11.01563,-2.671875 1.45312,0.171875 q -0.34375,1.28125 -1.28125,1.984375 -0.92187,0.703125 -2.35937,0.703125 -1.82813,0 -2.89063,-1.125 -1.0625,-1.125 -1.0625,-3.140625 0,-2.09375 1.07813,-3.25 1.07812,-1.15625 2.79687,-1.15625 1.65625,0 2.70313,1.140625 1.0625,1.125 1.0625,3.171875 0,0.125 0,0.375 h -6.1875 q 0.0781,1.375 0.76562,2.109375 0.70313,0.71875 1.73438,0.71875 0.78125,0 1.32812,-0.40625 0.54688,-0.40625 0.85938,-1.296875 z m -4.60938,-2.28125 h 4.625 q -0.0937,-1.046875 -0.53125,-1.5625 -0.67187,-0.8125 -1.73437,-0.8125 -0.96875,0 -1.64063,0.65625 -0.65625,0.640625 -0.71875,1.71875 z"
       id="path83"
       inkscape:connector-curvature="0"
       style="fill:#000000;fill-rule:nonzero" />
    <path
       d="M 69.487305,43.36 V 31.906875 h 4.328125 q 1.140625,0 1.734375,0.109375 0.84375,0.140625 1.40625,0.53125 0.578125,0.390625 0.921875,1.109375 0.359375,0.703125 0.359375,1.5625 0,1.453125 -0.9375,2.46875 -0.921875,1.015625 -3.359375,1.015625 h -2.9375 V 43.36 Z m 1.515625,-6.015625 h 2.96875 q 1.46875,0 2.078125,-0.546875 0.625,-0.546875 0.625,-1.53125 0,-0.71875 -0.375,-1.234375 Q 75.94043,33.51625 75.34668,33.36 q -0.375,-0.109375 -1.40625,-0.109375 h -2.9375 z M 79.97168,43.36 v -8.296875 h 1.265625 v 1.25 q 0.484375,-0.875 0.890625,-1.15625 0.40625,-0.28125 0.90625,-0.28125 0.703125,0 1.4375,0.453125 l -0.484375,1.296875 q -0.515625,-0.296875 -1.03125,-0.296875 -0.453125,0 -0.828125,0.28125 -0.359375,0.265625 -0.515625,0.765625 -0.234375,0.75 -0.234375,1.640625 V 43.36 Z m 4.8125,-4.15625 q 0,-2.296875 1.28125,-3.40625 1.078125,-0.921875 2.609375,-0.921875 1.71875,0 2.796875,1.125 1.09375,1.109375 1.09375,3.09375 0,1.59375 -0.484375,2.515625 -0.484375,0.921875 -1.40625,1.4375 -0.90625,0.5 -2,0.5 -1.734375,0 -2.8125,-1.109375 -1.078125,-1.125 -1.078125,-3.234375 z m 1.453125,0 q 0,1.59375 0.6875,2.390625 0.703125,0.796875 1.75,0.796875 1.046875,0 1.734375,-0.796875 0.703125,-0.796875 0.703125,-2.4375 0,-1.53125 -0.703125,-2.328125 -0.6875,-0.796875 -1.734375,-0.796875 -1.046875,0 -1.75,0.796875 -0.6875,0.78125 -0.6875,2.375 z M 96.510743,43.36 93.354493,35.063125 h 1.484375 l 1.78125,4.96875 q 0.296875,0.796875 0.53125,1.671875 0.1875,-0.65625 0.53125,-1.578125 l 1.84375,-5.0625 h 1.437502 L 97.823243,43.36 Z m 5.703127,-9.84375 v -1.609375 h 1.40625 v 1.609375 z m 0,9.84375 v -8.296875 h 1.40625 V 43.36 Z m 8.92969,0 v -1.046875 q -0.78125,1.234375 -2.3125,1.234375 -1,0 -1.82813,-0.546875 -0.82812,-0.546875 -1.29687,-1.53125 -0.45313,-0.984375 -0.45313,-2.25 0,-1.25 0.40625,-2.25 0.42188,-1.015625 1.25,-1.546875 0.82813,-0.546875 1.85938,-0.546875 0.75,0 1.32812,0.3125 0.59375,0.3125 0.95313,0.828125 v -4.109375 h 1.40625 V 43.36 Z m -4.4375,-4.140625 q 0,1.59375 0.67187,2.390625 0.67188,0.78125 1.57813,0.78125 0.92187,0 1.5625,-0.75 0.65625,-0.765625 0.65625,-2.3125 0,-1.703125 -0.65625,-2.5 -0.65625,-0.796875 -1.625,-0.796875 -0.9375,0 -1.5625,0.765625 -0.625,0.765625 -0.625,2.421875 z m 13.63281,1.46875 1.45312,0.171875 q -0.34375,1.28125 -1.28125,1.984375 -0.92187,0.703125 -2.35937,0.703125 -1.82813,0 -2.89063,-1.125 -1.0625,-1.125 -1.0625,-3.140625 0,-2.09375 1.07813,-3.25 1.07812,-1.15625 2.79687,-1.15625 1.65625,0 2.70313,1.140625 1.0625,1.125 1.0625,3.171875 0,0.125 0,0.375 h -6.1875 q 0.0781,1.375 0.76562,2.109375 0.70313,0.71875 1.73438,0.71875 0.78125,0 1.32812,-0.40625 0.54688,-0.40625 0.85938,-1.296875 z m -4.60938,-2.28125 h 4.625 q -0.0937,-1.046875 -0.53125,-1.5625 -0.67187,-0.8125 -1.73437,-0.8125 -0.96875,0 -1.64063,0.65625 -0.65625,0.640625 -0.71875,1.71875 z M 123.54981,43.36 v -8.296875 h 1.26562 v 1.25 q 0.48438,-0.875 0.89063,-1.15625 0.40625,-0.28125 0.90625,-0.28125 0.70312,0 1.43749,0.453125 l -0.48437,1.296875 q -0.51563,-0.296875 -1.03125,-0.296875 -0.45313,0 -0.82813,0.28125 -0.35937,0.265625 -0.51562,0.765625 -0.23438,0.75 -0.23438,1.640625 V 43.36 Z"
       id="path85"
       inkscape:connector-curvature="0"
       style="fill:#000000;fill-rule:nonzero" />
  </g>
</svg>
