<svg version="1.1" viewBox="0.0 0.0 900.0 250.0" fill="none" stroke="none" stroke-linecap="square" stroke-miterlimit="10" xmlns:xlink="http://www.w3.org/1999/xlink" xmlns="http://www.w3.org/2000/svg">
<clipPath id="p.0"><path d="m0 0l900.0 0l0 250.0l-900.0 0l0 -250.0z" clip-rule="nonzero"/></clipPath>
<g clip-path="url(#p.0)">
<path fill="#000000" fill-opacity="0.0" d="m0 0l900.0 0l0 250.0l-900.0 0z" fill-rule="evenodd"/>

<!-- Client (oval) -->
<path fill="#d9d9d9" d="m27.9 95.0l51.1 0c6.69 0 12.12 8.26 12.12 18.44c0 10.19 -5.43 18.44 -12.12 18.44l-51.1 0c-6.69 0 -12.12 -8.26 -12.12 -18.44c0 -10.19 5.43 -18.44 12.12 -18.44z" fill-rule="evenodd"/>
<path stroke="#ffffff" stroke-width="1.0" stroke-linejoin="round" stroke-linecap="butt" d="m27.9 95.0l51.1 0c6.69 0 12.12 8.26 12.12 18.44c0 10.19 -5.43 18.44 -12.12 18.44l-51.1 0c-6.69 0 -12.12 -8.26 -12.12 -18.44c0 -10.19 5.43 -18.44 12.12 -18.44z" fill-rule="evenodd"/>
<path fill="#000000" d="m39.22 116.78l1.61 0.22q-0.27 1.66 -1.36 2.61q-1.08 0.94 -2.67 0.94q-1.98 0 -3.19 -1.30q-1.20 -1.30 -1.20 -3.72q0 -1.58 0.52 -2.75q0.52 -1.17 1.58 -1.75q1.06 -0.59 2.31 -0.59q1.58 0 2.58 0.80q1.0 0.80 1.28 2.27l-1.59 0.23q-0.23 -0.97 -0.81 -1.45q-0.58 -0.50 -1.39 -0.50q-1.23 0 -2.02 0.89q-0.78 0.89 -0.78 2.81q0 1.95 0.75 2.84q0.75 0.88 1.95 0.88q0.97 0 1.61 -0.59q0.66 -0.59 0.83 -1.83zm2.97 3.55l0 -13.36l1.64 0l0 13.36l-1.64 0zm4.19 -11.47l0 -1.89l1.64 0l0 1.89l-1.64 0zm0 11.47l0 -9.67l1.64 0l0 9.67l-1.64 0zm10.77 -3.11l1.69 0.20q-0.41 1.48 -1.48 2.31q-1.08 0.81 -2.77 0.81q-2.13 0 -3.38 -1.30q-1.23 -1.31 -1.23 -3.67q0 -2.45 1.25 -3.80q1.27 -1.34 3.27 -1.34q1.94 0 3.16 1.33q1.23 1.31 1.23 3.70q0 0.16 0 0.44l-7.22 0q0.09 1.59 0.91 2.45q0.81 0.84 2.02 0.84q0.91 0 1.55 -0.47q0.64 -0.48 1.02 -1.52zm-5.39 -2.66l5.41 0q-0.11 -1.22 -0.63 -1.83q-0.78 -0.95 -2.03 -0.95q-1.13 0 -1.91 0.77q-0.77 0.75 -0.84 2.02zm9.14 5.77l0 -9.67l1.47 0l0 1.38q1.06 -1.59 3.08 -1.59q0.88 0 1.61 0.31q0.73 0.31 1.09 0.83q0.38 0.50 0.52 1.20q0.09 0.45 0.09 1.59l0 5.95l-1.64 0l0 -5.89q0 -1.0 -0.20 -1.48q-0.19 -0.50 -0.67 -0.80q-0.48 -0.30 -1.14 -0.30q-1.05 0 -1.81 0.67q-0.75 0.66 -0.75 2.52l0 5.28l-1.64 0zm13.95 -1.47l0.23 1.45q-0.69 0.14 -1.23 0.14q-0.89 0 -1.39 -0.28q-0.48 -0.28 -0.69 -0.73q-0.20 -0.47 -0.20 -1.94l0 -5.58l-1.20 0l0 -1.27l1.20 0l0 -2.39l1.63 -0.98l0 3.38l1.66 0l0 1.27l-1.66 0l0 5.67q0 0.69 0.08 0.89q0.09 0.20 0.28 0.33q0.20 0.11 0.58 0.11q0.27 0 0.72 -0.06z" fill-rule="nonzero"/>

<!-- Gateway box -->
<path fill="#1155cc" d="m230 60l120 0l0 100l-120 0z" fill-rule="evenodd"/>
<path stroke="#1155cc" stroke-width="1.0" stroke-linejoin="round" stroke-linecap="butt" d="m230 60l120 0l0 100l-120 0z" fill-rule="evenodd"/>
<path fill="#ffffff" d="m250.0 113.4l0 -2.25l5.81 0l0 5.31q-0.84 0.83 -2.45 1.45q-1.61 0.63 -3.25 0.63q-2.09 0 -3.66 -0.88q-1.56 -0.89 -2.34 -2.52q-0.78 -1.64 -0.78 -3.56q0 -2.09 0.88 -3.70q0.88 -1.63 2.56 -2.50q1.28 -0.66 3.20 -0.66q2.48 0 3.88 1.05q1.41 1.03 1.80 2.88l-2.67 0.50q-0.28 -0.98 -1.06 -1.55q-0.78 -0.58 -1.94 -0.58q-1.78 0 -2.83 1.13q-1.03 1.13 -1.03 3.33q0 2.38 1.05 3.56q1.06 1.19 2.78 1.19q0.84 0 1.69 -0.33q0.86 -0.33 1.47 -0.81l0 -1.69l-3.09 0zm10.20 -1.81l-2.33 -0.42q0.41 -1.41 1.36 -2.08q0.95 -0.67 2.84 -0.67q1.70 0 2.55 0.41q0.84 0.41 1.17 1.03q0.34 0.63 0.34 2.28l-0.02 3.00q0 1.27 0.11 1.88q0.13 0.61 0.47 1.30l-2.53 0q-0.11 -0.25 -0.25 -0.75q-0.06 -0.23 -0.09 -0.31q-0.66 0.64 -1.41 0.97q-0.73 0.31 -1.59 0.31q-1.48 0 -2.34 -0.81q-0.86 -0.81 -0.86 -2.05q0 -0.83 0.39 -1.47q0.39 -0.64 1.09 -0.97q0.70 -0.34 2.03 -0.61q1.80 -0.33 2.48 -0.63l0 -0.25q0 -0.75 -0.36 -1.06q-0.36 -0.31 -1.38 -0.31q-0.69 0 -1.08 0.28q-0.38 0.27 -0.61 0.94zm3.42 2.08q-0.48 0.16 -1.56 0.39q-1.06 0.22 -1.39 0.44q-0.50 0.36 -0.50 0.91q0 0.53 0.41 0.94q0.41 0.39 1.02 0.39q0.70 0 1.33 -0.47q0.47 -0.34 0.61 -0.84q0.09 -0.33 0.09 -1.25l0 -0.50zm9.49 -5.03l0 2.03l-1.75 0l0 3.91q0 1.19 0.05 1.39q0.05 0.19 0.22 0.31q0.19 0.13 0.44 0.13q0.36 0 1.03 -0.25l0.22 2.0q-0.89 0.38 -2.02 0.38q-0.70 0 -1.27 -0.23q-0.55 -0.23 -0.81 -0.59q-0.25 -0.38 -0.34 -1.0q-0.09 -0.45 -0.09 -1.81l0 -4.22l-1.17 0l0 -2.03l1.17 0l0 -1.92l2.58 -1.50l0 3.42l1.75 0zm7.37 6.59l2.55 0.42q-0.48 1.41 -1.55 2.14q-1.06 0.73 -2.66 0.73q-2.52 0 -3.73 -1.66q-0.95 -1.31 -0.95 -3.33q0 -2.41 1.25 -3.77q1.27 -1.36 3.19 -1.36q2.16 0 3.41 1.42q1.25 1.42 1.19 4.38l-6.41 0q0.03 1.14 0.61 1.78q0.59 0.63 1.48 0.63q0.59 0 1.0 -0.33q0.42 -0.33 0.63 -1.06zm0.16 -2.59q-0.03 -1.11 -0.58 -1.69q-0.55 -0.58 -1.33 -0.58q-0.84 0 -1.39 0.61q-0.55 0.61 -0.53 1.66l3.83 0zm6.42 5.67l-3.06 -9.67l2.48 0l1.81 6.34l1.67 -6.34l2.47 0l1.61 6.34l1.86 -6.34l2.52 0l-3.11 9.67l-2.45 0l-1.67 -6.22l-1.64 6.22l-2.48 0zm14.62 -6.72l-2.33 -0.42q0.41 -1.41 1.36 -2.08q0.95 -0.67 2.84 -0.67q1.70 0 2.55 0.41q0.84 0.41 1.17 1.03q0.34 0.63 0.34 2.28l-0.02 3.00q0 1.27 0.11 1.88q0.13 0.61 0.47 1.30l-2.53 0q-0.11 -0.25 -0.25 -0.75q-0.06 -0.23 -0.09 -0.31q-0.66 0.64 -1.41 0.97q-0.73 0.31 -1.59 0.31q-1.48 0 -2.34 -0.81q-0.86 -0.81 -0.86 -2.05q0 -0.83 0.39 -1.47q0.39 -0.64 1.09 -0.97q0.70 -0.34 2.03 -0.61q1.80 -0.33 2.48 -0.63l0 -0.25q0 -0.75 -0.36 -1.06q-0.36 -0.31 -1.38 -0.31q-0.69 0 -1.08 0.28q-0.38 0.27 -0.61 0.94zm3.42 2.08q-0.48 0.16 -1.56 0.39q-1.06 0.22 -1.39 0.44q-0.50 0.36 -0.50 0.91q0 0.53 0.41 0.94q0.41 0.39 1.02 0.39q0.70 0 1.33 -0.47q0.47 -0.34 0.61 -0.84q0.09 -0.33 0.09 -1.25l0 -0.50zm3.83 -5.03l2.72 0l2.33 6.86l2.25 -6.86l2.66 0l-3.42 9.31l-0.61 1.69q-0.33 0.84 -0.64 1.28q-0.31 0.45 -0.70 0.72q-0.39 0.28 -0.97 0.44q-0.58 0.16 -1.31 0.16q-0.73 0 -1.45 -0.16l-0.22 -2.0q0.59 0.13 1.08 0.13q0.89 0 1.31 -0.53q0.44 -0.52 0.67 -1.33l-3.69 -9.70z" fill-rule="nonzero"/>

<!-- Arrow from Client to Gateway (foo.example.com path) -->
<path stroke="#000000" stroke-width="2.0" stroke-linejoin="round" stroke-linecap="butt" stroke-dasharray="2.0,6.0" d="m91 80l139 0" fill-rule="evenodd"/>
<path fill="#000000" stroke="#000000" stroke-width="2.0" stroke-linecap="butt" d="m236 83.3l9.08 -3.30l-9.08 -3.30z" fill-rule="evenodd"/>

<!-- Arrow from Client to Gateway (bar.example.com path) -->
<path stroke="#000000" stroke-width="2.0" stroke-linejoin="round" stroke-linecap="butt" stroke-dasharray="2.0,6.0" d="m91 147l139 0" fill-rule="evenodd"/>
<path fill="#000000" stroke="#000000" stroke-width="2.0" stroke-linecap="butt" d="m236 150.3l9.08 -3.30l-9.08 -3.30z" fill-rule="evenodd"/>

<!-- foo-route (TLSRoute) box -->
<path fill="#d9d9d9" d="m120 50l90 0l0 25l-90 0z" fill-rule="evenodd"/>
<path stroke="#ffffff" stroke-width="1.0" stroke-linejoin="round" stroke-linecap="butt" d="m120 50l90 0l0 25l-90 0z" fill-rule="evenodd"/>
<path fill="#000000" d="m135 66.5l0 -5.53l0.84 0l0 0.84q0.28 -0.5 0.73 -0.78q0.45 -0.30 1.02 -0.30q0.64 0 1.05 0.25q0.42 0.25 0.59 0.70q0.70 -0.95 1.81 -0.95q0.88 0 1.36 0.48q0.48 0.48 0.48 1.48l0 3.81l-0.94 0l0 -3.50q0 -0.59 -0.11 -0.86q-0.10 -0.28 -0.38 -0.45q-0.27 -0.17 -0.64 -0.17q-0.66 0 -1.08 0.43q-0.43 0.43 -0.43 1.39l0 3.16l-0.94 0l0 -3.61q0 -0.63 -0.23 -0.94q-0.23 -0.31 -0.78 -0.31q-0.42 0 -0.77 0.22q-0.35 0.21 -0.51 0.65q-0.16 0.43 -0.16 1.25l0 2.75l-0.94 0zm11.66 -4.72l-0.87 0.14q-0.11 -0.42 -0.39 -0.62q-0.39 -0.28 -0.98 -0.28q-0.68 0 -1.08 0.33q-0.53 0.42 -0.53 1.25q0 0.89 0.48 1.39q0.49 0.49 1.25 0.49q0.59 0 0.95 -0.31q0.37 -0.31 0.51 -1.06l0.89 0.14q-0.19 1.03 -0.78 1.54q-0.59 0.50 -1.58 0.50q-1.09 0 -1.77 -0.68q-0.67 -0.69 -0.67 -1.81q0 -1.17 0.68 -1.86q0.68 -0.69 1.81 -0.69q0.92 0 1.50 0.48q0.59 0.47 0.70 1.35zm3.30 0.45q-0.66 -0.14 -1.03 -0.53q-0.36 -0.39 -0.36 -0.95q0 -0.70 0.52 -1.17q0.53 -0.47 1.48 -0.47q0.95 0 1.48 0.47q0.53 0.47 0.53 1.17q0 0.56 -0.36 0.95q-0.36 0.38 -1.00 0.53q0.78 0.16 1.20 0.64q0.42 0.47 0.42 1.14q0 0.89 -0.64 1.47q-0.64 0.58 -1.64 0.58q-1.00 0 -1.64 -0.58q-0.63 -0.58 -0.63 -1.47q0 -0.67 0.42 -1.14q0.42 -0.47 1.20 -0.64zm-0.31 2.70q0 0.36 0.17 0.67q0.17 0.30 0.48 0.47q0.31 0.16 0.67 0.16q0.58 0 0.98 -0.39q0.39 -0.39 0.39 -0.91q0 -0.53 -0.41 -0.92q-0.41 -0.39 -0.97 -0.39q-0.56 0 -0.97 0.39q-0.40 0.39 -0.40 0.92zm0.20 -4.09q0 0.45 0.31 0.75q0.31 0.30 0.78 0.30q0.47 0 0.77 -0.30q0.31 -0.30 0.31 -0.75q0 -0.45 -0.31 -0.73q-0.31 -0.28 -0.77 -0.28q-0.47 0 -0.78 0.28q-0.31 0.28 -0.31 0.73zm7.64 3.86l0 -0.81q-0.66 0.94 -1.75 0.94q-0.50 0 -0.92 -0.19q-0.42 -0.19 -0.63 -0.47q-0.20 -0.28 -0.30 -0.70q-0.05 -0.27 -0.05 -0.88l0 -3.42l0.94 0l0 3.06q0 0.73 0.05 1.00q0.09 0.36 0.38 0.58q0.30 0.20 0.70 0.20q0.42 0 0.80 -0.20q0.38 -0.22 0.52 -0.59q0.16 -0.38 0.16 -1.08l0 -2.97l0.94 0l0 5.53l-0.83 0zm6.08 -1.78l0.97 0.13q-0.23 0.84 -0.86 1.31q-0.61 0.47 -1.58 0.47q-1.20 0 -1.92 -0.75q-0.70 -0.75 -0.70 -2.09q0 -1.39 0.72 -2.16q0.72 -0.78 1.86 -0.78q1.11 0 1.81 0.77q0.70 0.75 0.70 2.13q0 0.08 0 0.23l-4.13 0q0.05 0.92 0.52 1.41q0.47 0.48 1.16 0.48q0.52 0 0.88 -0.27q0.36 -0.28 0.58 -0.88zm-3.08 -1.52l3.09 0q-0.06 -0.69 -0.36 -1.05q-0.45 -0.53 -1.16 -0.53q-0.64 0 -1.09 0.44q-0.44 0.42 -0.48 1.14zm-13.09 -2.17l0 -0.89l4.67 0l0 0.72q-0.66 1.02 -1.31 2.42q-0.47 1.02 -0.70 2.05q-0.17 0.75 -0.23 1.69l-0.95 0q-0.03 -0.67 -0.19 -1.50q-0.20 -1.03 -0.59 -1.97q-0.52 -1.27 -1.17 -2.17q-0.03 -0.05 -0.53 -0.64l4.67 0zm-0.89 -2.42l0 -1.09l0.94 0l0 1.09l-0.94 0zm0 6.55l0 -5.53l0.94 0l0 5.53l-0.94 0z" fill-rule="nonzero"/>

<!-- bar-route (TLSRoute) box -->
<path fill="#d9d9d9" d="m120 155l90 0l0 25l-90 0z" fill-rule="evenodd"/>
<path stroke="#ffffff" stroke-width="1.0" stroke-linejoin="round" stroke-linecap="butt" d="m120 155l90 0l0 25l-90 0z" fill-rule="evenodd"/>
<path fill="#000000" d="m135 171.5l0 -5.53l0.84 0l0 0.84q0.28 -0.5 0.73 -0.78q0.45 -0.30 1.02 -0.30q0.64 0 1.05 0.25q0.42 0.25 0.59 0.70q0.70 -0.95 1.81 -0.95q0.88 0 1.36 0.48q0.48 0.48 0.48 1.48l0 3.81l-0.94 0l0 -3.50q0 -0.59 -0.11 -0.86q-0.10 -0.28 -0.38 -0.45q-0.27 -0.17 -0.64 -0.17q-0.66 0 -1.08 0.43q-0.43 0.43 -0.43 1.39l0 3.16l-0.94 0l0 -3.61q0 -0.63 -0.23 -0.94q-0.23 -0.31 -0.78 -0.31q-0.42 0 -0.77 0.22q-0.35 0.21 -0.51 0.65q-0.16 0.43 -0.16 1.25l0 2.75l-0.94 0zm11.66 -4.72l-0.87 0.14q-0.11 -0.42 -0.39 -0.62q-0.39 -0.28 -0.98 -0.28q-0.68 0 -1.08 0.33q-0.53 0.42 -0.53 1.25q0 0.89 0.48 1.39q0.49 0.49 1.25 0.49q0.59 0 0.95 -0.31q0.37 -0.31 0.51 -1.06l0.89 0.14q-0.19 1.03 -0.78 1.54q-0.59 0.50 -1.58 0.50q-1.09 0 -1.77 -0.68q-0.67 -0.69 -0.67 -1.81q0 -1.17 0.68 -1.86q0.68 -0.69 1.81 -0.69q0.92 0 1.50 0.48q0.59 0.47 0.70 1.35zm3.30 0.45q-0.66 -0.14 -1.03 -0.53q-0.36 -0.39 -0.36 -0.95q0 -0.70 0.52 -1.17q0.53 -0.47 1.48 -0.47q0.95 0 1.48 0.47q0.53 0.47 0.53 1.17q0 0.56 -0.36 0.95q-0.36 0.38 -1.00 0.53q0.78 0.16 1.20 0.64q0.42 0.47 0.42 1.14q0 0.89 -0.64 1.47q-0.64 0.58 -1.64 0.58q-1.00 0 -1.64 -0.58q-0.63 -0.58 -0.63 -1.47q0 -0.67 0.42 -1.14q0.42 -0.47 1.20 -0.64zm-0.31 2.70q0 0.36 0.17 0.67q0.17 0.30 0.48 0.47q0.31 0.16 0.67 0.16q0.58 0 0.98 -0.39q0.39 -0.39 0.39 -0.91q0 -0.53 -0.41 -0.92q-0.41 -0.39 -0.97 -0.39q-0.56 0 -0.97 0.39q-0.40 0.39 -0.40 0.92zm0.20 -4.09q0 0.45 0.31 0.75q0.31 0.30 0.78 0.30q0.47 0 0.77 -0.30q0.31 -0.30 0.31 -0.75q0 -0.45 -0.31 -0.73q-0.31 -0.28 -0.77 -0.28q-0.47 0 -0.78 0.28q-0.31 0.28 -0.31 0.73zm7.64 3.86l0 -0.81q-0.66 0.94 -1.75 0.94q-0.50 0 -0.92 -0.19q-0.42 -0.19 -0.63 -0.47q-0.20 -0.28 -0.30 -0.70q-0.05 -0.27 -0.05 -0.88l0 -3.42l0.94 0l0 3.06q0 0.73 0.05 1.00q0.09 0.36 0.38 0.58q0.30 0.20 0.70 0.20q0.42 0 0.80 -0.20q0.38 -0.22 0.52 -0.59q0.16 -0.38 0.16 -1.08l0 -2.97l0.94 0l0 5.53l-0.83 0zm6.08 -1.78l0.97 0.13q-0.23 0.84 -0.86 1.31q-0.61 0.47 -1.58 0.47q-1.20 0 -1.92 -0.75q-0.70 -0.75 -0.70 -2.09q0 -1.39 0.72 -2.16q0.72 -0.78 1.86 -0.78q1.11 0 1.81 0.77q0.70 0.75 0.70 2.13q0 0.08 0 0.23l-4.13 0q0.05 0.92 0.52 1.41q0.47 0.48 1.16 0.48q0.52 0 0.88 -0.27q0.36 -0.28 0.58 -0.88zm-3.08 -1.52l3.09 0q-0.06 -0.69 -0.36 -1.05q-0.45 -0.53 -1.16 -0.53q-0.64 0 -1.09 0.44q-0.44 0.42 -0.48 1.14zm-13.09 -2.17l0 -0.89l4.67 0l0 0.72q-0.66 1.02 -1.31 2.42q-0.47 1.02 -0.70 2.05q-0.17 0.75 -0.23 1.69l-0.95 0q-0.03 -0.67 -0.19 -1.50q-0.20 -1.03 -0.59 -1.97q-0.52 -1.27 -1.17 -2.17q-0.03 -0.05 -0.53 -0.64l4.67 0zm-0.89 -2.42l0 -1.09l0.94 0l0 1.09l-0.94 0zm0 6.55l0 -5.53l0.94 0l0 5.53l-0.94 0z" fill-rule="nonzero"/>

<!-- Passthrough path: Gateway to foo-svc -->
<path stroke="#000000" stroke-width="2.0" stroke-linejoin="round" stroke-linecap="butt" d="m350 80l90 0" fill-rule="evenodd"/>
<path fill="#000000" stroke="#000000" stroke-width="2.0" stroke-linecap="butt" d="m446 83.3l9.08 -3.30l-9.08 -3.30z" fill-rule="evenodd"/>

<!-- Terminate path: Gateway to bar-svc -->
<path stroke="#000000" stroke-width="2.0" stroke-linejoin="round" stroke-linecap="butt" d="m350 147l90 0" fill-rule="evenodd"/>
<path fill="#000000" stroke="#000000" stroke-width="2.0" stroke-linecap="butt" d="m446 150.3l9.08 -3.30l-9.08 -3.30z" fill-rule="evenodd"/>

<!-- foo-svc (Service) box -->
<path fill="#1155cc" d="m455 55l120 0l0 50l-120 0z" fill-rule="evenodd"/>
<path stroke="#1155cc" stroke-width="1.0" stroke-linejoin="round" stroke-linecap="butt" d="m455 55l120 0l0 50l-120 0z" fill-rule="evenodd"/>
<path fill="#ffffff" d="m477 85.5l0 -4.81l0.84 0l0 0.73q0.30 -0.52 0.77 -0.77q0.48 -0.25 1.09 -0.25q0.68 0 1.11 0.29q0.44 0.28 0.62 0.79q0.73 -1.08 1.89 -1.08q0.91 0 1.40 0.50q0.50 0.50 0.50 1.55l0 3.05l-0.94 0l0 -2.80q0 -0.61 -0.12 -0.91q-0.11 -0.30 -0.39 -0.48q-0.28 -0.19 -0.67 -0.19q-0.69 0 -1.14 0.46q-0.45 0.45 -0.45 1.45l0 2.47l-0.94 0l0 -2.89q0 -0.67 -0.25 -1.00q-0.25 -0.33 -0.81 -0.33q-0.43 0 -0.79 0.23q-0.36 0.22 -0.53 0.67q-0.17 0.44 -0.17 1.30l0 2.02l-0.94 0zm10.11 0l0 -4.81l0.84 0l0 0.73q0.33 -0.52 0.59 -0.69q0.28 -0.19 0.61 -0.19q0.48 0 0.98 0.31l-0.33 0.86q-0.35 -0.21 -0.69 -0.21q-0.31 0 -0.56 0.19q-0.24 0.19 -0.34 0.52q-0.16 0.50 -0.16 1.09l0 2.20l-0.94 0zm7.08 -1.55l0.97 0.13q-0.23 0.84 -0.86 1.31q-0.61 0.47 -1.58 0.47q-1.20 0 -1.92 -0.75q-0.70 -0.75 -0.70 -2.09q0 -1.39 0.72 -2.16q0.72 -0.78 1.86 -0.78q1.11 0 1.81 0.77q0.70 0.75 0.70 2.13q0 0.08 0 0.23l-4.13 0q0.05 0.92 0.52 1.41q0.47 0.48 1.16 0.48q0.52 0 0.88 -0.27q0.36 -0.28 0.58 -0.88zm-3.08 -1.52l3.09 0q-0.06 -0.69 -0.36 -1.05q-0.45 -0.53 -1.16 -0.53q-0.64 0 -1.09 0.44q-0.44 0.42 -0.48 1.14zm7.20 1.52l0.97 0.13q-0.23 0.84 -0.86 1.31q-0.61 0.47 -1.58 0.47q-1.20 0 -1.92 -0.75q-0.70 -0.75 -0.70 -2.09q0 -1.39 0.72 -2.16q0.72 -0.78 1.86 -0.78q1.11 0 1.81 0.77q0.70 0.75 0.70 2.13q0 0.08 0 0.23l-4.13 0q0.05 0.92 0.52 1.41q0.47 0.48 1.16 0.48q0.52 0 0.88 -0.27q0.36 -0.28 0.58 -0.88zm-3.08 -1.52l3.09 0q-0.06 -0.69 -0.36 -1.05q-0.45 -0.53 -1.16 -0.53q-0.64 0 -1.09 0.44q-0.44 0.42 -0.48 1.14zm-18.92 -1.89l0 -0.89l4.03 0l0 0.72q-0.58 0.89 -1.14 2.11q-0.41 0.89 -0.61 1.78q-0.14 0.65 -0.20 1.47l-0.83 0q-0.03 -0.58 -0.17 -1.30q-0.17 -0.89 -0.51 -1.72q-0.45 -1.11 -1.02 -1.89q-0.03 -0.05 -0.46 -0.56l4.03 0zm-0.78 -2.11l0 -0.94l0.83 0l0 0.94l-0.83 0zm0 5.69l0 -4.81l0.83 0l0 4.81l-0.83 0zm12.67 0l-0.83 0l-0.81 -2.11q-0.09 -0.25 -0.27 -0.80q-0.17 -0.53 -0.20 -0.64q-0.08 0.27 -0.16 0.52q-0.13 0.42 -0.34 1.03l-0.78 2.00l-0.84 0l1.42 -3.45l-1.33 -3.23l0.89 0l1.09 2.81l1.03 -2.81l0.86 0l-1.31 3.17l1.45 3.51zm3.53 0l0 -0.73q-0.58 0.81 -1.53 0.81q-0.44 0 -0.80 -0.16q-0.36 -0.17 -0.55 -0.41q-0.17 -0.25 -0.25 -0.61q-0.05 -0.23 -0.05 -0.77l0 -2.94l0.83 0l0 2.64q0 0.63 0.03 0.84q0.08 0.31 0.33 0.50q0.25 0.17 0.61 0.17q0.36 0 0.69 -0.17q0.33 -0.19 0.45 -0.51q0.14 -0.33 0.14 -0.94l0 -2.53l0.83 0l0 4.81l-0.72 0z" fill-rule="nonzero"/>

<!-- bar-svc (Service) box -->
<path fill="#1155cc" d="m455 122l120 0l0 50l-120 0z" fill-rule="evenodd"/>
<path stroke="#1155cc" stroke-width="1.0" stroke-linejoin="round" stroke-linecap="butt" d="m455 122l120 0l0 50l-120 0z" fill-rule="evenodd"/>
<path fill="#ffffff" d="m477 152.5l0 -4.81l0.84 0l0 0.73q0.30 -0.52 0.77 -0.77q0.48 -0.25 1.09 -0.25q0.68 0 1.11 0.29q0.44 0.28 0.62 0.79q0.73 -1.08 1.89 -1.08q0.91 0 1.40 0.50q0.50 0.50 0.50 1.55l0 3.05l-0.94 0l0 -2.80q0 -0.61 -0.12 -0.91q-0.11 -0.30 -0.39 -0.48q-0.28 -0.19 -0.67 -0.19q-0.69 0 -1.14 0.46q-0.45 0.45 -0.45 1.45l0 2.47l-0.94 0l0 -2.89q0 -0.67 -0.25 -1.00q-0.25 -0.33 -0.81 -0.33q-0.43 0 -0.79 0.23q-0.36 0.22 -0.53 0.67q-0.17 0.44 -0.17 1.30l0 2.02l-0.94 0zm10.11 0l0 -4.81l0.84 0l0 0.73q0.33 -0.52 0.59 -0.69q0.28 -0.19 0.61 -0.19q0.48 0 0.98 0.31l-0.33 0.86q-0.35 -0.21 -0.69 -0.21q-0.31 0 -0.56 0.19q-0.24 0.19 -0.34 0.52q-0.16 0.50 -0.16 1.09l0 2.20l-0.94 0zm7.08 -1.55l0.97 0.13q-0.23 0.84 -0.86 1.31q-0.61 0.47 -1.58 0.47q-1.20 0 -1.92 -0.75q-0.70 -0.75 -0.70 -2.09q0 -1.39 0.72 -2.16q0.72 -0.78 1.86 -0.78q1.11 0 1.81 0.77q0.70 0.75 0.70 2.13q0 0.08 0 0.23l-4.13 0q0.05 0.92 0.52 1.41q0.47 0.48 1.16 0.48q0.52 0 0.88 -0.27q0.36 -0.28 0.58 -0.88zm-3.08 -1.52l3.09 0q-0.06 -0.69 -0.36 -1.05q-0.45 -0.53 -1.16 -0.53q-0.64 0 -1.09 0.44q-0.44 0.42 -0.48 1.14zm7.20 1.52l0.97 0.13q-0.23 0.84 -0.86 1.31q-0.61 0.47 -1.58 0.47q-1.20 0 -1.92 -0.75q-0.70 -0.75 -0.70 -2.09q0 -1.39 0.72 -2.16q0.72 -0.78 1.86 -0.78q1.11 0 1.81 0.77q0.70 0.75 0.70 2.13q0 0.08 0 0.23l-4.13 0q0.05 0.92 0.52 1.41q0.47 0.48 1.16 0.48q0.52 0 0.88 -0.27q0.36 -0.28 0.58 -0.88zm-3.08 -1.52l3.09 0q-0.06 -0.69 -0.36 -1.05q-0.45 -0.53 -1.16 -0.53q-0.64 0 -1.09 0.44q-0.44 0.42 -0.48 1.14zm-18.92 -1.89l0 -0.89l4.03 0l0 0.72q-0.58 0.89 -1.14 2.11q-0.41 0.89 -0.61 1.78q-0.14 0.65 -0.20 1.47l-0.83 0q-0.03 -0.58 -0.17 -1.30q-0.17 -0.89 -0.51 -1.72q-0.45 -1.11 -1.02 -1.89q-0.03 -0.05 -0.46 -0.56l4.03 0zm-0.78 -2.11l0 -0.94l0.83 0l0 0.94l-0.83 0zm0 5.69l0 -4.81l0.83 0l0 4.81l-0.83 0zm12.67 0l-0.83 0l-0.81 -2.11q-0.09 -0.25 -0.27 -0.80q-0.17 -0.53 -0.20 -0.64q-0.08 0.27 -0.16 0.52q-0.13 0.42 -0.34 1.03l-0.78 2.00l-0.84 0l1.42 -3.45l-1.33 -3.23l0.89 0l1.09 2.81l1.03 -2.81l0.86 0l-1.31 3.17l1.45 3.51zm3.53 0l0 -0.73q-0.58 0.81 -1.53 0.81q-0.44 0 -0.80 -0.16q-0.36 -0.17 -0.55 -0.41q-0.17 -0.25 -0.25 -0.61q-0.05 -0.23 -0.05 -0.77l0 -2.94l0.83 0l0 2.64q0 0.63 0.03 0.84q0.08 0.31 0.33 0.50q0.25 0.17 0.61 0.17q0.36 0 0.69 -0.17q0.33 -0.19 0.45 -0.51q0.14 -0.33 0.14 -0.94l0 -2.53l0.83 0l0 4.81l-0.72 0z" fill-rule="nonzero"/>

<!-- TLS Passthrough label -->
<path fill="#d9d9d9" d="m365 55l60 0l0 20l-60 0z" fill-rule="evenodd"/>
<path stroke="#ffffff" stroke-width="1.0" stroke-linejoin="round" stroke-linecap="butt" d="m365 55l60 0l0 20l-60 0z" fill-rule="evenodd"/>
<path fill="#000000" d="m376 69.5l0 -6.62l3.06 0l0 0.78l-2.24 0l0 1.98l2.03 0l0 0.77l-2.03 0l0 2.13l2.34 0l0 0.78l-3.16 0zm4.42 0l0 -6.62l2.41 0q0.66 0 1.02 0.06q0.49 0.08 0.82 0.31q0.34 0.23 0.53 0.65q0.20 0.41 0.20 0.90q0 0.84 -0.54 1.44q-0.53 0.58 -1.95 0.58l-1.70 0l0 2.69l-0.87 0zm0.87 -3.48l1.71 0q0.86 0 1.21 -0.31q0.37 -0.33 0.37 -0.90q0 -0.42 -0.22 -0.71q-0.20 -0.30 -0.56 -0.39q-0.22 -0.07 -0.81 -0.07l-1.70 0l0 2.38zm6.88 1.44l0.85 -0.12q0.07 0.49 0.38 0.75q0.31 0.26 0.87 0.26q0.56 0 0.83 -0.23q0.27 -0.23 0.27 -0.54q0 -0.27 -0.24 -0.43q-0.16 -0.11 -0.83 -0.27q-0.90 -0.23 -1.25 -0.39q-0.34 -0.16 -0.52 -0.45q-0.18 -0.30 -0.18 -0.65q0 -0.31 0.15 -0.58q0.15 -0.29 0.39 -0.46q0.19 -0.14 0.52 -0.23q0.34 -0.11 0.71 -0.11q0.57 0 0.99 0.16q0.44 0.16 0.64 0.45q0.20 0.27 0.27 0.75l-0.79 0.11q-0.05 -0.38 -0.33 -0.58q-0.26 -0.20 -0.72 -0.20q-0.57 0 -0.82 0.19q-0.23 0.18 -0.23 0.42q0 0.16 0.10 0.29q0.11 0.14 0.31 0.22q0.12 0.05 0.72 0.22q0.87 0.23 1.21 0.38q0.34 0.14 0.53 0.42q0.20 0.27 0.20 0.69q0 0.41 -0.24 0.78q-0.23 0.35 -0.68 0.56q-0.45 0.19 -1.02 0.19q-0.94 0 -1.43 -0.38q-0.49 -0.39 -0.62 -1.17z" fill-rule="nonzero"/>

<!-- TLS Terminate label -->
<path fill="#d9d9d9" d="m365 135l60 0l0 20l-60 0z" fill-rule="evenodd"/>
<path stroke="#ffffff" stroke-width="1.0" stroke-linejoin="round" stroke-linecap="butt" d="m365 135l60 0l0 20l-60 0z" fill-rule="evenodd"/>
<path fill="#000000" d="m376 149.5l0 -6.62l2.66 0l0 0.78l-1.79 0l0 5.84l-0.87 0zm4.42 0l0 -6.62l3.06 0l0 0.78l-2.24 0l0 1.98l2.03 0l0 0.77l-2.03 0l0 2.13l2.34 0l0 0.78l-3.16 0zm3.69 0l0 -6.62l2.41 0q0.66 0 1.02 0.06q0.49 0.08 0.82 0.31q0.34 0.23 0.53 0.65q0.20 0.41 0.20 0.90q0 0.84 -0.54 1.44q-0.53 0.58 -1.95 0.58l-1.70 0l0 2.69l-0.87 0zm0.87 -3.48l1.71 0q0.86 0 1.21 -0.31q0.37 -0.33 0.37 -0.90q0 -0.42 -0.22 -0.71q-0.20 -0.30 -0.56 -0.39q-0.22 -0.07 -0.81 -0.07l-1.70 0l0 2.38z" fill-rule="nonzero"/>

<!-- TLS label (Client to Gateway) -->
<text x="135" y="75" fill="#000000" font-family="Helvetica" font-size="10px">TLS</text>
<text x="135" y="142" fill="#000000" font-family="Helvetica" font-size="10px">TLS</text>

<!-- Label for paths -->
<text x="110" y="45" fill="#000000" font-family="Helvetica" font-size="9px">foo.example.com</text>
<text x="110" y="150" fill="#000000" font-family="Helvetica" font-size="9px">bar.example.com</text>

</g>
</svg>
